<svg width="152" height="49" viewBox="0 0 152 49" fill="none" xmlns="http://www.w3.org/2000/svg">
<g opacity="0.4">
<rect y="33.4023" width="1.98824" height="1.98824" rx="0.994118" fill="#5A5A5A"/>
<rect y="36.9812" width="1.98824" height="1.98824" rx="0.994118" fill="#5A5A5A"/>
<rect x="3.9765" y="29.8235" width="1.98824" height="1.98824" rx="0.994118" fill="#5A5A5A"/>
<rect x="3.9765" y="33.4023" width="1.98824" height="1.98824" rx="0.994118" fill="#5A5A5A"/>
<rect x="3.9765" y="36.9812" width="1.98824" height="1.98824" rx="0.994118" fill="#5A5A5A"/>
<rect x="7.95294" y="19.0869" width="1.98824" height="1.98824" rx="0.994118" fill="#5A5A5A"/>
<rect x="7.95294" y="22.6658" width="1.98824" height="1.98824" rx="0.994118" fill="#5A5A5A"/>
<rect x="7.95294" y="26.2446" width="1.98824" height="1.98824" rx="0.994118" fill="#5A5A5A"/>
<rect x="7.95294" y="29.8235" width="1.98824" height="1.98824" rx="0.994118" fill="#5A5A5A"/>
<rect x="7.95294" y="33.4023" width="1.98824" height="1.98824" rx="0.994118" fill="#5A5A5A"/>
<rect x="7.95294" y="36.9812" width="1.98824" height="1.98824" rx="0.994118" fill="#5A5A5A"/>
<rect x="11.9294" y="11.9294" width="1.98824" height="1.98824" rx="0.994118" fill="#5A5A5A"/>
<rect x="11.9294" y="15.5083" width="1.98824" height="1.98824" rx="0.994118" fill="#5A5A5A"/>
<rect x="11.9294" y="19.0869" width="1.98824" height="1.98824" rx="0.994118" fill="#5A5A5A"/>
<rect x="11.9294" y="22.6658" width="1.98824" height="1.98824" rx="0.994118" fill="#5A5A5A"/>
<rect x="11.9294" y="26.2446" width="1.98824" height="1.98824" rx="0.994118" fill="#5A5A5A"/>
<rect x="11.9294" y="29.8235" width="1.98824" height="1.98824" rx="0.994118" fill="#5A5A5A"/>
<rect x="11.9294" y="33.4023" width="1.98824" height="1.98824" rx="0.994118" fill="#5A5A5A"/>
<rect x="11.9294" y="36.9812" width="1.98824" height="1.98824" rx="0.994118" fill="#5A5A5A"/>
<rect x="15.9059" y="26.2446" width="1.98824" height="1.98824" rx="0.994118" fill="#5A5A5A"/>
<rect x="15.9059" y="29.8235" width="1.98824" height="1.98824" rx="0.994118" fill="#5A5A5A"/>
<rect x="15.9059" y="33.4023" width="1.98824" height="1.98824" rx="0.994118" fill="#5A5A5A"/>
<rect x="15.9059" y="36.9812" width="1.98824" height="1.98824" rx="0.994118" fill="#5A5A5A"/>
<rect x="19.8824" y="26.2446" width="1.98824" height="1.98824" rx="0.994118" fill="#5A5A5A"/>
<rect x="19.8824" y="29.8235" width="1.98824" height="1.98824" rx="0.994118" fill="#5A5A5A"/>
<rect x="19.8824" y="33.4023" width="1.98824" height="1.98824" rx="0.994118" fill="#5A5A5A"/>
<rect x="19.8824" y="36.9812" width="1.98824" height="1.98824" rx="0.994118" fill="#5A5A5A"/>
<rect x="23.8588" y="19.0869" width="1.98824" height="1.98824" rx="0.994118" fill="#5A5A5A"/>
<rect x="23.8588" y="22.6658" width="1.98824" height="1.98824" rx="0.994118" fill="#5A5A5A"/>
<rect x="23.8588" y="26.2446" width="1.98824" height="1.98824" rx="0.994118" fill="#5A5A5A"/>
<rect x="23.8588" y="29.8235" width="1.98824" height="1.98824" rx="0.994118" fill="#5A5A5A"/>
<rect x="23.8588" y="33.4023" width="1.98824" height="1.98824" rx="0.994118" fill="#5A5A5A"/>
<rect x="23.8588" y="36.9812" width="1.98824" height="1.98824" rx="0.994118" fill="#5A5A5A"/>
<rect x="27.8353" y="15.5083" width="1.98824" height="1.98824" rx="0.994118" fill="#5A5A5A"/>
<rect x="27.8353" y="19.0869" width="1.98824" height="1.98824" rx="0.994118" fill="#5A5A5A"/>
<rect x="27.8353" y="22.6658" width="1.98824" height="1.98824" rx="0.994118" fill="#5A5A5A"/>
<rect x="27.8353" y="26.2446" width="1.98824" height="1.98824" rx="0.994118" fill="#5A5A5A"/>
<rect x="27.8353" y="29.8235" width="1.98824" height="1.98824" rx="0.994118" fill="#5A5A5A"/>
<rect x="27.8353" y="33.4023" width="1.98824" height="1.98824" rx="0.994118" fill="#5A5A5A"/>
<rect x="27.8353" y="36.9812" width="1.98824" height="1.98824" rx="0.994118" fill="#5A5A5A"/>
<rect x="31.8118" y="19.0869" width="1.98824" height="1.98824" rx="0.994118" fill="#5A5A5A"/>
<rect x="31.8118" y="22.6658" width="1.98824" height="1.98824" rx="0.994118" fill="#5A5A5A"/>
<rect x="31.8118" y="26.2446" width="1.98824" height="1.98824" rx="0.994118" fill="#5A5A5A"/>
<rect x="31.8118" y="29.8235" width="1.98824" height="1.98824" rx="0.994118" fill="#5A5A5A"/>
<rect x="31.8118" y="33.4023" width="1.98824" height="1.98824" rx="0.994118" fill="#5A5A5A"/>
<rect x="31.8118" y="36.9812" width="1.98824" height="1.98824" rx="0.994118" fill="#5A5A5A"/>
<rect x="35.7883" y="29.8235" width="1.98824" height="1.98824" rx="0.994118" fill="#5A5A5A"/>
<rect x="35.7883" y="33.4023" width="1.98824" height="1.98824" rx="0.994118" fill="#5A5A5A"/>
<rect x="35.7883" y="36.9812" width="1.98824" height="1.98824" rx="0.994118" fill="#5A5A5A"/>
<rect x="39.7647" y="33.4023" width="1.98824" height="1.98824" rx="0.994118" fill="#5A5A5A"/>
<rect x="39.7647" y="36.9812" width="1.98824" height="1.98824" rx="0.994118" fill="#5A5A5A"/>
<rect x="43.7411" y="29.8235" width="1.98824" height="1.98824" rx="0.994118" fill="#5A5A5A"/>
<rect x="43.7412" y="33.4023" width="1.98824" height="1.98824" rx="0.994118" fill="#5A5A5A"/>
<rect x="43.7412" y="36.9812" width="1.98824" height="1.98824" rx="0.994118" fill="#5A5A5A"/>
<rect x="47.7177" y="26.2446" width="1.98824" height="1.98824" rx="0.994118" fill="#5A5A5A"/>
<rect x="47.7177" y="29.8235" width="1.98824" height="1.98824" rx="0.994118" fill="#5A5A5A"/>
<rect x="47.7177" y="33.4023" width="1.98824" height="1.98824" rx="0.994118" fill="#5A5A5A"/>
<rect x="47.7177" y="36.9812" width="1.98824" height="1.98824" rx="0.994118" fill="#5A5A5A"/>
<rect x="51.6942" y="22.6658" width="1.98824" height="1.98824" rx="0.994118" fill="#5A5A5A"/>
<rect x="51.6942" y="26.2446" width="1.98824" height="1.98824" rx="0.994118" fill="#5A5A5A"/>
<rect x="51.6942" y="29.8235" width="1.98824" height="1.98824" rx="0.994118" fill="#5A5A5A"/>
<rect x="51.6942" y="33.4023" width="1.98824" height="1.98824" rx="0.994118" fill="#5A5A5A"/>
<rect x="51.6942" y="36.9812" width="1.98824" height="1.98824" rx="0.994118" fill="#5A5A5A"/>
<rect x="55.6706" y="26.2446" width="1.98824" height="1.98824" rx="0.994118" fill="#5A5A5A"/>
<rect x="55.6706" y="29.8235" width="1.98824" height="1.98824" rx="0.994118" fill="#5A5A5A"/>
<rect x="55.6706" y="33.4023" width="1.98824" height="1.98824" rx="0.994118" fill="#5A5A5A"/>
<rect x="55.6706" y="36.9812" width="1.98824" height="1.98824" rx="0.994118" fill="#5A5A5A"/>
<rect x="59.647" y="33.4023" width="1.98824" height="1.98824" rx="0.994118" fill="#5A5A5A"/>
<rect x="59.647" y="36.9812" width="1.98824" height="1.98824" rx="0.994118" fill="#5A5A5A"/>
<rect x="63.6235" y="33.4023" width="1.98824" height="1.98824" rx="0.994118" fill="#5A5A5A"/>
<rect x="63.6235" y="36.9812" width="1.98824" height="1.98824" rx="0.994118" fill="#5A5A5A"/>
<rect x="67.6" y="29.8235" width="1.98824" height="1.98824" rx="0.994118" fill="#5A5A5A"/>
<rect x="67.6" y="33.4023" width="1.98824" height="1.98824" rx="0.994118" fill="#5A5A5A"/>
<rect x="67.6" y="36.9812" width="1.98824" height="1.98824" rx="0.994118" fill="#5A5A5A"/>
<rect x="71.5765" y="29.8235" width="1.98824" height="1.98824" rx="0.994118" fill="#5A5A5A"/>
<rect x="71.5765" y="33.4023" width="1.98824" height="1.98824" rx="0.994118" fill="#5A5A5A"/>
<rect x="71.5765" y="36.9812" width="1.98824" height="1.98824" rx="0.994118" fill="#5A5A5A"/>
<path d="M0.239384 47.7412V43.8443H0.862894L1.67012 45.6035L2.47734 43.8443H3.10085V47.7412H2.53858V44.9688L1.90393 46.3606H1.4363L0.801656 44.9744V47.7412H0.239384ZM3.49394 47.7412L4.65745 43.8443H5.3589L6.52242 47.7412H5.88221L5.62055 46.8059H4.3958L4.13415 47.7412H3.49394ZM4.99148 44.6793L4.52941 46.3327H5.48695L5.02488 44.6793H4.99148ZM8.05118 47.7412V46.2604L6.76519 43.8443H7.43881L8.34624 45.6369L9.25367 43.8443H9.92728L8.64129 46.2604V47.7412H8.05118ZM14.8219 48.2255V47.7969C14.4471 47.7561 14.1446 47.6243 13.9145 47.4016C13.6881 47.1789 13.5731 46.8895 13.5694 46.5332H14.1873C14.1947 46.7113 14.2523 46.8672 14.3599 47.0008C14.4675 47.1307 14.6215 47.2161 14.8219 47.2569V45.9486C14.7997 45.9412 14.7737 45.9338 14.744 45.9263C14.3803 45.8224 14.1149 45.6795 13.9479 45.4977C13.7809 45.3158 13.6974 45.0894 13.6974 44.8185C13.6974 44.5364 13.7958 44.3026 13.9925 44.1171C14.1929 43.9278 14.4694 43.8183 14.8219 43.7886V43.3377H15.2116V43.783C15.5568 43.8164 15.8314 43.9315 16.0356 44.1282C16.2434 44.3212 16.351 44.5736 16.3585 44.8853H15.7349C15.7312 44.7665 15.6848 44.6533 15.5958 44.5457C15.5067 44.4381 15.3787 44.3657 15.2116 44.3286V45.4977C15.245 45.5051 15.2803 45.5144 15.3174 45.5255C15.5438 45.5849 15.7405 45.6628 15.9075 45.7593C16.0745 45.8521 16.2044 45.9727 16.2972 46.1212C16.39 46.2697 16.4364 46.4534 16.4364 46.6723C16.4364 46.8727 16.3863 47.0546 16.2861 47.2179C16.1896 47.3812 16.0504 47.5148 15.8686 47.6187C15.6867 47.7227 15.4677 47.7839 15.2116 47.8024V48.2255H14.8219ZM14.3098 44.7962C14.3098 44.9224 14.3506 45.0301 14.4323 45.1191C14.5139 45.2082 14.6438 45.2898 14.8219 45.3641V44.3175C14.6661 44.3434 14.5417 44.3991 14.449 44.4845C14.3562 44.5661 14.3098 44.6701 14.3098 44.7962ZM15.8129 46.7113C15.8129 46.5554 15.7646 46.4292 15.6681 46.3327C15.5754 46.2362 15.4232 46.149 15.2116 46.0711V47.268C15.4083 47.2457 15.5568 47.1845 15.657 47.0843C15.7609 46.9841 15.8129 46.8598 15.8129 46.7113ZM18.3883 47.808C18.1322 47.808 17.9002 47.7598 17.6924 47.6633C17.4845 47.5668 17.3194 47.4257 17.1969 47.2402C17.0744 47.0509 17.0076 46.8226 16.9965 46.5554H17.5866C17.5977 46.7596 17.672 46.9284 17.8093 47.062C17.9503 47.1956 18.1433 47.2624 18.3883 47.2624C18.6295 47.2624 18.8188 47.2031 18.9561 47.0843C19.0934 46.9655 19.1621 46.8022 19.1621 46.5944C19.1621 46.3643 19.0786 46.1954 18.9116 46.0878C18.7445 45.9802 18.5404 45.9263 18.2992 45.9263H17.954V45.403H18.2491C18.4681 45.403 18.6481 45.3585 18.7891 45.2694C18.9301 45.1804 19.0006 45.0412 19.0006 44.8519C19.0006 44.6886 18.9468 44.5606 18.8392 44.4678C18.7316 44.3713 18.5794 44.323 18.3827 44.323C18.1823 44.323 18.0227 44.3769 17.9039 44.4845C17.7852 44.5921 17.7184 44.7294 17.7035 44.8964H17.119C17.1301 44.6738 17.1895 44.4789 17.2971 44.3119C17.4047 44.1449 17.5513 44.015 17.7369 43.9222C17.9225 43.8257 18.1377 43.7775 18.3827 43.7775C18.6499 43.7775 18.8726 43.8239 19.0507 43.9166C19.2289 44.0057 19.3625 44.1263 19.4516 44.2785C19.5406 44.4307 19.5852 44.6014 19.5852 44.7907C19.5852 44.9837 19.5276 45.1507 19.4126 45.2917C19.3013 45.429 19.1658 45.5292 19.0062 45.5923V45.6257C19.2215 45.6851 19.3978 45.7965 19.5351 45.9598C19.6761 46.1193 19.7466 46.3346 19.7466 46.6055C19.7466 46.8245 19.6928 47.0268 19.5852 47.2123C19.4813 47.3942 19.3272 47.5389 19.1231 47.6466C18.9227 47.7542 18.6777 47.808 18.3883 47.808ZM20.83 48.4371L21.3645 46.8783H22.1383L21.409 48.4371H20.83ZM23.7561 47.7412V47.2736C24.1384 46.9692 24.4724 46.689 24.7582 46.433C25.0477 46.1769 25.2741 45.9301 25.4374 45.6925C25.6007 45.455 25.6823 45.2138 25.6823 44.9688C25.6823 44.7647 25.6248 44.6051 25.5097 44.49C25.3947 44.3713 25.2388 44.3119 25.0421 44.3119C24.8157 44.3119 24.6413 44.3843 24.5188 44.529C24.3963 44.6701 24.3351 44.8389 24.3351 45.0356H23.7617C23.7654 44.761 23.8229 44.5309 23.9343 44.3453C24.0456 44.1597 24.1959 44.0187 24.3852 43.9222C24.5782 43.8257 24.7972 43.7775 25.0421 43.7775C25.4392 43.7775 25.7454 43.8851 25.9607 44.1004C26.1759 44.3119 26.2836 44.5958 26.2836 44.9521C26.2836 45.1785 26.2335 45.3975 26.1333 45.609C26.0368 45.8169 25.9087 46.0154 25.7491 46.2047C25.5895 46.394 25.4114 46.574 25.2147 46.7447C25.0217 46.9154 24.8268 47.0787 24.6301 47.2346H26.3893V47.7412H23.7561ZM28.4024 47.808C28.1464 47.808 27.9144 47.7598 27.7066 47.6633C27.4987 47.5668 27.3336 47.4257 27.2111 47.2402C27.0886 47.0509 27.0218 46.8226 27.0107 46.5554H27.6008C27.6119 46.7596 27.6861 46.9284 27.8235 47.062C27.9645 47.1956 28.1575 47.2624 28.4024 47.2624C28.6437 47.2624 28.833 47.2031 28.9703 47.0843C29.1076 46.9655 29.1763 46.8022 29.1763 46.5944C29.1763 46.3643 29.0928 46.1954 28.9257 46.0878C28.7587 45.9802 28.5546 45.9263 28.3134 45.9263H27.9682V45.403H28.2633C28.4822 45.403 28.6622 45.3585 28.8033 45.2694C28.9443 45.1804 29.0148 45.0412 29.0148 44.8519C29.0148 44.6886 28.961 44.5606 28.8534 44.4678C28.7457 44.3713 28.5936 44.323 28.3969 44.323C28.1965 44.323 28.0369 44.3769 27.9181 44.4845C27.7993 44.5921 27.7325 44.7294 27.7177 44.8964H27.1331C27.1443 44.6738 27.2037 44.4789 27.3113 44.3119C27.4189 44.1449 27.5655 44.015 27.7511 43.9222C27.9367 43.8257 28.1519 43.7775 28.3969 43.7775C28.6641 43.7775 28.8868 43.8239 29.0649 43.9166C29.2431 44.0057 29.3767 44.1263 29.4657 44.2785C29.5548 44.4307 29.5994 44.6014 29.5994 44.7907C29.5994 44.9837 29.5418 45.1507 29.4268 45.2917C29.3154 45.429 29.18 45.5292 29.0204 45.5923V45.6257C29.2356 45.6851 29.4119 45.7965 29.5493 45.9598C29.6903 46.1193 29.7608 46.3346 29.7608 46.6055C29.7608 46.8245 29.707 47.0268 29.5994 47.2123C29.4954 47.3942 29.3414 47.5389 29.1373 47.6466C28.9369 47.7542 28.6919 47.808 28.4024 47.808ZM32.1413 47.7412V46.9006H30.2931V46.4385L32.0356 43.8443H32.7314V46.3661H33.238V46.9006H32.7314V47.7412H32.1413ZM30.95 46.3661H32.1747V44.5067L30.95 46.3661Z" fill="#5A5A5A"/>
</g>
<rect x="77.1436" y="32.2095" width="1.98824" height="1.98824" rx="0.994118" fill="#5A5A5A"/>
<rect x="77.1436" y="35.7881" width="1.98824" height="1.98824" rx="0.994118" fill="#5A5A5A"/>
<rect x="81.12" y="25.0518" width="1.98824" height="1.98824" rx="0.994118" fill="#5A5A5A"/>
<rect x="81.12" y="28.6306" width="1.98824" height="1.98824" rx="0.994118" fill="#5A5A5A"/>
<rect x="81.12" y="32.2095" width="1.98824" height="1.98824" rx="0.994118" fill="#5A5A5A"/>
<rect x="81.12" y="35.7881" width="1.98824" height="1.98824" rx="0.994118" fill="#5A5A5A"/>
<rect x="85.0965" y="3.57886" width="1.98824" height="1.98824" rx="0.994118" fill="#5A5A5A"/>
<rect x="85.0965" y="7.15771" width="1.98824" height="1.98824" rx="0.994118" fill="#5A5A5A"/>
<rect x="85.0965" y="10.7363" width="1.98824" height="1.98824" rx="0.994118" fill="#5A5A5A"/>
<rect x="85.0965" y="14.3152" width="1.98824" height="1.98824" rx="0.994118" fill="#5A5A5A"/>
<rect x="85.0965" y="17.894" width="1.98824" height="1.98824" rx="0.994118" fill="#5A5A5A"/>
<rect x="85.0965" y="21.4729" width="1.98824" height="1.98824" rx="0.994118" fill="#5A5A5A"/>
<rect x="85.0965" y="25.0518" width="1.98824" height="1.98824" rx="0.994118" fill="#5A5A5A"/>
<rect x="85.0965" y="28.6306" width="1.98824" height="1.98824" rx="0.994118" fill="#5A5A5A"/>
<rect x="85.0965" y="32.2095" width="1.98824" height="1.98824" rx="0.994118" fill="#5A5A5A"/>
<rect x="85.0965" y="35.7881" width="1.98824" height="1.98824" rx="0.994118" fill="#5A5A5A"/>
<rect x="89.0729" width="1.98824" height="1.98824" rx="0.994118" fill="#5A5A5A"/>
<rect x="89.0729" y="3.57886" width="1.98824" height="1.98824" rx="0.994118" fill="#5A5A5A"/>
<rect x="89.0729" y="7.15771" width="1.98824" height="1.98824" rx="0.994118" fill="#5A5A5A"/>
<rect x="89.0729" y="10.7363" width="1.98824" height="1.98824" rx="0.994118" fill="#5A5A5A"/>
<rect x="89.0729" y="14.3152" width="1.98824" height="1.98824" rx="0.994118" fill="#5A5A5A"/>
<rect x="89.0729" y="17.894" width="1.98824" height="1.98824" rx="0.994118" fill="#5A5A5A"/>
<rect x="89.0729" y="21.4729" width="1.98824" height="1.98824" rx="0.994118" fill="#5A5A5A"/>
<rect x="89.0729" y="25.0518" width="1.98824" height="1.98824" rx="0.994118" fill="#5A5A5A"/>
<rect x="89.0729" y="28.6306" width="1.98824" height="1.98824" rx="0.994118" fill="#5A5A5A"/>
<rect x="89.0729" y="32.2095" width="1.98824" height="1.98824" rx="0.994118" fill="#5A5A5A"/>
<rect x="89.0729" y="35.7881" width="1.98824" height="1.98824" rx="0.994118" fill="#5A5A5A"/>
<rect x="93.0494" y="17.894" width="1.98824" height="1.98824" rx="0.994118" fill="#5A5A5A"/>
<rect x="93.0494" y="21.4729" width="1.98824" height="1.98824" rx="0.994118" fill="#5A5A5A"/>
<rect x="93.0494" y="25.0518" width="1.98824" height="1.98824" rx="0.994118" fill="#5A5A5A"/>
<rect x="93.0494" y="28.6306" width="1.98824" height="1.98824" rx="0.994118" fill="#5A5A5A"/>
<rect x="93.0494" y="32.2095" width="1.98824" height="1.98824" rx="0.994118" fill="#5A5A5A"/>
<rect x="93.0494" y="35.7881" width="1.98824" height="1.98824" rx="0.994118" fill="#5A5A5A"/>
<rect x="97.0259" y="21.4729" width="1.98824" height="1.98824" rx="0.994118" fill="#5A5A5A"/>
<rect x="97.0259" y="25.0518" width="1.98824" height="1.98824" rx="0.994118" fill="#5A5A5A"/>
<rect x="97.0259" y="28.6306" width="1.98824" height="1.98824" rx="0.994118" fill="#5A5A5A"/>
<rect x="97.0259" y="32.2095" width="1.98824" height="1.98824" rx="0.994118" fill="#5A5A5A"/>
<rect x="97.0259" y="35.7881" width="1.98824" height="1.98824" rx="0.994118" fill="#5A5A5A"/>
<rect x="101.002" y="14.3152" width="1.98824" height="1.98824" rx="0.994118" fill="#5A5A5A"/>
<rect x="101.002" y="17.894" width="1.98824" height="1.98824" rx="0.994118" fill="#5A5A5A"/>
<rect x="101.002" y="21.4729" width="1.98824" height="1.98824" rx="0.994118" fill="#5A5A5A"/>
<rect x="101.002" y="25.0518" width="1.98824" height="1.98824" rx="0.994118" fill="#5A5A5A"/>
<rect x="101.002" y="28.6306" width="1.98824" height="1.98824" rx="0.994118" fill="#5A5A5A"/>
<rect x="101.002" y="32.2095" width="1.98824" height="1.98824" rx="0.994118" fill="#5A5A5A"/>
<rect x="101.002" y="35.7881" width="1.98824" height="1.98824" rx="0.994118" fill="#5A5A5A"/>
<rect x="104.979" y="10.7363" width="1.98824" height="1.98824" rx="0.994118" fill="#5A5A5A"/>
<rect x="104.979" y="14.3152" width="1.98824" height="1.98824" rx="0.994118" fill="#5A5A5A"/>
<rect x="104.979" y="17.894" width="1.98824" height="1.98824" rx="0.994118" fill="#5A5A5A"/>
<rect x="104.979" y="21.4729" width="1.98824" height="1.98824" rx="0.994118" fill="#5A5A5A"/>
<rect x="104.979" y="25.0518" width="1.98824" height="1.98824" rx="0.994118" fill="#5A5A5A"/>
<rect x="104.979" y="28.6306" width="1.98824" height="1.98824" rx="0.994118" fill="#5A5A5A"/>
<rect x="104.979" y="32.2095" width="1.98824" height="1.98824" rx="0.994118" fill="#5A5A5A"/>
<rect x="104.979" y="35.7881" width="1.98824" height="1.98824" rx="0.994118" fill="#5A5A5A"/>
<rect x="108.955" y="14.3152" width="1.98824" height="1.98824" rx="0.994118" fill="#5A5A5A"/>
<rect x="108.955" y="17.894" width="1.98824" height="1.98824" rx="0.994118" fill="#5A5A5A"/>
<rect x="108.955" y="21.4729" width="1.98824" height="1.98824" rx="0.994118" fill="#5A5A5A"/>
<rect x="108.955" y="25.0518" width="1.98824" height="1.98824" rx="0.994118" fill="#5A5A5A"/>
<rect x="108.955" y="28.6306" width="1.98824" height="1.98824" rx="0.994118" fill="#5A5A5A"/>
<rect x="108.955" y="32.2095" width="1.98824" height="1.98824" rx="0.994118" fill="#5A5A5A"/>
<rect x="108.955" y="35.7881" width="1.98824" height="1.98824" rx="0.994118" fill="#5A5A5A"/>
<rect x="112.932" y="25.0518" width="1.98824" height="1.98824" rx="0.994118" fill="#5A5A5A"/>
<rect x="112.932" y="28.6306" width="1.98824" height="1.98824" rx="0.994118" fill="#5A5A5A"/>
<rect x="112.932" y="32.2095" width="1.98824" height="1.98824" rx="0.994118" fill="#5A5A5A"/>
<rect x="112.932" y="35.7881" width="1.98824" height="1.98824" rx="0.994118" fill="#5A5A5A"/>
<rect x="116.908" y="25.0518" width="1.98824" height="1.98824" rx="0.994118" fill="#5A5A5A"/>
<rect x="116.908" y="28.6306" width="1.98824" height="1.98824" rx="0.994118" fill="#5A5A5A"/>
<rect x="116.908" y="32.2095" width="1.98824" height="1.98824" rx="0.994118" fill="#5A5A5A"/>
<rect x="116.908" y="35.7881" width="1.98824" height="1.98824" rx="0.994118" fill="#5A5A5A"/>
<rect x="120.885" y="17.894" width="1.98824" height="1.98824" rx="0.994118" fill="#5A5A5A"/>
<rect x="120.885" y="21.4729" width="1.98824" height="1.98824" rx="0.994118" fill="#5A5A5A"/>
<rect x="120.885" y="25.0518" width="1.98824" height="1.98824" rx="0.994118" fill="#5A5A5A"/>
<rect x="120.885" y="28.6306" width="1.98824" height="1.98824" rx="0.994118" fill="#5A5A5A"/>
<rect x="120.885" y="32.2095" width="1.98824" height="1.98824" rx="0.994118" fill="#5A5A5A"/>
<rect x="120.885" y="35.7881" width="1.98824" height="1.98824" rx="0.994118" fill="#5A5A5A"/>
<rect x="124.861" y="25.0518" width="1.98824" height="1.98824" rx="0.994118" fill="#5A5A5A"/>
<rect x="124.861" y="28.6306" width="1.98824" height="1.98824" rx="0.994118" fill="#5A5A5A"/>
<rect x="124.861" y="32.2095" width="1.98824" height="1.98824" rx="0.994118" fill="#5A5A5A"/>
<rect x="124.861" y="35.7881" width="1.98824" height="1.98824" rx="0.994118" fill="#5A5A5A"/>
<rect x="128.838" y="21.4729" width="1.98824" height="1.98824" rx="0.994118" fill="#5A5A5A"/>
<rect x="128.838" y="25.0518" width="1.98824" height="1.98824" rx="0.994118" fill="#5A5A5A"/>
<rect x="128.838" y="28.6306" width="1.98824" height="1.98824" rx="0.994118" fill="#5A5A5A"/>
<rect x="128.838" y="32.2095" width="1.98824" height="1.98824" rx="0.994118" fill="#5A5A5A"/>
<rect x="128.838" y="35.7881" width="1.98824" height="1.98824" rx="0.994118" fill="#5A5A5A"/>
<rect x="132.814" y="25.0518" width="1.98824" height="1.98824" rx="0.994118" fill="#5A5A5A"/>
<rect x="132.814" y="28.6306" width="1.98824" height="1.98824" rx="0.994118" fill="#5A5A5A"/>
<rect x="132.814" y="32.2095" width="1.98824" height="1.98824" rx="0.994118" fill="#5A5A5A"/>
<rect x="132.814" y="35.7881" width="1.98824" height="1.98824" rx="0.994118" fill="#5A5A5A"/>
<rect x="136.791" y="14.3152" width="1.98824" height="1.98824" rx="0.994118" fill="#5A5A5A"/>
<rect x="136.791" y="17.894" width="1.98824" height="1.98824" rx="0.994118" fill="#5A5A5A"/>
<rect x="136.791" y="21.4729" width="1.98824" height="1.98824" rx="0.994118" fill="#5A5A5A"/>
<rect x="136.791" y="25.0518" width="1.98824" height="1.98824" rx="0.994118" fill="#5A5A5A"/>
<rect x="136.791" y="28.6306" width="1.98824" height="1.98824" rx="0.994118" fill="#5A5A5A"/>
<rect x="136.791" y="32.2095" width="1.98824" height="1.98824" rx="0.994118" fill="#5A5A5A"/>
<rect x="136.791" y="35.7881" width="1.98824" height="1.98824" rx="0.994118" fill="#5A5A5A"/>
<rect x="140.767" y="32.2095" width="1.98824" height="1.98824" rx="0.994118" fill="#5A5A5A"/>
<rect x="140.767" y="35.7881" width="1.98824" height="1.98824" rx="0.994118" fill="#5A5A5A"/>
<rect x="144.744" y="21.4729" width="1.98824" height="1.98824" rx="0.994118" fill="#5A5A5A"/>
<rect x="144.744" y="25.0518" width="1.98824" height="1.98824" rx="0.994118" fill="#5A5A5A"/>
<rect x="144.744" y="28.6306" width="1.98824" height="1.98824" rx="0.994118" fill="#5A5A5A"/>
<rect x="144.744" y="32.2095" width="1.98824" height="1.98824" rx="0.994118" fill="#5A5A5A"/>
<rect x="144.744" y="35.7881" width="1.98824" height="1.98824" rx="0.994118" fill="#5A5A5A"/>
<rect x="148.72" y="25.0518" width="1.98824" height="1.98824" rx="0.994118" fill="#5A5A5A"/>
<rect x="148.72" y="28.6306" width="1.98824" height="1.98824" rx="0.994118" fill="#5A5A5A"/>
<rect x="148.72" y="32.2095" width="1.98824" height="1.98824" rx="0.994118" fill="#5A5A5A"/>
<rect x="148.72" y="35.7881" width="1.98824" height="1.98824" rx="0.994118" fill="#5A5A5A"/>
<path d="M78.8638 47.808C78.4629 47.808 78.1549 47.6967 77.9396 47.474C77.7244 47.2476 77.6168 46.9377 77.6168 46.5443H78.2124C78.2161 46.7484 78.2681 46.921 78.3683 47.062C78.4685 47.2031 78.6318 47.2736 78.8582 47.2736C79.0772 47.2736 79.2331 47.2049 79.3258 47.0676C79.4223 46.9303 79.4706 46.7596 79.4706 46.5554V43.8443H80.0607V46.5554C80.0607 46.9563 79.9549 47.2662 79.7434 47.4851C79.5318 47.7004 79.2386 47.808 78.8638 47.808ZM82.1406 47.808C81.8771 47.808 81.6414 47.7542 81.4336 47.6466C81.2295 47.5389 81.068 47.3756 80.9492 47.1567C80.8305 46.934 80.7711 46.6538 80.7711 46.316V43.8443H81.3612V46.3494C81.3612 46.6464 81.4317 46.8765 81.5728 47.0398C81.7138 47.1994 81.9068 47.2791 82.1517 47.2791C82.3967 47.2791 82.5897 47.1994 82.7307 47.0398C82.8717 46.8765 82.9423 46.6464 82.9423 46.3494V43.8443H83.5324V46.316C83.5324 46.6538 83.4711 46.934 83.3487 47.1567C83.2262 47.3756 83.0592 47.5389 82.8476 47.6466C82.6398 47.7542 82.4041 47.808 82.1406 47.808ZM84.1036 47.7412V43.8443H84.6826L86.3137 46.7002V43.8443H86.876V47.7412H86.297L84.6659 44.8853V47.7412H84.1036ZM87.6031 47.7412V43.8443H90.0916V44.3731H88.1932V45.5088H89.9246V46.0321H88.1932V47.2123H90.0916V47.7412H87.6031ZM95.3036 48.2255V47.7969C94.9287 47.7561 94.6262 47.6243 94.3961 47.4016C94.1697 47.1789 94.0547 46.8895 94.051 46.5332H94.6689C94.6763 46.7113 94.7339 46.8672 94.8415 47.0008C94.9491 47.1307 95.1031 47.2161 95.3036 47.2569V45.9486C95.2813 45.9412 95.2553 45.9338 95.2256 45.9263C94.8619 45.8224 94.5965 45.6795 94.4295 45.4977C94.2625 45.3158 94.179 45.0894 94.179 44.8185C94.179 44.5364 94.2774 44.3026 94.4741 44.1171C94.6745 43.9278 94.951 43.8183 95.3036 43.7886V43.3377H95.6933V43.783C96.0384 43.8164 96.3131 43.9315 96.5172 44.1282C96.725 44.3212 96.8326 44.5736 96.8401 44.8853H96.2166C96.2128 44.7665 96.1665 44.6533 96.0774 44.5457C95.9883 44.4381 95.8603 44.3657 95.6933 44.3286V45.4977C95.7267 45.5051 95.7619 45.5144 95.799 45.5255C96.0254 45.5849 96.2221 45.6628 96.3891 45.7593C96.5562 45.8521 96.686 45.9727 96.7788 46.1212C96.8716 46.2697 96.918 46.4534 96.918 46.6723C96.918 46.8727 96.8679 47.0546 96.7677 47.2179C96.6712 47.3812 96.532 47.5148 96.3502 47.6187C96.1683 47.7227 95.9493 47.7839 95.6933 47.8024V48.2255H95.3036ZM94.7914 44.7962C94.7914 44.9224 94.8322 45.0301 94.9139 45.1191C94.9955 45.2082 95.1254 45.2898 95.3036 45.3641V44.3175C95.1477 44.3434 95.0234 44.3991 94.9306 44.4845C94.8378 44.5661 94.7914 44.6701 94.7914 44.7962ZM96.2945 46.7113C96.2945 46.5554 96.2463 46.4292 96.1498 46.3327C96.057 46.2362 95.9048 46.149 95.6933 46.0711V47.268C95.89 47.2457 96.0384 47.1845 96.1386 47.0843C96.2425 46.9841 96.2945 46.8598 96.2945 46.7113ZM97.5393 47.7412V47.2123H98.5024V44.5402L97.5839 44.7072V44.2284L98.7307 43.8443H99.0926V47.2123H100.128V47.7412H97.5393ZM102.609 47.7412V46.9006H100.76V46.4385L102.503 43.8443H103.199V46.3661H103.705V46.9006H103.199V47.7412H102.609ZM101.417 46.3661H102.642V44.5067L101.417 46.3661ZM104.65 48.4371L105.184 46.8783H105.958L105.229 48.4371H104.65ZM107.576 47.7412V47.2736C107.958 46.9692 108.292 46.689 108.578 46.433C108.867 46.1769 109.094 45.9301 109.257 45.6925C109.42 45.455 109.502 45.2138 109.502 44.9688C109.502 44.7647 109.444 44.6051 109.329 44.49C109.214 44.3713 109.058 44.3119 108.862 44.3119C108.635 44.3119 108.461 44.3843 108.338 44.529C108.216 44.6701 108.155 44.8389 108.155 45.0356H107.581C107.585 44.761 107.643 44.5309 107.754 44.3453C107.865 44.1597 108.016 44.0187 108.205 43.9222C108.398 43.8257 108.617 43.7775 108.862 43.7775C109.259 43.7775 109.565 43.8851 109.78 44.1004C109.996 44.3119 110.103 44.5958 110.103 44.9521C110.103 45.1785 110.053 45.3975 109.953 45.609C109.856 45.8169 109.728 46.0154 109.569 46.2047C109.409 46.394 109.231 46.574 109.034 46.7447C108.841 46.9154 108.647 47.0787 108.45 47.2346H110.209V47.7412H107.576ZM112.122 47.808C111.877 47.808 111.662 47.7598 111.476 47.6633C111.291 47.5668 111.142 47.4369 111.031 47.2736C110.919 47.1066 110.853 46.9191 110.83 46.7113H111.398C111.435 46.8857 111.517 47.0231 111.643 47.1233C111.769 47.2235 111.929 47.2736 112.122 47.2736C112.393 47.2736 112.612 47.1567 112.779 46.9229C112.946 46.6853 113.042 46.316 113.068 45.815H113.029C112.937 45.9709 112.818 46.0989 112.673 46.1991C112.528 46.2993 112.322 46.3494 112.055 46.3494C111.832 46.3494 111.628 46.2975 111.443 46.1936C111.257 46.0859 111.109 45.9375 110.997 45.7482C110.886 45.5589 110.83 45.34 110.83 45.0913C110.83 44.8538 110.884 44.6366 110.992 44.4399C111.099 44.2395 111.25 44.0799 111.443 43.9612C111.639 43.8387 111.871 43.7775 112.139 43.7775C112.48 43.7775 112.76 43.8554 112.979 44.0113C113.198 44.1634 113.36 44.3806 113.464 44.6626C113.571 44.941 113.625 45.2713 113.625 45.6536C113.625 46.0841 113.566 46.4608 113.447 46.7837C113.332 47.1066 113.161 47.3589 112.935 47.5408C112.712 47.7189 112.441 47.808 112.122 47.808ZM112.178 45.8206C112.408 45.8206 112.591 45.7501 112.729 45.609C112.87 45.4643 112.94 45.2843 112.94 45.069C112.94 44.8501 112.87 44.6701 112.729 44.529C112.591 44.3843 112.408 44.3119 112.178 44.3119C111.947 44.3119 111.762 44.3824 111.621 44.5235C111.484 44.6645 111.415 44.8445 111.415 45.0635C111.415 45.2824 111.484 45.4643 111.621 45.609C111.762 45.7501 111.947 45.8206 112.178 45.8206ZM115.961 47.7412V46.9006H114.113V46.4385L115.855 43.8443H116.551V46.3661H117.058V46.9006H116.551V47.7412H115.961ZM114.77 46.3661H115.994V44.5067L114.77 46.3661Z" fill="#5A5A5A"/>
</svg>
