<svg width="556" height="553" viewBox="0 0 556 553" fill="none" xmlns="http://www.w3.org/2000/svg">
<g clip-path="url(#clip0_685_4177)">
<rect width="556" height="553" fill="white"/>
<g filter="url(#filter0_d_685_4177)">
<rect x="101" y="203" width="355" height="146" rx="16" fill="white"/>
<rect x="100" y="202" width="357" height="148" rx="17" stroke="#F5F5F5" stroke-width="2"/>
</g>
<path d="M101 219C101 210.163 108.163 203 117 203H440C448.837 203 456 210.163 456 219V249.537H101V219Z" fill="#EEF1F3" fill-opacity="0.26"/>
<rect x="117.183" y="216.689" width="19.1595" height="19.1595" rx="9.57974" fill="#F9FAFB"/>
<rect x="117.183" y="216.689" width="19.1595" height="19.1595" rx="9.57974" stroke="#F3F4F6" stroke-width="0.366379"/>
<path fill-rule="evenodd" clip-rule="evenodd" d="M126.643 227.642H126.011L125.425 229.394H124.567L125.152 227.642H124.242L124.379 226.861H125.408L125.788 225.732H124.883L125.024 224.951H126.049L126.643 223.173H127.498L126.904 224.951H127.54L128.134 223.173H128.993L128.399 224.951H129.343L129.207 225.732H128.143L127.763 226.86H128.698L128.562 227.642H127.502L126.921 229.394H126.062L126.643 227.642ZM126.267 226.861H126.9L127.284 225.732H126.647L126.267 226.861Z" fill="#6F6F6F"/>
<path d="M152.173 224.353C151.613 224.353 151.109 224.257 150.661 224.065C150.213 223.865 149.861 223.585 149.605 223.225C149.349 222.865 149.221 222.445 149.221 221.965H150.685C150.717 222.325 150.857 222.621 151.105 222.853C151.361 223.085 151.717 223.201 152.173 223.201C152.645 223.201 153.013 223.089 153.277 222.865C153.541 222.633 153.673 222.337 153.673 221.977C153.673 221.697 153.589 221.469 153.421 221.293C153.261 221.117 153.057 220.981 152.809 220.885C152.569 220.789 152.233 220.685 151.801 220.573C151.257 220.429 150.813 220.285 150.469 220.141C150.133 219.989 149.845 219.757 149.605 219.445C149.365 219.133 149.245 218.717 149.245 218.197C149.245 217.717 149.365 217.297 149.605 216.937C149.845 216.577 150.181 216.301 150.613 216.109C151.045 215.917 151.545 215.821 152.113 215.821C152.921 215.821 153.581 216.025 154.093 216.433C154.613 216.833 154.901 217.385 154.957 218.089H153.445C153.421 217.785 153.277 217.525 153.013 217.309C152.749 217.093 152.401 216.985 151.969 216.985C151.577 216.985 151.257 217.085 151.009 217.285C150.761 217.485 150.637 217.773 150.637 218.149C150.637 218.405 150.713 218.617 150.865 218.785C151.025 218.945 151.225 219.073 151.465 219.169C151.705 219.265 152.033 219.369 152.449 219.481C153.001 219.633 153.449 219.785 153.793 219.937C154.145 220.089 154.441 220.325 154.681 220.645C154.929 220.957 155.053 221.377 155.053 221.905C155.053 222.329 154.937 222.729 154.705 223.105C154.481 223.481 154.149 223.785 153.709 224.017C153.277 224.241 152.765 224.353 152.173 224.353ZM162.728 220.801C162.728 221.049 162.712 221.273 162.68 221.473H157.628C157.668 222.001 157.864 222.425 158.216 222.745C158.568 223.065 159 223.225 159.512 223.225C160.248 223.225 160.768 222.917 161.072 222.301H162.548C162.348 222.909 161.984 223.409 161.456 223.801C160.936 224.185 160.288 224.377 159.512 224.377C158.88 224.377 158.312 224.237 157.808 223.957C157.312 223.669 156.92 223.269 156.632 222.757C156.352 222.237 156.212 221.637 156.212 220.957C156.212 220.277 156.348 219.681 156.62 219.169C156.9 218.649 157.288 218.249 157.784 217.969C158.288 217.689 158.864 217.549 159.512 217.549C160.136 217.549 160.692 217.685 161.18 217.957C161.668 218.229 162.048 218.613 162.32 219.109C162.592 219.597 162.728 220.161 162.728 220.801ZM161.3 220.369C161.292 219.865 161.112 219.461 160.76 219.157C160.408 218.853 159.972 218.701 159.452 218.701C158.98 218.701 158.576 218.853 158.24 219.157C157.904 219.453 157.704 219.857 157.64 220.369H161.3ZM165.442 215.389V224.269H164.074V215.389H165.442ZM173.298 220.801C173.298 221.049 173.282 221.273 173.25 221.473H168.198C168.238 222.001 168.434 222.425 168.786 222.745C169.138 223.065 169.57 223.225 170.082 223.225C170.818 223.225 171.338 222.917 171.642 222.301H173.118C172.918 222.909 172.554 223.409 172.026 223.801C171.506 224.185 170.858 224.377 170.082 224.377C169.45 224.377 168.882 224.237 168.378 223.957C167.882 223.669 167.49 223.269 167.202 222.757C166.922 222.237 166.782 221.637 166.782 220.957C166.782 220.277 166.918 219.681 167.19 219.169C167.47 218.649 167.858 218.249 168.354 217.969C168.858 217.689 169.434 217.549 170.082 217.549C170.706 217.549 171.262 217.685 171.75 217.957C172.238 218.229 172.618 218.613 172.89 219.109C173.162 219.597 173.298 220.161 173.298 220.801ZM171.87 220.369C171.862 219.865 171.682 219.461 171.33 219.157C170.978 218.853 170.542 218.701 170.022 218.701C169.55 218.701 169.146 218.853 168.81 219.157C168.474 219.453 168.274 219.857 168.21 220.369H171.87ZM174.188 220.957C174.188 220.277 174.324 219.681 174.596 219.169C174.876 218.649 175.26 218.249 175.748 217.969C176.236 217.689 176.796 217.549 177.428 217.549C178.228 217.549 178.888 217.741 179.408 218.125C179.936 218.501 180.292 219.041 180.476 219.745H179C178.88 219.417 178.688 219.161 178.424 218.977C178.16 218.793 177.828 218.701 177.428 218.701C176.868 218.701 176.42 218.901 176.084 219.301C175.756 219.693 175.592 220.245 175.592 220.957C175.592 221.669 175.756 222.225 176.084 222.625C176.42 223.025 176.868 223.225 177.428 223.225C178.22 223.225 178.744 222.877 179 222.181H180.476C180.284 222.853 179.924 223.389 179.396 223.789C178.868 224.181 178.212 224.377 177.428 224.377C176.796 224.377 176.236 224.237 175.748 223.957C175.26 223.669 174.876 223.269 174.596 222.757C174.324 222.237 174.188 221.637 174.188 220.957ZM183.435 218.773V222.433C183.435 222.681 183.491 222.861 183.603 222.973C183.723 223.077 183.923 223.129 184.203 223.129H185.043V224.269H183.963C183.347 224.269 182.875 224.125 182.547 223.837C182.219 223.549 182.055 223.081 182.055 222.433V218.773H181.275V217.657H182.055V216.013H183.435V217.657H185.043V218.773H183.435ZM196.273 224.269H194.905L190.789 218.041V224.269H189.421V215.917H190.789L194.905 222.133V215.917H196.273V224.269ZM203.098 222.565H199.606L199.006 224.269H197.578L200.566 215.917H202.15L205.138 224.269H203.698L203.098 222.565ZM202.714 221.449L201.358 217.573L199.99 221.449H202.714ZM207.805 215.929V224.269H206.437V215.929H207.805ZM209.145 220.081C209.145 219.265 209.333 218.533 209.709 217.885C210.093 217.237 210.609 216.733 211.257 216.373C211.913 216.005 212.629 215.821 213.405 215.821C214.293 215.821 215.081 216.041 215.769 216.481C216.465 216.913 216.969 217.529 217.281 218.329H215.637C215.421 217.889 215.121 217.561 214.737 217.345C214.353 217.129 213.909 217.021 213.405 217.021C212.853 217.021 212.361 217.145 211.929 217.393C211.497 217.641 211.157 217.997 210.909 218.461C210.669 218.925 210.549 219.465 210.549 220.081C210.549 220.697 210.669 221.237 210.909 221.701C211.157 222.165 211.497 222.525 211.929 222.781C212.361 223.029 212.853 223.153 213.405 223.153C213.909 223.153 214.353 223.045 214.737 222.829C215.121 222.613 215.421 222.285 215.637 221.845H217.281C216.969 222.645 216.465 223.261 215.769 223.693C215.081 224.125 214.293 224.341 213.405 224.341C212.621 224.341 211.905 224.161 211.257 223.801C210.609 223.433 210.093 222.925 209.709 222.277C209.333 221.629 209.145 220.897 209.145 220.081ZM221.63 224.353C221.07 224.353 220.566 224.257 220.118 224.065C219.67 223.865 219.318 223.585 219.062 223.225C218.806 222.865 218.678 222.445 218.678 221.965H220.142C220.174 222.325 220.314 222.621 220.562 222.853C220.818 223.085 221.174 223.201 221.63 223.201C222.102 223.201 222.47 223.089 222.734 222.865C222.998 222.633 223.13 222.337 223.13 221.977C223.13 221.697 223.046 221.469 222.878 221.293C222.718 221.117 222.514 220.981 222.266 220.885C222.026 220.789 221.69 220.685 221.258 220.573C220.714 220.429 220.27 220.285 219.926 220.141C219.59 219.989 219.302 219.757 219.062 219.445C218.822 219.133 218.702 218.717 218.702 218.197C218.702 217.717 218.822 217.297 219.062 216.937C219.302 216.577 219.638 216.301 220.07 216.109C220.502 215.917 221.002 215.821 221.57 215.821C222.378 215.821 223.038 216.025 223.55 216.433C224.07 216.833 224.358 217.385 224.414 218.089H222.902C222.878 217.785 222.734 217.525 222.47 217.309C222.206 217.093 221.858 216.985 221.426 216.985C221.034 216.985 220.714 217.085 220.466 217.285C220.218 217.485 220.094 217.773 220.094 218.149C220.094 218.405 220.17 218.617 220.322 218.785C220.482 218.945 220.682 219.073 220.922 219.169C221.162 219.265 221.49 219.369 221.906 219.481C222.458 219.633 222.906 219.785 223.25 219.937C223.602 220.089 223.898 220.325 224.138 220.645C224.386 220.957 224.51 221.377 224.51 221.905C224.51 222.329 224.394 222.729 224.162 223.105C223.938 223.481 223.606 223.785 223.166 224.017C222.734 224.241 222.222 224.353 221.63 224.353ZM228.786 220.081C228.786 219.265 228.974 218.533 229.35 217.885C229.734 217.237 230.25 216.733 230.898 216.373C231.554 216.005 232.27 215.821 233.046 215.821C233.934 215.821 234.722 216.041 235.41 216.481C236.106 216.913 236.61 217.529 236.922 218.329H235.278C235.062 217.889 234.762 217.561 234.378 217.345C233.994 217.129 233.55 217.021 233.046 217.021C232.494 217.021 232.002 217.145 231.57 217.393C231.138 217.641 230.798 217.997 230.55 218.461C230.31 218.925 230.19 219.465 230.19 220.081C230.19 220.697 230.31 221.237 230.55 221.701C230.798 222.165 231.138 222.525 231.57 222.781C232.002 223.029 232.494 223.153 233.046 223.153C233.55 223.153 233.994 223.045 234.378 222.829C234.762 222.613 235.062 222.285 235.278 221.845H236.922C236.61 222.645 236.106 223.261 235.41 223.693C234.722 224.125 233.934 224.341 233.046 224.341C232.262 224.341 231.546 224.161 230.898 223.801C230.25 223.433 229.734 222.925 229.35 222.277C228.974 221.629 228.786 220.897 228.786 220.081ZM241.391 224.377C240.767 224.377 240.203 224.237 239.699 223.957C239.195 223.669 238.799 223.269 238.511 222.757C238.223 222.237 238.079 221.637 238.079 220.957C238.079 220.285 238.227 219.689 238.523 219.169C238.819 218.649 239.223 218.249 239.735 217.969C240.247 217.689 240.819 217.549 241.451 217.549C242.083 217.549 242.655 217.689 243.167 217.969C243.679 218.249 244.083 218.649 244.379 219.169C244.675 219.689 244.823 220.285 244.823 220.957C244.823 221.629 244.671 222.225 244.367 222.745C244.063 223.265 243.647 223.669 243.119 223.957C242.599 224.237 242.023 224.377 241.391 224.377ZM241.391 223.189C241.743 223.189 242.071 223.105 242.375 222.937C242.687 222.769 242.939 222.517 243.131 222.181C243.323 221.845 243.419 221.437 243.419 220.957C243.419 220.477 243.327 220.073 243.143 219.745C242.959 219.409 242.715 219.157 242.411 218.989C242.107 218.821 241.779 218.737 241.427 218.737C241.075 218.737 240.747 218.821 240.443 218.989C240.147 219.157 239.911 219.409 239.735 219.745C239.559 220.073 239.471 220.477 239.471 220.957C239.471 221.669 239.651 222.221 240.011 222.613C240.379 222.997 240.839 223.189 241.391 223.189ZM245.719 220.933C245.719 220.269 245.855 219.681 246.127 219.169C246.407 218.657 246.783 218.261 247.255 217.981C247.735 217.693 248.267 217.549 248.851 217.549C249.283 217.549 249.707 217.645 250.123 217.837C250.547 218.021 250.883 218.269 251.131 218.581V215.389H252.511V224.269H251.131V223.273C250.907 223.593 250.595 223.857 250.195 224.065C249.803 224.273 249.351 224.377 248.839 224.377C248.263 224.377 247.735 224.233 247.255 223.945C246.783 223.649 246.407 223.241 246.127 222.721C245.855 222.193 245.719 221.597 245.719 220.933ZM251.131 220.957C251.131 220.501 251.035 220.105 250.843 219.769C250.659 219.433 250.415 219.177 250.111 219.001C249.807 218.825 249.479 218.737 249.127 218.737C248.775 218.737 248.447 218.825 248.143 219.001C247.839 219.169 247.591 219.421 247.399 219.757C247.215 220.085 247.123 220.477 247.123 220.933C247.123 221.389 247.215 221.789 247.399 222.133C247.591 222.477 247.839 222.741 248.143 222.925C248.455 223.101 248.783 223.189 249.127 223.189C249.479 223.189 249.807 223.101 250.111 222.925C250.415 222.749 250.659 222.493 250.843 222.157C251.035 221.813 251.131 221.413 251.131 220.957ZM260.368 220.801C260.368 221.049 260.352 221.273 260.32 221.473H255.268C255.308 222.001 255.504 222.425 255.856 222.745C256.208 223.065 256.64 223.225 257.152 223.225C257.888 223.225 258.408 222.917 258.712 222.301H260.188C259.988 222.909 259.624 223.409 259.096 223.801C258.576 224.185 257.928 224.377 257.152 224.377C256.52 224.377 255.952 224.237 255.448 223.957C254.952 223.669 254.56 223.269 254.272 222.757C253.992 222.237 253.852 221.637 253.852 220.957C253.852 220.277 253.988 219.681 254.26 219.169C254.54 218.649 254.928 218.249 255.424 217.969C255.928 217.689 256.504 217.549 257.152 217.549C257.776 217.549 258.332 217.685 258.82 217.957C259.308 218.229 259.688 218.613 259.96 219.109C260.232 219.597 260.368 220.161 260.368 220.801ZM258.94 220.369C258.932 219.865 258.752 219.461 258.4 219.157C258.048 218.853 257.612 218.701 257.092 218.701C256.62 218.701 256.216 218.853 255.88 219.157C255.544 219.453 255.344 219.857 255.28 220.369H258.94Z" fill="#3C3B3B"/>
<path d="M148.869 233.477C148.869 232.933 148.992 232.445 149.237 232.013C149.483 231.575 149.816 231.234 150.237 230.989C150.664 230.743 151.136 230.621 151.653 230.621C152.261 230.621 152.792 230.767 153.245 231.061C153.699 231.354 154.029 231.77 154.237 232.309H153.365C153.211 231.973 152.987 231.714 152.693 231.533C152.405 231.351 152.059 231.261 151.653 231.261C151.264 231.261 150.915 231.351 150.605 231.533C150.296 231.714 150.053 231.973 149.877 232.309C149.701 232.639 149.613 233.029 149.613 233.477C149.613 233.919 149.701 234.309 149.877 234.645C150.053 234.975 150.296 235.231 150.605 235.413C150.915 235.594 151.264 235.685 151.653 235.685C152.059 235.685 152.405 235.597 152.693 235.421C152.987 235.239 153.211 234.981 153.365 234.645H154.237C154.029 235.178 153.699 235.591 153.245 235.885C152.792 236.173 152.261 236.317 151.653 236.317C151.136 236.317 150.664 236.197 150.237 235.957C149.816 235.711 149.483 235.373 149.237 234.941C148.992 234.509 148.869 234.021 148.869 233.477ZM157.497 231.805C157.828 231.805 158.126 231.877 158.393 232.021C158.66 232.159 158.868 232.37 159.017 232.653C159.172 232.935 159.249 233.279 159.249 233.685V236.269H158.529V233.789C158.529 233.351 158.42 233.018 158.201 232.789C157.982 232.554 157.684 232.437 157.305 232.437C156.921 232.437 156.614 232.557 156.385 232.797C156.161 233.037 156.049 233.386 156.049 233.845V236.269H155.321V230.349H156.049V232.509C156.193 232.285 156.39 232.111 156.641 231.989C156.897 231.866 157.182 231.805 157.497 231.805ZM162.35 236.341C161.94 236.341 161.566 236.247 161.23 236.061C160.9 235.874 160.638 235.61 160.446 235.269C160.26 234.922 160.166 234.522 160.166 234.069C160.166 233.621 160.262 233.226 160.454 232.885C160.652 232.538 160.918 232.274 161.254 232.093C161.59 231.906 161.966 231.813 162.382 231.813C162.798 231.813 163.174 231.906 163.51 232.093C163.846 232.274 164.11 232.535 164.302 232.877C164.5 233.218 164.598 233.615 164.598 234.069C164.598 234.522 164.497 234.922 164.294 235.269C164.097 235.61 163.828 235.874 163.486 236.061C163.145 236.247 162.766 236.341 162.35 236.341ZM162.35 235.701C162.612 235.701 162.857 235.639 163.086 235.517C163.316 235.394 163.5 235.21 163.638 234.965C163.782 234.719 163.854 234.421 163.854 234.069C163.854 233.717 163.785 233.418 163.646 233.173C163.508 232.927 163.326 232.746 163.102 232.629C162.878 232.506 162.636 232.445 162.374 232.445C162.108 232.445 161.862 232.506 161.638 232.629C161.42 232.746 161.244 232.927 161.11 233.173C160.977 233.418 160.91 233.717 160.91 234.069C160.91 234.426 160.974 234.727 161.102 234.973C161.236 235.218 161.412 235.402 161.63 235.525C161.849 235.642 162.089 235.701 162.35 235.701ZM167.467 236.341C167.057 236.341 166.683 236.247 166.347 236.061C166.017 235.874 165.755 235.61 165.563 235.269C165.377 234.922 165.283 234.522 165.283 234.069C165.283 233.621 165.379 233.226 165.571 232.885C165.769 232.538 166.035 232.274 166.371 232.093C166.707 231.906 167.083 231.813 167.499 231.813C167.915 231.813 168.291 231.906 168.627 232.093C168.963 232.274 169.227 232.535 169.419 232.877C169.617 233.218 169.715 233.615 169.715 234.069C169.715 234.522 169.614 234.922 169.411 235.269C169.214 235.61 168.945 235.874 168.603 236.061C168.262 236.247 167.883 236.341 167.467 236.341ZM167.467 235.701C167.729 235.701 167.974 235.639 168.203 235.517C168.433 235.394 168.617 235.21 168.755 234.965C168.899 234.719 168.971 234.421 168.971 234.069C168.971 233.717 168.902 233.418 168.763 233.173C168.625 232.927 168.443 232.746 168.219 232.629C167.995 232.506 167.753 232.445 167.491 232.445C167.225 232.445 166.979 232.506 166.755 232.629C166.537 232.746 166.361 232.927 166.227 233.173C166.094 233.418 166.027 233.717 166.027 234.069C166.027 234.426 166.091 234.727 166.219 234.973C166.353 235.218 166.529 235.402 166.747 235.525C166.966 235.642 167.206 235.701 167.467 235.701ZM172.225 236.341C171.889 236.341 171.587 236.285 171.321 236.173C171.054 236.055 170.843 235.895 170.689 235.693C170.534 235.485 170.449 235.247 170.433 234.981H171.185C171.206 235.199 171.307 235.378 171.489 235.517C171.675 235.655 171.918 235.725 172.217 235.725C172.494 235.725 172.713 235.663 172.873 235.541C173.033 235.418 173.113 235.263 173.113 235.077C173.113 234.885 173.027 234.743 172.857 234.653C172.686 234.557 172.422 234.463 172.065 234.373C171.739 234.287 171.473 234.202 171.265 234.117C171.062 234.026 170.886 233.895 170.737 233.725C170.593 233.549 170.521 233.319 170.521 233.037C170.521 232.813 170.587 232.607 170.721 232.421C170.854 232.234 171.043 232.087 171.289 231.981C171.534 231.869 171.814 231.813 172.129 231.813C172.614 231.813 173.006 231.935 173.305 232.181C173.603 232.426 173.763 232.762 173.785 233.189H173.057C173.041 232.959 172.947 232.775 172.777 232.637C172.611 232.498 172.387 232.429 172.105 232.429C171.843 232.429 171.635 232.485 171.481 232.597C171.326 232.709 171.249 232.855 171.249 233.037C171.249 233.181 171.294 233.301 171.385 233.397C171.481 233.487 171.598 233.562 171.737 233.621C171.881 233.674 172.078 233.735 172.329 233.805C172.643 233.89 172.899 233.975 173.097 234.061C173.294 234.141 173.462 234.263 173.601 234.429C173.745 234.594 173.819 234.81 173.825 235.077C173.825 235.317 173.758 235.533 173.625 235.725C173.491 235.917 173.302 236.069 173.057 236.181C172.817 236.287 172.539 236.341 172.225 236.341ZM178.852 233.909C178.852 234.047 178.844 234.194 178.828 234.349H175.324C175.351 234.781 175.498 235.119 175.764 235.365C176.036 235.605 176.364 235.725 176.748 235.725C177.063 235.725 177.324 235.653 177.532 235.509C177.746 235.359 177.895 235.162 177.98 234.917H178.764C178.647 235.338 178.412 235.682 178.06 235.949C177.708 236.21 177.271 236.341 176.748 236.341C176.332 236.341 175.959 236.247 175.628 236.061C175.303 235.874 175.047 235.61 174.86 235.269C174.674 234.922 174.58 234.522 174.58 234.069C174.58 233.615 174.671 233.218 174.852 232.877C175.034 232.535 175.287 232.274 175.612 232.093C175.943 231.906 176.322 231.813 176.748 231.813C177.164 231.813 177.532 231.903 177.852 232.085C178.172 232.266 178.418 232.517 178.588 232.837C178.764 233.151 178.852 233.509 178.852 233.909ZM178.1 233.757C178.1 233.479 178.039 233.242 177.916 233.045C177.794 232.842 177.626 232.69 177.412 232.589C177.204 232.482 176.972 232.429 176.716 232.429C176.348 232.429 176.034 232.546 175.772 232.781C175.516 233.015 175.37 233.341 175.332 233.757H178.1ZM182.834 232.485V235.069C182.834 235.282 182.879 235.434 182.97 235.525C183.061 235.61 183.218 235.653 183.442 235.653H183.978V236.269H183.322C182.917 236.269 182.613 236.175 182.41 235.989C182.207 235.802 182.106 235.495 182.106 235.069V232.485H181.538V231.885H182.106V230.781H182.834V231.885H183.978V232.485H182.834ZM187.036 231.805C187.367 231.805 187.665 231.877 187.932 232.021C188.199 232.159 188.407 232.37 188.556 232.653C188.711 232.935 188.788 233.279 188.788 233.685V236.269H188.068V233.789C188.068 233.351 187.959 233.018 187.74 232.789C187.521 232.554 187.223 232.437 186.844 232.437C186.46 232.437 186.153 232.557 185.924 232.797C185.7 233.037 185.588 233.386 185.588 233.845V236.269H184.86V230.349H185.588V232.509C185.732 232.285 185.929 232.111 186.18 231.989C186.436 231.866 186.721 231.805 187.036 231.805ZM193.977 233.909C193.977 234.047 193.969 234.194 193.953 234.349H190.449C190.476 234.781 190.623 235.119 190.889 235.365C191.161 235.605 191.489 235.725 191.873 235.725C192.188 235.725 192.449 235.653 192.657 235.509C192.871 235.359 193.02 235.162 193.105 234.917H193.889C193.772 235.338 193.537 235.682 193.185 235.949C192.833 236.21 192.396 236.341 191.873 236.341C191.457 236.341 191.084 236.247 190.753 236.061C190.428 235.874 190.172 235.61 189.985 235.269C189.799 234.922 189.705 234.522 189.705 234.069C189.705 233.615 189.796 233.218 189.977 232.877C190.159 232.535 190.412 232.274 190.737 232.093C191.068 231.906 191.447 231.813 191.873 231.813C192.289 231.813 192.657 231.903 192.977 232.085C193.297 232.266 193.543 232.517 193.713 232.837C193.889 233.151 193.977 233.509 193.977 233.909ZM193.225 233.757C193.225 233.479 193.164 233.242 193.041 233.045C192.919 232.842 192.751 232.69 192.537 232.589C192.329 232.482 192.097 232.429 191.841 232.429C191.473 232.429 191.159 232.546 190.897 232.781C190.641 233.015 190.495 233.341 190.457 233.757H193.225ZM197.799 232.701C197.948 232.439 198.167 232.226 198.455 232.061C198.743 231.895 199.071 231.813 199.439 231.813C199.834 231.813 200.188 231.906 200.503 232.093C200.818 232.279 201.066 232.543 201.247 232.885C201.428 233.221 201.519 233.613 201.519 234.061C201.519 234.503 201.428 234.898 201.247 235.245C201.066 235.591 200.815 235.861 200.495 236.053C200.18 236.245 199.828 236.341 199.439 236.341C199.06 236.341 198.727 236.258 198.439 236.093C198.156 235.927 197.943 235.717 197.799 235.461V236.269H197.071V230.349H197.799V232.701ZM200.775 234.061C200.775 233.73 200.708 233.442 200.575 233.197C200.442 232.951 200.26 232.765 200.031 232.637C199.807 232.509 199.559 232.445 199.287 232.445C199.02 232.445 198.772 232.511 198.543 232.645C198.319 232.773 198.138 232.962 197.999 233.213C197.866 233.458 197.799 233.743 197.799 234.069C197.799 234.399 197.866 234.69 197.999 234.941C198.138 235.186 198.319 235.375 198.543 235.509C198.772 235.637 199.02 235.701 199.287 235.701C199.559 235.701 199.807 235.637 200.031 235.509C200.26 235.375 200.442 235.186 200.575 234.941C200.708 234.69 200.775 234.397 200.775 234.061ZM206.365 231.885V236.269H205.637V235.621C205.499 235.845 205.304 236.021 205.053 236.149C204.808 236.271 204.536 236.333 204.237 236.333C203.896 236.333 203.589 236.263 203.317 236.125C203.045 235.981 202.829 235.767 202.669 235.485C202.515 235.202 202.437 234.858 202.437 234.453V231.885H203.157V234.357C203.157 234.789 203.267 235.122 203.485 235.357C203.704 235.586 204.003 235.701 204.381 235.701C204.771 235.701 205.077 235.581 205.301 235.341C205.525 235.101 205.637 234.751 205.637 234.293V231.885H206.365ZM209.147 236.341C208.811 236.341 208.509 236.285 208.243 236.173C207.976 236.055 207.765 235.895 207.611 235.693C207.456 235.485 207.371 235.247 207.355 234.981H208.107C208.128 235.199 208.229 235.378 208.411 235.517C208.597 235.655 208.84 235.725 209.139 235.725C209.416 235.725 209.635 235.663 209.795 235.541C209.955 235.418 210.035 235.263 210.035 235.077C210.035 234.885 209.949 234.743 209.779 234.653C209.608 234.557 209.344 234.463 208.987 234.373C208.661 234.287 208.395 234.202 208.187 234.117C207.984 234.026 207.808 233.895 207.659 233.725C207.515 233.549 207.443 233.319 207.443 233.037C207.443 232.813 207.509 232.607 207.643 232.421C207.776 232.234 207.965 232.087 208.211 231.981C208.456 231.869 208.736 231.813 209.051 231.813C209.536 231.813 209.928 231.935 210.227 232.181C210.525 232.426 210.685 232.762 210.707 233.189H209.979C209.963 232.959 209.869 232.775 209.699 232.637C209.533 232.498 209.309 232.429 209.027 232.429C208.765 232.429 208.557 232.485 208.403 232.597C208.248 232.709 208.171 232.855 208.171 233.037C208.171 233.181 208.216 233.301 208.307 233.397C208.403 233.487 208.52 233.562 208.659 233.621C208.803 233.674 209 233.735 209.251 233.805C209.565 233.89 209.821 233.975 210.019 234.061C210.216 234.141 210.384 234.263 210.523 234.429C210.667 234.594 210.741 234.81 210.747 235.077C210.747 235.317 210.68 235.533 210.547 235.725C210.413 235.917 210.224 236.069 209.979 236.181C209.739 236.287 209.461 236.341 209.147 236.341ZM212.15 231.173C212.012 231.173 211.894 231.125 211.798 231.029C211.702 230.933 211.654 230.815 211.654 230.677C211.654 230.538 211.702 230.421 211.798 230.325C211.894 230.229 212.012 230.181 212.15 230.181C212.284 230.181 212.396 230.229 212.486 230.325C212.582 230.421 212.63 230.538 212.63 230.677C212.63 230.815 212.582 230.933 212.486 231.029C212.396 231.125 212.284 231.173 212.15 231.173ZM212.502 231.885V236.269H211.774V231.885H212.502ZM215.879 231.805C216.412 231.805 216.844 231.967 217.175 232.293C217.506 232.613 217.671 233.077 217.671 233.685V236.269H216.951V233.789C216.951 233.351 216.842 233.018 216.623 232.789C216.404 232.554 216.106 232.437 215.727 232.437C215.343 232.437 215.036 232.557 214.807 232.797C214.583 233.037 214.471 233.386 214.471 233.845V236.269H213.743V231.885H214.471V232.509C214.615 232.285 214.81 232.111 215.055 231.989C215.306 231.866 215.58 231.805 215.879 231.805ZM222.86 233.909C222.86 234.047 222.852 234.194 222.836 234.349H219.332C219.359 234.781 219.505 235.119 219.772 235.365C220.044 235.605 220.372 235.725 220.756 235.725C221.071 235.725 221.332 235.653 221.54 235.509C221.753 235.359 221.903 235.162 221.988 234.917H222.772C222.655 235.338 222.42 235.682 222.068 235.949C221.716 236.21 221.279 236.341 220.756 236.341C220.34 236.341 219.967 236.247 219.636 236.061C219.311 235.874 219.055 235.61 218.868 235.269C218.681 234.922 218.588 234.522 218.588 234.069C218.588 233.615 218.679 233.218 218.86 232.877C219.041 232.535 219.295 232.274 219.62 232.093C219.951 231.906 220.329 231.813 220.756 231.813C221.172 231.813 221.54 231.903 221.86 232.085C222.18 232.266 222.425 232.517 222.596 232.837C222.772 233.151 222.86 233.509 222.86 233.909ZM222.108 233.757C222.108 233.479 222.047 233.242 221.924 233.045C221.801 232.842 221.633 232.69 221.42 232.589C221.212 232.482 220.98 232.429 220.724 232.429C220.356 232.429 220.041 232.546 219.78 232.781C219.524 233.015 219.377 233.341 219.34 233.757H222.108ZM225.373 236.341C225.037 236.341 224.736 236.285 224.469 236.173C224.202 236.055 223.992 235.895 223.837 235.693C223.682 235.485 223.597 235.247 223.581 234.981H224.333C224.354 235.199 224.456 235.378 224.637 235.517C224.824 235.655 225.066 235.725 225.365 235.725C225.642 235.725 225.861 235.663 226.021 235.541C226.181 235.418 226.261 235.263 226.261 235.077C226.261 234.885 226.176 234.743 226.005 234.653C225.834 234.557 225.57 234.463 225.213 234.373C224.888 234.287 224.621 234.202 224.413 234.117C224.21 234.026 224.034 233.895 223.885 233.725C223.741 233.549 223.669 233.319 223.669 233.037C223.669 232.813 223.736 232.607 223.869 232.421C224.002 232.234 224.192 232.087 224.437 231.981C224.682 231.869 224.962 231.813 225.277 231.813C225.762 231.813 226.154 231.935 226.453 232.181C226.752 232.426 226.912 232.762 226.933 233.189H226.205C226.189 232.959 226.096 232.775 225.925 232.637C225.76 232.498 225.536 232.429 225.253 232.429C224.992 232.429 224.784 232.485 224.629 232.597C224.474 232.709 224.397 232.855 224.397 233.037C224.397 233.181 224.442 233.301 224.533 233.397C224.629 233.487 224.746 233.562 224.885 233.621C225.029 233.674 225.226 233.735 225.477 233.805C225.792 233.89 226.048 233.975 226.245 234.061C226.442 234.141 226.61 234.263 226.749 234.429C226.893 234.594 226.968 234.81 226.973 235.077C226.973 235.317 226.906 235.533 226.773 235.725C226.64 235.917 226.45 236.069 226.205 236.181C225.965 236.287 225.688 236.341 225.373 236.341ZM229.553 236.341C229.217 236.341 228.915 236.285 228.649 236.173C228.382 236.055 228.171 235.895 228.017 235.693C227.862 235.485 227.777 235.247 227.761 234.981H228.513C228.534 235.199 228.635 235.378 228.817 235.517C229.003 235.655 229.246 235.725 229.545 235.725C229.822 235.725 230.041 235.663 230.201 235.541C230.361 235.418 230.441 235.263 230.441 235.077C230.441 234.885 230.355 234.743 230.185 234.653C230.014 234.557 229.75 234.463 229.393 234.373C229.067 234.287 228.801 234.202 228.593 234.117C228.39 234.026 228.214 233.895 228.065 233.725C227.921 233.549 227.849 233.319 227.849 233.037C227.849 232.813 227.915 232.607 228.049 232.421C228.182 232.234 228.371 232.087 228.617 231.981C228.862 231.869 229.142 231.813 229.457 231.813C229.942 231.813 230.334 231.935 230.633 232.181C230.931 232.426 231.091 232.762 231.113 233.189H230.385C230.369 232.959 230.275 232.775 230.105 232.637C229.939 232.498 229.715 232.429 229.433 232.429C229.171 232.429 228.963 232.485 228.809 232.597C228.654 232.709 228.577 232.855 228.577 233.037C228.577 233.181 228.622 233.301 228.713 233.397C228.809 233.487 228.926 233.562 229.065 233.621C229.209 233.674 229.406 233.735 229.657 233.805C229.971 233.89 230.227 233.975 230.425 234.061C230.622 234.141 230.79 234.263 230.929 234.429C231.073 234.594 231.147 234.81 231.153 235.077C231.153 235.317 231.086 235.533 230.953 235.725C230.819 235.917 230.63 236.069 230.385 236.181C230.145 236.287 229.867 236.341 229.553 236.341ZM234.689 231.173C234.551 231.173 234.433 231.125 234.337 231.029C234.241 230.933 234.193 230.815 234.193 230.677C234.193 230.538 234.241 230.421 234.337 230.325C234.433 230.229 234.551 230.181 234.689 230.181C234.823 230.181 234.935 230.229 235.025 230.325C235.121 230.421 235.169 230.538 235.169 230.677C235.169 230.815 235.121 230.933 235.025 231.029C234.935 231.125 234.823 231.173 234.689 231.173ZM235.041 231.885V236.269H234.313V231.885H235.041ZM238.418 231.805C238.951 231.805 239.383 231.967 239.714 232.293C240.045 232.613 240.21 233.077 240.21 233.685V236.269H239.49V233.789C239.49 233.351 239.381 233.018 239.162 232.789C238.943 232.554 238.645 232.437 238.266 232.437C237.882 232.437 237.575 232.557 237.346 232.797C237.122 233.037 237.01 233.386 237.01 233.845V236.269H236.282V231.885H237.01V232.509C237.154 232.285 237.349 232.111 237.594 231.989C237.845 231.866 238.119 231.805 238.418 231.805ZM241.127 234.061C241.127 233.613 241.218 233.221 241.399 232.885C241.581 232.543 241.829 232.279 242.143 232.093C242.463 231.906 242.821 231.813 243.215 231.813C243.557 231.813 243.874 231.893 244.167 232.053C244.461 232.207 244.685 232.413 244.839 232.669V230.349H245.575V236.269H244.839V235.445C244.695 235.706 244.482 235.922 244.199 236.093C243.917 236.258 243.586 236.341 243.207 236.341C242.818 236.341 242.463 236.245 242.143 236.053C241.829 235.861 241.581 235.591 241.399 235.245C241.218 234.898 241.127 234.503 241.127 234.061ZM244.839 234.069C244.839 233.738 244.773 233.45 244.639 233.205C244.506 232.959 244.325 232.773 244.095 232.645C243.871 232.511 243.623 232.445 243.351 232.445C243.079 232.445 242.831 232.509 242.607 232.637C242.383 232.765 242.205 232.951 242.071 233.197C241.938 233.442 241.871 233.73 241.871 234.061C241.871 234.397 241.938 234.69 242.071 234.941C242.205 235.186 242.383 235.375 242.607 235.509C242.831 235.637 243.079 235.701 243.351 235.701C243.623 235.701 243.871 235.637 244.095 235.509C244.325 235.375 244.506 235.186 244.639 234.941C244.773 234.69 244.839 234.399 244.839 234.069ZM250.693 231.885V236.269H249.965V235.621C249.827 235.845 249.632 236.021 249.381 236.149C249.136 236.271 248.864 236.333 248.565 236.333C248.224 236.333 247.917 236.263 247.645 236.125C247.373 235.981 247.157 235.767 246.997 235.485C246.843 235.202 246.765 234.858 246.765 234.453V231.885H247.485V234.357C247.485 234.789 247.595 235.122 247.813 235.357C248.032 235.586 248.331 235.701 248.709 235.701C249.099 235.701 249.405 235.581 249.629 235.341C249.853 235.101 249.965 234.751 249.965 234.293V231.885H250.693ZM253.475 236.341C253.139 236.341 252.837 236.285 252.571 236.173C252.304 236.055 252.093 235.895 251.939 235.693C251.784 235.485 251.699 235.247 251.683 234.981H252.435C252.456 235.199 252.557 235.378 252.739 235.517C252.925 235.655 253.168 235.725 253.467 235.725C253.744 235.725 253.963 235.663 254.123 235.541C254.283 235.418 254.363 235.263 254.363 235.077C254.363 234.885 254.277 234.743 254.107 234.653C253.936 234.557 253.672 234.463 253.315 234.373C252.989 234.287 252.723 234.202 252.515 234.117C252.312 234.026 252.136 233.895 251.987 233.725C251.843 233.549 251.771 233.319 251.771 233.037C251.771 232.813 251.837 232.607 251.971 232.421C252.104 232.234 252.293 232.087 252.539 231.981C252.784 231.869 253.064 231.813 253.379 231.813C253.864 231.813 254.256 231.935 254.555 232.181C254.853 232.426 255.013 232.762 255.035 233.189H254.307C254.291 232.959 254.197 232.775 254.027 232.637C253.861 232.498 253.637 232.429 253.355 232.429C253.093 232.429 252.885 232.485 252.731 232.597C252.576 232.709 252.499 232.855 252.499 233.037C252.499 233.181 252.544 233.301 252.635 233.397C252.731 233.487 252.848 233.562 252.987 233.621C253.131 233.674 253.328 233.735 253.579 233.805C253.893 233.89 254.149 233.975 254.347 234.061C254.544 234.141 254.712 234.263 254.851 234.429C254.995 234.594 255.069 234.81 255.075 235.077C255.075 235.317 255.008 235.533 254.875 235.725C254.741 235.917 254.552 236.069 254.307 236.181C254.067 236.287 253.789 236.341 253.475 236.341ZM256.99 232.485V235.069C256.99 235.282 257.036 235.434 257.126 235.525C257.217 235.61 257.374 235.653 257.598 235.653H258.134V236.269H257.478C257.073 236.269 256.769 236.175 256.566 235.989C256.364 235.802 256.262 235.495 256.262 235.069V232.485H255.694V231.885H256.262V230.781H256.99V231.885H258.134V232.485H256.99ZM259.744 232.597C259.872 232.346 260.054 232.151 260.288 232.013C260.528 231.874 260.819 231.805 261.16 231.805V232.557H260.968C260.152 232.557 259.744 232.999 259.744 233.885V236.269H259.016V231.885H259.744V232.597ZM265.777 231.885L263.137 238.333H262.385L263.249 236.221L261.481 231.885H262.289L263.665 235.437L265.025 231.885H265.777ZM268.369 234.069C268.369 233.615 268.46 233.221 268.641 232.885C268.823 232.543 269.073 232.279 269.393 232.093C269.719 231.906 270.089 231.813 270.505 231.813C271.044 231.813 271.487 231.943 271.833 232.205C272.185 232.466 272.417 232.829 272.529 233.293H271.745C271.671 233.026 271.524 232.815 271.305 232.661C271.092 232.506 270.825 232.429 270.505 232.429C270.089 232.429 269.753 232.573 269.497 232.861C269.241 233.143 269.113 233.546 269.113 234.069C269.113 234.597 269.241 235.005 269.497 235.293C269.753 235.581 270.089 235.725 270.505 235.725C270.825 235.725 271.092 235.65 271.305 235.501C271.519 235.351 271.665 235.138 271.745 234.861H272.529C272.412 235.309 272.177 235.669 271.825 235.941C271.473 236.207 271.033 236.341 270.505 236.341C270.089 236.341 269.719 236.247 269.393 236.061C269.073 235.874 268.823 235.61 268.641 235.269C268.46 234.927 268.369 234.527 268.369 234.069ZM275.413 236.341C275.002 236.341 274.629 236.247 274.293 236.061C273.962 235.874 273.701 235.61 273.509 235.269C273.322 234.922 273.229 234.522 273.229 234.069C273.229 233.621 273.325 233.226 273.517 232.885C273.714 232.538 273.981 232.274 274.317 232.093C274.653 231.906 275.029 231.813 275.445 231.813C275.861 231.813 276.237 231.906 276.573 232.093C276.909 232.274 277.173 232.535 277.365 232.877C277.562 233.218 277.661 233.615 277.661 234.069C277.661 234.522 277.559 234.922 277.357 235.269C277.159 235.61 276.89 235.874 276.549 236.061C276.207 236.247 275.829 236.341 275.413 236.341ZM275.413 235.701C275.674 235.701 275.919 235.639 276.149 235.517C276.378 235.394 276.562 235.21 276.701 234.965C276.845 234.719 276.917 234.421 276.917 234.069C276.917 233.717 276.847 233.418 276.709 233.173C276.57 232.927 276.389 232.746 276.165 232.629C275.941 232.506 275.698 232.445 275.437 232.445C275.17 232.445 274.925 232.506 274.701 232.629C274.482 232.746 274.306 232.927 274.173 233.173C274.039 233.418 273.973 233.717 273.973 234.069C273.973 234.426 274.037 234.727 274.165 234.973C274.298 235.218 274.474 235.402 274.693 235.525C274.911 235.642 275.151 235.701 275.413 235.701ZM278.346 234.061C278.346 233.613 278.437 233.221 278.618 232.885C278.799 232.543 279.047 232.279 279.362 232.093C279.682 231.906 280.039 231.813 280.434 231.813C280.775 231.813 281.093 231.893 281.386 232.053C281.679 232.207 281.903 232.413 282.058 232.669V230.349H282.794V236.269H282.058V235.445C281.914 235.706 281.701 235.922 281.418 236.093C281.135 236.258 280.805 236.341 280.426 236.341C280.037 236.341 279.682 236.245 279.362 236.053C279.047 235.861 278.799 235.591 278.618 235.245C278.437 234.898 278.346 234.503 278.346 234.061ZM282.058 234.069C282.058 233.738 281.991 233.45 281.858 233.205C281.725 232.959 281.543 232.773 281.314 232.645C281.09 232.511 280.842 232.445 280.57 232.445C280.298 232.445 280.05 232.509 279.826 232.637C279.602 232.765 279.423 232.951 279.29 233.197C279.157 233.442 279.09 233.73 279.09 234.061C279.09 234.397 279.157 234.69 279.29 234.941C279.423 235.186 279.602 235.375 279.826 235.509C280.05 235.637 280.298 235.701 280.57 235.701C280.842 235.701 281.09 235.637 281.314 235.509C281.543 235.375 281.725 235.186 281.858 234.941C281.991 234.69 282.058 234.399 282.058 234.069ZM288.024 233.909C288.024 234.047 288.016 234.194 288 234.349H284.496C284.523 234.781 284.67 235.119 284.936 235.365C285.208 235.605 285.536 235.725 285.92 235.725C286.235 235.725 286.496 235.653 286.704 235.509C286.918 235.359 287.067 235.162 287.152 234.917H287.936C287.819 235.338 287.584 235.682 287.232 235.949C286.88 236.21 286.443 236.341 285.92 236.341C285.504 236.341 285.131 236.247 284.8 236.061C284.475 235.874 284.219 235.61 284.032 235.269C283.846 234.922 283.752 234.522 283.752 234.069C283.752 233.615 283.843 233.218 284.024 232.877C284.206 232.535 284.459 232.274 284.784 232.093C285.115 231.906 285.494 231.813 285.92 231.813C286.336 231.813 286.704 231.903 287.024 232.085C287.344 232.266 287.59 232.517 287.76 232.837C287.936 233.151 288.024 233.509 288.024 233.909ZM287.272 233.757C287.272 233.479 287.211 233.242 287.088 233.045C286.966 232.842 286.798 232.69 286.584 232.589C286.376 232.482 286.144 232.429 285.888 232.429C285.52 232.429 285.206 232.546 284.944 232.781C284.688 233.015 284.542 233.341 284.504 233.757H287.272ZM289.217 236.317C289.078 236.317 288.961 236.269 288.865 236.173C288.769 236.077 288.721 235.959 288.721 235.821C288.721 235.682 288.769 235.565 288.865 235.469C288.961 235.373 289.078 235.325 289.217 235.325C289.35 235.325 289.462 235.373 289.553 235.469C289.649 235.565 289.697 235.682 289.697 235.821C289.697 235.959 289.649 236.077 289.553 236.173C289.462 236.269 289.35 236.317 289.217 236.317Z" fill="#3C3B3B"/>
<path opacity="0.2" d="M121.318 267.182V273H120.636L117.466 268.432H117.409V273H116.705V267.182H117.386L120.568 271.761H120.625V267.182H121.318ZM122.967 273H122.228L124.364 267.182H125.092L127.228 273H126.489L124.751 268.102H124.705L122.967 273ZM123.239 270.727H126.217V271.352H123.239V270.727ZM128.839 267.182V273H128.134V267.182H128.839ZM134.933 269H134.229C134.187 268.797 134.114 268.619 134.01 268.466C133.908 268.312 133.783 268.184 133.635 268.08C133.489 267.973 133.327 267.894 133.149 267.841C132.971 267.788 132.786 267.761 132.592 267.761C132.24 267.761 131.921 267.85 131.635 268.028C131.351 268.206 131.125 268.469 130.956 268.815C130.789 269.162 130.706 269.587 130.706 270.091C130.706 270.595 130.789 271.02 130.956 271.366C131.125 271.713 131.351 271.975 131.635 272.153C131.921 272.331 132.24 272.42 132.592 272.42C132.786 272.42 132.971 272.394 133.149 272.341C133.327 272.288 133.489 272.209 133.635 272.105C133.783 271.999 133.908 271.869 134.01 271.716C134.114 271.561 134.187 271.383 134.229 271.182H134.933C134.88 271.479 134.784 271.745 134.643 271.98C134.503 272.215 134.329 272.415 134.121 272.58C133.912 272.742 133.679 272.866 133.419 272.952C133.161 273.037 132.886 273.08 132.592 273.08C132.096 273.08 131.655 272.958 131.268 272.716C130.882 272.473 130.578 272.129 130.357 271.682C130.135 271.235 130.024 270.705 130.024 270.091C130.024 269.477 130.135 268.947 130.357 268.5C130.578 268.053 130.882 267.708 131.268 267.466C131.655 267.223 132.096 267.102 132.592 267.102C132.886 267.102 133.161 267.145 133.419 267.23C133.679 267.315 133.912 267.44 134.121 267.605C134.329 267.768 134.503 267.967 134.643 268.202C134.784 268.435 134.88 268.701 134.933 269ZM139.254 268.636C139.219 268.348 139.081 268.125 138.839 267.966C138.596 267.807 138.299 267.727 137.947 267.727C137.689 267.727 137.464 267.769 137.271 267.852C137.079 267.936 136.93 268.05 136.822 268.196C136.716 268.342 136.663 268.508 136.663 268.693C136.663 268.848 136.7 268.982 136.773 269.094C136.849 269.204 136.946 269.295 137.063 269.369C137.181 269.441 137.304 269.501 137.433 269.548C137.561 269.594 137.68 269.631 137.788 269.659L138.379 269.818C138.53 269.858 138.699 269.913 138.884 269.983C139.072 270.053 139.251 270.149 139.421 270.27C139.594 270.389 139.736 270.543 139.847 270.73C139.959 270.918 140.015 271.148 140.015 271.42C140.015 271.735 139.933 272.019 139.768 272.273C139.605 272.527 139.366 272.728 139.052 272.878C138.739 273.027 138.36 273.102 137.913 273.102C137.496 273.102 137.135 273.035 136.83 272.901C136.527 272.766 136.289 272.579 136.114 272.338C135.942 272.098 135.844 271.818 135.822 271.5H136.549C136.568 271.72 136.642 271.902 136.771 272.045C136.901 272.187 137.066 272.294 137.265 272.364C137.466 272.432 137.682 272.466 137.913 272.466C138.182 272.466 138.423 272.422 138.637 272.335C138.851 272.246 139.021 272.123 139.146 271.966C139.271 271.807 139.333 271.621 139.333 271.409C139.333 271.216 139.279 271.059 139.171 270.938C139.063 270.816 138.921 270.718 138.745 270.642C138.569 270.566 138.379 270.5 138.174 270.443L137.458 270.239C137.004 270.108 136.644 269.921 136.379 269.679C136.113 269.437 135.981 269.119 135.981 268.727C135.981 268.402 136.069 268.117 136.245 267.875C136.423 267.631 136.662 267.441 136.961 267.307C137.262 267.17 137.598 267.102 137.969 267.102C138.344 267.102 138.678 267.17 138.969 267.304C139.261 267.437 139.492 267.618 139.663 267.849C139.835 268.08 139.926 268.343 139.935 268.636H139.254ZM148.105 269H147.401C147.359 268.797 147.286 268.619 147.182 268.466C147.08 268.312 146.955 268.184 146.807 268.08C146.661 267.973 146.499 267.894 146.321 267.841C146.143 267.788 145.957 267.761 145.764 267.761C145.412 267.761 145.093 267.85 144.807 268.028C144.523 268.206 144.296 268.469 144.128 268.815C143.961 269.162 143.878 269.587 143.878 270.091C143.878 270.595 143.961 271.02 144.128 271.366C144.296 271.713 144.523 271.975 144.807 272.153C145.093 272.331 145.412 272.42 145.764 272.42C145.957 272.42 146.143 272.394 146.321 272.341C146.499 272.288 146.661 272.209 146.807 272.105C146.955 271.999 147.08 271.869 147.182 271.716C147.286 271.561 147.359 271.383 147.401 271.182H148.105C148.052 271.479 147.955 271.745 147.815 271.98C147.675 272.215 147.501 272.415 147.293 272.58C147.084 272.742 146.85 272.866 146.591 272.952C146.333 273.037 146.058 273.08 145.764 273.08C145.268 273.08 144.827 272.958 144.44 272.716C144.054 272.473 143.75 272.129 143.528 271.682C143.307 271.235 143.196 270.705 143.196 270.091C143.196 269.477 143.307 268.947 143.528 268.5C143.75 268.053 144.054 267.708 144.44 267.466C144.827 267.223 145.268 267.102 145.764 267.102C146.058 267.102 146.333 267.145 146.591 267.23C146.85 267.315 147.084 267.44 147.293 267.605C147.501 267.768 147.675 267.967 147.815 268.202C147.955 268.435 148.052 268.701 148.105 269ZM150.925 273.091C150.531 273.091 150.186 272.997 149.888 272.81C149.593 272.622 149.362 272.36 149.195 272.023C149.031 271.686 148.948 271.292 148.948 270.841C148.948 270.386 149.031 269.99 149.195 269.651C149.362 269.312 149.593 269.048 149.888 268.861C150.186 268.673 150.531 268.58 150.925 268.58C151.319 268.58 151.664 268.673 151.96 268.861C152.257 269.048 152.488 269.312 152.653 269.651C152.819 269.99 152.903 270.386 152.903 270.841C152.903 271.292 152.819 271.686 152.653 272.023C152.488 272.36 152.257 272.622 151.96 272.81C151.664 272.997 151.319 273.091 150.925 273.091ZM150.925 272.489C151.225 272.489 151.471 272.412 151.664 272.259C151.857 272.105 152 271.903 152.093 271.653C152.186 271.403 152.232 271.133 152.232 270.841C152.232 270.549 152.186 270.277 152.093 270.026C152 269.774 151.857 269.57 151.664 269.415C151.471 269.259 151.225 269.182 150.925 269.182C150.626 269.182 150.38 269.259 150.187 269.415C149.994 269.57 149.851 269.774 149.758 270.026C149.665 270.277 149.619 270.549 149.619 270.841C149.619 271.133 149.665 271.403 149.758 271.653C149.851 271.903 149.994 272.105 150.187 272.259C150.38 272.412 150.626 272.489 150.925 272.489ZM155.574 273.091C155.21 273.091 154.889 272.999 154.611 272.815C154.332 272.63 154.115 272.368 153.957 272.031C153.8 271.692 153.722 271.292 153.722 270.83C153.722 270.371 153.8 269.973 153.957 269.636C154.115 269.299 154.333 269.039 154.614 268.855C154.894 268.671 155.218 268.58 155.585 268.58C155.869 268.58 156.094 268.627 156.259 268.722C156.425 268.814 156.552 268.92 156.639 269.04C156.728 269.157 156.797 269.254 156.847 269.33H156.903V267.182H157.574V273H156.926V272.33H156.847C156.797 272.409 156.727 272.509 156.636 272.631C156.545 272.75 156.416 272.857 156.247 272.952C156.079 273.045 155.854 273.091 155.574 273.091ZM155.665 272.489C155.934 272.489 156.161 272.419 156.347 272.278C156.532 272.136 156.673 271.94 156.77 271.69C156.866 271.438 156.915 271.148 156.915 270.818C156.915 270.492 156.867 270.207 156.773 269.963C156.678 269.717 156.538 269.526 156.352 269.389C156.167 269.251 155.938 269.182 155.665 269.182C155.381 269.182 155.144 269.255 154.955 269.401C154.767 269.545 154.626 269.741 154.531 269.989C154.438 270.235 154.392 270.511 154.392 270.818C154.392 271.129 154.439 271.411 154.534 271.665C154.631 271.917 154.773 272.117 154.96 272.267C155.15 272.415 155.384 272.489 155.665 272.489ZM160.724 273.091C160.304 273.091 159.941 272.998 159.636 272.812C159.333 272.625 159.099 272.364 158.935 272.028C158.772 271.691 158.69 271.299 158.69 270.852C158.69 270.405 158.772 270.011 158.935 269.67C159.099 269.328 159.329 269.061 159.622 268.869C159.918 268.676 160.262 268.58 160.656 268.58C160.884 268.58 161.108 268.617 161.33 268.693C161.551 268.769 161.753 268.892 161.935 269.062C162.116 269.231 162.261 269.455 162.369 269.733C162.477 270.011 162.531 270.354 162.531 270.761V271.045H159.168V270.466H161.849C161.849 270.22 161.8 270 161.702 269.807C161.605 269.614 161.467 269.461 161.287 269.349C161.109 269.238 160.899 269.182 160.656 269.182C160.389 269.182 160.158 269.248 159.963 269.381C159.77 269.511 159.621 269.682 159.517 269.892C159.413 270.102 159.361 270.328 159.361 270.568V270.955C159.361 271.284 159.418 271.563 159.531 271.793C159.647 272.02 159.807 272.193 160.011 272.312C160.216 272.43 160.454 272.489 160.724 272.489C160.901 272.489 161.06 272.464 161.202 272.415C161.346 272.364 161.47 272.288 161.574 272.188C161.678 272.085 161.759 271.958 161.815 271.807L162.463 271.989C162.395 272.208 162.28 272.402 162.119 272.568C161.958 272.733 161.759 272.862 161.523 272.955C161.286 273.045 161.02 273.091 160.724 273.091Z" fill="#11243E"/>
<rect x="116" y="278" width="76" height="18" rx="9" fill="#D8EFFF"/>
<path opacity="0.87" d="M136.524 291V289.188H132.54V288.192L136.296 282.6H137.796V288.036H138.888V289.188H137.796V291H136.524ZM133.956 288.036H136.596V284.028L133.956 288.036ZM143.719 291V289.188H139.735V288.192L143.491 282.6H144.991V288.036H146.083V289.188H144.991V291H143.719ZM141.151 288.036H143.791V284.028L141.151 288.036ZM149.979 291.144C149.395 291.144 148.887 291.036 148.455 290.82C148.023 290.604 147.683 290.308 147.435 289.932C147.195 289.556 147.055 289.132 147.015 288.66H148.311C148.391 289.052 148.575 289.368 148.863 289.608C149.159 289.848 149.535 289.968 149.991 289.968C150.527 289.968 150.951 289.8 151.263 289.464C151.575 289.12 151.731 288.68 151.731 288.144C151.731 287.576 151.571 287.136 151.251 286.824C150.931 286.512 150.523 286.356 150.027 286.356C149.627 286.356 149.287 286.448 149.007 286.632C148.727 286.816 148.507 287.048 148.347 287.328H147.123L147.843 282.6H152.415V283.776H148.827L148.419 285.924H148.503C148.671 285.732 148.895 285.572 149.175 285.444C149.463 285.316 149.803 285.252 150.195 285.252C150.771 285.252 151.263 285.376 151.671 285.624C152.087 285.872 152.407 286.216 152.631 286.656C152.855 287.088 152.967 287.58 152.967 288.132C152.967 288.692 152.843 289.2 152.595 289.656C152.355 290.112 152.011 290.476 151.563 290.748C151.115 291.012 150.587 291.144 149.979 291.144ZM154.378 291V289.86H156.454V284.1L154.474 284.46V283.428L156.946 282.6H157.726V289.86H159.958V291H154.378ZM161.573 291V289.86H163.649V284.1L161.669 284.46V283.428L164.141 282.6H164.921V289.86H167.153V291H161.573ZM171.577 291.144C170.929 291.144 170.361 290.968 169.873 290.616C169.393 290.264 169.021 289.764 168.757 289.116C168.493 288.46 168.361 287.688 168.361 286.8C168.361 285.904 168.493 285.132 168.757 284.484C169.021 283.836 169.393 283.336 169.873 282.984C170.361 282.632 170.929 282.456 171.577 282.456C172.233 282.456 172.801 282.632 173.281 282.984C173.761 283.336 174.133 283.836 174.397 284.484C174.661 285.132 174.793 285.904 174.793 286.8C174.793 287.688 174.661 288.46 174.397 289.116C174.133 289.764 173.761 290.264 173.281 290.616C172.801 290.968 172.233 291.144 171.577 291.144ZM169.657 286.8C169.657 287.248 169.697 287.656 169.777 288.024C169.857 288.392 169.969 288.712 170.113 288.984L172.213 283.788C172.013 283.692 171.801 283.644 171.577 283.644C171.017 283.644 170.557 283.928 170.197 284.496C169.837 285.056 169.657 285.824 169.657 286.8ZM171.577 289.968C171.953 289.968 172.285 289.84 172.573 289.584C172.861 289.328 173.085 288.964 173.245 288.492C173.413 288.012 173.497 287.448 173.497 286.8C173.497 286.352 173.457 285.944 173.377 285.576C173.297 285.208 173.185 284.892 173.041 284.628L170.941 289.824C171.141 289.92 171.353 289.968 171.577 289.968Z" fill="#7299B4"/>
<path opacity="0.2" d="M118.5 316H116.705V310.182H118.58C119.144 310.182 119.627 310.298 120.028 310.531C120.43 310.762 120.738 311.095 120.952 311.528C121.166 311.96 121.273 312.477 121.273 313.08C121.273 313.686 121.165 314.207 120.949 314.645C120.733 315.08 120.419 315.416 120.006 315.651C119.593 315.884 119.091 316 118.5 316ZM117.409 315.375H118.455C118.936 315.375 119.334 315.282 119.651 315.097C119.967 314.911 120.203 314.647 120.358 314.304C120.513 313.961 120.591 313.553 120.591 313.08C120.591 312.61 120.514 312.205 120.361 311.866C120.207 311.526 119.978 311.264 119.673 311.082C119.368 310.899 118.989 310.807 118.534 310.807H117.409V315.375ZM122.455 316V310.182H125.966V310.807H123.159V312.773H125.784V313.398H123.159V315.375H126.011V316H122.455ZM130.418 311.636C130.384 311.348 130.245 311.125 130.003 310.966C129.76 310.807 129.463 310.727 129.111 310.727C128.853 310.727 128.628 310.769 128.435 310.852C128.243 310.936 128.094 311.05 127.986 311.196C127.88 311.342 127.827 311.508 127.827 311.693C127.827 311.848 127.864 311.982 127.938 312.094C128.013 312.204 128.11 312.295 128.227 312.369C128.345 312.441 128.468 312.501 128.597 312.548C128.725 312.594 128.844 312.631 128.952 312.659L129.543 312.818C129.694 312.858 129.863 312.913 130.048 312.983C130.236 313.053 130.415 313.149 130.585 313.27C130.758 313.389 130.9 313.543 131.011 313.73C131.123 313.918 131.179 314.148 131.179 314.42C131.179 314.735 131.097 315.019 130.932 315.273C130.769 315.527 130.53 315.728 130.216 315.878C129.903 316.027 129.524 316.102 129.077 316.102C128.66 316.102 128.299 316.035 127.994 315.901C127.691 315.766 127.453 315.579 127.278 315.338C127.106 315.098 127.009 314.818 126.986 314.5H127.713C127.732 314.72 127.806 314.902 127.935 315.045C128.065 315.187 128.23 315.294 128.429 315.364C128.63 315.432 128.846 315.466 129.077 315.466C129.346 315.466 129.587 315.422 129.801 315.335C130.015 315.246 130.185 315.123 130.31 314.966C130.435 314.807 130.497 314.621 130.497 314.409C130.497 314.216 130.443 314.059 130.335 313.938C130.227 313.816 130.085 313.718 129.909 313.642C129.733 313.566 129.543 313.5 129.338 313.443L128.622 313.239C128.168 313.108 127.808 312.921 127.543 312.679C127.277 312.437 127.145 312.119 127.145 311.727C127.145 311.402 127.233 311.117 127.409 310.875C127.587 310.631 127.826 310.441 128.125 310.307C128.426 310.17 128.762 310.102 129.134 310.102C129.509 310.102 129.842 310.17 130.134 310.304C130.425 310.437 130.656 310.618 130.827 310.849C130.999 311.08 131.09 311.343 131.099 311.636H130.418ZM137.019 312H136.315C136.273 311.797 136.2 311.619 136.096 311.466C135.994 311.312 135.869 311.184 135.721 311.08C135.575 310.973 135.413 310.894 135.235 310.841C135.057 310.788 134.871 310.761 134.678 310.761C134.326 310.761 134.007 310.85 133.721 311.028C133.437 311.206 133.21 311.469 133.042 311.815C132.875 312.162 132.792 312.587 132.792 313.091C132.792 313.595 132.875 314.02 133.042 314.366C133.21 314.713 133.437 314.975 133.721 315.153C134.007 315.331 134.326 315.42 134.678 315.42C134.871 315.42 135.057 315.394 135.235 315.341C135.413 315.288 135.575 315.209 135.721 315.105C135.869 314.999 135.994 314.869 136.096 314.716C136.2 314.561 136.273 314.383 136.315 314.182H137.019C136.966 314.479 136.87 314.745 136.729 314.98C136.589 315.215 136.415 315.415 136.207 315.58C135.998 315.742 135.764 315.866 135.505 315.952C135.247 316.037 134.972 316.08 134.678 316.08C134.182 316.08 133.741 315.958 133.354 315.716C132.968 315.473 132.664 315.129 132.442 314.682C132.221 314.235 132.11 313.705 132.11 313.091C132.11 312.477 132.221 311.947 132.442 311.5C132.664 311.053 132.968 310.708 133.354 310.466C133.741 310.223 134.182 310.102 134.678 310.102C134.972 310.102 135.247 310.145 135.505 310.23C135.764 310.315 135.998 310.44 136.207 310.605C136.415 310.768 136.589 310.967 136.729 311.202C136.87 311.435 136.966 311.701 137.019 312ZM138.158 316V310.182H140.124C140.578 310.182 140.951 310.259 141.243 310.415C141.535 310.568 141.75 310.779 141.891 311.048C142.031 311.317 142.101 311.623 142.101 311.966C142.101 312.309 142.031 312.613 141.891 312.878C141.75 313.143 141.536 313.351 141.246 313.503C140.956 313.652 140.586 313.727 140.135 313.727H138.544V313.091H140.112C140.423 313.091 140.673 313.045 140.862 312.955C141.054 312.864 141.192 312.735 141.277 312.568C141.364 312.4 141.408 312.199 141.408 311.966C141.408 311.733 141.364 311.529 141.277 311.355C141.19 311.181 141.051 311.046 140.859 310.952C140.668 310.855 140.415 310.807 140.101 310.807H138.862V316H138.158ZM140.896 313.386L142.328 316H141.51L140.101 313.386H140.896ZM143.979 310.182V316H143.275V310.182H143.979ZM145.392 316V310.182H147.358C147.814 310.182 148.188 310.264 148.477 310.429C148.769 310.592 148.985 310.812 149.125 311.091C149.265 311.369 149.335 311.68 149.335 312.023C149.335 312.366 149.265 312.677 149.125 312.957C148.987 313.238 148.773 313.461 148.483 313.628C148.193 313.793 147.822 313.875 147.369 313.875H145.96V313.25H147.347C147.659 313.25 147.91 313.196 148.099 313.088C148.289 312.98 148.426 312.834 148.511 312.651C148.598 312.465 148.642 312.256 148.642 312.023C148.642 311.79 148.598 311.581 148.511 311.398C148.426 311.214 148.288 311.07 148.097 310.966C147.905 310.86 147.652 310.807 147.335 310.807H146.097V316H145.392ZM150.152 310.807V310.182H154.516V310.807H152.686V316H151.982V310.807H150.152ZM156.308 310.182V316H155.603V310.182H156.308ZM162.629 313.091C162.629 313.705 162.518 314.235 162.297 314.682C162.075 315.129 161.771 315.473 161.385 315.716C160.999 315.958 160.557 316.08 160.061 316.08C159.565 316.08 159.124 315.958 158.737 315.716C158.351 315.473 158.047 315.129 157.825 314.682C157.604 314.235 157.493 313.705 157.493 313.091C157.493 312.477 157.604 311.947 157.825 311.5C158.047 311.053 158.351 310.708 158.737 310.466C159.124 310.223 159.565 310.102 160.061 310.102C160.557 310.102 160.999 310.223 161.385 310.466C161.771 310.708 162.075 311.053 162.297 311.5C162.518 311.947 162.629 312.477 162.629 313.091ZM161.947 313.091C161.947 312.587 161.863 312.162 161.695 311.815C161.528 311.469 161.302 311.206 161.016 311.028C160.732 310.85 160.413 310.761 160.061 310.761C159.709 310.761 159.39 310.85 159.104 311.028C158.82 311.206 158.593 311.469 158.425 311.815C158.258 312.162 158.175 312.587 158.175 313.091C158.175 313.595 158.258 314.02 158.425 314.366C158.593 314.713 158.82 314.975 159.104 315.153C159.39 315.331 159.709 315.42 160.061 315.42C160.413 315.42 160.732 315.331 161.016 315.153C161.302 314.975 161.528 314.713 161.695 314.366C161.863 314.02 161.947 313.595 161.947 313.091ZM168.428 310.182V316H167.746L164.575 311.432H164.518V316H163.814V310.182H164.496L167.678 314.761H167.734V310.182H168.428Z" fill="#11243E"/>
<path opacity="0.87" d="M119.684 330.144C119.092 330.144 118.572 330.036 118.124 329.82C117.684 329.604 117.336 329.296 117.08 328.896C116.832 328.496 116.704 328.02 116.696 327.468H118.04C118.048 327.892 118.192 328.256 118.472 328.56C118.76 328.856 119.16 329.004 119.672 329.004C120.144 329.004 120.512 328.896 120.776 328.68C121.04 328.456 121.172 328.168 121.172 327.816C121.172 327.52 121.092 327.276 120.932 327.084C120.78 326.884 120.54 326.708 120.212 326.556C119.884 326.396 119.46 326.232 118.94 326.064C118.244 325.84 117.732 325.532 117.404 325.14C117.076 324.74 116.912 324.252 116.912 323.676C116.912 323.012 117.152 322.476 117.632 322.068C118.112 321.66 118.772 321.456 119.612 321.456C120.428 321.456 121.084 321.668 121.58 322.092C122.076 322.508 122.332 323.088 122.348 323.832H120.992C120.992 323.632 120.936 323.44 120.824 323.256C120.712 323.064 120.552 322.908 120.344 322.788C120.136 322.66 119.88 322.596 119.576 322.596C119.2 322.588 118.884 322.68 118.628 322.872C118.372 323.056 118.244 323.308 118.244 323.628C118.244 324.02 118.4 324.328 118.712 324.552C119.024 324.768 119.532 324.992 120.236 325.224C120.676 325.368 121.064 325.544 121.4 325.752C121.744 325.952 122.012 326.212 122.204 326.532C122.404 326.844 122.504 327.244 122.504 327.732C122.504 328.18 122.392 328.588 122.168 328.956C121.944 329.316 121.62 329.604 121.196 329.82C120.78 330.036 120.276 330.144 119.684 330.144ZM126.771 330.144C126.203 330.144 125.695 330.028 125.247 329.796C124.807 329.564 124.459 329.212 124.203 328.74C123.947 328.26 123.819 327.656 123.819 326.928V321.6H125.091V327C125.091 327.64 125.243 328.136 125.547 328.488C125.851 328.832 126.267 329.004 126.795 329.004C127.323 329.004 127.739 328.832 128.043 328.488C128.347 328.136 128.499 327.64 128.499 327V321.6H129.771V326.928C129.771 327.656 129.639 328.26 129.375 328.74C129.111 329.212 128.751 329.564 128.295 329.796C127.847 330.028 127.339 330.144 126.771 330.144ZM131.243 330V321.6H134.087C134.727 321.6 135.255 321.712 135.671 321.936C136.087 322.152 136.395 322.452 136.595 322.836C136.795 323.22 136.895 323.66 136.895 324.156C136.895 324.652 136.795 325.092 136.595 325.476C136.395 325.86 136.087 326.164 135.671 326.388C135.255 326.604 134.727 326.712 134.087 326.712H132.515V330H131.243ZM132.515 325.572H134.027C134.571 325.572 134.967 325.444 135.215 325.188C135.471 324.932 135.599 324.588 135.599 324.156C135.599 323.732 135.471 323.392 135.215 323.136C134.967 322.872 134.571 322.74 134.027 322.74H132.515V325.572ZM138.546 330V321.6H143.91V322.74H139.818V325.188H143.55V326.316H139.818V328.86H143.91V330H138.546ZM145.681 330V321.6H148.429C149.085 321.6 149.625 321.712 150.049 321.936C150.481 322.16 150.801 322.464 151.009 322.848C151.225 323.224 151.333 323.652 151.333 324.132C151.333 324.676 151.193 325.16 150.913 325.584C150.641 326 150.221 326.304 149.653 326.496L151.417 330H149.941L148.333 326.676H146.953V330H145.681ZM146.953 325.524H148.357C148.933 325.524 149.353 325.396 149.617 325.14C149.889 324.884 150.025 324.548 150.025 324.132C150.025 323.708 149.893 323.372 149.629 323.124C149.365 322.868 148.937 322.74 148.345 322.74H146.953V325.524ZM152.493 330V321.6H153.837L155.577 325.392L157.317 321.6H158.661V330H157.449V324.024L156.081 327.024H155.073L153.705 324.036V330H152.493ZM159.508 330L162.016 321.6H163.528L166.036 330H164.656L164.092 327.984H161.452L160.888 330H159.508ZM162.736 323.4L161.74 326.964H163.804L162.808 323.4H162.736ZM167.267 330V321.6H170.015C170.671 321.6 171.211 321.712 171.635 321.936C172.067 322.16 172.387 322.464 172.595 322.848C172.811 323.224 172.919 323.652 172.919 324.132C172.919 324.676 172.779 325.16 172.499 325.584C172.227 326 171.807 326.304 171.239 326.496L173.003 330H171.527L169.919 326.676H168.539V330H167.267ZM168.539 325.524H169.943C170.519 325.524 170.939 325.396 171.203 325.14C171.475 324.884 171.611 324.548 171.611 324.132C171.611 323.708 171.479 323.372 171.215 323.124C170.951 322.868 170.523 322.74 169.931 322.74H168.539V325.524ZM174.475 330V321.6H175.747V325.44L178.723 321.6H180.295L177.007 325.764V325.836L180.367 330H178.759L175.747 326.232V330H174.475ZM181.718 330V321.6H187.082V322.74H182.99V325.188H186.722V326.316H182.99V328.86H187.082V330H181.718ZM190.917 330V322.74H188.661V321.6H194.445V322.74H192.189V330H190.917ZM198.832 330.144C198.24 330.144 197.72 330.036 197.272 329.82C196.832 329.604 196.484 329.296 196.228 328.896C195.98 328.496 195.852 328.02 195.844 327.468H197.188C197.196 327.892 197.34 328.256 197.62 328.56C197.908 328.856 198.308 329.004 198.82 329.004C199.292 329.004 199.66 328.896 199.924 328.68C200.188 328.456 200.32 328.168 200.32 327.816C200.32 327.52 200.24 327.276 200.08 327.084C199.928 326.884 199.688 326.708 199.36 326.556C199.032 326.396 198.608 326.232 198.088 326.064C197.392 325.84 196.88 325.532 196.552 325.14C196.224 324.74 196.06 324.252 196.06 323.676C196.06 323.012 196.3 322.476 196.78 322.068C197.26 321.66 197.92 321.456 198.76 321.456C199.576 321.456 200.232 321.668 200.728 322.092C201.224 322.508 201.48 323.088 201.496 323.832H200.14C200.14 323.632 200.084 323.44 199.972 323.256C199.86 323.064 199.7 322.908 199.492 322.788C199.284 322.66 199.028 322.596 198.724 322.596C198.348 322.588 198.032 322.68 197.776 322.872C197.52 323.056 197.392 323.308 197.392 323.628C197.392 324.02 197.548 324.328 197.86 324.552C198.172 324.768 198.68 324.992 199.384 325.224C199.824 325.368 200.212 325.544 200.548 325.752C200.892 325.952 201.16 326.212 201.352 326.532C201.552 326.844 201.652 327.244 201.652 327.732C201.652 328.18 201.54 328.588 201.316 328.956C201.092 329.316 200.768 329.604 200.344 329.82C199.928 330.036 199.424 330.144 198.832 330.144ZM209.875 330L212.383 321.6H213.895L216.403 330H215.023L214.459 327.984H211.819L211.255 330H209.875ZM213.103 323.4L212.107 326.964H214.171L213.175 323.4H213.103ZM217.346 330V321.6H218.594L222.11 327.756V321.6H223.322V330H222.074L218.558 323.844V330H217.346ZM224.614 330V321.6H226.63C227.982 321.6 228.986 321.976 229.642 322.728C230.298 323.472 230.626 324.496 230.626 325.8C230.626 327.104 230.298 328.132 229.642 328.884C228.986 329.628 227.982 330 226.63 330H224.614ZM225.886 328.824H226.582C227.558 328.824 228.262 328.552 228.694 328.008C229.126 327.456 229.342 326.72 229.342 325.8C229.342 324.88 229.126 324.148 228.694 323.604C228.262 323.052 227.558 322.776 226.582 322.776H225.886V328.824ZM241.92 330.144C241.24 330.144 240.652 329.968 240.156 329.616C239.66 329.264 239.28 328.764 239.016 328.116C238.752 327.468 238.62 326.696 238.62 325.8C238.62 324.904 238.752 324.132 239.016 323.484C239.28 322.836 239.66 322.336 240.156 321.984C240.652 321.632 241.24 321.456 241.92 321.456C242.608 321.456 243.196 321.632 243.684 321.984C244.18 322.336 244.56 322.836 244.824 323.484C245.088 324.132 245.22 324.904 245.22 325.8C245.22 326.696 245.088 327.468 244.824 328.116C244.56 328.764 244.18 329.264 243.684 329.616C243.196 329.968 242.608 330.144 241.92 330.144ZM241.92 328.944C242.52 328.944 243.004 328.676 243.372 328.14C243.74 327.596 243.924 326.816 243.924 325.8C243.924 324.784 243.74 324.008 243.372 323.472C243.004 322.928 242.52 322.656 241.92 322.656C241.312 322.656 240.824 322.928 240.456 323.472C240.096 324.008 239.916 324.784 239.916 325.8C239.916 326.816 240.096 327.596 240.456 328.14C240.824 328.676 241.312 328.944 241.92 328.944ZM248.48 330V322.74H246.224V321.6H252.008V322.74H249.752V330H248.48ZM253.203 330V321.6H254.475V325.08H258.147V321.6H259.419V330H258.147V326.244H254.475V330H253.203ZM260.866 330V321.6H266.23V322.74H262.138V325.188H265.87V326.316H262.138V328.86H266.23V330H260.866ZM268.002 330V321.6H270.75C271.406 321.6 271.946 321.712 272.37 321.936C272.802 322.16 273.122 322.464 273.33 322.848C273.546 323.224 273.654 323.652 273.654 324.132C273.654 324.676 273.514 325.16 273.234 325.584C272.962 326 272.542 326.304 271.974 326.496L273.738 330H272.262L270.654 326.676H269.274V330H268.002ZM269.274 325.524H270.678C271.254 325.524 271.674 325.396 271.938 325.14C272.21 324.884 272.346 324.548 272.346 324.132C272.346 323.708 272.214 323.372 271.95 323.124C271.686 322.868 271.258 322.74 270.666 322.74H269.274V325.524ZM284.984 330.144C284.36 330.144 283.812 329.968 283.34 329.616C282.868 329.256 282.5 328.752 282.236 328.104C281.972 327.456 281.84 326.688 281.84 325.8C281.84 324.928 281.972 324.168 282.236 323.52C282.5 322.872 282.876 322.368 283.364 322.008C283.86 321.64 284.452 321.456 285.14 321.456C285.972 321.456 286.64 321.684 287.144 322.14C287.656 322.596 287.968 323.24 288.08 324.072H286.7C286.62 323.64 286.444 323.296 286.172 323.04C285.908 322.784 285.564 322.656 285.14 322.656C284.492 322.656 283.996 322.936 283.652 323.496C283.308 324.056 283.136 324.824 283.136 325.8C283.136 326.816 283.316 327.596 283.676 328.14C284.044 328.676 284.52 328.944 285.104 328.944C285.496 328.944 285.82 328.828 286.076 328.596C286.332 328.364 286.528 328.068 286.664 327.708C286.8 327.34 286.884 326.952 286.916 326.544H285.152V325.488H288.2V330H287.024L286.94 328.872H286.868C286.708 329.24 286.484 329.544 286.196 329.784C285.908 330.024 285.504 330.144 284.984 330.144ZM289.588 330V321.6H292.336C292.992 321.6 293.532 321.712 293.956 321.936C294.388 322.16 294.708 322.464 294.916 322.848C295.132 323.224 295.24 323.652 295.24 324.132C295.24 324.676 295.1 325.16 294.82 325.584C294.548 326 294.128 326.304 293.56 326.496L295.324 330H293.848L292.24 326.676H290.86V330H289.588ZM290.86 325.524H292.264C292.84 325.524 293.26 325.396 293.524 325.14C293.796 324.884 293.932 324.548 293.932 324.132C293.932 323.708 293.8 323.372 293.536 323.124C293.272 322.868 292.844 322.74 292.252 322.74H290.86V325.524ZM299.483 330.144C298.803 330.144 298.215 329.968 297.719 329.616C297.223 329.264 296.843 328.764 296.579 328.116C296.315 327.468 296.183 326.696 296.183 325.8C296.183 324.904 296.315 324.132 296.579 323.484C296.843 322.836 297.223 322.336 297.719 321.984C298.215 321.632 298.803 321.456 299.483 321.456C300.171 321.456 300.759 321.632 301.247 321.984C301.743 322.336 302.123 322.836 302.387 323.484C302.651 324.132 302.783 324.904 302.783 325.8C302.783 326.696 302.651 327.468 302.387 328.116C302.123 328.764 301.743 329.264 301.247 329.616C300.759 329.968 300.171 330.144 299.483 330.144ZM299.483 328.944C300.083 328.944 300.567 328.676 300.935 328.14C301.303 327.596 301.487 326.816 301.487 325.8C301.487 324.784 301.303 324.008 300.935 323.472C300.567 322.928 300.083 322.656 299.483 322.656C298.875 322.656 298.387 322.928 298.019 323.472C297.659 324.008 297.479 324.784 297.479 325.8C297.479 326.816 297.659 327.596 298.019 328.14C298.387 328.676 298.875 328.944 299.483 328.944ZM306.702 330.144C305.998 330.144 305.398 329.964 304.902 329.604C304.414 329.244 304.038 328.74 303.774 328.092C303.518 327.436 303.39 326.676 303.39 325.812C303.39 324.94 303.518 324.18 303.774 323.532C304.038 322.876 304.418 322.368 304.914 322.008C305.41 321.64 306.006 321.456 306.702 321.456C307.606 321.456 308.326 321.704 308.862 322.2C309.398 322.688 309.71 323.352 309.798 324.192H308.394C308.322 323.752 308.142 323.388 307.854 323.1C307.574 322.804 307.186 322.656 306.69 322.656C306.058 322.656 305.566 322.936 305.214 323.496C304.862 324.056 304.686 324.828 304.686 325.812C304.686 326.788 304.862 327.556 305.214 328.116C305.566 328.668 306.058 328.944 306.69 328.944C307.202 328.944 307.594 328.812 307.866 328.548C308.138 328.276 308.314 327.92 308.394 327.48H309.798C309.67 328.304 309.346 328.956 308.826 329.436C308.306 329.908 307.598 330.144 306.702 330.144ZM311.233 330V321.6H316.597V322.74H312.505V325.188H316.237V326.316H312.505V328.86H316.597V330H311.233ZM318.369 330V321.6H321.117C321.773 321.6 322.313 321.712 322.737 321.936C323.169 322.16 323.489 322.464 323.697 322.848C323.913 323.224 324.021 323.652 324.021 324.132C324.021 324.676 323.881 325.16 323.601 325.584C323.329 326 322.909 326.304 322.341 326.496L324.105 330H322.629L321.021 326.676H319.641V330H318.369ZM319.641 325.524H321.045C321.621 325.524 322.041 325.396 322.305 325.14C322.577 324.884 322.713 324.548 322.713 324.132C322.713 323.708 322.581 323.372 322.317 323.124C322.053 322.868 321.625 322.74 321.033 322.74H319.641V325.524ZM327.628 330V326.808L324.856 321.6H326.308L328.264 325.464L330.22 321.6H331.672L328.9 326.808V330H327.628ZM343.075 332.22C342.651 331.74 342.263 331.212 341.911 330.636C341.567 330.068 341.291 329.424 341.083 328.704C340.883 327.984 340.783 327.164 340.783 326.244C340.783 325.316 340.883 324.496 341.083 323.784C341.291 323.064 341.567 322.42 341.911 321.852C342.263 321.276 342.651 320.748 343.075 320.268H344.371V320.424C343.907 320.96 343.503 321.516 343.159 322.092C342.815 322.66 342.547 323.284 342.355 323.964C342.163 324.636 342.067 325.396 342.067 326.244C342.067 327.084 342.163 327.844 342.355 328.524C342.547 329.204 342.815 329.828 343.159 330.396C343.503 330.972 343.907 331.528 344.371 332.064V332.22H343.075ZM347.21 330V321.6H352.574V322.74H348.482V325.188H352.214V326.316H348.482V328.86H352.574V330H347.21ZM353.817 330L356.325 325.8L353.793 321.6H355.269L357.081 324.624L358.845 321.6H360.273L357.765 325.764L360.297 330H358.845L357.009 326.94L355.269 330H353.817ZM364.265 330.144C363.561 330.144 362.961 329.964 362.465 329.604C361.977 329.244 361.601 328.74 361.337 328.092C361.081 327.436 360.953 326.676 360.953 325.812C360.953 324.94 361.081 324.18 361.337 323.532C361.601 322.876 361.981 322.368 362.477 322.008C362.973 321.64 363.569 321.456 364.265 321.456C365.169 321.456 365.889 321.704 366.425 322.2C366.961 322.688 367.273 323.352 367.361 324.192H365.957C365.885 323.752 365.705 323.388 365.417 323.1C365.137 322.804 364.749 322.656 364.253 322.656C363.621 322.656 363.129 322.936 362.777 323.496C362.425 324.056 362.249 324.828 362.249 325.812C362.249 326.788 362.425 327.556 362.777 328.116C363.129 328.668 363.621 328.944 364.253 328.944C364.765 328.944 365.157 328.812 365.429 328.548C365.701 328.276 365.877 327.92 365.957 327.48H367.361C367.233 328.304 366.909 328.956 366.389 329.436C365.869 329.908 365.161 330.144 364.265 330.144ZM368.796 330V321.6H374.16V322.74H370.068V325.188H373.8V326.316H370.068V328.86H374.16V330H368.796ZM375.883 330V321.6H378.727C379.367 321.6 379.895 321.712 380.311 321.936C380.727 322.152 381.035 322.452 381.235 322.836C381.435 323.22 381.535 323.66 381.535 324.156C381.535 324.652 381.435 325.092 381.235 325.476C381.035 325.86 380.727 326.164 380.311 326.388C379.895 326.604 379.367 326.712 378.727 326.712H377.155V330H375.883ZM377.155 325.572H378.667C379.211 325.572 379.607 325.444 379.855 325.188C380.111 324.932 380.239 324.588 380.239 324.156C380.239 323.732 380.111 323.392 379.855 323.136C379.607 322.872 379.211 322.74 378.667 322.74H377.155V325.572ZM385.191 330V322.74H382.935V321.6H388.719V322.74H386.463V330H385.191ZM390.55 330.072C390.27 330.072 390.034 329.976 389.842 329.784C389.65 329.584 389.554 329.344 389.554 329.064C389.554 328.784 389.65 328.548 389.842 328.356C390.034 328.164 390.27 328.068 390.55 328.068C390.83 328.068 391.066 328.164 391.258 328.356C391.45 328.548 391.546 328.784 391.546 329.064C391.546 329.344 391.45 329.584 391.258 329.784C391.066 329.976 390.83 330.072 390.55 330.072ZM393.022 330.072C392.742 330.072 392.506 329.976 392.314 329.784C392.122 329.584 392.026 329.344 392.026 329.064C392.026 328.784 392.122 328.548 392.314 328.356C392.506 328.164 392.742 328.068 393.022 328.068C393.302 328.068 393.538 328.164 393.73 328.356C393.922 328.548 394.018 328.784 394.018 329.064C394.018 329.344 393.922 329.584 393.73 329.784C393.538 329.976 393.302 330.072 393.022 330.072ZM395.494 330.072C395.222 330.072 394.986 329.976 394.786 329.784C394.594 329.584 394.498 329.344 394.498 329.064C394.498 328.784 394.594 328.548 394.786 328.356C394.986 328.164 395.222 328.068 395.494 328.068C395.774 328.068 396.01 328.164 396.202 328.356C396.394 328.548 396.49 328.784 396.49 329.064C396.49 329.344 396.394 329.584 396.202 329.784C396.01 329.976 395.774 330.072 395.494 330.072Z" fill="#2E2E2E"/>
<g clip-path="url(#clip1_685_4177)">
<path d="M423 276L429 282L435 276" stroke="#686D73" stroke-width="1.5" stroke-linecap="round" stroke-linejoin="round"/>
</g>
</g>
<defs>
<filter id="filter0_d_685_4177" x="74.122" y="181.098" width="408.756" height="199.756" filterUnits="userSpaceOnUse" color-interpolation-filters="sRGB">
<feFlood flood-opacity="0" result="BackgroundImageFix"/>
<feColorMatrix in="SourceAlpha" type="matrix" values="0 0 0 0 0 0 0 0 0 0 0 0 0 0 0 0 0 0 127 0" result="hardAlpha"/>
<feOffset dy="4.97561"/>
<feGaussianBlur stdDeviation="12.439"/>
<feComposite in2="hardAlpha" operator="out"/>
<feColorMatrix type="matrix" values="0 0 0 0 0.801345 0 0 0 0 0.801345 0 0 0 0 0.801345 0 0 0 0.22 0"/>
<feBlend mode="normal" in2="BackgroundImageFix" result="effect1_dropShadow_685_4177"/>
<feBlend mode="normal" in="SourceGraphic" in2="effect1_dropShadow_685_4177" result="shape"/>
</filter>
<clipPath id="clip0_685_4177">
<rect width="556" height="553" fill="white"/>
</clipPath>
<clipPath id="clip1_685_4177">
<rect width="24" height="24" fill="white" transform="translate(417 267)"/>
</clipPath>
</defs>
</svg>
