<svg width="556" height="553" viewBox="0 0 556 553" fill="none" xmlns="http://www.w3.org/2000/svg">
<g clip-path="url(#clip0_685_3793)">
<rect width="556" height="553" fill="white"/>
<path d="M97 457V180.475C97 170.544 105.044 162.489 114.975 162.475L441.475 162.025C451.426 162.011 459.5 170.074 459.5 180.025V457C459.5 466.941 451.441 475 441.5 475H115C105.059 475 97 466.941 97 457Z" stroke="#CED2D2"/>
<path d="M104 452.728V184.213C104 174.569 111.811 166.748 121.455 166.734L438.497 166.297C448.16 166.284 456 174.113 456 183.776V452.728C456 462.381 448.175 470.207 438.521 470.207H121.479C111.825 470.207 104 462.381 104 452.728Z" stroke="#CED2D2" stroke-width="1.01149"/>
<path d="M107 211H455" stroke="#CED2D2"/>
<path d="M108 338H455" stroke="#CED2D2" stroke-dasharray="4 4"/>
<path d="M106 379H453" stroke="#CED2D2" stroke-dasharray="4 4"/>
<path d="M104 420H451" stroke="#CED2D2" stroke-dasharray="4 4"/>
<rect x="460" y="26" width="202" height="120.5" rx="16" stroke="#CED2D2"/>
<path d="M463 128.876V43.1239C463 35.3235 469.323 29 477.124 29H645.602C653.402 29 659.726 35.3235 659.726 43.1239V128.876C659.726 136.677 653.402 143 645.602 143H477.124C469.323 143 463 136.677 463 128.876Z" stroke="#CED2D2" stroke-width="1.00885"/>
<path d="M524.637 106.561C524.849 106.35 525.149 106.244 525.447 106.282C526.1 106.364 526.37 106.415 526.58 106.541C526.877 106.719 526.991 107.089 526.995 107.435C527.001 108.086 526.522 108.635 525.878 108.727C525.185 108.826 524.5 108.379 524.404 107.686C524.39 107.591 524.377 107.487 524.362 107.364C524.325 107.067 524.426 106.773 524.637 106.561Z" fill="#C5C5C5"/>
<path d="M519.276 106.561C519.487 106.35 519.788 106.244 520.085 106.282C520.738 106.364 521.008 106.415 521.219 106.541C521.515 106.719 521.63 107.089 521.633 107.435C521.639 108.086 521.161 108.635 520.516 108.727C519.824 108.826 519.139 108.379 519.042 107.686C519.029 107.591 519.016 107.487 519 107.364C518.964 107.067 519.064 106.773 519.276 106.561Z" fill="#C5C5C5"/>
<path d="M513.912 106.561C514.124 106.35 514.425 106.244 514.722 106.282C515.375 106.364 515.645 106.415 515.856 106.541C516.152 106.719 516.267 107.089 516.27 107.435C516.276 108.086 515.798 108.635 515.153 108.727C514.46 108.826 513.776 108.379 513.679 107.686C513.666 107.591 513.652 107.487 513.637 107.364C513.6 107.067 513.701 106.773 513.912 106.561Z" fill="#C5C5C5"/>
<path d="M497.828 106.561C498.04 106.35 498.341 106.244 498.638 106.282C499.291 106.364 499.561 106.415 499.772 106.541C500.068 106.719 500.183 107.089 500.186 107.435C500.192 108.086 499.714 108.635 499.069 108.727C498.376 108.826 497.692 108.379 497.595 107.686C497.582 107.591 497.568 107.487 497.553 107.364C497.516 107.067 497.617 106.773 497.828 106.561Z" fill="#C5C5C5"/>
<path d="M492.465 106.561C492.677 106.35 492.978 106.244 493.275 106.282C493.928 106.364 494.198 106.415 494.408 106.541C494.705 106.719 494.82 107.089 494.823 107.435C494.829 108.086 494.35 108.635 493.706 108.727C493.013 108.826 492.329 108.379 492.232 107.686C492.219 107.591 492.205 107.487 492.19 107.364C492.153 107.067 492.254 106.773 492.465 106.561Z" fill="#C5C5C5"/>
<path d="M497.828 82.434C498.04 82.2222 498.341 82.1165 498.638 82.1541C499.291 82.2369 499.561 82.2874 499.772 82.4138C500.068 82.5915 500.183 82.9619 500.186 83.3075C500.192 83.9587 499.714 84.5079 499.069 84.6C498.376 84.6989 497.692 84.2512 497.595 83.5582C497.582 83.464 497.568 83.3599 497.553 83.2365C497.516 82.9399 497.617 82.6453 497.828 82.434Z" fill="#C5C5C5"/>
<path d="M551.449 124.652C551.657 124.443 551.953 124.339 552.246 124.375C552.43 124.398 552.572 124.417 552.701 124.437C553.351 124.535 553.841 125.11 553.817 125.766C553.816 125.813 553.814 125.863 553.811 125.917C553.8 126.183 553.69 126.432 553.502 126.62C553.264 126.858 552.925 126.974 552.593 126.923C552.498 126.908 552.417 126.895 552.341 126.881C551.782 126.778 551.333 126.33 551.23 125.77C551.214 125.68 551.198 125.583 551.18 125.465C551.135 125.166 551.235 124.866 551.449 124.652Z" fill="#C4C4C4"/>
<path d="M546.087 124.652C546.296 124.443 546.592 124.339 546.885 124.375C547.069 124.398 547.21 124.417 547.339 124.437C547.989 124.535 548.48 125.11 548.456 125.766C548.454 125.813 548.452 125.863 548.45 125.917C548.439 126.183 548.329 126.432 548.141 126.62C547.903 126.858 547.564 126.974 547.232 126.923C547.137 126.908 547.056 126.895 546.98 126.881C546.42 126.778 545.972 126.33 545.869 125.77C545.853 125.68 545.837 125.583 545.819 125.465C545.774 125.166 545.873 124.866 546.087 124.652Z" fill="#C4C4C4"/>
<path d="M540.726 124.652C540.935 124.443 541.23 124.339 541.523 124.375C541.707 124.398 541.849 124.417 541.978 124.437C542.628 124.535 543.118 125.11 543.095 125.766C543.093 125.813 543.091 125.863 543.089 125.917C543.077 126.183 542.968 126.432 542.78 126.62C542.542 126.858 542.203 126.974 541.87 126.923C541.776 126.908 541.695 126.895 541.619 126.881C541.059 126.778 540.611 126.33 540.508 125.77C540.491 125.68 540.476 125.583 540.458 125.465C540.412 125.166 540.512 124.866 540.726 124.652Z" fill="#C4C4C4"/>
<path d="M535.365 124.652C535.573 124.443 535.869 124.339 536.162 124.375C536.346 124.398 536.488 124.417 536.617 124.437C537.267 124.535 537.757 125.11 537.733 125.766C537.732 125.813 537.73 125.863 537.727 125.917C537.716 126.183 537.606 126.432 537.418 126.62C537.18 126.858 536.841 126.974 536.509 126.923C536.414 126.908 536.333 126.895 536.258 126.881C535.698 126.778 535.249 126.33 535.146 125.77C535.13 125.68 535.114 125.583 535.096 125.465C535.051 125.166 535.151 124.866 535.365 124.652Z" fill="#C4C4C4"/>
<path d="M530.003 124.652C530.212 124.443 530.508 124.339 530.801 124.375C530.985 124.398 531.126 124.417 531.256 124.437C531.905 124.535 532.396 125.11 532.372 125.766C532.37 125.813 532.368 125.863 532.366 125.917C532.355 126.183 532.245 126.432 532.057 126.62C531.819 126.858 531.48 126.974 531.148 126.923C531.053 126.908 530.972 126.895 530.896 126.881C530.336 126.778 529.888 126.33 529.785 125.77C529.769 125.68 529.753 125.583 529.735 125.465C529.69 125.166 529.789 124.866 530.003 124.652Z" fill="#C4C4C4"/>
<path d="M524.642 124.652C524.851 124.443 525.146 124.339 525.439 124.375C525.623 124.398 525.765 124.417 525.894 124.437C526.544 124.535 527.034 125.11 527.011 125.766C527.009 125.813 527.007 125.863 527.005 125.917C526.993 126.183 526.884 126.432 526.696 126.62C526.458 126.858 526.119 126.974 525.786 126.923C525.692 126.908 525.611 126.895 525.535 126.881C524.975 126.778 524.527 126.33 524.424 125.77C524.407 125.68 524.392 125.583 524.374 125.465C524.328 125.166 524.428 124.866 524.642 124.652Z" fill="#C4C4C4"/>
<path d="M519.281 124.652C519.489 124.443 519.785 124.339 520.078 124.375C520.262 124.398 520.404 124.417 520.533 124.437C521.183 124.535 521.673 125.11 521.649 125.766C521.648 125.813 521.646 125.863 521.643 125.917C521.632 126.183 521.522 126.432 521.334 126.62C521.096 126.858 520.757 126.974 520.425 126.923C520.33 126.908 520.249 126.895 520.174 126.881C519.614 126.778 519.165 126.33 519.062 125.77C519.046 125.68 519.03 125.583 519.012 125.465C518.967 125.166 519.067 124.866 519.281 124.652Z" fill="#C4C4C4"/>
<path d="M513.917 124.652C514.126 124.443 514.422 124.339 514.715 124.375C514.899 124.398 515.04 124.417 515.17 124.437C515.819 124.535 516.31 125.11 516.286 125.766C516.284 125.813 516.282 125.863 516.28 125.917C516.269 126.183 516.159 126.432 515.971 126.62C515.733 126.858 515.394 126.974 515.062 126.923C514.967 126.908 514.886 126.895 514.81 126.881C514.25 126.778 513.802 126.33 513.699 125.77C513.683 125.68 513.667 125.583 513.649 125.465C513.604 125.166 513.703 124.866 513.917 124.652Z" fill="#C4C4C4"/>
<path d="M508.556 124.652C508.765 124.443 509.061 124.339 509.353 124.375C509.538 124.398 509.679 124.417 509.808 124.437C510.458 124.535 510.948 125.11 510.925 125.766C510.923 125.813 510.921 125.863 510.919 125.917C510.907 126.183 510.798 126.432 510.61 126.62C510.372 126.858 510.033 126.974 509.7 126.923C509.606 126.908 509.525 126.895 509.449 126.881C508.889 126.778 508.441 126.33 508.338 125.77C508.321 125.68 508.306 125.583 508.288 125.465C508.243 125.166 508.342 124.866 508.556 124.652Z" fill="#C4C4C4"/>
<path d="M503.195 124.652C503.403 124.443 503.699 124.339 503.992 124.375C504.176 124.398 504.318 124.417 504.447 124.437C505.097 124.535 505.587 125.11 505.563 125.766C505.562 125.813 505.56 125.863 505.557 125.917C505.546 126.183 505.436 126.432 505.248 126.62C505.01 126.858 504.672 126.974 504.339 126.923C504.244 126.908 504.163 126.895 504.088 126.881C503.528 126.778 503.079 126.33 502.977 125.77C502.96 125.68 502.944 125.583 502.926 125.465C502.881 125.166 502.981 124.866 503.195 124.652Z" fill="#C4C4C4"/>
<path d="M497.833 124.652C498.042 124.443 498.338 124.339 498.631 124.375C498.815 124.398 498.956 124.417 499.086 124.437C499.735 124.535 500.226 125.11 500.202 125.766C500.2 125.813 500.198 125.863 500.196 125.917C500.185 126.183 500.075 126.432 499.887 126.62C499.649 126.858 499.31 126.974 498.978 126.923C498.883 126.908 498.802 126.895 498.726 126.881C498.166 126.778 497.718 126.33 497.615 125.77C497.599 125.68 497.583 125.583 497.565 125.465C497.52 125.166 497.619 124.866 497.833 124.652Z" fill="#C4C4C4"/>
<path d="M492.47 124.652C492.679 124.443 492.975 124.339 493.267 124.375C493.452 124.398 493.593 124.417 493.722 124.437C494.372 124.535 494.862 125.11 494.839 125.766C494.837 125.813 494.835 125.863 494.833 125.917C494.821 126.183 494.712 126.432 494.524 126.62C494.286 126.858 493.947 126.974 493.614 126.923C493.52 126.908 493.439 126.895 493.363 126.881C492.803 126.778 492.355 126.33 492.252 125.77C492.235 125.68 492.22 125.583 492.202 125.465C492.157 125.166 492.256 124.866 492.47 124.652Z" fill="#C4C4C4"/>
<path d="M487.109 124.652C487.317 124.443 487.613 124.339 487.906 124.375C488.09 124.398 488.232 124.417 488.361 124.437C489.011 124.535 489.501 125.11 489.477 125.766C489.476 125.813 489.474 125.863 489.471 125.917C489.46 126.183 489.351 126.432 489.162 126.62C488.925 126.858 488.586 126.974 488.253 126.923C488.158 126.908 488.078 126.895 488.002 126.881C487.442 126.778 486.994 126.33 486.891 125.77C486.874 125.68 486.858 125.583 486.841 125.465C486.795 125.166 486.895 124.866 487.109 124.652Z" fill="#C4C4C4"/>
<path d="M481.747 124.652C481.956 124.443 482.252 124.339 482.545 124.375C482.729 124.398 482.87 124.417 483 124.437C483.649 124.535 484.14 125.11 484.116 125.766C484.114 125.813 484.112 125.863 484.11 125.917C484.099 126.183 483.989 126.432 483.801 126.62C483.563 126.858 483.224 126.974 482.892 126.923C482.797 126.908 482.716 126.895 482.64 126.881C482.081 126.778 481.632 126.33 481.529 125.77C481.513 125.68 481.497 125.583 481.479 125.465C481.434 125.166 481.534 124.866 481.747 124.652Z" fill="#C4C4C4"/>
<path d="M551.229 119.379C551.328 118.729 551.902 118.239 552.559 118.262C552.605 118.264 552.655 118.266 552.709 118.268C552.975 118.28 553.224 118.389 553.412 118.577C553.65 118.815 553.766 119.154 553.715 119.487C553.7 119.581 553.687 119.662 553.673 119.738C553.57 120.298 553.122 120.746 552.562 120.849C552.472 120.865 552.376 120.881 552.257 120.899C551.958 120.944 551.658 120.845 551.444 120.631C551.236 120.422 551.131 120.126 551.168 119.834C551.19 119.649 551.209 119.508 551.229 119.379Z" fill="#C7C7C7"/>
<path d="M545.867 119.379C545.966 118.729 546.54 118.239 547.197 118.262C547.244 118.264 547.294 118.266 547.348 118.268C547.613 118.28 547.862 118.389 548.051 118.577C548.288 118.815 548.405 119.154 548.354 119.487C548.339 119.581 548.326 119.662 548.312 119.738C548.209 120.298 547.76 120.746 547.201 120.849C547.111 120.865 547.014 120.881 546.896 120.899C546.597 120.944 546.297 120.845 546.083 120.631C545.874 120.422 545.77 120.126 545.806 119.834C545.829 119.649 545.848 119.508 545.867 119.379Z" fill="#C7C7C7"/>
<path d="M540.506 119.379C540.605 118.729 541.179 118.239 541.836 118.262C541.882 118.264 541.932 118.266 541.986 118.268C542.252 118.28 542.501 118.389 542.689 118.577C542.927 118.815 543.044 119.154 542.992 119.487C542.978 119.581 542.964 119.662 542.95 119.738C542.847 120.298 542.399 120.746 541.839 120.849C541.75 120.865 541.653 120.881 541.535 120.899C541.236 120.944 540.935 120.845 540.722 120.631C540.513 120.422 540.409 120.126 540.445 119.834C540.468 119.649 540.486 119.508 540.506 119.379Z" fill="#C7C7C7"/>
<path d="M535.145 119.379C535.244 118.729 535.818 118.239 536.475 118.262C536.521 118.264 536.571 118.266 536.625 118.268C536.891 118.28 537.14 118.389 537.328 118.577C537.566 118.815 537.682 119.154 537.631 119.487C537.616 119.581 537.603 119.662 537.589 119.738C537.486 120.298 537.038 120.746 536.478 120.849C536.388 120.865 536.292 120.881 536.173 120.899C535.874 120.944 535.574 120.845 535.36 120.631C535.152 120.422 535.047 120.126 535.084 119.834C535.106 119.649 535.125 119.508 535.145 119.379Z" fill="#C7C7C7"/>
<path d="M524.422 119.379C524.521 118.729 525.095 118.239 525.752 118.262C525.798 118.264 525.848 118.266 525.902 118.268C526.168 118.28 526.417 118.389 526.605 118.577C526.843 118.815 526.96 119.154 526.908 119.487C526.894 119.581 526.88 119.662 526.866 119.738C526.764 120.298 526.315 120.746 525.755 120.849C525.666 120.865 525.569 120.881 525.451 120.899C525.152 120.944 524.852 120.845 524.638 120.631C524.429 120.422 524.325 120.126 524.361 119.834C524.384 119.649 524.402 119.508 524.422 119.379Z" fill="#C7C7C7"/>
<path d="M519.061 119.379C519.16 118.729 519.734 118.239 520.391 118.262C520.437 118.264 520.487 118.266 520.541 118.268C520.807 118.28 521.056 118.389 521.244 118.577C521.482 118.815 521.598 119.154 521.547 119.487C521.532 119.581 521.519 119.662 521.505 119.738C521.402 120.298 520.954 120.746 520.394 120.849C520.304 120.865 520.208 120.881 520.089 120.899C519.79 120.944 519.49 120.845 519.276 120.631C519.068 120.422 518.963 120.126 519 119.834C519.022 119.649 519.041 119.508 519.061 119.379Z" fill="#C7C7C7"/>
<path d="M513.698 119.379C513.796 118.729 514.371 118.239 515.027 118.262C515.074 118.264 515.124 118.266 515.178 118.268C515.444 118.28 515.693 118.389 515.881 118.577C516.119 118.815 516.235 119.154 516.184 119.487C516.169 119.581 516.156 119.662 516.142 119.738C516.039 120.298 515.591 120.746 515.031 120.849C514.941 120.865 514.844 120.881 514.726 120.899C514.427 120.944 514.127 120.845 513.913 120.631C513.704 120.422 513.6 120.126 513.636 119.834C513.659 119.649 513.678 119.508 513.698 119.379Z" fill="#C7C7C7"/>
<path d="M508.336 119.379C508.435 118.729 509.009 118.239 509.666 118.262C509.713 118.264 509.762 118.266 509.817 118.268C510.082 118.28 510.331 118.389 510.519 118.577C510.757 118.815 510.874 119.154 510.822 119.487C510.808 119.581 510.794 119.662 510.78 119.738C510.678 120.298 510.229 120.746 509.669 120.849C509.58 120.865 509.483 120.881 509.365 120.899C509.066 120.944 508.766 120.845 508.552 120.631C508.343 120.422 508.239 120.126 508.275 119.834C508.298 119.649 508.316 119.508 508.336 119.379Z" fill="#C7C7C7"/>
<path d="M502.975 119.379C503.074 118.729 503.648 118.239 504.305 118.262C504.351 118.264 504.401 118.266 504.455 118.268C504.721 118.28 504.97 118.389 505.158 118.577C505.396 118.815 505.512 119.154 505.461 119.487C505.446 119.581 505.433 119.662 505.419 119.738C505.316 120.298 504.868 120.746 504.308 120.849C504.218 120.865 504.122 120.881 504.003 120.899C503.704 120.944 503.404 120.845 503.19 120.631C502.982 120.422 502.877 120.126 502.914 119.834C502.936 119.649 502.955 119.508 502.975 119.379Z" fill="#C7C7C7"/>
<path d="M497.614 119.379C497.712 118.729 498.287 118.239 498.943 118.262C498.99 118.264 499.04 118.266 499.094 118.268C499.36 118.28 499.609 118.389 499.797 118.577C500.035 118.815 500.151 119.154 500.1 119.487C500.085 119.581 500.072 119.662 500.058 119.738C499.955 120.298 499.507 120.746 498.947 120.849C498.857 120.865 498.76 120.881 498.642 120.899C498.343 120.944 498.043 120.845 497.829 120.631C497.62 120.422 497.516 120.126 497.552 119.834C497.575 119.649 497.594 119.508 497.614 119.379Z" fill="#C7C7C7"/>
<path d="M492.25 119.379C492.349 118.729 492.923 118.239 493.58 118.262C493.627 118.264 493.676 118.266 493.731 118.268C493.996 118.28 494.245 118.389 494.433 118.577C494.671 118.815 494.788 119.154 494.736 119.487C494.722 119.581 494.708 119.662 494.695 119.738C494.592 120.298 494.143 120.746 493.584 120.849C493.494 120.865 493.397 120.881 493.279 120.899C492.98 120.944 492.68 120.845 492.466 120.631C492.257 120.422 492.153 120.126 492.189 119.834C492.212 119.649 492.231 119.508 492.25 119.379Z" fill="#C7C7C7"/>
<path d="M486.889 119.379C486.988 118.729 487.562 118.239 488.219 118.262C488.265 118.264 488.315 118.266 488.369 118.268C488.635 118.28 488.884 118.389 489.072 118.577C489.31 118.815 489.427 119.154 489.375 119.487C489.361 119.581 489.347 119.662 489.333 119.738C489.23 120.298 488.782 120.746 488.222 120.849C488.132 120.865 488.036 120.881 487.918 120.899C487.618 120.944 487.318 120.845 487.104 120.631C486.896 120.422 486.791 120.126 486.828 119.834C486.851 119.649 486.869 119.508 486.889 119.379Z" fill="#C7C7C7"/>
<path d="M481.528 119.379C481.627 118.729 482.201 118.239 482.858 118.262C482.904 118.264 482.954 118.266 483.008 118.268C483.274 118.28 483.523 118.389 483.711 118.577C483.949 118.815 484.065 119.154 484.014 119.487C483.999 119.581 483.986 119.662 483.972 119.738C483.869 120.298 483.421 120.746 482.861 120.849C482.771 120.865 482.675 120.881 482.556 120.899C482.257 120.944 481.957 120.845 481.743 120.631C481.534 120.422 481.43 120.126 481.466 119.834C481.489 119.649 481.508 119.508 481.528 119.379Z" fill="#C7C7C7"/>
<path d="M551.439 112.598C551.653 112.384 551.958 112.279 552.257 112.324C552.376 112.342 552.472 112.358 552.562 112.374C553.122 112.477 553.559 112.886 553.666 113.445C553.759 113.934 553.626 114.526 553.208 114.796C552.98 114.943 552.768 114.953 552.242 114.978C551.772 114.953 551.37 114.619 551.282 114.156C551.237 113.919 551.209 113.726 551.168 113.39C551.131 113.097 551.231 112.806 551.439 112.598Z" fill="#C6C6C6"/>
<path d="M546.078 112.598C546.292 112.384 546.597 112.279 546.896 112.324C547.014 112.342 547.111 112.358 547.201 112.374C547.76 112.477 548.197 112.886 548.304 113.445C548.397 113.934 548.264 114.526 547.847 114.796C547.619 114.943 547.407 114.953 546.881 114.978C546.411 114.953 546.009 114.619 545.921 114.156C545.876 113.919 545.848 113.726 545.806 113.39C545.77 113.097 545.869 112.806 546.078 112.598Z" fill="#C6C6C6"/>
<path d="M535.355 112.598C535.569 112.384 535.874 112.279 536.173 112.324C536.292 112.342 536.388 112.358 536.478 112.374C537.038 112.477 537.475 112.886 537.582 113.445C537.675 113.934 537.542 114.526 537.124 114.796C536.896 114.943 536.684 114.953 536.158 114.978C535.688 114.953 535.286 114.619 535.198 114.156C535.153 113.919 535.125 113.726 535.084 113.39C535.047 113.097 535.147 112.806 535.355 112.598Z" fill="#C6C6C6"/>
<path d="M524.633 112.598C524.846 112.384 525.152 112.279 525.451 112.324C525.569 112.342 525.666 112.358 525.755 112.374C526.315 112.477 526.752 112.886 526.859 113.445C526.952 113.934 526.819 114.526 526.402 114.796C526.173 114.943 525.962 114.953 525.436 114.978C524.966 114.953 524.564 114.619 524.476 114.156C524.43 113.919 524.402 113.726 524.361 113.39C524.325 113.097 524.424 112.806 524.633 112.598Z" fill="#C6C6C6"/>
<path d="M519.271 112.598C519.485 112.384 519.79 112.279 520.089 112.324C520.208 112.342 520.304 112.358 520.394 112.374C520.954 112.477 521.391 112.886 521.498 113.445C521.591 113.934 521.458 114.526 521.04 114.796C520.812 114.943 520.6 114.953 520.074 114.978C519.604 114.953 519.202 114.619 519.114 114.156C519.069 113.919 519.041 113.726 519 113.39C518.963 113.097 519.063 112.806 519.271 112.598Z" fill="#C6C6C6"/>
<path d="M513.908 112.598C514.122 112.384 514.427 112.279 514.726 112.324C514.844 112.342 514.941 112.358 515.031 112.374C515.591 112.477 516.028 112.886 516.134 113.445C516.227 113.934 516.095 114.526 515.677 114.796C515.449 114.943 515.237 114.953 514.711 114.978C514.241 114.953 513.839 114.619 513.751 114.156C513.706 113.919 513.678 113.726 513.636 113.39C513.6 113.097 513.699 112.806 513.908 112.598Z" fill="#C6C6C6"/>
<path d="M508.547 112.598C508.761 112.384 509.066 112.279 509.365 112.324C509.483 112.342 509.58 112.358 509.669 112.374C510.229 112.477 510.666 112.886 510.773 113.445C510.866 113.934 510.733 114.526 510.316 114.796C510.087 114.943 509.876 114.953 509.35 114.978C508.88 114.953 508.478 114.619 508.39 114.156C508.344 113.919 508.317 113.726 508.275 113.39C508.239 113.097 508.338 112.806 508.547 112.598Z" fill="#C6C6C6"/>
<path d="M503.185 112.598C503.399 112.384 503.704 112.279 504.003 112.324C504.122 112.342 504.218 112.358 504.308 112.374C504.868 112.477 505.305 112.886 505.412 113.445C505.505 113.934 505.372 114.526 504.954 114.796C504.726 114.943 504.515 114.953 503.988 114.978C503.518 114.953 503.116 114.619 503.028 114.156C502.983 113.919 502.955 113.726 502.914 113.39C502.877 113.097 502.977 112.806 503.185 112.598Z" fill="#C6C6C6"/>
<path d="M497.824 112.598C498.038 112.384 498.343 112.279 498.642 112.324C498.76 112.342 498.857 112.358 498.947 112.374C499.507 112.477 499.944 112.886 500.05 113.445C500.143 113.934 500.011 114.526 499.593 114.796C499.365 114.943 499.153 114.953 498.627 114.978C498.157 114.953 497.755 114.619 497.667 114.156C497.622 113.919 497.594 113.726 497.552 113.39C497.516 113.097 497.615 112.806 497.824 112.598Z" fill="#C6C6C6"/>
<path d="M492.461 112.598C492.675 112.384 492.98 112.279 493.279 112.324C493.397 112.342 493.494 112.358 493.584 112.374C494.143 112.477 494.58 112.886 494.687 113.445C494.78 113.934 494.647 114.526 494.23 114.796C494.001 114.943 493.79 114.953 493.264 114.978C492.794 114.953 492.392 114.619 492.304 114.156C492.258 113.919 492.231 113.726 492.189 113.39C492.153 113.097 492.252 112.806 492.461 112.598Z" fill="#C6C6C6"/>
<path d="M487.099 112.598C487.313 112.384 487.618 112.279 487.918 112.324C488.036 112.342 488.132 112.358 488.222 112.374C488.782 112.477 489.219 112.886 489.326 113.445C489.419 113.934 489.286 114.526 488.868 114.796C488.64 114.943 488.429 114.953 487.902 114.978C487.433 114.953 487.03 114.619 486.942 114.156C486.897 113.919 486.869 113.726 486.828 113.39C486.791 113.097 486.891 112.806 487.099 112.598Z" fill="#C6C6C6"/>
<path d="M519.281 100.525C519.489 100.316 519.785 100.212 520.078 100.248C520.262 100.271 520.404 100.289 520.533 100.309C521.183 100.408 521.673 100.982 521.649 101.639C521.648 101.685 521.646 101.735 521.643 101.789C521.632 102.055 521.522 102.304 521.334 102.492C521.096 102.73 520.757 102.847 520.425 102.795C520.33 102.781 520.249 102.767 520.174 102.753C519.614 102.65 519.165 102.202 519.062 101.642C519.046 101.553 519.03 101.456 519.012 101.338C518.967 101.039 519.067 100.738 519.281 100.525Z" fill="#C4C4C4"/>
<path d="M497.833 100.525C498.042 100.316 498.338 100.212 498.631 100.248C498.815 100.271 498.956 100.289 499.086 100.309C499.735 100.408 500.226 100.982 500.202 101.639C500.2 101.685 500.198 101.735 500.196 101.789C500.185 102.055 500.075 102.304 499.887 102.492C499.649 102.73 499.31 102.847 498.978 102.795C498.883 102.781 498.802 102.767 498.726 102.753C498.166 102.65 497.718 102.202 497.615 101.642C497.599 101.553 497.583 101.456 497.565 101.338C497.52 101.039 497.619 100.738 497.833 100.525Z" fill="#C4C4C4"/>
<path d="M492.47 100.525C492.679 100.316 492.975 100.212 493.267 100.248C493.452 100.271 493.593 100.289 493.722 100.309C494.372 100.408 494.862 100.982 494.839 101.639C494.837 101.685 494.835 101.735 494.833 101.789C494.821 102.055 494.712 102.304 494.524 102.492C494.286 102.73 493.947 102.847 493.614 102.795C493.52 102.781 493.439 102.767 493.363 102.753C492.803 102.65 492.355 102.202 492.252 101.642C492.235 101.553 492.22 101.456 492.202 101.338C492.157 101.039 492.256 100.738 492.47 100.525Z" fill="#C4C4C4"/>
<path d="M519.061 95.2512C519.16 94.6014 519.734 94.1111 520.391 94.1347C520.437 94.1364 520.487 94.1384 520.541 94.1407C520.807 94.1521 521.056 94.2617 521.244 94.4497C521.482 94.6876 521.598 95.0266 521.547 95.3591C521.532 95.4538 521.519 95.5346 521.505 95.6105C521.402 96.1703 520.954 96.6187 520.394 96.7216C520.304 96.7381 520.208 96.7538 520.089 96.7717C519.79 96.8169 519.49 96.7173 519.276 96.5034C519.068 96.2948 518.963 95.9989 519 95.7062C519.022 95.5219 519.041 95.3805 519.061 95.2512Z" fill="#C7C7C7"/>
<path d="M497.614 95.2512C497.712 94.6014 498.287 94.1111 498.943 94.1347C498.99 94.1364 499.04 94.1384 499.094 94.1407C499.36 94.1521 499.609 94.2617 499.797 94.4497C500.035 94.6876 500.151 95.0266 500.1 95.3591C500.085 95.4538 500.072 95.5346 500.058 95.6105C499.955 96.1703 499.507 96.6187 498.947 96.7216C498.857 96.7381 498.76 96.7538 498.642 96.7717C498.343 96.8169 498.043 96.7173 497.829 96.5034C497.62 96.2948 497.516 95.9989 497.552 95.7062C497.575 95.5219 497.594 95.3805 497.614 95.2512Z" fill="#C7C7C7"/>
<path d="M497.824 88.47C498.038 88.2561 498.343 88.1515 498.642 88.1967C498.76 88.2146 498.857 88.2303 498.947 88.2468C499.507 88.3497 499.944 88.7587 500.05 89.3178C500.143 89.8059 500.011 90.3983 499.593 90.6679C499.365 90.8153 499.153 90.8254 498.627 90.8504C498.157 90.8257 497.755 90.4909 497.667 90.0286C497.622 89.7914 497.594 89.5979 497.552 89.2622C497.516 88.9695 497.615 88.6786 497.824 88.47Z" fill="#C6C6C6"/>
<path d="M552.735 124.636C552.643 124.606 552.677 124.468 552.773 124.484C553.005 124.523 553.237 124.561 553.668 124.633C553.74 124.645 553.794 124.708 553.794 124.781C553.794 125.166 553.794 125.552 553.794 125.943C553.794 126.18 553.66 126.397 553.448 126.503C553.401 126.526 553.351 126.551 553.285 126.584C553.185 126.634 553.066 126.627 552.973 126.565C552.832 126.47 552.69 126.375 552.546 126.28C552.418 126.195 552.477 125.995 552.631 125.995C552.717 125.995 552.789 125.925 552.789 125.839C552.789 125.467 552.789 125.093 552.789 124.711C552.789 124.677 552.767 124.647 552.735 124.636Z" fill="#CACACA"/>
<path d="M547.372 124.636C547.28 124.606 547.314 124.468 547.409 124.484C547.642 124.523 547.874 124.561 548.305 124.633C548.377 124.645 548.431 124.708 548.431 124.781C548.431 125.166 548.431 125.552 548.431 125.943C548.431 126.18 548.297 126.397 548.085 126.503C548.037 126.526 547.988 126.551 547.922 126.584C547.822 126.634 547.703 126.627 547.61 126.565C547.468 126.47 547.326 126.375 547.183 126.28C547.055 126.195 547.113 125.995 547.267 125.995C547.353 125.995 547.425 125.925 547.425 125.839C547.425 125.467 547.425 125.093 547.425 124.711C547.425 124.677 547.404 124.647 547.372 124.636Z" fill="#CACACA"/>
<path d="M542.011 124.636C541.919 124.606 541.952 124.468 542.048 124.484C542.28 124.523 542.513 124.561 542.943 124.633C543.016 124.645 543.069 124.708 543.069 124.781C543.069 125.166 543.069 125.552 543.069 125.943C543.069 126.18 542.935 126.397 542.724 126.503C542.676 126.526 542.627 126.551 542.561 126.584C542.461 126.634 542.342 126.627 542.249 126.565C542.107 126.47 541.965 126.375 541.822 126.28C541.694 126.195 541.752 125.995 541.906 125.995C541.992 125.995 542.064 125.925 542.064 125.839C542.064 125.467 542.064 125.093 542.064 124.711C542.064 124.677 542.043 124.647 542.011 124.636Z" fill="#CACACA"/>
<path d="M536.649 124.636C536.557 124.606 536.591 124.468 536.687 124.484C536.919 124.523 537.151 124.561 537.582 124.633C537.654 124.645 537.708 124.708 537.708 124.781C537.708 125.166 537.708 125.552 537.708 125.943C537.708 126.18 537.574 126.397 537.362 126.503C537.315 126.526 537.265 126.551 537.199 126.584C537.099 126.634 536.98 126.627 536.887 126.565C536.746 126.47 536.604 126.375 536.46 126.28C536.332 126.195 536.391 125.995 536.545 125.995C536.631 125.995 536.703 125.925 536.703 125.839C536.703 125.467 536.703 125.093 536.703 124.711C536.703 124.677 536.681 124.647 536.649 124.636Z" fill="#CACACA"/>
<path d="M531.288 124.636C531.196 124.606 531.23 124.468 531.325 124.484C531.558 124.523 531.79 124.561 532.221 124.633C532.293 124.645 532.347 124.708 532.347 124.781C532.347 125.166 532.347 125.552 532.347 125.943C532.347 126.18 532.213 126.397 532.001 126.503C531.953 126.526 531.904 126.551 531.838 126.584C531.738 126.634 531.619 126.627 531.526 126.565C531.384 126.47 531.242 126.375 531.099 126.28C530.971 126.195 531.029 125.995 531.183 125.995C531.269 125.995 531.341 125.925 531.341 125.839C531.341 125.467 531.341 125.093 531.341 124.711C531.341 124.677 531.32 124.647 531.288 124.636Z" fill="#CACACA"/>
<path d="M525.927 124.636C525.835 124.606 525.868 124.468 525.964 124.484C526.196 124.523 526.429 124.561 526.859 124.633C526.932 124.645 526.985 124.708 526.985 124.781C526.985 125.166 526.985 125.552 526.985 125.943C526.985 126.18 526.851 126.397 526.64 126.503C526.592 126.526 526.543 126.551 526.477 126.584C526.377 126.634 526.258 126.627 526.165 126.565C526.023 126.47 525.881 126.375 525.738 126.28C525.61 126.195 525.668 125.995 525.822 125.995C525.908 125.995 525.98 125.925 525.98 125.839C525.98 125.467 525.98 125.093 525.98 124.711C525.98 124.677 525.959 124.647 525.927 124.636Z" fill="#CACACA"/>
<path d="M520.565 124.636C520.473 124.606 520.507 124.468 520.603 124.484C520.835 124.523 521.067 124.561 521.498 124.633C521.57 124.645 521.624 124.708 521.624 124.781C521.624 125.166 521.624 125.552 521.624 125.943C521.624 126.18 521.49 126.397 521.278 126.503C521.231 126.526 521.181 126.551 521.115 126.584C521.015 126.634 520.896 126.627 520.803 126.565C520.662 126.47 520.52 126.375 520.376 126.28C520.248 126.195 520.307 125.995 520.461 125.995C520.547 125.995 520.619 125.925 520.619 125.839C520.619 125.467 520.619 125.093 520.619 124.711C520.619 124.677 520.597 124.647 520.565 124.636Z" fill="#CACACA"/>
<path d="M515.202 124.636C515.11 124.606 515.144 124.468 515.239 124.484C515.472 124.523 515.704 124.561 516.135 124.633C516.207 124.645 516.261 124.708 516.261 124.781C516.261 125.166 516.261 125.552 516.261 125.943C516.261 126.18 516.127 126.397 515.915 126.503C515.867 126.526 515.818 126.551 515.752 126.584C515.652 126.634 515.533 126.627 515.44 126.565C515.298 126.47 515.156 126.375 515.013 126.28C514.885 126.195 514.943 125.995 515.097 125.995C515.183 125.995 515.255 125.925 515.255 125.839C515.255 125.467 515.255 125.093 515.255 124.711C515.255 124.677 515.234 124.647 515.202 124.636Z" fill="#CACACA"/>
<path d="M509.841 124.636C509.749 124.606 509.782 124.468 509.878 124.484C510.11 124.523 510.343 124.561 510.773 124.633C510.846 124.645 510.899 124.708 510.899 124.781C510.899 125.166 510.899 125.552 510.899 125.943C510.899 126.18 510.766 126.397 510.554 126.503C510.506 126.526 510.457 126.551 510.391 126.584C510.291 126.634 510.172 126.627 510.079 126.565C509.937 126.47 509.795 126.375 509.652 126.28C509.524 126.195 509.582 125.995 509.736 125.995C509.822 125.995 509.894 125.925 509.894 125.839C509.894 125.467 509.894 125.093 509.894 124.711C509.894 124.677 509.873 124.647 509.841 124.636Z" fill="#CACACA"/>
<path d="M504.479 124.636C504.387 124.606 504.421 124.468 504.517 124.484C504.749 124.523 504.981 124.561 505.412 124.633C505.484 124.645 505.538 124.708 505.538 124.781C505.538 125.166 505.538 125.552 505.538 125.943C505.538 126.18 505.404 126.397 505.192 126.503C505.145 126.526 505.095 126.551 505.029 126.584C504.929 126.634 504.81 126.627 504.718 126.565C504.576 126.47 504.434 126.375 504.291 126.28C504.162 126.195 504.221 125.995 504.375 125.995C504.461 125.995 504.533 125.925 504.533 125.839C504.533 125.467 504.533 125.093 504.533 124.711C504.533 124.677 504.512 124.647 504.479 124.636Z" fill="#CACACA"/>
<path d="M499.118 124.636C499.026 124.606 499.06 124.468 499.155 124.484C499.388 124.523 499.62 124.561 500.051 124.633C500.123 124.645 500.177 124.708 500.177 124.781C500.177 125.166 500.177 125.552 500.177 125.943C500.177 126.18 500.043 126.397 499.831 126.503C499.783 126.526 499.734 126.551 499.668 126.584C499.568 126.634 499.449 126.627 499.356 126.565C499.214 126.47 499.072 126.375 498.929 126.28C498.801 126.195 498.859 125.995 499.013 125.995C499.099 125.995 499.171 125.925 499.171 125.839C499.171 125.467 499.171 125.093 499.171 124.711C499.171 124.677 499.15 124.647 499.118 124.636Z" fill="#CACACA"/>
<path d="M493.755 124.636C493.663 124.606 493.696 124.468 493.792 124.484C494.025 124.523 494.257 124.561 494.687 124.633C494.76 124.645 494.813 124.708 494.813 124.781C494.813 125.166 494.813 125.552 494.813 125.943C494.813 126.18 494.68 126.397 494.468 126.503C494.42 126.526 494.371 126.551 494.305 126.584C494.205 126.634 494.086 126.627 493.993 126.565C493.851 126.47 493.709 126.375 493.566 126.28C493.438 126.195 493.496 125.995 493.65 125.995C493.736 125.995 493.808 125.925 493.808 125.839C493.808 125.467 493.808 125.093 493.808 124.711C493.808 124.677 493.787 124.647 493.755 124.636Z" fill="#CACACA"/>
<path d="M488.393 124.636C488.301 124.606 488.335 124.468 488.431 124.484C488.663 124.523 488.895 124.561 489.326 124.633C489.398 124.645 489.452 124.708 489.452 124.781C489.452 125.166 489.452 125.552 489.452 125.943C489.452 126.18 489.318 126.397 489.106 126.503C489.059 126.526 489.01 126.551 488.943 126.584C488.844 126.634 488.724 126.627 488.632 126.565C488.49 126.47 488.348 126.375 488.205 126.28C488.076 126.195 488.135 125.995 488.289 125.995C488.375 125.995 488.447 125.925 488.447 125.839C488.447 125.467 488.447 125.093 488.447 124.711C488.447 124.677 488.426 124.647 488.393 124.636Z" fill="#CACACA"/>
<path d="M483.032 124.636C482.94 124.606 482.974 124.468 483.069 124.484C483.302 124.523 483.534 124.561 483.965 124.633C484.037 124.645 484.091 124.708 484.091 124.781C484.091 125.166 484.091 125.552 484.091 125.943C484.091 126.18 483.957 126.397 483.745 126.503C483.697 126.526 483.648 126.551 483.582 126.584C483.482 126.634 483.363 126.627 483.27 126.565C483.128 126.47 482.986 126.375 482.843 126.28C482.715 126.195 482.773 125.995 482.928 125.995C483.014 125.995 483.085 125.925 483.085 125.839C483.085 125.467 483.085 125.093 483.085 124.711C483.085 124.677 483.064 124.647 483.032 124.636Z" fill="#CACACA"/>
<path d="M520.565 100.509C520.473 100.478 520.507 100.341 520.603 100.357C520.835 100.395 521.067 100.434 521.498 100.506C521.57 100.518 521.624 100.58 521.624 100.654C521.624 101.039 521.624 101.424 521.624 101.816C521.624 102.053 521.49 102.269 521.278 102.375C521.231 102.399 521.181 102.424 521.115 102.457C521.015 102.507 520.896 102.499 520.803 102.437C520.662 102.343 520.52 102.248 520.376 102.153C520.248 102.067 520.307 101.867 520.461 101.867C520.547 101.867 520.619 101.797 520.619 101.711C520.619 101.339 520.619 100.966 520.619 100.583C520.619 100.55 520.597 100.52 520.565 100.509Z" fill="#CACACA"/>
<path d="M499.118 100.509C499.026 100.478 499.06 100.341 499.155 100.357C499.388 100.395 499.62 100.434 500.051 100.506C500.123 100.518 500.177 100.58 500.177 100.654C500.177 101.039 500.177 101.424 500.177 101.816C500.177 102.053 500.043 102.269 499.831 102.375C499.783 102.399 499.734 102.424 499.668 102.457C499.568 102.507 499.449 102.499 499.356 102.437C499.214 102.343 499.072 102.248 498.929 102.153C498.801 102.067 498.859 101.867 499.013 101.867C499.099 101.867 499.171 101.797 499.171 101.711C499.171 101.339 499.171 100.966 499.171 100.583C499.171 100.55 499.15 100.52 499.118 100.509Z" fill="#CACACA"/>
<path d="M493.755 100.509C493.663 100.478 493.696 100.341 493.792 100.357C494.025 100.395 494.257 100.434 494.687 100.506C494.76 100.518 494.813 100.58 494.813 100.654C494.813 101.039 494.813 101.424 494.813 101.816C494.813 102.053 494.68 102.269 494.468 102.375C494.42 102.399 494.371 102.424 494.305 102.457C494.205 102.507 494.086 102.499 493.993 102.437C493.851 102.343 493.709 102.248 493.566 102.153C493.438 102.067 493.496 101.867 493.65 101.867C493.736 101.867 493.808 101.797 493.808 101.711C493.808 101.339 493.808 100.966 493.808 100.583C493.808 100.55 493.787 100.52 493.755 100.509Z" fill="#CACACA"/>
<path d="M525.588 106.837C525.4 106.649 525.566 106.329 525.828 106.38C526.447 106.5 526.625 106.565 526.811 106.727C526.928 106.828 526.988 106.98 526.99 107.135C526.994 107.358 526.996 107.582 526.996 107.806C526.995 108.186 526.625 108.449 526.265 108.329C526.089 108.27 525.949 108.127 525.897 107.949C525.792 107.583 525.768 107.476 525.662 106.973C525.651 106.921 525.626 106.874 525.588 106.837Z" fill="#CBCBCB"/>
<path d="M520.227 106.837C520.039 106.649 520.205 106.329 520.466 106.38C521.086 106.5 521.263 106.565 521.45 106.727C521.567 106.828 521.626 106.98 521.629 107.135C521.633 107.358 521.635 107.582 521.634 107.806C521.634 108.186 521.264 108.449 520.903 108.329C520.727 108.27 520.587 108.127 520.536 107.949C520.431 107.583 520.407 107.476 520.3 106.973C520.289 106.921 520.264 106.874 520.227 106.837Z" fill="#CBCBCB"/>
<path d="M514.864 106.837C514.675 106.649 514.842 106.329 515.103 106.38C515.723 106.5 515.9 106.565 516.086 106.727C516.204 106.828 516.263 106.98 516.266 107.135C516.27 107.358 516.271 107.582 516.271 107.806C516.27 108.186 515.9 108.449 515.54 108.329C515.364 108.27 515.224 108.127 515.173 107.949C515.068 107.583 515.044 107.476 514.937 106.973C514.926 106.921 514.901 106.874 514.864 106.837Z" fill="#CBCBCB"/>
<path d="M498.78 106.837C498.591 106.649 498.758 106.329 499.019 106.38C499.639 106.5 499.816 106.565 500.002 106.727C500.12 106.828 500.179 106.98 500.182 107.135C500.186 107.358 500.187 107.582 500.187 107.806C500.186 108.186 499.816 108.449 499.456 108.329C499.28 108.27 499.14 108.127 499.089 107.949C498.984 107.583 498.96 107.476 498.853 106.973C498.842 106.921 498.817 106.874 498.78 106.837Z" fill="#CBCBCB"/>
<path d="M493.417 106.837C493.228 106.649 493.394 106.329 493.656 106.38C494.276 106.5 494.453 106.565 494.639 106.727C494.756 106.828 494.816 106.98 494.818 107.135C494.822 107.358 494.824 107.582 494.824 107.806C494.823 108.186 494.453 108.449 494.093 108.329C493.917 108.27 493.777 108.127 493.726 107.949C493.62 107.583 493.596 107.476 493.49 106.973C493.479 106.921 493.454 106.874 493.417 106.837Z" fill="#CBCBCB"/>
<path d="M498.78 82.7097C498.591 82.5214 498.758 82.2016 499.019 82.2522C499.639 82.3723 499.816 82.4378 500.002 82.5992C500.12 82.7005 500.179 82.8525 500.182 83.0073C500.186 83.2311 500.187 83.4548 500.187 83.6786C500.186 84.0582 499.816 84.3216 499.456 84.2015C499.28 84.1428 499.14 83.9999 499.089 83.8214C498.984 83.4552 498.96 83.3481 498.853 82.8454C498.842 82.7939 498.817 82.7469 498.78 82.7097Z" fill="#CBCBCB"/>
</g>
<defs>
<clipPath id="clip0_685_3793">
<rect width="556" height="553" fill="white"/>
</clipPath>
</defs>
</svg>
