<svg width="556" height="553" viewBox="0 0 556 553" fill="none" xmlns="http://www.w3.org/2000/svg">
<g clip-path="url(#clip0_685_4364)">
<rect width="556" height="553" fill="white"/>
<g filter="url(#filter0_d_685_4364)">
<rect x="178" y="238" width="200" height="52" rx="26" fill="#E1E9FF"/>
<rect x="178.566" y="238.566" width="198.868" height="50.8678" rx="25.4339" stroke="url(#paint0_linear_685_4364)" stroke-width="1.13217"/>
<g clip-path="url(#clip1_685_4364)">
<path d="M237.999 270.793C238.6 270.793 239.176 271.032 239.601 271.456C240.025 271.881 240.264 272.457 240.264 273.057C240.264 272.457 240.502 271.881 240.927 271.456C241.352 271.032 241.928 270.793 242.528 270.793C241.928 270.793 241.352 270.554 240.927 270.13C240.502 269.705 240.264 269.129 240.264 268.529C240.264 269.129 240.025 269.705 239.601 270.13C239.176 270.554 238.6 270.793 237.999 270.793ZM237.999 257.207C238.6 257.207 239.176 257.446 239.601 257.87C240.025 258.295 240.264 258.871 240.264 259.471C240.264 258.871 240.502 258.295 240.927 257.87C241.352 257.446 241.928 257.207 242.528 257.207C241.928 257.207 241.352 256.968 240.927 256.544C240.502 256.119 240.264 255.543 240.264 254.943C240.264 255.543 240.025 256.119 239.601 256.544C239.176 256.968 238.6 257.207 237.999 257.207ZM230.074 270.793C230.074 268.991 230.79 267.264 232.064 265.99C233.338 264.716 235.066 264 236.867 264C235.066 264 233.338 263.284 232.064 262.01C230.79 260.736 230.074 259.009 230.074 257.207C230.074 259.009 229.359 260.736 228.085 262.01C226.811 263.284 225.083 264 223.281 264C225.083 264 226.811 264.716 228.085 265.99C229.359 267.264 230.074 268.991 230.074 270.793Z" fill="#0032C9" stroke="#0032C9" stroke-width="1.69825" stroke-linecap="round" stroke-linejoin="round"/>
</g>
<path d="M258.733 269.5H256.504L260.562 257.972H263.14L267.204 269.5H264.975L261.896 260.337H261.806L258.733 269.5ZM258.806 264.98H264.885V266.658H258.806V264.98ZM270.924 257.972V269.5H268.835V257.972H270.924ZM278.823 269.5H276.594L280.653 257.972H283.23L287.294 269.5H285.065L281.987 260.337H281.896L278.823 269.5ZM278.896 264.98H284.975V266.658H278.896V264.98ZM294.346 265.864V260.854H296.384V269.5H294.408V267.963H294.318C294.123 268.447 293.802 268.843 293.356 269.151C292.913 269.459 292.367 269.613 291.718 269.613C291.151 269.613 290.65 269.487 290.215 269.235C289.783 268.98 289.446 268.611 289.202 268.127C288.958 267.639 288.836 267.05 288.836 266.359V260.854H290.873V266.044C290.873 266.592 291.024 267.027 291.324 267.35C291.624 267.673 292.018 267.834 292.506 267.834C292.806 267.834 293.097 267.761 293.378 267.614C293.66 267.468 293.89 267.25 294.071 266.961C294.254 266.669 294.346 266.303 294.346 265.864ZM302.91 260.854V262.43H297.94V260.854H302.91ZM299.167 258.783H301.204V266.9C301.204 267.173 301.245 267.384 301.328 267.53C301.414 267.673 301.527 267.77 301.666 267.823C301.805 267.875 301.958 267.901 302.127 267.901C302.255 267.901 302.371 267.892 302.476 267.873C302.585 267.855 302.668 267.838 302.724 267.823L303.067 269.416C302.958 269.453 302.803 269.494 302.6 269.539C302.401 269.584 302.157 269.611 301.868 269.618C301.358 269.633 300.898 269.556 300.489 269.387C300.08 269.215 299.756 268.948 299.516 268.588C299.279 268.228 299.163 267.778 299.167 267.237V258.783ZM308.405 269.669C307.561 269.669 306.829 269.483 306.21 269.112C305.591 268.74 305.111 268.22 304.769 267.552C304.431 266.885 304.263 266.104 304.263 265.211C304.263 264.318 304.431 263.535 304.769 262.864C305.111 262.192 305.591 261.671 306.21 261.299C306.829 260.928 307.561 260.742 308.405 260.742C309.25 260.742 309.981 260.928 310.6 261.299C311.22 261.671 311.698 262.192 312.036 262.864C312.377 263.535 312.548 264.318 312.548 265.211C312.548 266.104 312.377 266.885 312.036 267.552C311.698 268.22 311.22 268.74 310.6 269.112C309.981 269.483 309.25 269.669 308.405 269.669ZM308.417 268.037C308.874 268.037 309.257 267.911 309.565 267.659C309.872 267.404 310.101 267.063 310.251 266.635C310.405 266.207 310.482 265.731 310.482 265.205C310.482 264.676 310.405 264.198 310.251 263.77C310.101 263.338 309.872 262.995 309.565 262.74C309.257 262.485 308.874 262.357 308.417 262.357C307.947 262.357 307.557 262.485 307.246 262.74C306.938 262.995 306.707 263.338 306.553 263.77C306.403 264.198 306.328 264.676 306.328 265.205C306.328 265.731 306.403 266.207 306.553 266.635C306.707 267.063 306.938 267.404 307.246 267.659C307.557 267.911 307.947 268.037 308.417 268.037ZM314.481 269.5V257.972H321.865V259.723H316.569V262.853H321.359V264.603H316.569V269.5H314.481ZM323.791 269.5V260.854H325.829V269.5H323.791ZM324.816 259.627C324.493 259.627 324.215 259.52 323.982 259.306C323.75 259.089 323.634 258.828 323.634 258.524C323.634 258.216 323.75 257.956 323.982 257.742C324.215 257.524 324.493 257.415 324.816 257.415C325.142 257.415 325.42 257.524 325.649 257.742C325.881 257.956 325.998 258.216 325.998 258.524C325.998 258.828 325.881 259.089 325.649 259.306C325.42 259.52 325.142 259.627 324.816 259.627ZM330.075 257.972V269.5H328.037V257.972H330.075ZM334.321 257.972V269.5H332.283V257.972H334.321Z" fill="#0032C9"/>
</g>
<g filter="url(#filter1_d_685_4364)">
<path d="M328.772 281.812C328.479 281.571 328.124 281.418 327.748 281.371C327.371 281.324 326.989 281.385 326.646 281.547C326.303 281.709 326.014 281.965 325.811 282.285C325.608 282.605 325.5 282.977 325.5 283.356V311.352C325.5 313.206 327.8 314.062 329.012 312.662L336.06 304.516C336.342 304.191 336.69 303.93 337.081 303.751C337.473 303.573 337.898 303.48 338.328 303.48H349.512C351.388 303.48 352.232 301.128 350.784 299.936L328.772 281.812Z" fill="#0032C9"/>
</g>
</g>
<defs>
<filter id="filter0_d_685_4364" x="155.357" y="219.885" width="245.287" height="97.2867" filterUnits="userSpaceOnUse" color-interpolation-filters="sRGB">
<feFlood flood-opacity="0" result="BackgroundImageFix"/>
<feColorMatrix in="SourceAlpha" type="matrix" values="0 0 0 0 0 0 0 0 0 0 0 0 0 0 0 0 0 0 127 0" result="hardAlpha"/>
<feOffset dy="4.52867"/>
<feGaussianBlur stdDeviation="11.3217"/>
<feComposite in2="hardAlpha" operator="out"/>
<feColorMatrix type="matrix" values="0 0 0 0 0.848964 0 0 0 0 0.887533 0 0 0 0 0.993596 0 0 0 1 0"/>
<feBlend mode="normal" in2="BackgroundImageFix" result="effect1_dropShadow_685_4364"/>
<feBlend mode="normal" in="SourceGraphic" in2="effect1_dropShadow_685_4364" result="shape"/>
</filter>
<filter id="filter1_d_685_4364" x="305.5" y="265.355" width="66.0156" height="72.0017" filterUnits="userSpaceOnUse" color-interpolation-filters="sRGB">
<feFlood flood-opacity="0" result="BackgroundImageFix"/>
<feColorMatrix in="SourceAlpha" type="matrix" values="0 0 0 0 0 0 0 0 0 0 0 0 0 0 0 0 0 0 127 0" result="hardAlpha"/>
<feOffset dy="4"/>
<feGaussianBlur stdDeviation="10"/>
<feComposite in2="hardAlpha" operator="out"/>
<feColorMatrix type="matrix" values="0 0 0 0 0.848964 0 0 0 0 0.887533 0 0 0 0 0.993596 0 0 0 1 0"/>
<feBlend mode="normal" in2="BackgroundImageFix" result="effect1_dropShadow_685_4364"/>
<feBlend mode="normal" in="SourceGraphic" in2="effect1_dropShadow_685_4364" result="shape"/>
</filter>
<linearGradient id="paint0_linear_685_4364" x1="182.072" y1="240.955" x2="380.915" y2="270.141" gradientUnits="userSpaceOnUse">
<stop stop-color="#99BEFA"/>
<stop offset="0.25" stop-color="#4286F5"/>
<stop offset="0.5" stop-color="#EA4336"/>
<stop offset="0.75" stop-color="#FCBC05"/>
<stop offset="1" stop-color="#34A854"/>
</linearGradient>
<clipPath id="clip0_685_4364">
<rect width="556" height="553" fill="white"/>
</clipPath>
<clipPath id="clip1_685_4364">
<rect width="27.172" height="27.172" fill="white" transform="translate(219.885 250.414)"/>
</clipPath>
</defs>
</svg>
