<svg width="556" height="553" viewBox="0 0 556 553" fill="none" xmlns="http://www.w3.org/2000/svg">
<g clip-path="url(#clip0_685_4357)">
<rect width="556" height="553" fill="white"/>
<g filter="url(#filter0_d_685_4357)">
<rect x="178" y="250" width="200" height="52" rx="26" stroke="#CED2D2" stroke-width="1.01149" shape-rendering="crispEdges"/>
<g clip-path="url(#clip1_685_4357)">
<path d="M282.529 282.793C283.129 282.793 283.705 283.032 284.13 283.456C284.554 283.881 284.793 284.457 284.793 285.057C284.793 284.457 285.032 283.881 285.456 283.456C285.881 283.032 286.457 282.793 287.057 282.793C286.457 282.793 285.881 282.554 285.456 282.13C285.032 281.705 284.793 281.129 284.793 280.529C284.793 281.129 284.554 281.705 284.13 282.13C283.705 282.554 283.129 282.793 282.529 282.793ZM282.529 269.207C283.129 269.207 283.705 269.446 284.13 269.87C284.554 270.295 284.793 270.871 284.793 271.471C284.793 270.871 285.032 270.295 285.456 269.87C285.881 269.446 286.457 269.207 287.057 269.207C286.457 269.207 285.881 268.968 285.456 268.544C285.032 268.119 284.793 267.543 284.793 266.943C284.793 267.543 284.554 268.119 284.13 268.544C283.705 268.968 283.129 269.207 282.529 269.207ZM274.604 282.793C274.604 280.991 275.319 279.264 276.593 277.99C277.867 276.716 279.595 276 281.397 276C279.595 276 277.867 275.284 276.593 274.01C275.319 272.736 274.604 271.009 274.604 269.207C274.604 271.009 273.888 272.736 272.614 274.01C271.34 275.284 269.612 276 267.811 276C269.612 276 271.34 276.716 272.614 277.99C273.888 279.264 274.604 280.991 274.604 282.793Z" fill="#CED2D2" stroke="#CED2D2" stroke-width="1.69825" stroke-linecap="round" stroke-linejoin="round"/>
</g>
</g>
</g>
<defs>
<filter id="filter0_d_685_4357" x="154.851" y="231.379" width="246.298" height="98.2984" filterUnits="userSpaceOnUse" color-interpolation-filters="sRGB">
<feFlood flood-opacity="0" result="BackgroundImageFix"/>
<feColorMatrix in="SourceAlpha" type="matrix" values="0 0 0 0 0 0 0 0 0 0 0 0 0 0 0 0 0 0 127 0" result="hardAlpha"/>
<feOffset dy="4.52867"/>
<feGaussianBlur stdDeviation="11.3217"/>
<feComposite in2="hardAlpha" operator="out"/>
<feColorMatrix type="matrix" values="0 0 0 0 0.848964 0 0 0 0 0.887533 0 0 0 0 0.993596 0 0 0 1 0"/>
<feBlend mode="normal" in2="BackgroundImageFix" result="effect1_dropShadow_685_4357"/>
<feBlend mode="normal" in="SourceGraphic" in2="effect1_dropShadow_685_4357" result="shape"/>
</filter>
<clipPath id="clip0_685_4357">
<rect width="556" height="553" fill="white"/>
</clipPath>
<clipPath id="clip1_685_4357">
<rect width="27.172" height="27.172" fill="white" transform="translate(264.414 262.414)"/>
</clipPath>
</defs>
</svg>
