<svg width="893" height="514" viewBox="0 0 893 514" fill="none" xmlns="http://www.w3.org/2000/svg">
<g clip-path="url(#clip0_643_756)">
<path d="M437.158 512.456L166.424 388.705" stroke="white" stroke-opacity="0.53" stroke-width="0.7"/>
<path d="M436.205 503.927V496.814" stroke="white" stroke-opacity="0.53" stroke-width="0.7"/>
<path d="M452.804 510.549L523.451 414.299" stroke="white" stroke-opacity="0.53" stroke-width="0.7"/>
<path d="M434.787 519.578L118.062 485.439" stroke="white" stroke-opacity="0.53" stroke-width="0.7"/>
<path d="M430.045 515.774L-2.05934e-05 491.119" stroke="white" stroke-opacity="0.53" stroke-width="0.7"/>
<path d="M431.229 510.869L888.283 500.604" stroke="white" stroke-opacity="0.53" stroke-width="0.7"/>
<path d="M453.286 518.615L860.572 387.752" stroke="white" stroke-opacity="0.53" stroke-width="0.7"/>
<path d="M437.631 513.494L391.165 261.252" stroke="white" stroke-opacity="0.53" stroke-width="0.7"/>
<path d="M438.108 515.776L778.541 488.275" stroke="white" stroke-opacity="0.53" stroke-width="0.7"/>
<path d="M440.475 509.204L428.147 109.979" stroke="white" stroke-opacity="0.53" stroke-width="0.7"/>
<circle cx="2.2139" cy="2.2139" r="2.2139" transform="matrix(-1 0 0 1 430.248 106.775)" fill="white" fill-opacity="0.53"/>
<path d="M438.111 513.013L405.87 184.908" stroke="white" stroke-opacity="0.53" stroke-width="0.7"/>
<circle cx="2.2139" cy="2.2139" r="2.2139" transform="matrix(-1 0 0 1 408.111 184.697)" fill="white" fill-opacity="0.53"/>
<path d="M435.732 509.22L350.387 143.658" stroke="white" stroke-opacity="0.53" stroke-width="0.7"/>
<circle cx="2.2139" cy="2.2139" r="2.2139" transform="matrix(-1 0 0 1 353.205 143.08)" fill="white" fill-opacity="0.53"/>
<path d="M444.108 512.362L358.754 10.4004" stroke="white" stroke-opacity="0.53" stroke-width="0.7"/>
<circle cx="2.2139" cy="2.2139" r="2.2139" transform="matrix(-1 0 0 1 360.289 7.57227)" fill="white" fill-opacity="0.53"/>
<path d="M433.884 515.233L474.543 24.4316" stroke="white" stroke-opacity="0.53" stroke-width="0.7"/>
<circle cx="2.2139" cy="2.2139" r="2.2139" transform="matrix(-1 0 0 1 477.188 23.5098)" fill="white" fill-opacity="0.53"/>
<path d="M439.601 506.813L496.029 0.783203" stroke="white" stroke-opacity="0.53" stroke-width="0.7"/>
<circle cx="2.2139" cy="2.2139" r="2.2139" transform="matrix(-1 0 0 1 498.443 -0.404297)" fill="white" fill-opacity="0.53"/>
<path d="M436.684 513.486L509.701 119.002" stroke="white" stroke-opacity="0.53" stroke-width="0.7"/>
<circle cx="2.2139" cy="2.2139" r="2.2139" transform="matrix(-1 0 0 1 512.607 116.51)" fill="white" fill-opacity="0.53"/>
<path d="M436.21 501.16L505.908 217.15" stroke="white" stroke-opacity="0.53" stroke-width="0.7"/>
<circle cx="2.2139" cy="2.2139" r="2.2139" transform="matrix(-1 0 0 1 508.178 214.807)" fill="white" fill-opacity="0.53"/>
<path d="M441.903 509.219L540.998 261.244" stroke="white" stroke-opacity="0.53" stroke-width="0.7"/>
<circle cx="2.2139" cy="2.2139" r="2.2139" transform="matrix(-1 0 0 1 543.6 259.088)" fill="white" fill-opacity="0.53"/>
<path d="M433.845 516.344L595.053 202.463" stroke="white" stroke-opacity="0.53" stroke-width="0.7"/>
<circle cx="2.2139" cy="2.2139" r="2.2139" transform="matrix(-1 0 0 1 597.619 199.744)" fill="white" fill-opacity="0.53"/>
<path d="M445.692 511.123L614.486 120.432" stroke="white" stroke-opacity="0.53" stroke-width="0.7"/>
<circle cx="2.2139" cy="2.2139" r="2.2139" transform="matrix(-1 0 0 1 617.99 116.518)" fill="white" fill-opacity="0.53"/>
<path d="M436.568 512.374L570.486 128.041" stroke="white" stroke-opacity="0.53" stroke-width="0.7"/>
<circle cx="2.2139" cy="2.2139" r="2.2139" transform="matrix(-1 0 0 1 572.822 126.244)" fill="white" fill-opacity="0.53"/>
<path d="M437.161 506.811L572.291 41.2051" stroke="white" stroke-opacity="0.53" stroke-width="0.7"/>
<circle cx="2.2139" cy="2.2139" r="2.2139" transform="matrix(-1 0 0 1 575.479 36.791)" fill="white" fill-opacity="0.53"/>
<circle cx="2.2139" cy="2.2139" r="2.2139" transform="matrix(-1 0 0 1 393.057 258.197)" fill="white" fill-opacity="0.53"/>
<path d="M435.732 510.633L316.723 276.408" stroke="white" stroke-opacity="0.53" stroke-width="0.7"/>
<circle cx="2.2139" cy="2.2139" r="2.2139" transform="matrix(-1 0 0 1 318.666 275.025)" fill="white" fill-opacity="0.53"/>
<path d="M440.297 517.165L188.708 154.554" stroke="white" stroke-opacity="0.53" stroke-width="0.7"/>
<circle cx="2.2139" cy="2.2139" r="2.2139" transform="matrix(-1 0 0 1 190.26 151.041)" fill="white" fill-opacity="0.53"/>
<path d="M420.506 495.533L187.603 226.322" stroke="white" stroke-opacity="0.53" stroke-width="0.7"/>
<circle cx="2.2139" cy="2.2139" r="2.2139" transform="matrix(-1 0 0 1 189.377 223.658)" fill="white" fill-opacity="0.53"/>
<path d="M433.361 507.308L194.395 258.385" stroke="white" stroke-opacity="0.53" stroke-width="0.7"/>
<circle cx="2.2139" cy="2.2139" r="2.2139" transform="matrix(-1 0 0 1 196.459 256.424)" fill="white" fill-opacity="0.53"/>
<path d="M432.416 512.544L130.863 253.189" stroke="white" stroke-opacity="0.53" stroke-width="0.7"/>
<circle cx="2.2139" cy="2.2139" r="2.2139" transform="matrix(-1 0 0 1 133.584 251.111)" fill="white" fill-opacity="0.53"/>
<path d="M439.049 509.689L49.3058 292.533" stroke="white" stroke-opacity="0.53" stroke-width="0.7"/>
<circle cx="2.2139" cy="2.2139" r="2.2139" transform="matrix(-1 0 0 1 52.1113 290.08)" fill="white" fill-opacity="0.53"/>
<path d="M430.99 515.384L110.946 305.814" stroke="white" stroke-opacity="0.53" stroke-width="0.7"/>
<circle cx="2.2139" cy="2.2139" r="2.2139" transform="matrix(-1 0 0 1 112.334 303.361)" fill="white" fill-opacity="0.53"/>
<path d="M449.967 514.905L158.845 320.033" stroke="white" stroke-opacity="0.53" stroke-width="0.7"/>
<circle cx="2.2139" cy="2.2139" r="2.2139" transform="matrix(-1 0 0 1 161.928 318.416)" fill="white" fill-opacity="0.53"/>
<path d="M437.635 513.417L210.996 327.08" stroke="white" stroke-opacity="0.53" stroke-width="0.7"/>
<circle cx="2.2139" cy="2.2139" r="2.2139" transform="matrix(-1 0 0 1 213.283 324.549)" fill="white" fill-opacity="0.53"/>
<path d="M438.107 516.253L247.977 336.08" stroke="white" stroke-opacity="0.53" stroke-width="0.7"/>
<circle cx="2.2139" cy="2.2139" r="2.2139" transform="matrix(-1 0 0 1 249.596 333.4)" fill="white" fill-opacity="0.53"/>
<path d="M437.162 514.825L305.825 345.557" stroke="white" stroke-opacity="0.53" stroke-width="0.7"/>
<circle cx="2.2139" cy="2.2139" r="2.2139" transform="matrix(-1 0 0 1 308.041 343.143)" fill="white" fill-opacity="0.53"/>
<path d="M435.264 512.443L240.392 409.08" stroke="white" stroke-opacity="0.53" stroke-width="0.7"/>
<circle cx="2.2139" cy="2.2139" r="2.2139" transform="matrix(-1 0 0 1 243.393 406.893)" fill="white" fill-opacity="0.53"/>
<path d="M438.107 509.613L60.2178 341.768" stroke="white" stroke-opacity="0.53" stroke-width="0.7"/>
<circle cx="2.2139" cy="2.2139" r="2.2139" transform="matrix(-1 0 0 1 64.5137 340.486)" fill="white" fill-opacity="0.53"/>
<path d="M437.024 513.07L19.9433 343.434" stroke="white" stroke-opacity="0.53" stroke-width="0.7"/>
<circle cx="2.2139" cy="2.2139" r="2.2139" transform="matrix(-1 0 0 1 21.1191 340.494)" fill="white" fill-opacity="0.53"/>
<path d="M446.602 509.141L46.0764 371.838" stroke="white" stroke-opacity="0.53" stroke-width="0.7"/>
<circle cx="2.2139" cy="2.2139" r="2.2139" transform="matrix(-1 0 0 1 47.6855 368.822)" fill="white" fill-opacity="0.53"/>
<path d="M440.002 515.782L17.0696 373.537" stroke="white" stroke-opacity="0.53" stroke-width="0.7"/>
<circle cx="2.2139" cy="2.2139" r="2.2139" transform="matrix(-1 0 0 1 19.3457 371.479)" fill="white" fill-opacity="0.53"/>
<path d="M437.158 513.395L39.8289 426.627" stroke="white" stroke-opacity="0.53" stroke-width="0.7"/>
<circle cx="2.2139" cy="2.2139" r="2.2139" transform="matrix(-1 0 0 1 42.373 424.611)" fill="white" fill-opacity="0.53"/>
<path d="M435.264 511.492L41.7275 463.604" stroke="white" stroke-opacity="0.53" stroke-width="0.7"/>
<circle cx="2.2139" cy="2.2139" r="2.2139" transform="matrix(-1 0 0 1 45.916 461.799)" fill="white" fill-opacity="0.53"/>
<path d="M425.299 511.498L128.487 432.791" stroke="white" stroke-opacity="0.53" stroke-width="0.7"/>
<circle cx="2.2139" cy="2.2139" r="2.2139" transform="matrix(-1 0 0 1 130.928 430.814)" fill="white" fill-opacity="0.53"/>
<path d="M437.162 507.782L426.731 305.799" stroke="white" stroke-opacity="0.53" stroke-width="0.7"/>
<circle cx="2.2139" cy="2.2139" r="2.2139" transform="matrix(-1 0 0 1 428.475 304.221)" fill="white" fill-opacity="0.53"/>
<path d="M445.213 510.169V284.947" stroke="white" stroke-opacity="0.53" stroke-width="0.7"/>
<ellipse cx="2.21385" cy="2.21396" rx="2.21385" ry="2.21396" transform="matrix(-1 0 0 1 447.072 283.854)" fill="white" fill-opacity="0.53"/>
<path d="M437.385 504.941L479.816 307.189" stroke="white" stroke-opacity="0.53" stroke-width="0.7"/>
<circle cx="2.2139" cy="2.2139" r="2.2139" transform="matrix(-1 0 0 1 482.498 305.096)" fill="white" fill-opacity="0.53"/>
<path d="M449.013 507.775L570.393 305.791" stroke="white" stroke-opacity="0.53" stroke-width="0.7"/>
<circle cx="2.2139" cy="2.2139" r="2.2139" transform="matrix(-1 0 0 1 572.822 304.221)" fill="white" fill-opacity="0.53"/>
<path d="M456.816 511.407L589.65 340.494" stroke="white" stroke-opacity="0.53" stroke-width="0.7"/>
<circle cx="2.2139" cy="2.2139" r="2.2139" transform="matrix(-1 0 0 1 591.42 338.713)" fill="white" fill-opacity="0.53"/>
<path d="M462.763 513.467L647.678 292.518" stroke="white" stroke-opacity="0.53" stroke-width="0.7"/>
<circle cx="2.2139" cy="2.2139" r="2.2139" transform="matrix(-1 0 0 1 649.869 290.932)" fill="white" fill-opacity="0.53"/>
<path d="M447.96 516.708L640.127 384.76" stroke="white" stroke-opacity="0.53" stroke-width="0.7"/>
<circle cx="2.2139" cy="2.2139" r="2.2139" transform="matrix(-1 0 0 1 641.9 382.979)" fill="white" fill-opacity="0.53"/>
<path d="M458.017 506.777L743.924 372.596" stroke="white" stroke-opacity="0.53" stroke-width="0.7"/>
<circle cx="2.2139" cy="2.2139" r="2.2139" transform="matrix(-1 0 0 1 744.623 370.588)" fill="white" fill-opacity="0.53"/>
<path d="M461.341 517.673L728.756 404.354" stroke="white" stroke-opacity="0.53" stroke-width="0.7"/>
<circle cx="2.2139" cy="2.2139" r="2.2139" transform="matrix(-1 0 0 1 731.338 401.58)" fill="white" fill-opacity="0.53"/>
<path d="M440.48 518.153L797.033 394.877" stroke="white" stroke-opacity="0.53" stroke-width="0.7"/>
<circle cx="2.2139" cy="2.2139" r="2.2139" transform="matrix(-1 0 0 1 797.756 393.619)" fill="white" fill-opacity="0.53"/>
<path d="M452.333 518.622L825.955 435.174" stroke="white" stroke-opacity="0.53" stroke-width="0.7"/>
<circle cx="2.2139" cy="2.2139" r="2.2139" transform="matrix(-1 0 0 1 827.865 432.58)" fill="white" fill-opacity="0.53"/>
<circle cx="2.2139" cy="2.2139" r="2.2139" transform="matrix(-1 0 0 1 862.4 385.643)" fill="white" fill-opacity="0.53"/>
<path d="M442.846 512.466L890.908 462.682" stroke="white" stroke-opacity="0.53" stroke-width="0.7"/>
<circle cx="2.2139" cy="2.2139" r="2.2139" transform="matrix(-1 0 0 1 893.396 460.041)" fill="white" fill-opacity="0.53"/>
<path d="M449.961 516.252L870.049 332.76" stroke="white" stroke-opacity="0.53" stroke-width="0.7"/>
<circle cx="2.2139" cy="2.2139" r="2.2139" transform="matrix(-1 0 0 1 873.029 329.861)" fill="white" fill-opacity="0.53"/>
<path d="M438.106 516.258L789.443 329.447" stroke="white" stroke-opacity="0.53" stroke-width="0.7"/>
<circle cx="2.2139" cy="2.2139" r="2.2139" transform="matrix(-1 0 0 1 791.557 327.197)" fill="white" fill-opacity="0.53"/>
<path d="M443.323 509.687L791.342 272.143" stroke="white" stroke-opacity="0.53" stroke-width="0.7"/>
<circle cx="2.2139" cy="2.2139" r="2.2139" transform="matrix(-1 0 0 1 793.33 269.674)" fill="white" fill-opacity="0.53"/>
<path d="M453.278 507.802L718.322 289.697" stroke="white" stroke-opacity="0.53" stroke-width="0.7"/>
<circle cx="2.2139" cy="2.2139" r="2.2139" transform="matrix(-1 0 0 1 719.826 288.26)" fill="white" fill-opacity="0.53"/>
<path d="M445.216 514.431L740.131 217.619" stroke="white" stroke-opacity="0.53" stroke-width="0.7"/>
<circle cx="2.2139" cy="2.2139" r="2.2139" transform="matrix(-1 0 0 1 742.85 214.768)" fill="white" fill-opacity="0.53"/>
<path d="M446.169 510.174L743.455 175.432" stroke="white" stroke-opacity="0.53" stroke-width="0.7"/>
<circle cx="2.2139" cy="2.2139" r="2.2139" transform="matrix(-1 0 0 1 744.623 174.916)" fill="white" fill-opacity="0.53"/>
<path d="M437.159 510.647L716.428 165.947" stroke="white" stroke-opacity="0.53" stroke-width="0.7"/>
<circle cx="2.2139" cy="2.2139" r="2.2139" transform="matrix(-1 0 0 1 718.939 163.408)" fill="white" fill-opacity="0.53"/>
<path d="M448.061 510.646L667.588 174.955" stroke="white" stroke-opacity="0.53" stroke-width="0.7"/>
<circle cx="2.2139" cy="2.2139" r="2.2139" transform="matrix(-1 0 0 1 670.236 172.26)" fill="white" fill-opacity="0.53"/>
<path d="M439.53 506.843L655.264 125.635" stroke="white" stroke-opacity="0.53" stroke-width="0.7"/>
<circle cx="2.2139" cy="2.2139" r="2.2139" transform="matrix(-1 0 0 1 656.951 124.432)" fill="white" fill-opacity="0.53"/>
<path d="M436.168 544.84L719.49 64.8145" stroke="white" stroke-opacity="0.53" stroke-width="0.7"/>
<circle cx="2.2139" cy="2.2139" r="2.2139" transform="matrix(-1 0 0 1 721.6 63.3223)" fill="white" fill-opacity="0.53"/>
<path d="M438.024 515.918L180.175 81.5352" stroke="white" stroke-opacity="0.53" stroke-width="0.7"/>
<circle cx="2.2139" cy="2.2139" r="2.2139" transform="matrix(-1 0 0 1 182.291 78.3848)" fill="white" fill-opacity="0.53"/>
<path d="M440.433 523.812L283.179 135.053" stroke="white" stroke-opacity="0.53" stroke-width="0.7"/>
<circle cx="2.2139" cy="2.2139" r="2.2139" transform="matrix(-1 0 0 1 285.014 132.4)" fill="white" fill-opacity="0.53"/>
<path d="M440.183 512.371L409.648 341.113" stroke="white" stroke-opacity="0.53" stroke-width="0.7"/>
<circle cx="2.2139" cy="2.2139" r="2.2139" transform="matrix(-1 0 0 1 411.652 339.596)" fill="white" fill-opacity="0.53"/>
<path d="M437.491 515.084L271.357 244.48" stroke="white" stroke-opacity="0.53" stroke-width="0.7"/>
<circle cx="2.2139" cy="2.2139" r="2.2139" transform="matrix(-1 0 0 1 273.506 242.205)" fill="white" fill-opacity="0.53"/>
<path d="M441.762 513.187L593.193 242.205" stroke="white" stroke-opacity="0.53" stroke-width="0.7"/>
<circle cx="2.2139" cy="2.2139" r="2.2139" transform="matrix(-1 0 0 1 595.846 240.432)" fill="white" fill-opacity="0.53"/>
<path d="M444.747 511.991L637.248 343.197" stroke="white" stroke-opacity="0.53" stroke-width="0.7"/>
<circle cx="2.2139" cy="2.2139" r="2.2139" transform="matrix(-1 0 0 1 640.127 340.486)" fill="white" fill-opacity="0.53"/>
<path d="M440.947 511.116L331.421 221.416" stroke="white" stroke-opacity="0.53" stroke-width="0.7"/>
<circle cx="2.2139" cy="2.2139" r="2.2139" transform="matrix(-1 0 0 1 333.721 220.127)" fill="white" fill-opacity="0.53"/>
<path d="M434.787 513.005L354.183 232.314" stroke="white" stroke-opacity="0.53" stroke-width="0.7"/>
<circle cx="2.2139" cy="2.2139" r="2.2139" transform="matrix(-1 0 0 1 355.861 229.861)" fill="white" fill-opacity="0.53"/>
<g filter="url(#filter0_f_643_756)">
<rect width="514" height="521" rx="257" transform="matrix(1 0 0 -1 188 909)" fill="white"/>
</g>
</g>
<defs>
<filter id="filter0_f_643_756" x="68" y="268" width="754" height="761" filterUnits="userSpaceOnUse" color-interpolation-filters="sRGB">
<feFlood flood-opacity="0" result="BackgroundImageFix"/>
<feBlend mode="normal" in="SourceGraphic" in2="BackgroundImageFix" result="shape"/>
<feGaussianBlur stdDeviation="60" result="effect1_foregroundBlur_643_756"/>
</filter>
<clipPath id="clip0_643_756">
<rect width="893" height="514" fill="white" transform="matrix(1 0 0 -1 0 514)"/>
</clipPath>
</defs>
</svg>
