<svg width="75" height="63" viewBox="0 0 75 63" fill="none" xmlns="http://www.w3.org/2000/svg">
<path d="M43.2267 42.5614C43.4385 42.3496 43.7393 42.2439 44.0365 42.2816C44.6894 42.3643 44.9594 42.4149 45.1702 42.5412C45.4666 42.7189 45.5813 43.0893 45.5845 43.4349C45.5904 44.0861 45.1121 44.6353 44.4675 44.7274C43.7747 44.8264 43.0903 44.3787 42.9934 43.6856C42.9803 43.5914 42.9668 43.4873 42.9515 43.3639C42.9147 43.0674 43.0154 42.7727 43.2267 42.5614Z" fill="#C5C5C5"/>
<path d="M37.8654 42.5614C38.0772 42.3496 38.378 42.2439 38.6751 42.2816C39.3281 42.3643 39.5981 42.4149 39.8089 42.5412C40.1053 42.7189 40.22 43.0893 40.2231 43.4349C40.229 44.0861 39.7508 44.6353 39.1061 44.7274C38.4134 44.8264 37.729 44.3787 37.6321 43.6856C37.6189 43.5914 37.6055 43.4873 37.5902 43.3639C37.5534 43.0674 37.6541 42.7727 37.8654 42.5614Z" fill="#C5C5C5"/>
<path d="M32.5021 42.5614C32.7139 42.3496 33.0147 42.2439 33.3118 42.2816C33.9648 42.3643 34.2348 42.4149 34.4456 42.5412C34.742 42.7189 34.8567 43.0893 34.8599 43.4349C34.8657 44.0861 34.3875 44.6353 33.7428 44.7274C33.0501 44.8264 32.3657 44.3787 32.2688 43.6856C32.2556 43.5914 32.2422 43.4873 32.2269 43.3639C32.1901 43.0674 32.2908 42.7727 32.5021 42.5614Z" fill="#C5C5C5"/>
<path d="M16.4181 42.5614C16.6299 42.3496 16.9307 42.2439 17.2279 42.2816C17.8809 42.3643 18.1508 42.4149 18.3616 42.5412C18.658 42.7189 18.7727 43.0893 18.7759 43.4349C18.7818 44.0861 18.3035 44.6353 17.6589 44.7274C16.9661 44.8264 16.2817 44.3787 16.1848 43.6856C16.1717 43.5914 16.1582 43.4873 16.1429 43.3639C16.1061 43.0674 16.2068 42.7727 16.4181 42.5614Z" fill="#C5C5C5"/>
<path d="M11.0548 42.5614C11.2666 42.3496 11.5675 42.2439 11.8646 42.2816C12.5176 42.3643 12.7876 42.4149 12.9983 42.5412C13.2947 42.7189 13.4095 43.0893 13.4126 43.4349C13.4185 44.0861 12.9403 44.6353 12.2956 44.7274C11.6028 44.8264 10.9184 44.3787 10.8215 43.6856C10.8084 43.5914 10.7949 43.4873 10.7796 43.3639C10.7428 43.0674 10.8435 42.7727 11.0548 42.5614Z" fill="#C5C5C5"/>
<path d="M16.4181 18.434C16.6299 18.2222 16.9307 18.1165 17.2279 18.1541C17.8809 18.2369 18.1508 18.2874 18.3616 18.4138C18.658 18.5915 18.7727 18.9619 18.7759 19.3075C18.7818 19.9587 18.3035 20.5079 17.6589 20.6C16.9661 20.6989 16.2817 20.2512 16.1848 19.5582C16.1717 19.464 16.1582 19.3599 16.1429 19.2365C16.1061 18.9399 16.2068 18.6453 16.4181 18.434Z" fill="#C5C5C5"/>
<path d="M70.0385 60.652C70.2471 60.4434 70.543 60.3391 70.8357 60.3753C71.0199 60.3981 71.1614 60.4168 71.2907 60.4365C71.9405 60.5355 72.4308 61.1096 72.4072 61.7664C72.4055 61.8129 72.4035 61.8626 72.4012 61.9169C72.3897 62.1826 72.2802 62.4316 72.0921 62.6196C71.8542 62.8575 71.5153 62.9741 71.1827 62.9228C71.088 62.9082 71.0072 62.8948 70.9313 62.8808C70.3715 62.7779 69.9232 62.3296 69.8203 61.7698C69.8038 61.68 69.7881 61.5835 69.7702 61.4651C69.725 61.166 69.8246 60.8659 70.0385 60.652Z" fill="#C4C4C4"/>
<path d="M64.6772 60.652C64.8857 60.4434 65.1816 60.3391 65.4744 60.3753C65.6586 60.3981 65.8 60.4168 65.9293 60.4365C66.5791 60.5355 67.0694 61.1096 67.0458 61.7664C67.0442 61.8129 67.0422 61.8626 67.0398 61.9169C67.0284 62.1826 66.9189 62.4316 66.7308 62.6196C66.4929 62.8575 66.1539 62.9741 65.8214 62.9228C65.7267 62.9082 65.6459 62.8948 65.57 62.8808C65.0102 62.7779 64.5619 62.3296 64.459 61.7698C64.4425 61.68 64.4268 61.5835 64.4089 61.4651C64.3636 61.166 64.4632 60.8659 64.6772 60.652Z" fill="#C4C4C4"/>
<path d="M59.3158 60.652C59.5244 60.4434 59.8203 60.3391 60.113 60.3753C60.2973 60.3981 60.4387 60.4168 60.568 60.4365C61.2178 60.5355 61.7081 61.1096 61.6845 61.7664C61.6828 61.8129 61.6808 61.8626 61.6785 61.9169C61.6671 62.1826 61.5575 62.4316 61.3695 62.6196C61.1316 62.8575 60.7926 62.9741 60.4601 62.9228C60.3654 62.9082 60.2846 62.8948 60.2087 62.8808C59.6489 62.7779 59.2005 62.3296 59.0976 61.7698C59.0811 61.68 59.0654 61.5835 59.0476 61.4651C59.0023 61.166 59.1019 60.8659 59.3158 60.652Z" fill="#C4C4C4"/>
<path d="M53.9545 60.652C54.1631 60.4434 54.459 60.3391 54.7517 60.3753C54.936 60.3981 55.0774 60.4168 55.2067 60.4365C55.8565 60.5355 56.3468 61.1096 56.3232 61.7664C56.3215 61.8129 56.3195 61.8626 56.3172 61.9169C56.3057 62.1826 56.1962 62.4316 56.0082 62.6196C55.7702 62.8575 55.4313 62.9741 55.0987 62.9228C55.004 62.9082 54.9233 62.8948 54.8473 62.8808C54.2876 62.7779 53.8392 62.3296 53.7363 61.7698C53.7198 61.68 53.7041 61.5835 53.6862 61.4651C53.641 61.166 53.7406 60.8659 53.9545 60.652Z" fill="#C4C4C4"/>
<path d="M48.5932 60.652C48.8018 60.4434 49.0976 60.3391 49.3904 60.3753C49.5746 60.3981 49.716 60.4168 49.8454 60.4365C50.4952 60.5355 50.9854 61.1096 50.9618 61.7664C50.9602 61.8129 50.9582 61.8626 50.9558 61.9169C50.9444 62.1826 50.8349 62.4316 50.6468 62.6196C50.4089 62.8575 50.07 62.9741 49.7374 62.9228C49.6427 62.9082 49.5619 62.8948 49.486 62.8808C48.9262 62.7779 48.4779 62.3296 48.375 61.7698C48.3585 61.68 48.3428 61.5835 48.3249 61.4651C48.2797 61.166 48.3792 60.8659 48.5932 60.652Z" fill="#C4C4C4"/>
<path d="M43.2319 60.652C43.4404 60.4434 43.7363 60.3391 44.029 60.3753C44.2133 60.3981 44.3547 60.4168 44.484 60.4365C45.1338 60.5355 45.6241 61.1096 45.6005 61.7664C45.5989 61.8129 45.5969 61.8626 45.5945 61.9169C45.5831 62.1826 45.4736 62.4316 45.2855 62.6196C45.0476 62.8575 44.7086 62.9741 44.3761 62.9228C44.2814 62.9082 44.2006 62.8948 44.1247 62.8808C43.5649 62.7779 43.1166 62.3296 43.0137 61.7698C42.9972 61.68 42.9815 61.5835 42.9636 61.4651C42.9183 61.166 43.0179 60.8659 43.2319 60.652Z" fill="#C4C4C4"/>
<path d="M37.8705 60.652C38.0791 60.4434 38.375 60.3391 38.6677 60.3753C38.852 60.3981 38.9934 60.4168 39.1227 60.4365C39.7725 60.5355 40.2628 61.1096 40.2392 61.7664C40.2375 61.8129 40.2355 61.8626 40.2332 61.9169C40.2218 62.1826 40.1122 62.4316 39.9242 62.6196C39.6862 62.8575 39.3473 62.9741 39.0147 62.9228C38.9201 62.9082 38.8393 62.8948 38.7634 62.8808C38.2036 62.7779 37.7552 62.3296 37.6523 61.7698C37.6358 61.68 37.6201 61.5835 37.6022 61.4651C37.557 61.166 37.6566 60.8659 37.8705 60.652Z" fill="#C4C4C4"/>
<path d="M32.5072 60.652C32.7158 60.4434 33.0117 60.3391 33.3044 60.3753C33.4887 60.3981 33.6301 60.4168 33.7594 60.4365C34.4092 60.5355 34.8995 61.1096 34.8759 61.7664C34.8742 61.8129 34.8722 61.8626 34.8699 61.9169C34.8585 62.1826 34.7489 62.4316 34.5609 62.6196C34.323 62.8575 33.984 62.9741 33.6515 62.9228C33.5568 62.9082 33.476 62.8948 33.4001 62.8808C32.8403 62.7779 32.392 62.3296 32.289 61.7698C32.2726 61.68 32.2568 61.5835 32.239 61.4651C32.1937 61.166 32.2933 60.8659 32.5072 60.652Z" fill="#C4C4C4"/>
<path d="M27.1459 60.652C27.3545 60.4434 27.6504 60.3391 27.9431 60.3753C28.1274 60.3981 28.2688 60.4168 28.3981 60.4365C29.0479 60.5355 29.5382 61.1096 29.5146 61.7664C29.5129 61.8129 29.5109 61.8626 29.5086 61.9169C29.4972 62.1826 29.3876 62.4316 29.1996 62.6196C28.9616 62.8575 28.6227 62.9741 28.2901 62.9228C28.1954 62.9082 28.1147 62.8948 28.0388 62.8808C27.479 62.7779 27.0306 62.3296 26.9277 61.7698C26.9112 61.68 26.8955 61.5835 26.8776 61.4651C26.8324 61.166 26.932 60.8659 27.1459 60.652Z" fill="#C4C4C4"/>
<path d="M21.7846 60.652C21.9932 60.4434 22.289 60.3391 22.5818 60.3753C22.766 60.3981 22.9074 60.4168 23.0368 60.4365C23.6866 60.5355 24.1768 61.1096 24.1533 61.7664C24.1516 61.8129 24.1496 61.8626 24.1473 61.9169C24.1358 62.1826 24.0263 62.4316 23.8382 62.6196C23.6003 62.8575 23.2614 62.9741 22.9288 62.9228C22.8341 62.9082 22.7533 62.8948 22.6774 62.8808C22.1176 62.7779 21.6693 62.3296 21.5664 61.7698C21.5499 61.68 21.5342 61.5835 21.5163 61.4651C21.4711 61.166 21.5707 60.8659 21.7846 60.652Z" fill="#C4C4C4"/>
<path d="M16.4233 60.652C16.6318 60.4434 16.9277 60.3391 17.2205 60.3753C17.4047 60.3981 17.5461 60.4168 17.6754 60.4365C18.3252 60.5355 18.8155 61.1096 18.7919 61.7664C18.7903 61.8129 18.7883 61.8626 18.7859 61.9169C18.7745 62.1826 18.665 62.4316 18.4769 62.6196C18.239 62.8575 17.9 62.9741 17.5675 62.9228C17.4728 62.9082 17.392 62.8948 17.3161 62.8808C16.7563 62.7779 16.308 62.3296 16.2051 61.7698C16.1886 61.68 16.1729 61.5835 16.155 61.4651C16.1097 61.166 16.2093 60.8659 16.4233 60.652Z" fill="#C4C4C4"/>
<path d="M11.06 60.652C11.2686 60.4434 11.5644 60.3391 11.8572 60.3753C12.0414 60.3981 12.1828 60.4168 12.3122 60.4365C12.962 60.5355 13.4522 61.1096 13.4286 61.7664C13.427 61.8129 13.425 61.8626 13.4226 61.9169C13.4112 62.1826 13.3017 62.4316 13.1136 62.6196C12.8757 62.8575 12.5367 62.9741 12.2042 62.9228C12.1095 62.9082 12.0287 62.8948 11.9528 62.8808C11.393 62.7779 10.9447 62.3296 10.8418 61.7698C10.8253 61.68 10.8096 61.5835 10.7917 61.4651C10.7465 61.166 10.846 60.8659 11.06 60.652Z" fill="#C4C4C4"/>
<path d="M5.69866 60.652C5.90723 60.4434 6.20311 60.3391 6.49584 60.3753C6.6801 60.3981 6.82151 60.4168 6.95082 60.4365C7.60063 60.5355 8.09091 61.1096 8.06732 61.7664C8.06565 61.8129 8.06365 61.8626 8.06131 61.9169C8.04989 62.1826 7.94035 62.4316 7.7523 62.6196C7.51436 62.8575 7.17542 62.9741 6.84287 62.9228C6.74818 62.9082 6.66739 62.8948 6.59149 62.8808C6.0317 62.7779 5.58336 62.3296 5.48046 61.7698C5.46396 61.68 5.44825 61.5835 5.43036 61.4651C5.38513 61.166 5.48471 60.8659 5.69866 60.652Z" fill="#C4C4C4"/>
<path d="M0.337328 60.652C0.545903 60.4434 0.841784 60.3391 1.13452 60.3753C1.31877 60.3981 1.46018 60.4168 1.5895 60.4365C2.2393 60.5355 2.72958 61.1096 2.70599 61.7664C2.70432 61.8129 2.70232 61.8626 2.69999 61.9169C2.68856 62.1826 2.57902 62.4316 2.39097 62.6196C2.15304 62.8575 1.81409 62.9741 1.48154 62.9228C1.38685 62.9082 1.30606 62.8948 1.23016 62.8808C0.670376 62.7779 0.222029 62.3296 0.119128 61.7698C0.102629 61.68 0.0869268 61.5835 0.0690345 61.4651C0.0238018 61.166 0.123386 60.8659 0.337328 60.652Z" fill="#C4C4C4"/>
<path d="M69.8186 55.3786C69.9175 54.7288 70.4917 54.2385 71.1485 54.2621C71.195 54.2638 71.2447 54.2658 71.2989 54.2681C71.5646 54.2796 71.8136 54.3891 72.0017 54.5772C72.2396 54.8151 72.3562 55.154 72.3049 55.4866C72.2902 55.5813 72.2768 55.6621 72.2629 55.738C72.16 56.2978 71.7116 56.7461 71.1519 56.849C71.0621 56.8655 70.9655 56.8812 70.8472 56.8991C70.548 56.9443 70.248 56.8447 70.0341 56.6308C69.8255 56.4222 69.7211 56.1263 69.7574 55.8336C69.7802 55.6494 69.7989 55.5079 69.8186 55.3786Z" fill="#C7C7C7"/>
<path d="M64.4573 55.3786C64.5562 54.7288 65.1303 54.2385 65.7872 54.2621C65.8336 54.2638 65.8834 54.2658 65.9376 54.2681C66.2033 54.2796 66.4523 54.3891 66.6404 54.5772C66.8783 54.8151 66.9949 55.154 66.9435 55.4866C66.9289 55.5813 66.9155 55.6621 66.9016 55.738C66.7987 56.2978 66.3503 56.7461 65.7905 56.849C65.7008 56.8655 65.6042 56.8812 65.4859 56.8991C65.1867 56.9443 64.8867 56.8447 64.6727 56.6308C64.4642 56.4222 64.3598 56.1263 64.3961 55.8336C64.4189 55.6494 64.4376 55.5079 64.4573 55.3786Z" fill="#C7C7C7"/>
<path d="M59.0959 55.3786C59.1949 54.7288 59.769 54.2385 60.4259 54.2621C60.4723 54.2638 60.5221 54.2658 60.5763 54.2681C60.842 54.2796 61.091 54.3891 61.279 54.5772C61.517 54.8151 61.6335 55.154 61.5822 55.4866C61.5676 55.5813 61.5542 55.6621 61.5402 55.738C61.4373 56.2978 60.989 56.7461 60.4292 56.849C60.3395 56.8655 60.2429 56.8812 60.1245 56.8991C59.8254 56.9443 59.5253 56.8447 59.3114 56.6308C59.1028 56.4222 58.9985 56.1263 59.0347 55.8336C59.0576 55.6494 59.0763 55.5079 59.0959 55.3786Z" fill="#C7C7C7"/>
<path d="M53.7346 55.3786C53.8336 54.7288 54.4077 54.2385 55.0645 54.2621C55.111 54.2638 55.1607 54.2658 55.215 54.2681C55.4807 54.2796 55.7297 54.3891 55.9177 54.5772C56.1556 54.8151 56.2722 55.154 56.2209 55.4866C56.2062 55.5813 56.1929 55.6621 56.1789 55.738C56.076 56.2978 55.6277 56.7461 55.0679 56.849C54.9781 56.8655 54.8815 56.8812 54.7632 56.8991C54.4641 56.9443 54.164 56.8447 53.9501 56.6308C53.7415 56.4222 53.6371 56.1263 53.6734 55.8336C53.6962 55.6494 53.7149 55.5079 53.7346 55.3786Z" fill="#C7C7C7"/>
<path d="M43.012 55.3786C43.1109 54.7288 43.685 54.2385 44.3419 54.2621C44.3883 54.2638 44.4381 54.2658 44.4923 54.2681C44.758 54.2796 45.007 54.3891 45.1951 54.5772C45.433 54.8151 45.5496 55.154 45.4982 55.4866C45.4836 55.5813 45.4702 55.6621 45.4563 55.738C45.3534 56.2978 44.905 56.7461 44.3452 56.849C44.2555 56.8655 44.1589 56.8812 44.0406 56.8991C43.7414 56.9443 43.4414 56.8447 43.2274 56.6308C43.0188 56.4222 42.9145 56.1263 42.9508 55.8336C42.9736 55.6494 42.9923 55.5079 43.012 55.3786Z" fill="#C7C7C7"/>
<path d="M37.6506 55.3786C37.7496 54.7288 38.3237 54.2385 38.9806 54.2621C39.027 54.2638 39.0767 54.2658 39.131 54.2681C39.3967 54.2796 39.6457 54.3891 39.8337 54.5772C40.0717 54.8151 40.1882 55.154 40.1369 55.4866C40.1223 55.5813 40.1089 55.6621 40.0949 55.738C39.992 56.2978 39.5437 56.7461 38.9839 56.849C38.8941 56.8655 38.7976 56.8812 38.6792 56.8991C38.3801 56.9443 38.08 56.8447 37.8661 56.6308C37.6575 56.4222 37.5532 56.1263 37.5894 55.8336C37.6122 55.6494 37.6309 55.5079 37.6506 55.3786Z" fill="#C7C7C7"/>
<path d="M32.2873 55.3786C32.3863 54.7288 32.9604 54.2385 33.6173 54.2621C33.6637 54.2638 33.7135 54.2658 33.7677 54.2681C34.0334 54.2796 34.2824 54.3891 34.4704 54.5772C34.7084 54.8151 34.8249 55.154 34.7736 55.4866C34.759 55.5813 34.7456 55.6621 34.7316 55.738C34.6287 56.2978 34.1804 56.7461 33.6206 56.849C33.5309 56.8655 33.4343 56.8812 33.3159 56.8991C33.0168 56.9443 32.7167 56.8447 32.5028 56.6308C32.2942 56.4222 32.1899 56.1263 32.2261 55.8336C32.249 55.6494 32.2677 55.5079 32.2873 55.3786Z" fill="#C7C7C7"/>
<path d="M26.926 55.3786C27.025 54.7288 27.5991 54.2385 28.2559 54.2621C28.3024 54.2638 28.3521 54.2658 28.4064 54.2681C28.6721 54.2796 28.9211 54.3891 29.1091 54.5772C29.347 54.8151 29.4636 55.154 29.4123 55.4866C29.3977 55.5813 29.3843 55.6621 29.3703 55.738C29.2674 56.2978 28.8191 56.7461 28.2593 56.849C28.1695 56.8655 28.073 56.8812 27.9546 56.8991C27.6555 56.9443 27.3554 56.8447 27.1415 56.6308C26.9329 56.4222 26.8286 56.1263 26.8648 55.8336C26.8876 55.6494 26.9063 55.5079 26.926 55.3786Z" fill="#C7C7C7"/>
<path d="M21.5647 55.3786C21.6636 54.7288 22.2377 54.2385 22.8946 54.2621C22.9411 54.2638 22.9908 54.2658 23.045 54.2681C23.3107 54.2796 23.5597 54.3891 23.7478 54.5772C23.9857 54.8151 24.1023 55.154 24.0509 55.4866C24.0363 55.5813 24.0229 55.6621 24.009 55.738C23.9061 56.2978 23.4577 56.7461 22.898 56.849C22.8082 56.8655 22.7116 56.8812 22.5933 56.8991C22.2941 56.9443 21.9941 56.8447 21.7802 56.6308C21.5716 56.4222 21.4672 56.1263 21.5035 55.8336C21.5263 55.6494 21.545 55.5079 21.5647 55.3786Z" fill="#C7C7C7"/>
<path d="M16.2034 55.3786C16.3023 54.7288 16.8764 54.2385 17.5333 54.2621C17.5797 54.2638 17.6295 54.2658 17.6837 54.2681C17.9494 54.2796 18.1984 54.3891 18.3865 54.5772C18.6244 54.8151 18.741 55.154 18.6896 55.4866C18.675 55.5813 18.6616 55.6621 18.6477 55.738C18.5448 56.2978 18.0964 56.7461 17.5366 56.849C17.4469 56.8655 17.3503 56.8812 17.232 56.8991C16.9328 56.9443 16.6328 56.8447 16.4188 56.6308C16.2102 56.4222 16.1059 56.1263 16.1422 55.8336C16.165 55.6494 16.1837 55.5079 16.2034 55.3786Z" fill="#C7C7C7"/>
<path d="M10.8401 55.3786C10.939 54.7288 11.5131 54.2385 12.17 54.2621C12.2164 54.2638 12.2662 54.2658 12.3204 54.2681C12.5861 54.2796 12.8351 54.3891 13.0232 54.5772C13.2611 54.8151 13.3777 55.154 13.3263 55.4866C13.3117 55.5813 13.2983 55.6621 13.2844 55.738C13.1815 56.2978 12.7331 56.7461 12.1733 56.849C12.0836 56.8655 11.987 56.8812 11.8687 56.8991C11.5695 56.9443 11.2695 56.8447 11.0555 56.6308C10.847 56.4222 10.7426 56.1263 10.7789 55.8336C10.8017 55.6494 10.8204 55.5079 10.8401 55.3786Z" fill="#C7C7C7"/>
<path d="M5.47875 55.3786C5.57769 54.7288 6.15181 54.2385 6.80868 54.2621C6.85512 54.2638 6.90487 54.2658 6.9591 54.2681C7.2248 54.2796 7.4738 54.3891 7.66185 54.5772C7.89978 54.8151 8.01635 55.154 7.96501 55.4866C7.95039 55.5813 7.937 55.6621 7.92305 55.738C7.82015 56.2978 7.3718 56.7461 6.81202 56.849C6.72226 56.8655 6.62569 56.8812 6.50735 56.8991C6.20819 56.9443 5.90816 56.8447 5.69421 56.6308C5.48564 56.4222 5.38129 56.1263 5.41755 55.8336C5.44037 55.6494 5.45907 55.5079 5.47875 55.3786Z" fill="#C7C7C7"/>
<path d="M0.117426 55.3786C0.216365 54.7288 0.790481 54.2385 1.44735 54.2621C1.49379 54.2638 1.54354 54.2658 1.59777 54.2681C1.86347 54.2796 2.11247 54.3891 2.30052 54.5772C2.53845 54.8151 2.65502 55.154 2.60368 55.4866C2.58906 55.5813 2.57568 55.6621 2.56172 55.738C2.45882 56.2978 2.01048 56.7461 1.45069 56.849C1.36094 56.8655 1.26436 56.8812 1.14602 56.8991C0.846864 56.9443 0.546827 56.8447 0.332885 56.6308C0.12431 56.4222 0.0199582 56.1263 0.056219 55.8336C0.079043 55.6494 0.0977369 55.5079 0.117426 55.3786Z" fill="#C7C7C7"/>
<path d="M70.029 48.5977C70.243 48.3838 70.548 48.2792 70.8472 48.3244C70.9655 48.3423 71.0621 48.358 71.1519 48.3745C71.7116 48.4774 72.1487 48.8864 72.2554 49.4454C72.3486 49.9336 72.2156 50.526 71.7981 50.7956C71.5697 50.943 71.3583 50.9531 70.8322 50.9781C70.3622 50.9534 69.96 50.6186 69.872 50.1563C69.8269 49.9191 69.799 49.7256 69.7574 49.3899C69.7211 49.0972 69.8205 48.8063 70.029 48.5977Z" fill="#C6C6C6"/>
<path d="M64.6677 48.5977C64.8816 48.3838 65.1867 48.2792 65.4859 48.3244C65.6042 48.3423 65.7008 48.358 65.7905 48.3745C66.3503 48.4774 66.7873 48.8864 66.8941 49.4454C66.9872 49.9336 66.8543 50.526 66.4368 50.7956C66.2084 50.943 65.9969 50.9531 65.4708 50.9781C65.0009 50.9534 64.5987 50.6186 64.5107 50.1563C64.4655 49.9191 64.4376 49.7256 64.3961 49.3899C64.3598 49.0972 64.4591 48.8063 64.6677 48.5977Z" fill="#C6C6C6"/>
<path d="M53.945 48.5977C54.159 48.3838 54.4641 48.2792 54.7632 48.3244C54.8815 48.3423 54.9781 48.358 55.0679 48.3745C55.6277 48.4774 56.0647 48.8864 56.1714 49.4454C56.2646 49.9336 56.1316 50.526 55.7141 50.7956C55.4857 50.943 55.2743 50.9531 54.7482 50.9781C54.2782 50.9534 53.876 50.6186 53.788 50.1563C53.7429 49.9191 53.715 49.7256 53.6734 49.3899C53.6371 49.0972 53.7365 48.8063 53.945 48.5977Z" fill="#C6C6C6"/>
<path d="M43.2224 48.5977C43.4363 48.3838 43.7414 48.2792 44.0406 48.3244C44.1589 48.3423 44.2555 48.358 44.3452 48.3745C44.905 48.4774 45.342 48.8864 45.4487 49.4454C45.5419 49.9336 45.409 50.526 44.9914 50.7956C44.7631 50.943 44.5516 50.9531 44.0255 50.9781C43.5556 50.9534 43.1534 50.6186 43.0654 50.1563C43.0202 49.9191 42.9923 49.7256 42.9508 49.3899C42.9145 49.0972 43.0138 48.8063 43.2224 48.5977Z" fill="#C6C6C6"/>
<path d="M37.8611 48.5977C38.075 48.3838 38.3801 48.2792 38.6792 48.3244C38.7976 48.3423 38.8941 48.358 38.9839 48.3745C39.5437 48.4774 39.9807 48.8864 40.0874 49.4454C40.1806 49.9336 40.0477 50.526 39.6301 50.7956C39.4017 50.943 39.1903 50.9531 38.6642 50.9781C38.1943 50.9534 37.7921 50.6186 37.704 50.1563C37.6589 49.9191 37.631 49.7256 37.5894 49.3899C37.5532 49.0972 37.6525 48.8063 37.8611 48.5977Z" fill="#C6C6C6"/>
<path d="M32.4978 48.5977C32.7117 48.3838 33.0168 48.2792 33.3159 48.3244C33.4343 48.3423 33.5309 48.358 33.6206 48.3745C34.1804 48.4774 34.6174 48.8864 34.7241 49.4454C34.8173 49.9336 34.6844 50.526 34.2668 50.7956C34.0385 50.943 33.827 50.9531 33.3009 50.9781C32.831 50.9534 32.4288 50.6186 32.3408 50.1563C32.2956 49.9191 32.2677 49.7256 32.2261 49.3899C32.1899 49.0972 32.2892 48.8063 32.4978 48.5977Z" fill="#C6C6C6"/>
<path d="M27.1365 48.5977C27.3504 48.3838 27.6555 48.2792 27.9546 48.3244C28.073 48.3423 28.1695 48.358 28.2593 48.3745C28.8191 48.4774 29.2561 48.8864 29.3628 49.4454C29.456 49.9336 29.323 50.526 28.9055 50.7956C28.6771 50.943 28.4657 50.9531 27.9396 50.9781C27.4696 50.9534 27.0674 50.6186 26.9794 50.1563C26.9343 49.9191 26.9064 49.7256 26.8648 49.3899C26.8286 49.0972 26.9279 48.8063 27.1365 48.5977Z" fill="#C6C6C6"/>
<path d="M21.7751 48.5977C21.9891 48.3838 22.2941 48.2792 22.5933 48.3244C22.7116 48.3423 22.8082 48.358 22.898 48.3745C23.4577 48.4774 23.8948 48.8864 24.0015 49.4454C24.0947 49.9336 23.9617 50.526 23.5442 50.7956C23.3158 50.943 23.1044 50.9531 22.5782 50.9781C22.1083 50.9534 21.7061 50.6186 21.6181 50.1563C21.5729 49.9191 21.5451 49.7256 21.5035 49.3899C21.4672 49.0972 21.5666 48.8063 21.7751 48.5977Z" fill="#C6C6C6"/>
<path d="M16.4138 48.5977C16.6277 48.3838 16.9328 48.2792 17.232 48.3244C17.3503 48.3423 17.4469 48.358 17.5366 48.3745C18.0964 48.4774 18.5334 48.8864 18.6402 49.4454C18.7333 49.9336 18.6004 50.526 18.1828 50.7956C17.9545 50.943 17.743 50.9531 17.2169 50.9781C16.747 50.9534 16.3448 50.6186 16.2568 50.1563C16.2116 49.9191 16.1837 49.7256 16.1422 49.3899C16.1059 49.0972 16.2052 48.8063 16.4138 48.5977Z" fill="#C6C6C6"/>
<path d="M11.0505 48.5977C11.2645 48.3838 11.5695 48.2792 11.8687 48.3244C11.987 48.3423 12.0836 48.358 12.1733 48.3745C12.7331 48.4774 13.1701 48.8864 13.2769 49.4454C13.3701 49.9336 13.2371 50.526 12.8196 50.7956C12.5912 50.943 12.3797 50.9531 11.8536 50.9781C11.3837 50.9534 10.9815 50.6186 10.8935 50.1563C10.8483 49.9191 10.8205 49.7256 10.7789 49.3899C10.7426 49.0972 10.8419 48.8063 11.0505 48.5977Z" fill="#C6C6C6"/>
<path d="M5.68919 48.5977C5.90313 48.3838 6.20819 48.2792 6.50735 48.3244C6.62569 48.3423 6.72226 48.358 6.81202 48.3745C7.3718 48.4774 7.80882 48.8864 7.91554 49.4454C8.00873 49.9336 7.87578 50.526 7.45824 50.7956C7.22987 50.943 7.01842 50.9531 6.49231 50.9781C6.02238 50.9534 5.62018 50.6186 5.53217 50.1563C5.48701 49.9191 5.45913 49.7256 5.41755 49.3899C5.38129 49.0972 5.48061 48.8063 5.68919 48.5977Z" fill="#C6C6C6"/>
<path d="M37.8705 36.5245C38.0791 36.316 38.375 36.2116 38.6677 36.2479C38.852 36.2707 38.9934 36.2894 39.1227 36.3091C39.7725 36.408 40.2628 36.9821 40.2392 37.639C40.2375 37.6854 40.2355 37.7352 40.2332 37.7894C40.2218 38.0551 40.1122 38.3041 39.9242 38.4922C39.6862 38.7301 39.3473 38.8467 39.0147 38.7953C38.9201 38.7807 38.8393 38.7673 38.7634 38.7534C38.2036 38.6505 37.7552 38.2021 37.6523 37.6423C37.6358 37.5526 37.6201 37.456 37.6022 37.3377C37.557 37.0385 37.6566 36.7385 37.8705 36.5245Z" fill="#C4C4C4"/>
<path d="M16.4233 36.5245C16.6318 36.316 16.9277 36.2116 17.2205 36.2479C17.4047 36.2707 17.5461 36.2894 17.6754 36.3091C18.3252 36.408 18.8155 36.9821 18.7919 37.639C18.7903 37.6854 18.7883 37.7352 18.7859 37.7894C18.7745 38.0551 18.665 38.3041 18.4769 38.4922C18.239 38.7301 17.9 38.8467 17.5675 38.7953C17.4728 38.7807 17.392 38.7673 17.3161 38.7534C16.7563 38.6505 16.308 38.2021 16.2051 37.6423C16.1886 37.5526 16.1729 37.456 16.155 37.3377C16.1097 37.0385 16.2093 36.7385 16.4233 36.5245Z" fill="#C4C4C4"/>
<path d="M11.06 36.5245C11.2686 36.316 11.5644 36.2116 11.8572 36.2479C12.0414 36.2707 12.1828 36.2894 12.3122 36.3091C12.962 36.408 13.4522 36.9821 13.4286 37.639C13.427 37.6854 13.425 37.7352 13.4226 37.7894C13.4112 38.0551 13.3017 38.3041 13.1136 38.4922C12.8757 38.7301 12.5367 38.8467 12.2042 38.7953C12.1095 38.7807 12.0287 38.7673 11.9528 38.7534C11.393 38.6505 10.9447 38.2021 10.8418 37.6423C10.8253 37.5526 10.8096 37.456 10.7917 37.3377C10.7465 37.0385 10.846 36.7385 11.06 36.5245Z" fill="#C4C4C4"/>
<path d="M37.6506 31.2512C37.7496 30.6014 38.3237 30.1111 38.9806 30.1347C39.027 30.1364 39.0767 30.1384 39.131 30.1407C39.3967 30.1521 39.6457 30.2617 39.8337 30.4497C40.0717 30.6876 40.1882 31.0266 40.1369 31.3591C40.1223 31.4538 40.1089 31.5346 40.0949 31.6105C39.992 32.1703 39.5437 32.6187 38.9839 32.7216C38.8941 32.7381 38.7976 32.7538 38.6792 32.7717C38.3801 32.8169 38.08 32.7173 37.8661 32.5034C37.6575 32.2948 37.5532 31.9989 37.5894 31.7062C37.6122 31.5219 37.6309 31.3805 37.6506 31.2512Z" fill="#C7C7C7"/>
<path d="M16.2034 31.2512C16.3023 30.6014 16.8764 30.1111 17.5333 30.1347C17.5797 30.1364 17.6295 30.1384 17.6837 30.1407C17.9494 30.1521 18.1984 30.2617 18.3865 30.4497C18.6244 30.6876 18.741 31.0266 18.6896 31.3591C18.675 31.4538 18.6616 31.5346 18.6477 31.6105C18.5448 32.1703 18.0964 32.6187 17.5366 32.7216C17.4469 32.7381 17.3503 32.7538 17.232 32.7717C16.9328 32.8169 16.6328 32.7173 16.4188 32.5034C16.2102 32.2948 16.1059 31.9989 16.1422 31.7062C16.165 31.5219 16.1837 31.3805 16.2034 31.2512Z" fill="#C7C7C7"/>
<path d="M16.4138 24.47C16.6277 24.2561 16.9328 24.1515 17.232 24.1967C17.3503 24.2146 17.4469 24.2303 17.5366 24.2468C18.0964 24.3497 18.5334 24.7587 18.6402 25.3178C18.7333 25.8059 18.6004 26.3983 18.1828 26.6679C17.9545 26.8153 17.743 26.8254 17.2169 26.8504C16.747 26.8257 16.3448 26.4909 16.2568 26.0286C16.2116 25.7914 16.1837 25.5979 16.1422 25.2622C16.1059 24.9695 16.2052 24.6786 16.4138 24.47Z" fill="#C6C6C6"/>
<path d="M71.3251 60.6364C71.2331 60.6058 71.2667 60.468 71.3624 60.484C71.5948 60.5227 71.827 60.5614 72.2577 60.6332C72.33 60.6453 72.3837 60.7079 72.3837 60.7812C72.3837 61.1661 72.3837 61.5515 72.3837 61.9433C72.3837 62.1801 72.2499 62.3966 72.038 62.5026C71.9904 62.5264 71.9412 62.551 71.875 62.5841C71.7752 62.634 71.6561 62.6266 71.5632 62.5647C71.4214 62.4701 71.2793 62.3754 71.1362 62.28C71.008 62.1945 71.0664 61.9946 71.2205 61.9946C71.3065 61.9946 71.3784 61.9249 71.3784 61.8389C71.3784 61.4667 71.3784 61.0933 71.3784 60.7109C71.3784 60.6771 71.3572 60.6472 71.3251 60.6364Z" fill="#CACACA"/>
<path d="M65.9618 60.6364C65.8698 60.6058 65.9034 60.468 65.9991 60.484C66.2315 60.5227 66.4637 60.5614 66.8945 60.6332C66.9668 60.6453 67.0204 60.7079 67.0204 60.7812C67.0204 61.1661 67.0204 61.5515 67.0204 61.9433C67.0204 62.1801 66.8866 62.3966 66.6748 62.5026C66.6272 62.5264 66.5779 62.551 66.5118 62.5841C66.4119 62.634 66.2929 62.6266 66.1999 62.5647C66.0581 62.4701 65.9161 62.3754 65.7729 62.28C65.6447 62.1945 65.7031 61.9946 65.8572 61.9946C65.9432 61.9946 66.0151 61.9249 66.0151 61.8389C66.0151 61.4667 66.0151 61.0933 66.0151 60.7109C66.0151 60.6771 65.9939 60.6472 65.9618 60.6364Z" fill="#CACACA"/>
<path d="M60.6005 60.6364C60.5084 60.6058 60.5421 60.468 60.6378 60.484C60.8702 60.5227 61.1024 60.5614 61.5331 60.6332C61.6054 60.6453 61.6591 60.7079 61.6591 60.7812C61.6591 61.1661 61.6591 61.5515 61.6591 61.9433C61.6591 62.1801 61.5253 62.3966 61.3134 62.5026C61.2658 62.5264 61.2166 62.551 61.1504 62.5841C61.0506 62.634 60.9315 62.6266 60.8386 62.5647C60.6968 62.4701 60.5547 62.3754 60.4116 62.28C60.2834 62.1945 60.3418 61.9946 60.4959 61.9946C60.5819 61.9946 60.6538 61.9249 60.6538 61.8389C60.6538 61.4667 60.6538 61.0933 60.6538 60.7109C60.6538 60.6771 60.6326 60.6472 60.6005 60.6364Z" fill="#CACACA"/>
<path d="M55.2392 60.6364C55.1471 60.6058 55.1808 60.468 55.2764 60.484C55.5089 60.5227 55.741 60.5614 56.1718 60.6332C56.2441 60.6453 56.2977 60.7079 56.2977 60.7812C56.2977 61.1661 56.2977 61.5515 56.2977 61.9433C56.2977 62.1801 56.1639 62.3966 55.9521 62.5026C55.9045 62.5264 55.8552 62.551 55.7891 62.5841C55.6892 62.634 55.5702 62.6266 55.4773 62.5647C55.3355 62.4701 55.1934 62.3754 55.0503 62.28C54.922 62.1945 54.9804 61.9946 55.1346 61.9946C55.2206 61.9946 55.2924 61.9249 55.2924 61.8389C55.2924 61.4667 55.2924 61.0933 55.2924 60.7109C55.2924 60.6771 55.2713 60.6472 55.2392 60.6364Z" fill="#CACACA"/>
<path d="M49.8778 60.6364C49.7858 60.6058 49.8194 60.468 49.9151 60.484C50.1475 60.5227 50.3797 60.5614 50.8105 60.6332C50.8828 60.6453 50.9364 60.7079 50.9364 60.7812C50.9364 61.1661 50.9364 61.5515 50.9364 61.9433C50.9364 62.1801 50.8026 62.3966 50.5908 62.5026C50.5432 62.5264 50.4939 62.551 50.4278 62.5841C50.3279 62.634 50.2089 62.6266 50.116 62.5647C49.9742 62.4701 49.8321 62.3754 49.6889 62.28C49.5607 62.1945 49.6191 61.9946 49.7732 61.9946C49.8592 61.9946 49.9311 61.9249 49.9311 61.8389C49.9311 61.4667 49.9311 61.0933 49.9311 60.7109C49.9311 60.6771 49.91 60.6472 49.8778 60.6364Z" fill="#CACACA"/>
<path d="M44.5165 60.6364C44.4245 60.6058 44.4581 60.468 44.5538 60.484C44.7862 60.5227 45.0184 60.5614 45.4491 60.6332C45.5215 60.6453 45.5751 60.7079 45.5751 60.7812C45.5751 61.1661 45.5751 61.5515 45.5751 61.9433C45.5751 62.1801 45.4413 62.3966 45.2294 62.5026C45.1818 62.5264 45.1326 62.551 45.0664 62.5841C44.9666 62.634 44.8475 62.6266 44.7546 62.5647C44.6128 62.4701 44.4708 62.3754 44.3276 62.28C44.1994 62.1945 44.2578 61.9946 44.4119 61.9946C44.4979 61.9946 44.5698 61.9249 44.5698 61.8389C44.5698 61.4667 44.5698 61.0933 44.5698 60.7109C44.5698 60.6771 44.5486 60.6472 44.5165 60.6364Z" fill="#CACACA"/>
<path d="M39.1552 60.6364C39.0631 60.6058 39.0968 60.468 39.1925 60.484C39.4249 60.5227 39.6571 60.5614 40.0878 60.6332C40.1601 60.6453 40.2138 60.7079 40.2138 60.7812C40.2138 61.1661 40.2138 61.5515 40.2138 61.9433C40.2138 62.1801 40.08 62.3966 39.8681 62.5026C39.8205 62.5264 39.7712 62.551 39.7051 62.5841C39.6052 62.634 39.4862 62.6266 39.3933 62.5647C39.2515 62.4701 39.1094 62.3754 38.9663 62.28C38.8381 62.1945 38.8965 61.9946 39.0506 61.9946C39.1366 61.9946 39.2084 61.9249 39.2084 61.8389C39.2084 61.4667 39.2084 61.0933 39.2084 60.7109C39.2084 60.6771 39.1873 60.6472 39.1552 60.6364Z" fill="#CACACA"/>
<path d="M33.7919 60.6364C33.6999 60.6058 33.7335 60.468 33.8292 60.484C34.0616 60.5227 34.2938 60.5614 34.7245 60.6332C34.7968 60.6453 34.8505 60.7079 34.8505 60.7812C34.8505 61.1661 34.8505 61.5515 34.8505 61.9433C34.8505 62.1801 34.7167 62.3966 34.5048 62.5026C34.4572 62.5264 34.408 62.551 34.3418 62.5841C34.242 62.634 34.1229 62.6266 34.03 62.5647C33.8882 62.4701 33.7461 62.3754 33.603 62.28C33.4748 62.1945 33.5332 61.9946 33.6873 61.9946C33.7733 61.9946 33.8452 61.9249 33.8452 61.8389C33.8452 61.4667 33.8452 61.0933 33.8452 60.7109C33.8452 60.6771 33.824 60.6472 33.7919 60.6364Z" fill="#CACACA"/>
<path d="M28.4306 60.6364C28.3385 60.6058 28.3722 60.468 28.4679 60.484C28.7003 60.5227 28.9325 60.5614 29.3632 60.6332C29.4355 60.6453 29.4892 60.7079 29.4892 60.7812C29.4892 61.1661 29.4892 61.5515 29.4892 61.9433C29.4892 62.1801 29.3553 62.3966 29.1435 62.5026C29.0959 62.5264 29.0466 62.551 28.9805 62.5841C28.8806 62.634 28.7616 62.6266 28.6687 62.5647C28.5269 62.4701 28.3848 62.3754 28.2417 62.28C28.1134 62.1945 28.1718 61.9946 28.326 61.9946C28.412 61.9946 28.4838 61.9249 28.4838 61.8389C28.4838 61.4667 28.4838 61.0933 28.4838 60.7109C28.4838 60.6771 28.4627 60.6472 28.4306 60.6364Z" fill="#CACACA"/>
<path d="M23.0692 60.6364C22.9772 60.6058 23.0108 60.468 23.1065 60.484C23.339 60.5227 23.5711 60.5614 24.0019 60.6332C24.0742 60.6453 24.1278 60.7079 24.1278 60.7812C24.1278 61.1661 24.1278 61.5515 24.1278 61.9433C24.1278 62.1801 23.994 62.3966 23.7822 62.5026C23.7346 62.5264 23.6853 62.551 23.6192 62.5841C23.5193 62.634 23.4003 62.6266 23.3074 62.5647C23.1656 62.4701 23.0235 62.3754 22.8803 62.28C22.7521 62.1945 22.8105 61.9946 22.9646 61.9946C23.0507 61.9946 23.1225 61.9249 23.1225 61.8389C23.1225 61.4667 23.1225 61.0933 23.1225 60.7109C23.1225 60.6771 23.1014 60.6472 23.0692 60.6364Z" fill="#CACACA"/>
<path d="M17.7079 60.6364C17.6159 60.6058 17.6495 60.468 17.7452 60.484C17.9776 60.5227 18.2098 60.5614 18.6405 60.6332C18.7129 60.6453 18.7665 60.7079 18.7665 60.7812C18.7665 61.1661 18.7665 61.5515 18.7665 61.9433C18.7665 62.1801 18.6327 62.3966 18.4209 62.5026C18.3732 62.5264 18.324 62.551 18.2579 62.5841C18.158 62.634 18.0389 62.6266 17.946 62.5647C17.8042 62.4701 17.6622 62.3754 17.519 62.28C17.3908 62.1945 17.4492 61.9946 17.6033 61.9946C17.6893 61.9946 17.7612 61.9249 17.7612 61.8389C17.7612 61.4667 17.7612 61.0933 17.7612 60.7109C17.7612 60.6771 17.74 60.6472 17.7079 60.6364Z" fill="#CACACA"/>
<path d="M12.3446 60.6364C12.2526 60.6058 12.2862 60.468 12.3819 60.484C12.6143 60.5227 12.8465 60.5614 13.2773 60.6332C13.3496 60.6453 13.4032 60.7079 13.4032 60.7812C13.4032 61.1661 13.4032 61.5515 13.4032 61.9433C13.4032 62.1801 13.2694 62.3966 13.0576 62.5026C13.01 62.5264 12.9607 62.551 12.8946 62.5841C12.7947 62.634 12.6757 62.6266 12.5828 62.5647C12.441 62.4701 12.2989 62.3754 12.1557 62.28C12.0275 62.1945 12.0859 61.9946 12.24 61.9946C12.326 61.9946 12.3979 61.9249 12.3979 61.8389C12.3979 61.4667 12.3979 61.0933 12.3979 60.7109C12.3979 60.6771 12.3768 60.6472 12.3446 60.6364Z" fill="#CACACA"/>
<path d="M6.9833 60.6364C6.89126 60.6058 6.92489 60.468 7.02059 60.484C7.25302 60.5227 7.48519 60.5614 7.91594 60.6332C7.98825 60.6453 8.04189 60.7079 8.04189 60.7812C8.04189 61.1661 8.04189 61.5515 8.04189 61.9433C8.04189 62.1801 7.90808 62.3966 7.69624 62.5026C7.64864 62.5264 7.59937 62.551 7.53324 62.5841C7.43337 62.634 7.31434 62.6266 7.22143 62.5647C7.07963 62.4701 6.93755 62.3754 6.79441 62.28C6.66618 62.1945 6.72458 61.9946 6.87869 61.9946C6.96472 61.9946 7.03657 61.9249 7.03657 61.8389C7.03657 61.4667 7.03657 61.0933 7.03657 60.7109C7.03657 60.6771 7.01543 60.6472 6.9833 60.6364Z" fill="#CACACA"/>
<path d="M1.62197 60.6364C1.52993 60.6058 1.56356 60.468 1.65926 60.484C1.89169 60.5227 2.12386 60.5614 2.55461 60.6332C2.62692 60.6453 2.68056 60.7079 2.68056 60.7812C2.68056 61.1661 2.68056 61.5515 2.68056 61.9433C2.68056 62.1801 2.54675 62.3966 2.33491 62.5026C2.28731 62.5264 2.23804 62.551 2.17191 62.5841C2.07204 62.634 1.95301 62.6266 1.8601 62.5647C1.7183 62.4701 1.57622 62.3754 1.43308 62.28C1.30485 62.1945 1.36325 61.9946 1.51736 61.9946C1.60339 61.9946 1.67524 61.9249 1.67524 61.8389C1.67524 61.4667 1.67524 61.0933 1.67524 60.7109C1.67524 60.6771 1.6541 60.6472 1.62197 60.6364Z" fill="#CACACA"/>
<path d="M39.1552 36.509C39.0631 36.4783 39.0968 36.3406 39.1925 36.3565C39.4249 36.3953 39.6571 36.434 40.0878 36.5058C40.1601 36.5178 40.2138 36.5805 40.2138 36.6538C40.2138 37.0386 40.2138 37.4241 40.2138 37.8158C40.2138 38.0527 40.08 38.2692 39.8681 38.3751C39.8205 38.3989 39.7712 38.4235 39.7051 38.4566C39.6052 38.5065 39.4862 38.4992 39.3933 38.4372C39.2515 38.3427 39.1094 38.248 38.9663 38.1526C38.8381 38.0671 38.8965 37.8672 39.0506 37.8672C39.1366 37.8672 39.2084 37.7974 39.2084 37.7114C39.2084 37.3392 39.2084 36.9659 39.2084 36.5835C39.2084 36.5496 39.1873 36.5197 39.1552 36.509Z" fill="#CACACA"/>
<path d="M17.7079 36.509C17.6159 36.4783 17.6495 36.3406 17.7452 36.3565C17.9776 36.3953 18.2098 36.434 18.6405 36.5058C18.7129 36.5178 18.7665 36.5805 18.7665 36.6538C18.7665 37.0386 18.7665 37.4241 18.7665 37.8158C18.7665 38.0527 18.6327 38.2692 18.4209 38.3751C18.3732 38.3989 18.324 38.4235 18.2579 38.4566C18.158 38.5065 18.0389 38.4992 17.946 38.4372C17.8042 38.3427 17.6622 38.248 17.519 38.1526C17.3908 38.0671 17.4492 37.8672 17.6033 37.8672C17.6893 37.8672 17.7612 37.7974 17.7612 37.7114C17.7612 37.3392 17.7612 36.9659 17.7612 36.5835C17.7612 36.5496 17.74 36.5197 17.7079 36.509Z" fill="#CACACA"/>
<path d="M12.3446 36.509C12.2526 36.4783 12.2862 36.3406 12.3819 36.3565C12.6143 36.3953 12.8465 36.434 13.2773 36.5058C13.3496 36.5178 13.4032 36.5805 13.4032 36.6538C13.4032 37.0386 13.4032 37.4241 13.4032 37.8158C13.4032 38.0527 13.2694 38.2692 13.0576 38.3751C13.01 38.3989 12.9607 38.4235 12.8946 38.4566C12.7947 38.5065 12.6757 38.4992 12.5828 38.4372C12.441 38.3427 12.2989 38.248 12.1557 38.1526C12.0275 38.0671 12.0859 37.8672 12.24 37.8672C12.326 37.8672 12.3979 37.7974 12.3979 37.7114C12.3979 37.3392 12.3979 36.9659 12.3979 36.5835C12.3979 36.5496 12.3768 36.5197 12.3446 36.509Z" fill="#CACACA"/>
<path d="M44.1782 42.8372C43.9899 42.6488 44.1562 42.329 44.4176 42.3797C45.0373 42.4998 45.2145 42.5652 45.4009 42.7266C45.518 42.828 45.5774 42.9799 45.5802 43.1348C45.5841 43.3585 45.5859 43.5823 45.5855 43.806C45.5848 44.1857 45.2147 44.449 44.8546 44.329C44.6784 44.2702 44.5385 44.1274 44.4873 43.9489C44.3822 43.5826 44.3582 43.4756 44.2515 42.9728C44.2406 42.9214 44.2154 42.8744 44.1782 42.8372Z" fill="#CBCBCB"/>
<path d="M38.8169 42.8372C38.6286 42.6488 38.7949 42.329 39.0563 42.3797C39.676 42.4998 39.8532 42.5652 40.0396 42.7266C40.1566 42.828 40.2161 42.9799 40.2188 43.1348C40.2228 43.3585 40.2246 43.5823 40.2242 43.806C40.2234 44.1857 39.8534 44.449 39.4932 44.329C39.3171 44.2702 39.1771 44.1274 39.1259 43.9489C39.0209 43.5826 38.9969 43.4756 38.8901 42.9728C38.8792 42.9214 38.8541 42.8744 38.8169 42.8372Z" fill="#CBCBCB"/>
<path d="M33.4536 42.8372C33.2653 42.6488 33.4316 42.329 33.693 42.3797C34.3127 42.4998 34.4899 42.5652 34.6763 42.7266C34.7934 42.828 34.8528 42.9799 34.8556 43.1348C34.8595 43.3585 34.8613 43.5823 34.8609 43.806C34.8602 44.1857 34.4901 44.449 34.1299 44.329C33.9538 44.2702 33.8139 44.1274 33.7627 43.9489C33.6576 43.5826 33.6336 43.4756 33.5269 42.9728C33.5159 42.9214 33.4908 42.8744 33.4536 42.8372Z" fill="#CBCBCB"/>
<path d="M17.3696 42.8372C17.1813 42.6488 17.3476 42.329 17.609 42.3797C18.2287 42.4998 18.4059 42.5652 18.5923 42.7266C18.7094 42.828 18.7688 42.9799 18.7716 43.1348C18.7755 43.3585 18.7773 43.5823 18.7769 43.806C18.7762 44.1857 18.4061 44.449 18.046 44.329C17.8698 44.2702 17.7299 44.1274 17.6787 43.9489C17.5736 43.5826 17.5496 43.4756 17.4429 42.9728C17.432 42.9214 17.4068 42.8744 17.3696 42.8372Z" fill="#CBCBCB"/>
<path d="M12.0063 42.8372C11.818 42.6488 11.9843 42.329 12.2458 42.3797C12.8654 42.4998 13.0426 42.5652 13.229 42.7266C13.3461 42.828 13.4056 42.9799 13.4083 43.1348C13.4122 43.3585 13.4141 43.5823 13.4136 43.806C13.4129 44.1857 13.0428 44.449 12.6827 44.329C12.5065 44.2702 12.3666 44.1274 12.3154 43.9489C12.2103 43.5826 12.1863 43.4756 12.0796 42.9728C12.0687 42.9214 12.0436 42.8744 12.0063 42.8372Z" fill="#CBCBCB"/>
<path d="M17.3696 18.7097C17.1813 18.5214 17.3476 18.2016 17.609 18.2522C18.2287 18.3723 18.4059 18.4378 18.5923 18.5992C18.7094 18.7005 18.7688 18.8525 18.7716 19.0073C18.7755 19.2311 18.7773 19.4548 18.7769 19.6786C18.7762 20.0582 18.4061 20.3216 18.046 20.2015C17.8698 20.1428 17.7299 19.9999 17.6787 19.8214C17.5736 19.4552 17.5496 19.3481 17.4429 18.8454C17.432 18.7939 17.4068 18.7469 17.3696 18.7097Z" fill="#CBCBCB"/>
</svg>
