<svg width="18" height="18" viewBox="0 0 18 18" fill="none" xmlns="http://www.w3.org/2000/svg">
<path d="M4.41406 11.7735V9.56641H4.68995C4.81197 9.5666 4.92892 9.61521 5.01513 9.70156C5.10134 9.7879 5.14976 9.90494 5.14976 10.027V11.3137C5.14956 11.4357 5.10096 11.5527 5.01461 11.6389C4.92826 11.7251 4.81123 11.7735 4.68921 11.7735H4.41406ZM8.82824 9.93425C8.82824 9.8367 8.867 9.74313 8.93598 9.67415C9.00497 9.60516 9.09853 9.56641 9.19609 9.56641C9.29365 9.56641 9.38721 9.60516 9.4562 9.67415C9.52518 9.74313 9.56394 9.8367 9.56394 9.93425V11.4056C9.56394 11.5032 9.52518 11.5968 9.4562 11.6658C9.38721 11.7347 9.29365 11.7735 9.19609 11.7735C9.09853 11.7735 9.00497 11.7347 8.93598 11.6658C8.867 11.5968 8.82824 11.5032 8.82824 11.4056V9.93425Z" fill="#1B78FB"/>
<path fill-rule="evenodd" clip-rule="evenodd" d="M8.09393 5.14723V1.46875H13.2438C13.634 1.46875 14.0083 1.62377 14.2842 1.89971C14.5602 2.17565 14.7152 2.54991 14.7152 2.94014V6.61863H15.4509C15.646 6.61863 15.8331 6.69614 15.9711 6.83411C16.1091 6.97208 16.1866 7.1592 16.1866 7.35432V13.9756C16.1866 14.1707 16.1091 14.3578 15.9711 14.4958C15.8331 14.6338 15.646 14.7113 15.4509 14.7113H14.7152C14.7152 15.1015 14.5602 15.4758 14.2842 15.7517C14.0083 16.0277 13.634 16.1827 13.2438 16.1827H4.41544C4.0252 16.1827 3.65095 16.0277 3.37501 15.7517C3.09907 15.4758 2.94405 15.1015 2.94405 14.7113H2.20835C2.01323 14.7113 1.82611 14.6338 1.68814 14.4958C1.55017 14.3578 1.47266 14.1707 1.47266 13.9756V7.35432C1.47266 7.1592 1.55017 6.97208 1.68814 6.83411C1.82611 6.69614 2.01323 6.61863 2.20835 6.61863H6.62253C7.01277 6.61863 7.38702 6.4636 7.66296 6.18766C7.9389 5.91173 8.09393 5.53747 8.09393 5.14723ZM13.7463 9.56583L14.7284 9.54817L14.7012 8.07678L13.7249 8.09443C13.2099 8.09657 12.7166 8.30269 12.3532 8.66766C11.9897 9.03264 11.7856 9.52674 11.7857 10.0418V11.2969C11.7857 11.8134 11.9908 12.3087 12.356 12.6739C12.7212 13.0391 13.2166 13.2443 13.733 13.2443H14.7152V11.7729H13.733C13.6068 11.7729 13.4857 11.7228 13.3965 11.6335C13.3072 11.5442 13.257 11.4232 13.257 11.2969V10.0418C13.257 9.91558 13.3072 9.79451 13.3965 9.70524C13.4857 9.61598 13.6068 9.56583 13.733 9.56583H13.7463ZM3.67975 8.09002C3.48463 8.09002 3.2975 8.16753 3.15953 8.3055C3.02156 8.44347 2.94405 8.6306 2.94405 8.82572V12.5042C2.94405 12.6993 3.02156 12.8864 3.15953 13.0244C3.2975 13.1624 3.48463 13.2399 3.67975 13.2399H4.69206C5.20406 13.2395 5.69497 13.0359 6.05694 12.6738C6.41891 12.3117 6.62234 11.8207 6.62253 11.3087V10.0212C6.62234 9.5091 6.41881 9.018 6.05668 8.65587C5.69455 8.29374 5.20346 8.09021 4.69133 8.09002H3.67975ZM9.19747 8.09002C8.70967 8.09002 8.24185 8.2838 7.89693 8.62872C7.55201 8.97365 7.35823 9.44146 7.35823 9.92926V11.4007C7.35823 11.8885 7.55201 12.3563 7.89693 12.7012C8.24185 13.0461 8.70967 13.2399 9.19747 13.2399C9.68527 13.2399 10.1531 13.0461 10.498 12.7012C10.8429 12.3563 11.0367 11.8885 11.0367 11.4007V9.92926C11.0367 9.44146 10.8429 8.97365 10.498 8.62872C10.1531 8.2838 9.68527 8.09002 9.19747 8.09002Z" fill="#1B78FB"/>
<path d="M6.62917 5.14871V1.63281C6.49337 1.70269 6.36926 1.79328 6.26133 1.90134L3.38181 4.78086C3.27375 4.88879 3.18316 5.0129 3.11328 5.14871H6.62917Z" fill="#1B78FB"/>
</svg>
