<svg width="187" height="182" viewBox="0 0 187 182" fill="none" xmlns="http://www.w3.org/2000/svg">
<g filter="url(#filter0_d_985_10268)">
<circle cx="56.4523" cy="113.989" r="5.70233" fill="white"/>
</g>
<path d="M94.6596 72.7551C94.6596 72.7551 96.6938 62.9482 101.503 55.8203C106.92 47.7904 114.387 43.2949 114.387 43.2949" stroke="#0130BE" stroke-opacity="0.3" stroke-width="0.570233" stroke-dasharray="1.14 1.14"/>
<path d="M87.1375 86.4865C87.1375 86.4865 71.5644 84.9056 57.4059 78.1132C47.1901 73.2123 34.3917 60.4457 34.3917 60.4457" stroke="#0130BE" stroke-opacity="0.3" stroke-width="0.570233" stroke-dasharray="1.14 1.14"/>
<path d="M107.691 87.4865C107.691 87.4865 118.598 83.856 125.608 83.9374C132.559 84.0181 143.145 87.8584 143.145 87.8584" stroke="#0130BE" stroke-opacity="0.3" stroke-width="0.570233" stroke-dasharray="1.14 1.14"/>
<path d="M98.0792 97.615C98.0792 97.615 101.113 108.702 105.072 114.489C108.997 120.225 118.067 126.9 118.067 126.9" stroke="#0130BE" stroke-opacity="0.3" stroke-width="0.570233" stroke-dasharray="1.14 1.14"/>
<g filter="url(#filter1_d_985_10268)">
<circle cx="79.8348" cy="144.212" r="7.98326" fill="white"/>
</g>
<path d="M77.9741 144.152H77.1119V145.037H76.5097V144.152H75.6475V143.596H76.5097V142.711H77.1119V143.596H77.9741V144.152ZM78.5983 143.048C78.6135 142.744 78.7199 142.51 78.9176 142.346C79.1183 142.179 79.3814 142.095 79.7068 142.095C79.9288 142.095 80.1189 142.134 80.277 142.214C80.4352 142.29 80.5538 142.394 80.6328 142.528C80.715 142.659 80.756 142.808 80.756 142.975C80.756 143.167 80.7058 143.33 80.6055 143.463C80.5082 143.594 80.3911 143.682 80.2542 143.728V143.746C80.4306 143.801 80.5675 143.898 80.6648 144.038C80.7651 144.178 80.8153 144.358 80.8153 144.577C80.8153 144.759 80.7727 144.922 80.6876 145.065C80.6055 145.208 80.4823 145.32 80.3181 145.402C80.1569 145.481 79.9622 145.521 79.7342 145.521C79.3905 145.521 79.1107 145.434 78.8948 145.261C78.6788 145.087 78.5648 144.832 78.5526 144.494H79.173C79.1791 144.643 79.2293 144.764 79.3236 144.855C79.4209 144.943 79.5532 144.987 79.7205 144.987C79.8756 144.987 79.9942 144.945 80.0763 144.859C80.1615 144.771 80.204 144.659 80.204 144.522C80.204 144.339 80.1462 144.209 80.0307 144.129C79.9151 144.05 79.7357 144.011 79.4924 144.011H79.3601V143.486H79.4924C79.9242 143.486 80.1402 143.342 80.1402 143.053C80.1402 142.922 80.1006 142.82 80.0216 142.747C79.9455 142.674 79.8345 142.638 79.6885 142.638C79.5456 142.638 79.4346 142.677 79.3555 142.756C79.2795 142.832 79.2354 142.93 79.2232 143.048H78.5983ZM82.059 144.563C82.0834 144.697 82.1381 144.8 82.2233 144.873C82.3115 144.943 82.4285 144.978 82.5745 144.978C82.7631 144.978 82.8999 144.9 82.9851 144.745C83.0702 144.587 83.1128 144.323 83.1128 143.952C83.0429 144.049 82.944 144.125 82.8163 144.18C82.6916 144.234 82.5563 144.262 82.4103 144.262C82.2157 144.262 82.0393 144.222 81.8811 144.143C81.726 144.061 81.6028 143.941 81.5116 143.783C81.4204 143.622 81.3748 143.427 81.3748 143.199C81.3748 142.861 81.4751 142.594 81.6758 142.396C81.8766 142.195 82.1503 142.095 82.497 142.095C82.9288 142.095 83.233 142.233 83.4093 142.51C83.5888 142.787 83.6785 143.203 83.6785 143.76C83.6785 144.155 83.6435 144.479 83.5736 144.732C83.5067 144.984 83.3896 145.176 83.2223 145.306C83.0581 145.437 82.833 145.503 82.5472 145.503C82.3221 145.503 82.1305 145.46 81.9724 145.375C81.8142 145.287 81.6926 145.173 81.6074 145.033C81.5253 144.89 81.4782 144.733 81.466 144.563H82.059ZM82.5426 143.742C82.7007 143.742 82.8254 143.693 82.9167 143.596C83.0079 143.498 83.0535 143.368 83.0535 143.203C83.0535 143.024 83.0049 142.886 82.9075 142.788C82.8133 142.688 82.684 142.638 82.5198 142.638C82.3556 142.638 82.2248 142.689 82.1275 142.793C82.0332 142.893 81.986 143.027 81.986 143.194C81.986 143.355 82.0317 143.488 82.1229 143.591C82.2172 143.692 82.3571 143.742 82.5426 143.742Z" fill="#5B35E0"/>
<g filter="url(#filter2_d_985_10268)">
<circle cx="31.9323" cy="55.8249" r="9.12373" fill="white"/>
</g>
<g clip-path="url(#clip0_985_10268)">
<path d="M29.645 56.8677C29.645 57.3248 29.2721 57.6983 28.8149 57.6983C28.3577 57.6983 27.9844 57.3248 27.9844 56.8677C27.9844 56.4105 28.3578 56.0371 28.8149 56.0371H29.645L29.645 56.8677ZM30.0634 56.8677C30.0634 56.4105 30.4368 56.0371 30.894 56.0371C31.3511 56.0371 31.7245 56.4105 31.7245 56.8677V58.9468C31.7245 59.4039 31.3512 59.7773 30.894 59.7773C30.4368 59.7773 30.0634 59.4039 30.0634 58.9468V56.8677Z" fill="#DE1C59"/>
<path d="M30.894 53.5336C30.4368 53.5336 30.0634 53.1608 30.0634 52.7036C30.0634 52.2463 30.4368 51.873 30.894 51.873C31.3511 51.873 31.7245 52.2465 31.7245 52.7036V53.5337L30.894 53.5336ZM30.894 53.9521C31.3511 53.9521 31.7245 54.3255 31.7245 54.7826C31.7245 55.2398 31.3512 55.6132 30.894 55.6132H28.8149C28.3577 55.6132 27.9844 55.2399 27.9844 54.7826C27.9844 54.3255 28.3578 53.9521 28.8149 53.9521H30.894Z" fill="#35C5F0"/>
<path d="M34.228 54.7826C34.228 54.3255 34.6009 53.9521 35.0581 53.9521C35.5153 53.9521 35.8887 54.3255 35.8887 54.7826C35.8887 55.2398 35.5153 55.6132 35.0581 55.6132H34.228V54.7826ZM33.8096 54.7826C33.8096 55.2398 33.4362 55.6132 32.979 55.6132C32.5218 55.6132 32.1484 55.2399 32.1484 54.7826V52.7036C32.1484 52.2464 32.5218 51.873 32.979 51.873C33.4362 51.873 33.8096 52.2465 33.8096 52.7036V54.7826Z" fill="#2EB57D"/>
<path d="M32.979 58.1167C33.4362 58.1167 33.8096 58.4895 33.8096 58.9468C33.8096 59.404 33.4362 59.7773 32.979 59.7773C32.5218 59.7773 32.1484 59.4039 32.1484 58.9468V58.1167H32.979ZM32.979 57.6983C32.5218 57.6983 32.1484 57.3248 32.1484 56.8677C32.1484 56.4105 32.5218 56.0371 32.979 56.0371H35.0581C35.5153 56.0371 35.8887 56.4105 35.8887 56.8677C35.8887 57.3248 35.5153 57.6983 35.0581 57.6983H32.979Z" fill="#EBB02E"/>
</g>
<g filter="url(#filter3_d_985_10268)">
<circle cx="151.682" cy="84.9025" r="12.5451" fill="white"/>
</g>
<g clip-path="url(#clip1_985_10268)">
<path d="M157.266 84.1217H157.258C157.25 84.1217 157.242 84.1141 157.242 84.1064C157.242 84.1026 157.242 84.1026 157.242 84.0988C157.811 82.8536 159.326 82.2844 160.622 82.8306C161.21 83.0789 161.683 83.5335 161.942 84.0988C161.946 84.1064 161.942 84.1141 161.934 84.1179H161.93H161.922C161.703 84.0033 161.453 83.946 161.206 83.9498C160.924 83.9422 160.646 84.0148 160.411 84.1675C160.407 84.1675 160.403 84.1675 160.403 84.1675H160.395C159.906 83.8772 159.29 83.8772 158.801 84.1675C158.797 84.1675 158.793 84.1675 158.793 84.1675H158.785C158.55 84.0186 158.272 83.9422 157.99 83.9498C157.735 83.9498 157.489 84.0071 157.266 84.1217Z" fill="#CB2D2F"/>
<path d="M159.735 84.1421C159.735 84.1345 159.731 84.1307 159.723 84.1307C159.679 84.1269 159.639 84.123 159.596 84.123C159.56 84.123 159.524 84.123 159.488 84.123C159.48 84.123 159.476 84.1269 159.476 84.1345V86.1513C159.476 86.2659 159.381 86.3576 159.262 86.3576C159.17 86.3576 159.087 86.3003 159.059 86.2201C159.031 86.1551 158.955 86.1284 158.892 86.1513C158.836 86.1742 158.8 86.2315 158.816 86.2927C158.896 86.5295 159.162 86.6632 159.409 86.5868C159.604 86.5257 159.739 86.35 159.735 86.1513V84.1421Z" fill="#CB2D2F"/>
<path d="M144.993 86.5888H144.563L144.285 85.7217H143.931L143.832 86.5888H143.406L143.657 84.3848H144.496C144.993 84.3848 145.231 84.4994 145.172 85.0609C145.128 85.4428 144.973 85.5956 144.698 85.672L144.993 86.5888ZM144.368 85.3779C144.567 85.3779 144.706 85.3703 144.742 85.0532C144.778 84.7362 144.619 84.7438 144.432 84.7438H144.046L143.975 85.3817L144.368 85.3779Z" fill="black"/>
<path d="M156.251 86.5888H155.817L155.539 85.7217H155.189L155.09 86.5888H154.664L154.915 84.3848H155.754C156.251 84.3848 156.489 84.4994 156.429 85.0609C156.386 85.4428 156.231 85.5956 155.956 85.672L156.251 86.5888ZM155.614 85.3779C155.813 85.3779 155.952 85.3703 155.988 85.0532C156.024 84.7362 155.877 84.7438 155.678 84.7438H155.3L155.229 85.3817L155.614 85.3779Z" fill="black"/>
<path d="M147.273 84.3848H147.723L148.033 85.9929L148.693 84.3848H149.13L148.184 86.6002H147.743L147.273 84.3848Z" fill="black"/>
<path d="M149.528 84.3848H150.88L150.84 84.7515H149.925L149.87 85.2748H150.613L150.569 85.6453H149.826L149.758 86.2182H150.705L150.661 86.5849H149.285L149.528 84.3848Z" fill="black"/>
<path d="M153.086 84.3848H154.438L154.399 84.7515H153.484L153.424 85.2748H154.168L154.124 85.6453H153.377L153.309 86.2182H154.259L154.22 86.5849H152.836L153.086 84.3848Z" fill="black"/>
<path d="M156.602 86.55L156.661 86.191C156.872 86.2292 157.087 86.2483 157.301 86.2559C157.592 86.2559 157.671 86.2101 157.695 85.9847C157.719 85.7785 157.683 85.7555 157.357 85.6562C156.844 85.4958 156.729 85.4156 156.78 84.9572C156.832 84.5179 157.067 84.3613 157.588 84.3613C157.798 84.3613 158.013 84.3804 158.22 84.4224L158.172 84.7815C157.965 84.7509 157.755 84.7318 157.544 84.728C157.313 84.728 157.234 84.7853 157.214 84.961C157.19 85.1673 157.23 85.1902 157.544 85.2857C158.037 85.4423 158.192 85.5225 158.136 85.9847C158.081 86.466 157.846 86.615 157.254 86.615C157.031 86.615 156.812 86.5921 156.602 86.55Z" fill="black"/>
<path d="M145.672 86.5924H145.234L146.22 84.377H146.638L147.087 86.5924H146.638L146.566 86.2257H145.827L145.672 86.5924ZM146.356 84.9576L145.978 85.8819H146.507L146.356 84.9576Z" fill="black"/>
<path d="M152.593 86.2182H151.579L151.789 84.3848H151.352L151.105 86.5888H152.191C152.433 86.5849 152.537 86.4512 152.593 86.2182Z" fill="black"/>
<path d="M141.458 84.3848L141.418 84.7515H142.13L141.919 86.5926H142.36L142.567 84.7553H142.925C143.167 84.7553 143.275 84.6216 143.326 84.3848H141.458Z" fill="black"/>
</g>
<g filter="url(#filter4_d_985_10268)">
<circle cx="126.022" cy="133.946" r="12.5451" fill="white"/>
</g>
<path d="M131.15 132.817C131.12 132.772 131.037 132.802 131.037 132.802L129.727 133.31C129.63 133.056 129.502 132.817 129.375 132.615L129.802 131.449C129.802 131.449 129.847 131.337 129.802 131.307C129.757 131.277 129.675 131.352 129.675 131.352L128.904 131.98C128.604 131.666 128.237 131.397 127.84 131.203C127.683 131.143 127.526 131.076 127.369 131.031L127.129 130.111C127.129 130.111 127.114 130.014 127.047 130.014C126.987 130.014 126.964 130.111 126.964 130.111L126.807 130.934C126.635 130.919 126.455 130.904 126.283 130.904C125.699 130.904 125.19 131.016 124.733 131.218C124.546 131.3 124.352 131.405 124.194 131.532C124.164 131.547 124.149 131.576 124.112 131.591C123.955 131.18 123.828 130.851 123.798 130.739C123.895 130.657 124.067 130.358 124.112 130.171C124.172 129.887 124.157 129.76 124.097 129.558C124.052 129.401 123.955 129.259 123.955 129.162C123.955 129.08 124 129.035 124.037 129.005C124.022 128.908 123.955 128.863 123.88 128.848C123.805 128.833 123.753 128.863 123.693 128.863C123.678 128.833 123.648 128.833 123.663 128.736C123.693 128.579 124.015 128.497 124.247 128.407C124.561 128.28 124.741 128.056 124.756 127.697C124.756 127.428 124.614 127.241 124.427 127.144C124.397 127.256 124.239 127.398 124.127 127.458C124.015 127.518 123.872 127.54 123.76 127.518C123.775 127.331 123.7 127.152 123.558 127.092C123.513 127.174 123.333 127.294 123.086 127.279C122.832 127.279 122.817 127.219 122.45 127.219C121.926 127.219 121.499 127.533 121.454 127.996C121.424 128.295 121.537 128.549 121.626 128.676C121.567 128.721 121.402 128.863 121.387 128.916C121.357 128.871 121.245 128.818 121.117 128.901C121.147 128.96 121.147 129.043 121.132 129.125C121.117 129.2 120.93 129.566 120.893 129.865C120.863 130.373 121.147 130.702 121.387 130.799C121.342 130.881 121.327 130.971 121.357 131.038C121.387 131.083 121.439 131.135 121.529 131.135C121.469 131.195 121.447 131.292 121.484 131.39C121.529 131.502 121.656 131.659 121.754 131.659C121.754 131.756 121.784 131.958 121.814 132.055C121.784 132.115 121.731 132.182 121.754 132.309C121.754 132.436 121.851 132.548 121.956 132.578C121.986 132.638 122.001 132.72 122.038 132.75C122.068 132.795 122.098 132.847 122.195 132.892C122.278 132.937 122.368 132.989 122.48 132.989C122.592 132.989 122.682 132.989 122.735 132.974C122.735 133.004 122.749 133.288 122.764 133.609C122.495 134.364 122.353 135.239 122.353 136.166C122.353 137.84 122.824 139.342 123.745 140.307C123.745 140.307 123.79 140.366 123.947 140.463C123.947 140.463 124.232 139.97 124.674 139.417C124.786 139.275 124.913 139.133 125.055 139.006C125.28 138.819 125.482 138.655 125.669 138.513C126.238 138.131 126.89 137.832 127.489 137.705C126.792 138.072 126.41 138.259 125.767 138.812C125.355 139.163 124.704 139.791 124.247 140.628C124.344 140.71 124.471 140.77 124.614 140.785C124.711 140.673 125.198 139.791 125.946 139.066C127.466 137.661 129.24 137.324 130.169 137.347C130.214 136.965 130.251 136.554 130.251 136.143C130.251 135.463 130.191 134.835 130.049 134.23L131.15 132.989C131.105 132.944 131.179 132.869 131.15 132.817Z" fill="#1A1446"/>
<path d="M122.879 132.263C122.82 132.233 122.64 132.136 122.498 132.15C122.355 132.15 122.228 132.18 122.116 132.263C122.071 132.233 122.056 132.165 122.086 132.091C122.116 132.008 122.168 132.008 122.168 132.008L122.123 131.298C122.123 131.298 122.325 131.156 122.378 131.141C122.423 131.126 122.46 131.082 122.46 131.029C122.558 131.089 122.685 131.216 122.745 131.313C122.805 131.41 122.842 131.5 122.857 131.612C122.857 131.724 122.857 131.866 122.842 132.008C122.887 132.038 122.924 132.068 122.939 132.136C122.924 132.203 122.909 132.218 122.879 132.263Z" fill="white"/>
<path d="M129.316 134.462C129.316 134.32 129.144 133.953 129.047 133.879L130.724 133.139L129.316 134.462Z" fill="white"/>
<path d="M124.711 131.682L126.133 132.96C125.991 133.042 125.782 133.244 125.737 133.416L124.711 131.682Z" fill="white"/>
<path d="M125.551 134.225C125.506 134.307 125.491 134.352 125.468 134.427C125.453 134.524 125.468 134.569 125.468 134.651L125.042 134.352C125.042 134.255 125.027 134.083 125.012 134.001C125.012 133.986 125.012 133.971 125.012 133.971L125.551 134.225Z" fill="white"/>
<path d="M123.138 134.352C123.108 134.307 122.981 131.698 122.981 131.601L123.123 131.504V131.474C123.026 131.474 122.898 131.429 122.868 131.362L122.838 130.577C122.696 130.562 122.554 130.517 122.509 130.465C122.449 130.405 122.382 130.323 122.464 130.166C122.524 130.211 122.734 130.278 122.921 130.278C122.951 130.278 123.033 130.36 123.078 130.375C123.123 130.39 123.22 130.435 123.25 130.458C123.28 130.472 123.31 130.555 123.31 130.585C123.325 130.614 124.62 133.978 124.643 134.015C124.665 134.053 124.74 134.613 124.74 134.666C124.74 134.71 124.942 135.159 124.98 135.204C124.807 135.204 124.523 135.301 124.298 135.518C124.074 135.742 123.872 136.228 123.827 136.452C123.804 136.347 123.175 134.404 123.138 134.352Z" fill="white"/>
<path d="M124.787 137.578C124.727 138.101 124.615 138.542 124.42 138.856C124.293 139.058 123.963 139.491 123.836 139.633C123.963 139.379 124.061 138.751 124.061 138.273C124.061 137.959 123.963 137.264 124.046 136.801C124.143 136.307 124.285 136.023 124.6 135.724C124.772 135.567 125.109 135.373 125.61 135.5L126.007 136.24C125.805 136.195 125.513 136.24 125.326 136.382C124.981 136.674 124.854 137.04 124.787 137.578Z" fill="white"/>
<path d="M124.84 138.585C124.937 138.361 125.064 137.748 125.094 137.539C125.139 137.27 125.192 136.888 125.506 136.619C125.663 136.492 125.918 136.477 126.03 136.507L126.472 137.427C126.517 137.524 126.644 137.554 126.741 137.554C126.307 137.681 125.252 138.189 124.84 138.585Z" fill="white"/>
<path d="M128.666 135.663C128.584 135.775 128.621 135.887 128.666 135.962C128.711 136.044 128.95 136.485 128.95 136.485C129.033 136.687 129.078 136.784 129.153 136.911C129.28 136.911 129.422 136.911 129.564 136.911C129.407 136.56 129.04 135.887 129.04 135.887L129.01 135.334C128.92 135.394 128.748 135.551 128.666 135.663Z" fill="white"/>
<path d="M126.746 132.74C126.918 132.71 127.33 132.74 127.457 132.8L127.046 130.49L126.746 132.74Z" fill="white"/>
<path d="M123.318 130.588C123.303 130.559 123.288 130.476 123.258 130.461C123.213 130.446 123.131 130.402 123.086 130.379C123.041 130.364 122.958 130.282 122.929 130.282C122.756 130.282 122.547 130.222 122.472 130.17C122.39 130.312 122.457 130.394 122.517 130.469C122.562 130.514 122.719 130.566 122.846 130.581L122.876 131.388C122.906 131.448 123.033 131.485 123.131 131.485V131.515L122.988 131.612C122.988 131.71 123.116 134.311 123.146 134.363C123.176 134.408 123.812 136.351 123.827 136.463C123.872 136.239 124.081 135.753 124.299 135.529C124.538 135.305 124.808 135.2 124.98 135.215C124.95 135.17 124.74 134.722 124.74 134.677C124.74 134.632 124.658 134.079 124.643 134.027C124.628 133.989 123.333 130.641 123.318 130.588Z" fill="white"/>
<path d="M122.496 129.96C122.863 129.96 123.035 130.117 123.132 130.199C123.147 130.072 123.117 129.96 123.005 129.871C122.908 129.788 122.735 129.729 122.481 129.729C122.309 129.729 122.129 129.773 122.024 129.871C121.927 129.953 121.912 130.042 121.927 130.184C121.957 130.087 122.196 129.96 122.496 129.96Z" fill="white"/>
<path d="M121.831 128.046C121.816 128.188 121.861 128.33 121.928 128.427C121.958 128.472 122.056 128.569 122.116 128.569C122.213 128.569 122.288 128.398 122.512 128.398C122.655 128.398 122.752 128.599 122.864 128.599C122.961 128.599 123.006 128.517 123.104 128.502C123.186 128.487 123.216 128.532 123.261 128.584C123.291 128.502 123.343 128.457 123.463 128.36C123.605 128.248 124.099 128.158 124.317 127.964C124.429 127.867 124.444 127.695 124.414 127.583C124.332 127.695 124.114 127.822 123.89 127.822C123.778 127.822 123.523 127.777 123.433 127.725C123.478 127.643 123.493 127.553 123.448 127.471C123.388 127.516 123.066 127.553 122.954 127.553C122.842 127.553 122.602 127.508 122.43 127.523C122.041 127.538 121.846 127.807 121.831 128.046Z" fill="white"/>
<path d="M122.512 129.266C123.365 129.281 123.747 129.677 123.762 129.991C123.807 129.894 123.792 129.804 123.792 129.692C123.792 129.61 123.665 129.363 123.65 129.281C123.65 129.199 123.665 129.139 123.679 129.079C123.635 129.094 123.44 129.162 123.365 129.094C123.283 129.035 123.335 128.855 123.223 128.81C123.111 128.766 122.938 128.908 122.811 128.893C122.699 128.878 122.609 128.721 122.482 128.721C122.354 128.721 122.309 128.863 122.167 128.893C122.055 128.923 121.913 128.848 121.853 128.863C121.77 128.863 121.74 128.923 121.71 128.99C121.681 129.05 121.651 129.087 121.568 129.117C121.508 129.132 121.396 129.072 121.344 129.087C121.374 129.117 121.404 129.274 121.359 129.371C121.314 129.483 121.216 129.61 121.216 129.752C121.194 129.864 121.246 129.909 121.276 130.006C121.261 129.55 121.77 129.244 122.512 129.266Z" fill="white"/>
<path d="M121.969 130.884C121.909 130.899 121.782 130.996 121.729 131.086C121.744 131.146 121.827 131.31 121.886 131.34C121.901 131.281 121.984 131.153 122.014 131.116C122.059 131.086 122.126 131.056 122.156 131.034C122.201 131.019 122.216 130.989 122.216 130.937C122.216 130.892 122.216 130.854 122.186 130.81C122.231 130.81 122.313 130.81 122.328 130.78C122.358 130.75 122.373 130.698 122.373 130.653C122.373 130.608 122.358 130.593 122.313 130.593C122.268 130.593 122.126 130.578 122.059 130.593C122.059 130.593 122.171 130.533 122.201 130.511C122.231 130.496 122.246 130.466 122.246 130.428C122.246 130.391 122.246 130.331 122.231 130.271C122.074 130.271 121.789 130.413 121.707 130.496L121.767 130.638H121.654C121.639 130.72 121.654 130.825 121.684 130.892C121.797 130.884 121.909 130.884 121.969 130.884Z" fill="white"/>
<path d="M128.934 134.257C128.919 134.145 128.65 133.846 128.208 133.502C127.856 133.233 127.355 132.979 126.928 132.979C126.217 132.979 125.932 133.472 125.865 133.718C125.835 133.875 125.835 134.032 125.865 134.13C125.753 134.227 125.708 134.301 125.693 134.414C125.678 134.496 125.693 134.6 125.775 134.683C125.775 134.571 125.835 134.458 125.902 134.384C125.962 134.287 126.074 134.257 126.172 134.197L126.187 134.384C126.089 134.429 125.985 134.541 125.985 134.608V134.922L126.224 134.78L126.269 134.877L126.172 135.445L126.314 135.415L126.569 135.512L126.329 135.737V135.819C126.329 135.819 126.359 135.774 126.456 135.774C126.539 135.774 126.756 135.871 126.756 135.871L126.741 135.916H126.643H126.314C126.299 135.976 126.344 136.013 126.374 136.043C126.434 136.028 126.486 135.998 126.516 135.998C126.546 135.998 126.628 136.013 126.688 136.028L126.606 136.14C126.606 136.14 126.561 136.17 126.494 136.155C126.449 136.14 126.411 136.2 126.411 136.252C126.411 136.297 126.441 136.424 126.441 136.424C126.486 136.596 126.666 136.566 126.696 136.566C126.808 136.551 127.205 136.424 127.205 136.424L126.838 136.947L126.995 137.501C127.235 137.403 127.961 137.134 128.755 137.007C128.672 136.865 128.657 136.805 128.553 136.596L128.141 135.662L128.201 135.52C128.298 135.55 128.425 135.49 128.515 135.408C128.605 135.325 128.702 135.206 128.755 135.124C128.695 135.094 128.642 135.094 128.597 135.139C128.553 135.169 128.515 135.236 128.44 135.198C128.365 135.161 128.41 135.086 128.41 135.012C128.425 134.929 128.328 134.929 128.268 134.997C128.208 135.056 128.066 135.026 127.984 134.937C127.886 134.84 127.459 134.496 127.317 134.399C127.093 134.272 126.793 134.242 126.591 134.272C126.464 134.287 126.366 134.354 126.322 134.316L126.164 134.047L126.194 134.032C126.254 134.062 126.307 134.092 126.381 134.077C126.464 134.047 126.681 133.995 126.905 133.995C127.22 133.995 127.617 134.107 127.789 134.182C127.789 134.384 128.216 134.653 128.403 134.69C128.56 134.705 128.657 134.675 128.755 134.608L128.343 134.242L128.568 133.973C128.568 133.973 128.919 134.301 128.964 134.369C128.964 134.361 128.949 134.301 128.934 134.257ZM126.464 134.683C126.464 134.683 126.636 134.586 126.816 134.541C127.07 134.496 127.34 134.638 127.527 134.795L127.497 134.855L127.212 134.914C127.168 134.87 127.055 134.855 126.943 134.855C126.846 134.855 126.771 134.899 126.771 134.899L126.816 134.997L126.688 135.026C126.628 134.944 126.546 134.87 126.464 134.84V134.683ZM126.037 134.032C125.955 133.793 126.164 133.539 126.239 133.464L126.381 133.778C126.277 133.831 126.119 133.95 126.037 134.032ZM127.325 133.763C127.197 133.666 126.771 133.681 126.599 133.733L126.471 133.352C126.569 133.27 126.756 133.225 126.928 133.225C127.1 133.225 127.28 133.27 127.422 133.337L127.325 133.763ZM128.163 134.145C127.991 134.032 127.639 133.86 127.527 133.831L127.684 133.434C127.811 133.494 128.283 133.786 128.365 133.86L128.163 134.145Z" fill="white"/>
<path d="M128.094 133.087C128.251 133.147 128.588 133.438 128.678 133.498L129.531 131.682L128.094 133.087Z" fill="white"/>
<g filter="url(#filter5_d_985_10268)">
<circle cx="119.178" cy="33.0158" r="12.5451" fill="white"/>
</g>
<g clip-path="url(#clip2_985_10268)">
<path d="M121.016 34.9665H122.948V28.6045H121.18V32.5684L120.667 32.0671V28.9072C120.658 27.0503 120.88 26.1699 120.88 26.1699C120.281 26.1699 119.97 26.7356 119.901 26.9028C119.565 26.9398 119.289 27.133 119.105 27.5085C119 27.7209 118.948 27.9269 118.93 28.0275C118.221 28.1906 118.16 29.449 118.206 29.675L117.106 28.6045H115.179V34.9664H116.947V31.1216C116.947 31.1216 117.802 31.9295 117.802 31.9294C117.88 32.1613 117.956 32.2541 117.956 32.2541L117.62 31.967C117.559 32.5912 117.735 32.9112 117.899 33.1478L117.49 32.8026C117.459 33.4223 117.759 33.8025 117.943 33.9659L117.403 33.7018C117.366 34.0727 117.739 34.616 117.956 34.7208L117.5 34.6531C117.599 35.1645 117.956 35.3484 117.956 35.3484C117.956 35.3484 117.178 35.3321 116.82 35.3321C115.825 35.3321 115.172 35.4261 115.172 35.4261C115.172 35.4261 115.612 35.8629 116.175 35.883L115.674 36.1912C116.038 36.3097 116.384 36.2685 116.384 36.2685L116.094 36.6139C116.094 36.6139 117.005 36.2645 117.39 36.291C117.696 36.3121 119.125 36.8678 120.084 36.8678C120.728 36.8678 121.195 36.6221 121.569 36.4246C121.798 36.3042 121.995 36.2067 122.19 36.1769C122.537 36.1237 122.694 36.25 122.694 36.25C122.73 36.104 122.837 35.7356 122.273 35.6455C122.251 35.5453 122.153 35.4145 122.007 35.3924C121.704 35.3466 120.429 35.2486 120.392 35.2463C120.283 35.2397 119.915 35.169 120.253 34.6857C120.279 34.6492 120.45 34.4343 120.45 34.4343L121.016 34.9665ZM120.971 35.4418C121.389 35.4739 121.687 35.5019 121.985 35.5393C122.098 35.5535 122.143 35.6836 122.158 35.7447C122.015 35.7093 121.789 35.6999 121.789 35.6999L121.776 35.8351C121.776 35.8351 121.97 35.78 122.181 35.7776C122.181 35.7776 122.616 35.7756 122.595 36.0681C122.477 35.9864 122.234 36.019 122.166 36.0302C121.948 36.0659 121.74 36.1667 121.5 36.2932C121.28 36.4091 121.043 36.5336 120.765 36.6179C120.887 36.4996 121.205 36.1489 121.205 36.1489L120.78 36.0013L121.128 35.6987L120.594 35.4103C120.727 35.4216 120.853 35.433 120.971 35.4418ZM120.353 34.3024C120.156 34.5299 119.901 34.8537 119.956 35.0898C119.956 35.0898 119.956 35.09 119.956 35.0901C119.997 35.2857 120.274 35.406 120.274 35.406L120.868 35.7275L120.483 36.0635L120.946 36.209C120.946 36.209 120.521 36.6432 120.472 36.6867C120.351 36.707 120.223 36.7192 120.085 36.7192C119.102 36.7192 117.736 36.1408 117.398 36.1366C116.99 36.1317 116.478 36.366 116.478 36.366L116.746 36.0774C116.746 36.0774 116.396 36.1481 116.056 36.1194L116.535 35.7954C116.115 35.7817 115.747 35.657 115.573 35.5347C115.573 35.5347 116.347 35.4736 117.396 35.4847C117.82 35.4893 118.539 35.5317 118.539 35.5317C118.184 35.3809 117.851 35.1824 117.709 34.8335L118.387 34.9354C118.102 34.7615 117.689 34.3261 117.613 33.9891L118.369 34.2535C118.235 34.1083 117.767 33.6716 117.683 33.1653L118.281 33.5408C118.124 33.3832 117.699 32.5465 117.772 32.3019L118.329 32.6761C118.062 32.3467 117.75 31.474 117.963 31.134C118.132 31.7918 118.51 32.0312 118.51 32.0312C118.262 31.6731 117.727 30.4045 118.238 29.846C118.372 31.1111 118.911 31.5383 118.911 31.5383C118.465 30.8288 117.956 28.6509 118.905 28.2105C118.719 29.6097 119.167 30.3703 119.167 30.3703C118.884 29.0812 118.894 27.2546 119.854 27.0877C119.382 28.4648 119.717 29.5268 119.717 29.5268C119.649 26.3056 120.689 26.3599 120.689 26.3599C120.689 26.3599 120.518 27.2746 120.518 28.9047V33.6123C120.518 33.9374 120.49 34.1313 120.353 34.3024Z" fill="#1457A5"/>
<path d="M117.192 37.541C117.304 37.541 117.396 37.627 117.396 37.7332C117.396 37.8393 117.304 37.9254 117.192 37.9254C117.081 37.9254 116.988 37.8393 116.988 37.7332C116.988 37.627 117.081 37.541 117.192 37.541Z" fill="black"/>
<path d="M122.403 37.541C122.515 37.541 122.607 37.627 122.607 37.7332C122.607 37.8394 122.515 37.9254 122.403 37.9254C122.292 37.9254 122.199 37.8394 122.199 37.7332C122.199 37.627 122.292 37.541 122.403 37.541Z" fill="black"/>
<path d="M115.465 38.7452H115.434C115.381 38.7452 115.252 38.7516 115.155 38.7783C115.088 38.7966 115.032 38.8404 115.032 38.9014C115.032 38.9877 115.119 39.0255 115.197 39.0255C115.365 39.0255 115.465 38.9194 115.465 38.7819L115.465 38.7452ZM115.791 38.545V39.2647H115.475V39.1437C115.392 39.2323 115.291 39.2885 115.132 39.2927C114.884 39.3 114.688 39.1486 114.688 38.9222C114.688 38.5741 115.06 38.4975 115.424 38.4975H115.465C115.465 38.4013 115.422 38.3122 115.23 38.3122C115.099 38.3122 114.988 38.3538 114.909 38.4266L114.718 38.2362C114.85 38.1071 115.035 38.041 115.239 38.041C115.441 38.041 115.552 38.0695 115.665 38.1708C115.772 38.2661 115.791 38.4454 115.791 38.545Z" fill="black"/>
<path d="M116.485 38.0663V37.6895H116.145V38.0663H115.91V38.3505H116.145V38.8578C116.145 39.0277 116.174 39.1285 116.242 39.1963C116.305 39.2598 116.403 39.2897 116.547 39.2897C116.639 39.2897 116.731 39.2715 116.802 39.2408V38.9719C116.759 38.9863 116.697 38.996 116.618 38.996C116.512 38.996 116.485 38.9383 116.485 38.8412V38.3505H116.802V38.0664H116.485V38.0663Z" fill="black"/>
<path d="M125.124 38.533C125.108 38.4029 125.037 38.3073 124.867 38.3108C124.722 38.3141 124.624 38.4114 124.608 38.533H125.124ZM125.486 38.6883V38.7784H124.608C124.613 38.9005 124.752 39.0054 124.915 39.0116C125.067 39.0177 125.15 38.9577 125.229 38.8728L125.445 39.0308C125.314 39.1966 125.151 39.2928 124.921 39.2928C124.556 39.2928 124.258 39.0665 124.258 38.667C124.258 38.3475 124.457 38.041 124.878 38.041C125.312 38.041 125.486 38.3765 125.486 38.6883Z" fill="black"/>
<path d="M114.105 37.5293V38.7068L113.367 37.5293H112.906V39.2637H113.281V38.0465L114.039 39.2637H114.479L114.479 37.5293H114.105Z" fill="black"/>
<path d="M121.754 38.0684L121.561 38.8108L121.368 38.0684H121.01L120.824 38.809L120.631 38.0684H120.254L120.638 39.2636H120.98L121.185 38.5122L121.416 39.2636H121.733L122.115 38.0684H121.754Z" fill="black"/>
<path d="M117.364 38.0684H117.02V39.2634H117.364V38.0684Z" fill="black"/>
<path d="M122.579 38.0684H122.234V39.2634H122.579V38.0684Z" fill="black"/>
<path d="M120.041 38.1503C119.969 38.0753 119.879 38.04 119.745 38.041C119.614 38.0419 119.461 38.1058 119.389 38.1992V38.0695H119.059V39.2645H119.403V38.6149C119.403 38.5305 119.426 38.468 119.466 38.4239C119.501 38.3849 119.552 38.3602 119.617 38.3563C119.695 38.3518 119.736 38.3855 119.766 38.4231C119.803 38.4695 119.813 38.5507 119.813 38.66V39.2645H120.157V38.5181C120.157 38.3722 120.138 38.2508 120.041 38.1503Z" fill="black"/>
<path d="M123.727 38.6663C123.727 38.5054 123.623 38.3429 123.422 38.3429C123.223 38.3429 123.118 38.5053 123.118 38.6663C123.118 38.8264 123.223 38.9892 123.422 38.9892C123.623 38.9892 123.727 38.8264 123.727 38.6663ZM124.062 37.5293V39.2637H123.737V39.1308C123.662 39.218 123.537 39.2919 123.365 39.2919C123.2 39.2919 123.056 39.2363 122.95 39.1305C122.836 39.0172 122.773 38.8519 122.773 38.6663C122.773 38.3033 123.017 38.0401 123.354 38.0402C123.501 38.0402 123.623 38.0853 123.717 38.1736L123.717 37.5293H124.062V37.5293Z" fill="black"/>
<path d="M118.211 38.3441C118.011 38.3441 117.907 38.5066 117.907 38.667C117.907 38.8276 118.011 38.99 118.211 38.99C118.41 38.99 118.515 38.8276 118.515 38.667C118.515 38.5066 118.41 38.3441 118.211 38.3441ZM118.859 38.667C118.859 39.0298 118.587 39.293 118.211 39.293C117.835 39.293 117.562 39.0298 117.562 38.667C117.562 38.3041 117.835 38.041 118.211 38.041C118.587 38.041 118.859 38.3041 118.859 38.667Z" fill="black"/>
<path d="M125.521 37.7989C125.521 37.6746 125.622 37.574 125.747 37.574C125.871 37.574 125.972 37.6747 125.972 37.7989C125.972 37.9231 125.871 38.024 125.747 38.024C125.622 38.024 125.521 37.9232 125.521 37.7989ZM125.473 37.7989C125.473 37.9497 125.596 38.0724 125.747 38.0724C125.898 38.0724 126.021 37.9497 126.021 37.7989C126.021 37.6483 125.898 37.5254 125.747 37.5254C125.596 37.5254 125.473 37.6483 125.473 37.7989ZM125.699 37.6893H125.741C125.776 37.6886 125.815 37.6907 125.815 37.7327C125.815 37.7747 125.776 37.777 125.741 37.777H125.699V37.6893ZM125.641 37.9534H125.699V37.8254H125.741L125.819 37.9534H125.879L125.798 37.821C125.84 37.8158 125.873 37.7895 125.873 37.735C125.873 37.6747 125.838 37.6409 125.762 37.6409H125.642V37.9534H125.641Z" fill="black"/>
<path d="M120.968 35.4472C121.386 35.4793 121.684 35.5072 121.982 35.5446C122.095 35.5588 122.14 35.689 122.155 35.7501C122.012 35.7147 121.786 35.7053 121.786 35.7053L121.773 35.8405C121.773 35.8405 121.967 35.7854 122.178 35.7829C122.178 35.7829 122.613 35.781 122.592 36.0735C122.474 35.9918 122.231 36.0243 122.163 36.0355C121.945 36.0713 121.737 36.1721 121.497 36.2986C121.277 36.4144 121.04 36.5389 120.762 36.6233C120.884 36.505 121.202 36.1543 121.202 36.1543L120.777 36.0067L121.125 35.7041L120.591 35.4157C120.724 35.427 120.85 35.4383 120.968 35.4472ZM120.35 34.3078C120.153 34.5353 119.898 34.8591 119.953 35.0952C119.953 35.0952 119.953 35.0954 119.953 35.0955C119.994 35.2911 120.271 35.4114 120.271 35.4114L120.866 35.7329L120.48 36.0688L120.943 36.2144C120.943 36.2144 120.518 36.6486 120.469 36.692C120.348 36.7124 120.22 36.7246 120.082 36.7246C119.099 36.7246 117.733 36.1462 117.395 36.142C116.987 36.1371 116.475 36.3714 116.475 36.3714L116.743 36.0828C116.743 36.0828 116.393 36.1535 116.053 36.1248L116.532 35.8007C116.112 35.7871 115.744 35.6623 115.57 35.5401C115.57 35.5401 116.344 35.479 117.393 35.4901C117.817 35.4947 118.536 35.5371 118.536 35.5371C118.181 35.3863 117.848 35.1878 117.706 34.8389L118.384 34.9408C118.099 34.7669 117.686 34.3315 117.61 33.9945L118.366 34.2589C118.232 34.1137 117.764 33.677 117.68 33.1707L118.278 33.5462C118.121 33.3886 117.696 32.5519 117.769 32.3072L118.326 32.6814C118.059 32.3521 117.747 31.4794 117.96 31.1394C118.129 31.7971 118.507 32.0366 118.507 32.0366C118.259 31.6785 117.724 30.4099 118.235 29.8513C118.369 31.1165 118.908 31.5437 118.908 31.5437C118.462 30.8342 117.953 28.6563 118.902 28.2159C118.716 29.6151 119.164 30.3757 119.164 30.3757C118.881 29.0865 118.891 27.26 119.851 27.0931C119.379 28.4702 119.714 29.5322 119.714 29.5322C119.646 26.311 120.686 26.3653 120.686 26.3653C120.686 26.3653 120.515 27.28 120.515 28.9101V33.6177C120.515 33.9428 120.487 34.1366 120.35 34.3078Z" fill="white"/>
</g>
<path d="M54.8061 114.209C54.927 115.04 55.6987 115.616 56.5297 115.495C57.3608 115.374 57.9365 114.602 57.8156 113.771C57.6947 112.94 56.923 112.364 56.0919 112.485C55.2609 112.606 54.6852 113.378 54.8061 114.209ZM65.5446 98.241L65.3729 98.0134L65.5446 98.241ZM56.3108 113.99C56.5938 114.025 56.5938 114.025 56.5938 114.025C56.5938 114.025 56.5938 114.025 56.5938 114.025C56.5938 114.025 56.5938 114.025 56.5938 114.025C56.5938 114.025 56.5938 114.025 56.5938 114.025C56.5938 114.025 56.5938 114.025 56.5939 114.025C56.5939 114.024 56.5939 114.024 56.594 114.023C56.5942 114.022 56.5944 114.02 56.5948 114.017C56.5955 114.012 56.5967 114.003 56.5983 113.991C56.6015 113.967 56.6065 113.932 56.6137 113.885C56.6279 113.791 56.6505 113.651 56.6836 113.47L56.4031 113.419L56.1227 113.367C56.0885 113.554 56.0649 113.7 56.0498 113.8C56.0423 113.849 56.0369 113.888 56.0333 113.914C56.0315 113.927 56.0302 113.937 56.0293 113.944C56.0288 113.947 56.0285 113.95 56.0283 113.952C56.0281 113.953 56.028 113.954 56.028 113.954C56.0279 113.955 56.0279 113.955 56.0279 113.955C56.0279 113.955 56.0279 113.955 56.0279 113.955C56.0279 113.955 56.0279 113.955 56.0278 113.955C56.0278 113.955 56.0278 113.955 56.0278 113.955C56.0278 113.955 56.0278 113.955 56.3108 113.99ZM56.6475 112.275L56.9247 112.342C57.0051 112.008 57.1033 111.633 57.2222 111.223L56.9484 111.144L56.6746 111.064C56.5531 111.483 56.4527 111.867 56.3703 112.208L56.6475 112.275ZM57.2983 110.029L57.5684 110.121C57.6858 109.773 57.8163 109.409 57.9614 109.033L57.6954 108.93L57.4293 108.828C57.2812 109.212 57.1479 109.583 57.0281 109.938L57.2983 110.029ZM58.1384 107.85L58.3998 107.963C58.5489 107.621 58.7097 107.271 58.883 106.915L58.6267 106.79L58.3704 106.665C58.1934 107.029 58.0292 107.386 57.8769 107.736L58.1384 107.85ZM59.1619 105.751L59.4124 105.887C59.5926 105.555 59.7839 105.221 59.9868 104.885L59.7428 104.737L59.4987 104.59C59.2911 104.934 59.0956 105.276 58.9114 105.615L59.1619 105.751ZM60.3698 103.752L60.6067 103.911C60.8176 103.596 61.0392 103.281 61.272 102.967L61.043 102.797L60.8141 102.627C60.5757 102.949 60.3488 103.271 60.1329 103.593L60.3698 103.752ZM61.7628 101.876L61.983 102.057C62.2239 101.764 62.4752 101.474 62.7373 101.186L62.5266 100.994L62.3159 100.802C62.0471 101.097 61.7895 101.395 61.5426 101.695L61.7628 101.876ZM63.3363 100.151L63.5367 100.354C63.8068 100.087 64.0872 99.8236 64.3782 99.565L64.1888 99.3519L63.9994 99.1388C63.7007 99.4042 63.413 99.6743 63.1358 99.9482L63.3363 100.151ZM65.0813 98.6003L65.259 98.8232C65.4089 98.7038 65.5613 98.5855 65.7163 98.4686L65.5446 98.241L65.3729 98.0134C65.2138 98.1334 65.0574 98.2547 64.9035 98.3774L65.0813 98.6003ZM65.5446 98.241L65.7163 98.4686C65.8695 98.3531 66.023 98.2394 66.1767 98.1275L66.0089 97.897L65.8411 97.6664C65.6848 97.7802 65.5287 97.8958 65.3729 98.0134L65.5446 98.241ZM66.9511 97.235L67.1111 97.4709C67.4298 97.2549 67.7488 97.0463 68.0675 96.845L67.9153 96.604L67.763 96.3629C67.4392 96.5674 67.115 96.7793 66.7911 96.999L66.9511 97.235ZM68.9003 96.0038L69.0447 96.2496C69.3774 96.0541 69.7091 95.8663 70.0391 95.686L69.9024 95.4358L69.7657 95.1856C69.4305 95.3687 69.0937 95.5594 68.7558 95.758L68.9003 96.0038ZM70.9214 94.899L71.0504 95.1533C71.3963 94.9778 71.7395 94.8103 72.0793 94.6505L71.958 94.3925L71.8367 94.1345C71.4918 94.2966 71.1435 94.4666 70.7924 94.6448L70.9214 94.899ZM73.0058 93.9185L73.1195 94.1799C73.4776 94.0242 73.8306 93.877 74.1776 93.738L74.0716 93.4733L73.9655 93.2087C73.6135 93.3497 73.2553 93.499 72.8921 93.657L73.0058 93.9185ZM75.1456 93.0607L75.244 93.3283C75.6134 93.1924 75.974 93.0659 76.3245 92.9483L76.2337 92.678L76.143 92.4077C75.7875 92.527 75.4217 92.6553 75.0472 92.7931L75.1456 93.0607ZM77.3324 92.3266L77.4154 92.5994C77.7986 92.4829 78.1658 92.3776 78.515 92.2826L78.4401 92.0075L78.3652 91.7324C78.0109 91.8288 77.6382 91.9357 77.2495 92.0538L77.3324 92.3266ZM79.5554 91.722L79.6218 91.9992C80.0338 91.9005 80.408 91.8185 80.7392 91.7509L80.6821 91.4715L80.6251 91.1922C80.2879 91.2611 79.9074 91.3444 79.489 91.4447L79.5554 91.722ZM81.8139 91.2635L81.8591 91.545C82.0403 91.5159 82.1798 91.4959 82.2735 91.4832C82.3203 91.4768 82.3557 91.4723 82.3791 91.4694C82.3908 91.4679 82.3995 91.4669 82.4051 91.4662C82.408 91.4659 82.41 91.4657 82.4113 91.4655C82.412 91.4654 82.4124 91.4654 82.4127 91.4653C82.4128 91.4653 82.4129 91.4653 82.4129 91.4653C82.413 91.4653 82.413 91.4653 82.4129 91.4653C82.4129 91.4653 82.4129 91.4653 82.4129 91.4653C82.4129 91.4653 82.4129 91.4653 82.4129 91.4653C82.4129 91.4653 82.4129 91.4653 82.381 91.182C82.3491 90.8987 82.3491 90.8987 82.3491 90.8987C82.3491 90.8987 82.3491 90.8987 82.3491 90.8987C82.349 90.8987 82.349 90.8987 82.349 90.8987C82.3489 90.8987 82.3489 90.8987 82.3488 90.8987C82.3486 90.8987 82.3484 90.8988 82.3481 90.8988C82.3476 90.8988 82.3469 90.8989 82.346 90.899C82.3442 90.8992 82.3416 90.8995 82.3382 90.8999C82.3315 90.9007 82.3218 90.9019 82.309 90.9035C82.2834 90.9066 82.2459 90.9114 82.1968 90.9181C82.0987 90.9314 81.9546 90.9521 81.7686 90.982L81.8139 91.2635Z" fill="#0130BE" fill-opacity="0.3"/>
<defs>
<filter id="filter0_d_985_10268" x="39.3453" y="95.742" width="41.0564" height="41.0564" filterUnits="userSpaceOnUse" color-interpolation-filters="sRGB">
<feFlood flood-opacity="0" result="BackgroundImageFix"/>
<feColorMatrix in="SourceAlpha" type="matrix" values="0 0 0 0 0 0 0 0 0 0 0 0 0 0 0 0 0 0 127 0" result="hardAlpha"/>
<feOffset dx="3.4214" dy="2.28093"/>
<feGaussianBlur stdDeviation="7.41303"/>
<feComposite in2="hardAlpha" operator="out"/>
<feColorMatrix type="matrix" values="0 0 0 0 0.356863 0 0 0 0 0.207843 0 0 0 0 0.878431 0 0 0 0.22 0"/>
<feBlend mode="normal" in2="BackgroundImageFix" result="effect1_dropShadow_985_10268"/>
<feBlend mode="normal" in="SourceGraphic" in2="effect1_dropShadow_985_10268" result="shape"/>
</filter>
<filter id="filter1_d_985_10268" x="49.0422" y="119.692" width="61.5854" height="61.5854" filterUnits="userSpaceOnUse" color-interpolation-filters="sRGB">
<feFlood flood-opacity="0" result="BackgroundImageFix"/>
<feColorMatrix in="SourceAlpha" type="matrix" values="0 0 0 0 0 0 0 0 0 0 0 0 0 0 0 0 0 0 127 0" result="hardAlpha"/>
<feOffset dy="6.27256"/>
<feGaussianBlur stdDeviation="11.4047"/>
<feComposite in2="hardAlpha" operator="out"/>
<feColorMatrix type="matrix" values="0 0 0 0 0.356863 0 0 0 0 0.207843 0 0 0 0 0.878431 0 0 0 0.25 0"/>
<feBlend mode="normal" in2="BackgroundImageFix" result="effect1_dropShadow_985_10268"/>
<feBlend mode="normal" in="SourceGraphic" in2="effect1_dropShadow_985_10268" result="shape"/>
</filter>
<filter id="filter2_d_985_10268" x="-0.000732422" y="29.5942" width="63.8667" height="63.8667" filterUnits="userSpaceOnUse" color-interpolation-filters="sRGB">
<feFlood flood-opacity="0" result="BackgroundImageFix"/>
<feColorMatrix in="SourceAlpha" type="matrix" values="0 0 0 0 0 0 0 0 0 0 0 0 0 0 0 0 0 0 127 0" result="hardAlpha"/>
<feOffset dy="5.70233"/>
<feGaussianBlur stdDeviation="11.4047"/>
<feComposite in2="hardAlpha" operator="out"/>
<feColorMatrix type="matrix" values="0 0 0 0 0.356863 0 0 0 0 0.207843 0 0 0 0 0.878431 0 0 0 0.25 0"/>
<feBlend mode="normal" in2="BackgroundImageFix" result="effect1_dropShadow_985_10268"/>
<feBlend mode="normal" in="SourceGraphic" in2="effect1_dropShadow_985_10268" result="shape"/>
</filter>
<filter id="filter3_d_985_10268" x="116.384" y="51.8861" width="70.5944" height="70.5944" filterUnits="userSpaceOnUse" color-interpolation-filters="sRGB">
<feFlood flood-opacity="0" result="BackgroundImageFix"/>
<feColorMatrix in="SourceAlpha" type="matrix" values="0 0 0 0 0 0 0 0 0 0 0 0 0 0 0 0 0 0 127 0" result="hardAlpha"/>
<feOffset dy="2.28093"/>
<feGaussianBlur stdDeviation="11.3761"/>
<feComposite in2="hardAlpha" operator="out"/>
<feColorMatrix type="matrix" values="0 0 0 0 0.356863 0 0 0 0 0.207843 0 0 0 0 0.878431 0 0 0 0.25 0"/>
<feBlend mode="normal" in2="BackgroundImageFix" result="effect1_dropShadow_985_10268"/>
<feBlend mode="normal" in="SourceGraphic" in2="effect1_dropShadow_985_10268" result="shape"/>
</filter>
<filter id="filter4_d_985_10268" x="90.7243" y="100.929" width="70.5944" height="70.5944" filterUnits="userSpaceOnUse" color-interpolation-filters="sRGB">
<feFlood flood-opacity="0" result="BackgroundImageFix"/>
<feColorMatrix in="SourceAlpha" type="matrix" values="0 0 0 0 0 0 0 0 0 0 0 0 0 0 0 0 0 0 127 0" result="hardAlpha"/>
<feOffset dy="2.28093"/>
<feGaussianBlur stdDeviation="11.3761"/>
<feComposite in2="hardAlpha" operator="out"/>
<feColorMatrix type="matrix" values="0 0 0 0 0.356863 0 0 0 0 0.207843 0 0 0 0 0.878431 0 0 0 0.25 0"/>
<feBlend mode="normal" in2="BackgroundImageFix" result="effect1_dropShadow_985_10268"/>
<feBlend mode="normal" in="SourceGraphic" in2="effect1_dropShadow_985_10268" result="shape"/>
</filter>
<filter id="filter5_d_985_10268" x="83.8805" y="-0.000663042" width="70.5944" height="70.5944" filterUnits="userSpaceOnUse" color-interpolation-filters="sRGB">
<feFlood flood-opacity="0" result="BackgroundImageFix"/>
<feColorMatrix in="SourceAlpha" type="matrix" values="0 0 0 0 0 0 0 0 0 0 0 0 0 0 0 0 0 0 127 0" result="hardAlpha"/>
<feOffset dy="2.28093"/>
<feGaussianBlur stdDeviation="11.3761"/>
<feComposite in2="hardAlpha" operator="out"/>
<feColorMatrix type="matrix" values="0 0 0 0 0.356863 0 0 0 0 0.207843 0 0 0 0 0.878431 0 0 0 0.25 0"/>
<feBlend mode="normal" in2="BackgroundImageFix" result="effect1_dropShadow_985_10268"/>
<feBlend mode="normal" in="SourceGraphic" in2="effect1_dropShadow_985_10268" result="shape"/>
</filter>
<clipPath id="clip0_985_10268">
<rect width="7.98326" height="7.98326" fill="white" transform="translate(27.9414 51.834)"/>
</clipPath>
<clipPath id="clip1_985_10268">
<rect width="20.5284" height="3.99163" fill="white" transform="translate(141.418 82.623)"/>
</clipPath>
<clipPath id="clip2_985_10268">
<rect width="13.0926" height="13.1382" fill="white" transform="translate(112.906 26.1699)"/>
</clipPath>
</defs>
</svg>
