<svg width="18" height="18" viewBox="0 0 18 18" fill="none" xmlns="http://www.w3.org/2000/svg">
<path d="M9.56268 6.61863H13.609L9.56268 2.57229V6.61863ZM4.4128 1.46875H10.2984L14.7126 5.88293V14.7113C14.7126 15.1015 14.5575 15.4758 14.2816 15.7517C14.0057 16.0277 13.6314 16.1827 13.2412 16.1827H4.4128C4.02256 16.1827 3.64831 16.0277 3.37237 15.7517C3.09643 15.4758 2.94141 15.1015 2.94141 14.7113V2.94014C2.94141 2.54991 3.09643 2.17565 3.37237 1.89971C3.64831 1.62377 4.02256 1.46875 4.4128 1.46875ZM8.03978 9.14942C8.34142 9.81155 8.72398 10.356 9.1654 10.7312L9.46704 10.9666C8.82698 11.0843 7.94414 11.2903 7.00981 11.6508L6.92888 11.6802L7.29673 10.9151C7.62779 10.275 7.87057 9.69384 8.03978 9.14942ZM12.8071 11.9524C12.9395 11.82 13.0057 11.6508 13.0131 11.4669C13.0352 11.3197 12.9984 11.1799 12.9248 11.0622C12.7115 10.7165 12.1597 10.5546 11.2474 10.5546L10.2984 10.6061L9.65832 10.1794C9.19483 9.79683 8.77548 9.12735 8.4812 8.29601L8.51063 8.19302C8.75341 7.21454 8.98148 6.03007 8.49592 5.54451C8.43652 5.48684 8.36627 5.44153 8.28923 5.41122C8.2122 5.38091 8.12991 5.3662 8.04714 5.36794H7.87057C7.59837 5.36794 7.35559 5.65486 7.28937 5.93443C7.01717 6.9129 7.17902 7.44996 7.45123 8.34016V8.34751C7.2673 8.99493 7.03188 9.74533 6.65667 10.5031L5.95041 11.8274L5.29564 12.1878C4.4128 12.7396 3.99345 13.3576 3.91253 13.7475C3.8831 13.8873 3.89781 14.0124 3.94931 14.1448L3.97138 14.1816L4.32452 14.4097L4.64822 14.4906C5.24414 14.4906 5.92098 13.7917 6.83324 12.232L6.96567 12.1805C7.72343 11.9377 8.66513 11.7685 9.93052 11.6287C10.6883 12.0039 11.5785 12.1731 12.1376 12.1731C12.4613 12.1731 12.682 12.0922 12.8071 11.9524ZM12.5055 11.4301L12.5717 11.511C12.5643 11.5846 12.5422 11.5919 12.5055 11.6066H12.476L12.3363 11.6214C11.9978 11.6214 11.4755 11.4816 10.9384 11.2462C11.0046 11.1726 11.0341 11.1726 11.1076 11.1726C12.1376 11.1726 12.4319 11.3565 12.5055 11.4301ZM5.75912 12.5042C5.28092 13.3797 4.84686 13.8652 4.5158 13.9756C4.55258 13.696 4.88365 13.2105 5.40599 12.7323L5.75912 12.5042ZM7.98093 7.42053C7.81172 6.75841 7.80436 6.22135 7.92943 5.91236L7.98093 5.82407L8.09128 5.86086C8.21635 6.03743 8.23107 6.27285 8.1575 6.67012L8.13542 6.78784L8.01771 7.39111L7.98093 7.42053Z" fill="#EF5350"/>
</svg>
