<svg width="18" height="18" viewBox="0 0 18 18" fill="none" xmlns="http://www.w3.org/2000/svg">
<g clip-path="url(#clip0_985_10599)">
<path d="M12.8731 4.41378H15.7423C15.7787 4.41328 15.8142 4.40195 15.8442 4.38125C15.8742 4.36055 15.8974 4.3314 15.9108 4.2975C15.9242 4.2636 15.9272 4.22649 15.9195 4.19087C15.9117 4.15525 15.8936 4.12273 15.8674 4.09743L12.0859 0.308597C12.059 0.285203 12.026 0.269806 11.9908 0.264144C11.9556 0.258482 11.9195 0.262781 11.8866 0.276554C11.8537 0.290328 11.8253 0.313029 11.8046 0.342091C11.7839 0.371154 11.7718 0.405421 11.7695 0.441022V3.31024C11.7695 3.60292 11.8858 3.88361 12.0928 4.09056C12.2997 4.29752 12.5804 4.41378 12.8731 4.41378Z" fill="#72AF23"/>
<path d="M16.0066 5.14988H12.8799C12.3921 5.14988 11.9242 4.9561 11.5793 4.61117C11.2344 4.26625 11.0406 3.79843 11.0406 3.31063V0.183924C11.0406 0.135144 11.0212 0.0883626 10.9867 0.0538701C10.9523 0.0193777 10.9055 0 10.8567 0L2.94796 0C2.55772 0 2.18346 0.155021 1.90752 0.430961C1.63158 0.706901 1.47656 1.08116 1.47656 1.47139V16.1853C1.47656 16.5756 1.63158 16.9498 1.90752 17.2258C2.18346 17.5017 2.55772 17.6567 2.94796 17.6567H14.7191C15.1093 17.6567 15.4836 17.5017 15.7595 17.2258C16.0355 16.9498 16.1905 16.5756 16.1905 16.1853V5.3338C16.1905 5.28502 16.1711 5.23824 16.1366 5.20375C16.1021 5.16925 16.0553 5.14988 16.0066 5.14988ZM6.67058 13.3823C6.72444 13.4917 6.73301 13.6179 6.69446 13.7336C6.6559 13.8493 6.57331 13.9451 6.46458 14.0003C6.40024 14.0316 6.33009 14.0491 6.25859 14.0518C6.17282 14.0512 6.08889 14.0268 6.01615 13.9814C5.94342 13.9359 5.88472 13.8712 5.8466 13.7943L5.19919 12.5068C5.19461 12.4992 5.18814 12.4929 5.1804 12.4885C5.17267 12.4842 5.16393 12.4819 5.15505 12.4819C5.14616 12.4819 5.13742 12.4842 5.12969 12.4885C5.12195 12.4929 5.11548 12.4992 5.1109 12.5068L4.46349 13.8017C4.42537 13.8785 4.36667 13.9433 4.29394 13.9887C4.2212 14.0342 4.13727 14.0586 4.0515 14.0592C3.97778 14.0474 3.90749 14.0198 3.84551 13.9782C3.73678 13.923 3.65419 13.8272 3.61563 13.7115C3.57708 13.5959 3.58565 13.4696 3.63951 13.3602L4.59592 11.4401C4.61012 11.4155 4.6176 11.3876 4.6176 11.3592C4.6176 11.3307 4.61012 11.3028 4.59592 11.2782L3.63951 9.35806C3.60405 9.30334 3.58053 9.24174 3.5705 9.17731C3.56047 9.11287 3.56414 9.04704 3.58129 8.98413C3.59844 8.92121 3.62867 8.86262 3.67001 8.81219C3.71135 8.76175 3.76286 8.72061 3.82119 8.69145C3.87952 8.66228 3.94334 8.64576 4.00849 8.64295C4.07364 8.64013 4.13865 8.6511 4.19928 8.67514C4.2599 8.69917 4.31477 8.73572 4.3603 8.78241C4.40582 8.82909 4.44099 8.88486 4.46349 8.94607L5.10355 10.2335C5.10864 10.2427 5.1161 10.2504 5.12515 10.2557C5.13421 10.2611 5.14453 10.2639 5.15505 10.2639C5.16556 10.2639 5.17588 10.2611 5.18494 10.2557C5.19399 10.2504 5.20145 10.2427 5.20654 10.2335L5.8466 8.94607C5.9086 8.8504 6.00369 8.78093 6.11368 8.75095C6.22368 8.72097 6.34087 8.73258 6.44284 8.78357C6.54481 8.83456 6.62441 8.92134 6.66643 9.02732C6.70844 9.1333 6.70992 9.25105 6.67058 9.35806L5.70682 11.3003C5.69589 11.3259 5.69026 11.3534 5.69026 11.3812C5.69026 11.409 5.69589 11.4366 5.70682 11.4622L6.67058 13.3823ZM9.93707 14.0518H8.46568C8.30855 14.0518 8.15296 14.0207 8.00788 13.9604C7.8628 13.9 7.73109 13.8116 7.62032 13.7001C7.50955 13.5887 7.42191 13.4564 7.36245 13.311C7.30299 13.1655 7.27288 13.0097 7.27385 12.8526V9.17414C7.27385 9.05316 7.32191 8.93714 7.40745 8.8516C7.49299 8.76606 7.60901 8.718 7.72998 8.718C7.85096 8.718 7.96698 8.76606 8.05252 8.8516C8.13806 8.93714 8.18611 9.05316 8.18611 9.17414V12.8526C8.18611 12.9268 8.21557 12.9979 8.268 13.0503C8.32043 13.1027 8.39153 13.1322 8.46568 13.1322H9.93707C10.049 13.1464 10.1519 13.2009 10.2265 13.2856C10.3011 13.3702 10.3423 13.4792 10.3423 13.592C10.3423 13.7048 10.3011 13.8138 10.2265 13.8984C10.1519 13.9831 10.049 14.0376 9.93707 14.0518ZM12.0927 10.5499L13.4463 11.4548C13.698 11.6245 13.8886 11.8704 13.9902 12.1564C14.0919 12.4423 14.0992 12.7534 14.0112 13.0438C13.9231 13.3343 13.7443 13.5889 13.501 13.7703C13.2577 13.9517 12.9626 14.0503 12.6592 14.0518H11.4085C11.2965 14.0376 11.1936 13.9831 11.119 13.8984C11.0444 13.8138 11.0033 13.7048 11.0033 13.592C11.0033 13.4792 11.0444 13.3702 11.119 13.2856C11.1936 13.2009 11.2965 13.1464 11.4085 13.1322H12.6592C12.7912 13.1303 12.9174 13.077 13.0108 12.9836C13.1042 12.8901 13.1575 12.764 13.1594 12.6319C13.1595 12.5495 13.1386 12.4685 13.0987 12.3964C13.0588 12.3243 13.0012 12.2636 12.9314 12.2199L11.5777 11.315C11.3261 11.1453 11.1355 10.8994 11.0338 10.6134C10.9322 10.3275 10.9248 10.0164 11.0129 9.726C11.1009 9.43554 11.2797 9.18094 11.523 8.99954C11.7663 8.81813 12.0614 8.71946 12.3649 8.718H13.6156C13.7275 8.73219 13.8304 8.78672 13.905 8.87138C13.9796 8.95603 14.0208 9.06498 14.0208 9.17781C14.0208 9.29065 13.9796 9.3996 13.905 9.48425C13.8304 9.56891 13.7275 9.62344 13.6156 9.63762H12.3649C12.2322 9.63762 12.1049 9.69033 12.0111 9.78415C11.9173 9.87797 11.8646 10.0052 11.8646 10.1379C11.8665 10.2199 11.8883 10.3002 11.928 10.3719C11.9677 10.4437 12.0242 10.5047 12.0927 10.5499Z" fill="#72AF23"/>
</g>
<defs>
<clipPath id="clip0_985_10599">
<rect width="17.6567" height="17.6567" fill="white"/>
</clipPath>
</defs>
</svg>
