<svg width="207" height="74" viewBox="0 0 207 74" fill="none" xmlns="http://www.w3.org/2000/svg">
<g clip-path="url(#clip0_643_1170)">
<path d="M57.0683 29.087H54.0556C54.0556 29.087 52.8477 29.055 52.5188 30.2542L46.8428 49.1422H49.1568C49.1568 49.1422 51.0052 49.1422 51.564 47.0697L57.0712 29.087H57.0683Z" fill="#323232" fill-opacity="0.74"/>
<path d="M61.4509 34.5792H58.4382C58.4382 34.5792 57.2303 34.5472 56.9014 35.7464L52.9951 49.1272H55.3092C55.3092 49.1272 57.1575 49.1272 57.7164 47.0547L61.4538 34.5792H61.4509Z" fill="#323232" fill-opacity="0.74"/>
<path d="M36.0868 43.6913L40.2404 48.855C40.2404 48.855 40.6596 49.4692 40.8255 48.8957L42.0015 45.1147L40.2579 43.1586H36.503C36.503 43.1586 35.5978 43.1033 36.0839 43.6884L36.0868 43.6913Z" fill="#323232" fill-opacity="0.74"/>
<path d="M44.9253 48.1864C45.1524 47.9041 45.3503 47.5402 45.4813 47.0629L52.4613 24.4229H49.4487C49.4487 24.4229 48.2407 24.3909 47.9118 25.5901L42.0029 45.1097L44.9253 48.1893V48.1864Z" fill="#323232" fill-opacity="0.74"/>
<path d="M68.6595 53.6614L66.1475 51.1174C69.0378 50.5207 70.9851 48.5414 70.9851 44.7108V29.0713H74.9118V45.0252C74.9118 50.2704 71.4887 53.0647 68.6624 53.6614H68.6595Z" fill="#323232" fill-opacity="0.74"/>
<path d="M79.9561 49.109V29.0713H91.1363V32.3692H83.8827V37.3932H89.9138V40.7231H83.8827V45.8111H92.1434V49.109H79.959H79.9561Z" fill="#323232" fill-opacity="0.74"/>
<path d="M112.937 49.4263L104.301 40.0041C102.886 38.4643 101.35 36.6451 100.092 35.1664L100.028 35.1984C100.092 36.8314 100.092 38.4323 100.092 39.8149V49.1119H96.2295V29.0742H99.2771L107.002 37.5212C108.07 38.6826 109.703 40.5048 110.772 41.8554L110.836 41.8233C110.772 40.4407 110.772 38.933 110.772 37.5824V29.0713H114.634V49.4233H112.937V49.4263Z" fill="#323232" fill-opacity="0.74"/>
<path d="M133.735 33.494C132.763 32.8973 131.002 32.3006 129.15 32.3006C125.445 32.3006 122.022 34.7514 122.022 39.1467C122.022 43.5419 125.413 45.9928 129.278 45.9928C131.29 45.9928 132.795 45.6173 133.927 44.9886L133.581 48.4757C132.419 49.0404 131.005 49.3227 128.714 49.3227C123.626 49.3227 118.034 45.8356 118.034 39.0826C118.034 32.3297 123.687 28.8135 128.714 28.8135C131.322 28.8135 133.237 29.3782 134.463 30.0709L133.741 33.494H133.735Z" fill="#323232" fill-opacity="0.74"/>
<path d="M150.75 49.1036L148.835 44.2659H141.768L139.852 49.1036H136.054L144.282 28.8447H146.512L154.709 49.1036H150.75ZM146.041 36.8551C145.822 36.2584 145.537 35.4405 145.319 34.6866H145.255C145.065 35.4405 144.751 36.2555 144.533 36.8551L142.868 41.1573H147.705L146.041 36.8551Z" fill="#323232" fill-opacity="0.74"/>
<path d="M164.944 40.7551H161.803V49.109H157.94V29.0713H164.944C168.084 29.0713 171.193 31.1117 171.193 34.9132C171.193 38.7146 168.084 40.7551 164.944 40.7551ZM164.318 32.3692H161.806V37.6464H164.318C165.826 37.6464 167.301 36.8285 167.301 35.0092C167.301 33.19 165.858 32.3721 164.318 32.3721V32.3692Z" fill="#323232" fill-opacity="0.74"/>
<path d="M173.556 31.5096C172.648 31.5096 171.952 30.8518 171.952 29.9233C171.952 28.9947 172.648 28.3369 173.556 28.3369C174.464 28.3369 175.16 28.9947 175.16 29.9233C175.16 30.8518 174.447 31.5096 173.556 31.5096ZM173.556 28.6542C172.837 28.6542 172.296 29.1694 172.296 29.9204C172.296 30.6713 172.834 31.1866 173.556 31.1866C174.278 31.1866 174.799 30.6713 174.799 29.9204C174.799 29.1694 174.26 28.6542 173.556 28.6542ZM174.074 30.9071L173.565 30.1329H173.329V30.8984H172.953V28.9424H173.565C173.885 28.9424 174.205 29.1694 174.205 29.5361C174.205 29.7632 174.089 29.9349 173.923 30.0281L174.383 30.6917L174.071 30.9013L174.074 30.9071ZM173.509 29.2713H173.329V29.8039H173.509C173.713 29.8039 173.83 29.7021 173.83 29.5391C173.83 29.3761 173.713 29.2742 173.509 29.2742V29.2713Z" fill="#323232" fill-opacity="0.74"/>
</g>
<defs>
<clipPath id="clip0_643_1170">
<rect width="137.388" height="36.6756" fill="white" transform="translate(34.6357 18.4541)"/>
</clipPath>
</defs>
</svg>
