<svg width="207" height="74" viewBox="0 0 207 74" fill="none" xmlns="http://www.w3.org/2000/svg">
<path d="M43.8221 34.891L39.6684 25.7485L35.5146 34.891H43.8221Z" fill="#323232" fill-opacity="0.74"/>
<path d="M99.8611 26.6001L104.392 41.0011L108.232 26.6001H112.196L106.186 47.6689H102.662L98.7912 35.3988L94.9207 47.6689H91.5536L85.3545 26.6001H89.4453L93.5361 41.0011L97.7842 26.6001H99.8611Z" fill="#323232" fill-opacity="0.74"/>
<path d="M119.999 26.6001H116.065V47.6689H119.999V26.6001Z" fill="#323232" fill-opacity="0.74"/>
<path d="M143.077 47.6689H140.654L130.615 34.1959V47.6689H126.808V26.6001H129.797L139.269 39.1452V26.6001H143.077V47.6689Z" fill="#323232" fill-opacity="0.74"/>
<path d="M150.397 40.9214C151.813 43.1211 153.89 44.3584 155.998 44.3584C158.012 44.3584 159.491 43.3961 159.491 41.6088C159.491 39.6841 157.666 39.4091 154.771 38.7217C151.907 38 148.792 37.0032 148.792 32.8101C148.792 28.7888 151.97 26.2798 155.966 26.2798C159.302 26.2798 161.914 27.8952 163.235 29.9918L160.624 32.7757C159.491 31.0572 157.98 29.8886 155.841 29.8886C153.953 29.8886 152.662 30.8854 152.662 32.3977C152.662 34.0474 154.047 34.3567 156.596 34.9754C159.648 35.6972 163.424 36.5564 163.424 41.162C163.424 45.4239 159.994 47.9673 155.872 47.9673C152.631 47.9673 149.232 46.3519 147.69 43.8085L150.397 40.9214Z" fill="#323232" fill-opacity="0.74"/>
<path d="M58.2404 47.6625L48.1392 25.4595L45.9994 30.1338L50.1846 39.3106H41.8142L38.0381 47.6625H42.2233L44.3316 42.9882H51.8524L53.9922 47.6625H58.2404Z" fill="#323232" fill-opacity="0.74"/>
<path d="M71.5103 44.335L65.1224 34.0584V47.6689H61.4092V26.6001H65.028L71.5103 37.5298L77.9297 26.6001H81.4856V47.6689H77.7095V34.0584L71.5103 44.335Z" fill="#323232" fill-opacity="0.74"/>
<path d="M168.439 29.5074C167.59 29.5074 166.897 28.7857 166.897 27.8233C166.897 26.8609 167.59 26.1392 168.439 26.1392C169.289 26.1392 169.981 26.8609 169.981 27.8233C170.013 28.7857 169.32 29.5074 168.439 29.5074ZM168.439 26.3454C167.716 26.3454 167.118 26.964 167.118 27.8233C167.118 28.6482 167.716 29.3012 168.439 29.3012C169.163 29.3012 169.761 28.6825 169.761 27.8233C169.761 26.964 169.195 26.3454 168.439 26.3454ZM168.786 28.6138L168.408 27.9951H168.156V28.6138H167.81V26.8953H168.534C168.911 26.8953 169.132 27.1015 169.132 27.4109C169.132 27.6858 168.943 27.8233 168.786 27.892L169.226 28.5794H168.786V28.6138ZM168.471 27.239H168.156V27.7202H168.471C168.628 27.7202 168.754 27.6514 168.754 27.4796C168.754 27.3077 168.628 27.239 168.471 27.239Z" fill="#323232" fill-opacity="0.74"/>
</svg>
