<svg width="207" height="74" viewBox="0 0 207 74" fill="none" xmlns="http://www.w3.org/2000/svg">
<g clip-path="url(#clip0_643_1135)">
<mask id="mask0_643_1135" style="mask-type:luminance" maskUnits="userSpaceOnUse" x="20" y="27" width="167" height="20">
<path d="M186.455 27.5557H20.2041V46.028H186.455V27.5557Z" fill="white"/>
</mask>
<g mask="url(#mask0_643_1135)">
<path d="M134.935 27.8784H137.359C139.983 32.107 142.6 36.3357 145.295 40.6867V27.9028C146.116 27.8254 146.941 27.8254 147.763 27.9028V45.5677C146.954 45.6478 146.14 45.6682 145.329 45.629L137.407 32.8451V45.5718H134.935V27.8784Z" fill="#323232" fill-opacity="0.74"/>
<path d="M118.978 27.8447H121.389L129.341 40.6775V27.8774H131.749V45.5586H129.337L121.473 32.84V45.5342H118.994L118.978 27.8447Z" fill="#323232" fill-opacity="0.74"/>
<path d="M109.335 27.605C113.615 27.6498 116.896 31.4381 116.869 36.7759C116.842 42.1137 113.638 45.9061 109.291 45.8857C104.803 45.8612 101.778 41.8895 101.744 36.7188C101.728 35.5111 101.913 34.3118 102.29 33.1929C102.667 32.074 103.226 31.0586 103.935 30.2075C104.644 29.3565 105.487 28.6873 106.415 28.24C107.343 27.7928 108.337 27.5768 109.335 27.605ZM109.288 30.4594C106.88 30.4309 104.351 32.584 104.334 36.7188C104.334 40.4377 106.418 43.0434 109.332 43.0312C112.313 43.0312 114.252 40.2584 114.293 36.7678C114.347 33.1997 112.148 30.4472 109.301 30.4594H109.288Z" fill="#323232" fill-opacity="0.74"/>
<path d="M40.202 38.3275V45.5778C39.3434 45.6539 38.4817 45.6649 37.6221 45.6104V27.8395C39.8884 27.9374 42.1344 27.6152 44.367 28.0841C46.1409 28.4593 47.5168 29.5399 47.9822 31.7949C48.5285 34.4537 47.5 36.7617 45.3855 37.7567C45.2539 37.8178 45.1224 37.8668 44.8661 37.9728L49.23 45.5738H46.1948L42.1479 38.3561C41.5024 38.2555 40.8493 38.2459 40.202 38.3275ZM40.2256 35.8809C41.4937 35.8075 42.7246 36.0358 43.9353 35.628C45.0246 35.261 45.5271 34.4659 45.517 33.2303C45.5069 31.9947 44.9774 31.1914 43.8949 30.8693C42.6909 30.486 41.4667 30.698 40.2324 30.6409L40.2256 35.8809Z" fill="#323232" fill-opacity="0.74"/>
<path d="M91.4609 36.9446L80.1768 46.0258V27.8838C83.991 30.881 87.6602 33.874 91.4609 36.9446Z" fill="#323232" fill-opacity="0.74"/>
<path d="M159.393 30.6281H153.323V34.9873H158.577V37.6664H153.316V42.8614H159.589V45.5324H150.692V27.8838H159.386L159.393 30.6281Z" fill="#323232" fill-opacity="0.74"/>
<path d="M51.1023 44.5809V41.4493C51.416 41.4248 51.5812 41.6939 51.797 41.8285C53.0045 42.634 54.3542 43.0773 55.7327 43.1212C56.155 43.1262 56.5743 43.032 56.967 42.8438C57.2929 42.6905 57.5761 42.4284 57.7835 42.0878C57.9908 41.7473 58.114 41.3426 58.1383 40.9206C58.1628 40.4988 58.0875 40.0773 57.9213 39.7052C57.755 39.333 57.5048 39.0258 57.1997 38.819C56.6165 38.4768 56.0049 38.2103 55.3752 38.0239C54.5892 37.7743 53.8229 37.4414 53.0853 37.029C51.3991 36.0095 50.6403 34.4763 50.7448 32.4211C50.873 29.901 52.1107 28.4452 53.7328 27.911C55.9047 27.1934 58.0023 27.593 60.0258 28.8367V31.8053C59.8167 31.9847 59.6885 31.7319 59.5233 31.6341C58.4629 30.9324 57.2941 30.5034 56.0901 30.374C55.4742 30.2778 54.8482 30.3805 54.2758 30.6717C54.0049 30.8167 53.7714 31.0474 53.6 31.3395C53.4285 31.6316 53.3254 31.9742 53.3016 32.3312C53.2777 32.6883 53.3341 33.0465 53.4645 33.368C53.5951 33.6896 53.795 33.9626 54.043 34.1582C54.5457 34.5327 55.0944 34.808 55.6686 34.9738C56.5616 35.2618 57.4353 35.6312 58.2822 36.0788C59.9145 37.0086 60.8115 38.5255 60.7306 40.7439C60.6463 43.0396 59.7189 44.6788 57.8944 45.4251C55.5303 46.3997 53.2775 45.8206 51.1023 44.5809Z" fill="#323232" fill-opacity="0.74"/>
<path d="M172.055 28.7277V31.8227C171.782 31.7667 171.527 31.6262 171.312 31.4149C169.953 30.4903 168.365 30.1809 166.834 30.5423C164.682 31.0765 163.289 32.7116 162.858 35.3296C162.261 38.9507 163.9 41.956 166.49 42.747C168.161 43.2852 169.94 43.0131 171.447 41.9886C171.694 41.8296 171.93 41.6501 172.254 41.4177V44.6269C171.001 45.5054 169.569 45.9406 168.122 45.8829C166.628 45.9285 165.152 45.4846 163.849 44.5984C162.839 43.9254 161.98 42.9624 161.349 41.7942C160.718 40.626 160.334 39.2883 160.231 37.8986C160.079 36.6026 160.163 35.2823 160.476 34.0295C160.789 32.7766 161.325 31.6214 162.045 30.6442C163.029 29.2796 164.346 28.3261 165.805 27.9203C167.9 27.2577 170.123 27.5449 172.055 28.7277Z" fill="#323232" fill-opacity="0.74"/>
<path d="M22.8144 30.6037V35.3706H28.325V37.9966H22.7806V45.5691H20.2041V27.8838H29.1613V30.6037H22.8144Z" fill="#323232" fill-opacity="0.74"/>
<path d="M181.572 30.6237V45.5565H178.989V30.6686H174.267C174.195 29.7457 174.172 28.818 174.2 27.8916H186.384C186.519 28.7602 186.415 29.6532 186.439 30.6359L181.572 30.6237Z" fill="#323232" fill-opacity="0.74"/>
<path d="M69.4015 45.5732H66.8419V30.624H62.0361V27.8838H74.2174V30.6037H69.4015V45.5732Z" fill="#323232" fill-opacity="0.74"/>
<path d="M34.3079 45.565H31.8291V27.8838H34.3079V45.565Z" fill="#323232" fill-opacity="0.74"/>
<path d="M91.5969 40.9932C94.2949 43.7905 97.03 43.5133 99.9137 41.454C99.9911 42.4787 100.009 43.5089 99.9673 44.5368C97.2997 46.6328 92.1163 46.4778 89.5869 42.6773C89.8819 42.3403 90.2117 42.051 90.5683 41.8168C90.909 41.5274 91.2597 41.2746 91.5969 40.9932Z" fill="#323232" fill-opacity="0.74"/>
<path d="M99.7487 31.8544C95.8399 29.7136 93.7928 29.9256 91.4153 32.7474L89.4424 31.1612C91.3444 27.5564 96.2951 26.5247 99.6913 28.7145C99.7602 29.2444 99.7778 29.7822 99.7449 30.3171C99.7587 30.8268 99.7487 31.3243 99.7487 31.8544Z" fill="#323232" fill-opacity="0.74"/>
</g>
</g>
<defs>
<clipPath id="clip0_643_1135">
<rect width="166.251" height="18.4723" fill="white" transform="translate(20.2041 27.5557)"/>
</clipPath>
</defs>
</svg>
