<svg width="207" height="74" viewBox="0 0 207 74" fill="none" xmlns="http://www.w3.org/2000/svg">
<g clip-path="url(#clip0_643_1132)">
<path d="M132.575 53.7332L132.415 54.0933C132.415 54.0933 125.893 50.7405 115.574 50.7405C103.102 50.7405 101.43 55.5128 86.6091 55.5128C81.7882 55.5128 75.9703 54.2112 73.978 52.8902L74.138 52.5897C76.2906 53.5306 79.1191 53.3981 82.4643 53.3981C88.3618 53.3981 95.0556 50.9681 101.917 49.1822C103.411 48.7937 104.913 48.4347 106.418 48.1388C108.925 47.6451 111.435 47.3249 113.92 47.3249C120.734 47.3249 126.082 49.2284 132.575 53.7334M87.1603 20.0228H90.6854C93.4088 20.0228 94.53 20.8014 95.5371 21.7854C96.9341 23.2048 97.3913 24.8524 97.3913 26.4085C97.3913 28.6979 96.1556 30.3909 95.0566 31.3297C93.2024 32.8858 90.8908 33.2072 88.3507 33.2072H87.1603V20.0228ZM90.3421 34.6484L100.355 48.6842C101.98 48.2415 103.618 47.8251 105.261 47.4741C105.132 47.3887 105.004 47.3021 104.876 47.2142C103.685 46.2071 102.564 45.085 101.03 42.9116L94.873 34.1217C99.2676 33.1156 102.541 30.2307 102.541 26.0661C102.541 22.1289 99.6109 19.7026 96.8422 18.81C95.0566 18.2384 92.8822 18.1465 89.5864 18.1465H79.1271V19.0388H79.654C80.8213 19.0388 81.5986 19.3138 82.1022 19.909C82.5826 20.3895 82.7207 21.2366 82.7207 23.6619V43.667C82.7207 47.5116 82.1938 48.3132 79.6537 48.3132H79.1266V49.1822H90.9827V48.3132H90.3423C87.9157 48.3132 87.1605 47.3059 87.1605 43.667V34.6484H90.3421ZM130.291 25.5469H129.418C129.249 24.2615 129.02 23.3427 128.729 22.7915C128.254 21.9037 127.622 21.2486 126.834 20.8269C126.045 20.4061 125.008 20.1951 123.722 20.1951H119.335V43.9906C119.335 45.4132 119.45 46.4369 119.678 47.0641C118.283 46.7292 116.132 46.4975 114.743 46.4545C114.864 45.8593 114.925 45.0374 114.925 43.9906V20.1951H111.181C109.727 20.1951 108.693 20.3033 108.081 20.5175C107.285 20.8081 106.603 21.3667 106.037 22.1944C105.47 23.0203 105.133 24.139 105.026 25.5472H104.154L104.52 18.2437H129.946L130.29 25.5472" fill="#323232" fill-opacity="0.74"/>
</g>
<defs>
<clipPath id="clip0_643_1132">
<rect width="58.7033" height="37.291" fill="white" transform="translate(73.978 18.1465)"/>
</clipPath>
</defs>
</svg>
