<svg width="672" height="85" viewBox="0 0 672 85" fill="none" xmlns="http://www.w3.org/2000/svg">
<path d="M156.318 39.3544C156.318 35.6226 157.039 31.92 158.481 28.2464C159.923 24.5729 162.026 21.2493 164.79 18.2755C167.554 15.3017 170.919 12.9402 174.884 11.1909C178.85 9.38329 183.356 8.47949 188.403 8.47949C194.351 8.47949 199.549 9.73315 203.995 12.2405C208.441 14.7478 211.746 18.0131 213.909 22.0365L202.553 29.7333C201.591 27.5759 200.3 25.8849 198.677 24.6604C197.055 23.3776 195.313 22.503 193.45 22.0365C191.587 21.5117 189.785 21.2493 188.043 21.2493C184.257 21.2493 181.133 22.1823 178.67 24.0482C176.206 25.9141 174.374 28.2756 173.172 31.1328C171.97 33.9899 171.369 36.9054 171.369 39.8792C171.369 43.1446 172.06 46.235 173.442 49.1504C174.824 52.0076 176.777 54.3108 179.3 56.0601C181.824 57.8094 184.798 58.6841 188.223 58.6841C190.025 58.6841 191.858 58.4217 193.72 57.8969C195.583 57.3138 197.295 56.3808 198.858 55.098C200.48 53.8152 201.712 52.1534 202.553 50.1125L214.63 57.0222C213.368 60.1126 211.295 62.7366 208.411 64.894C205.527 66.9932 202.252 68.6258 198.587 69.792C194.982 70.8999 191.407 71.4539 187.862 71.4539C183.236 71.4539 179 70.5501 175.155 68.7425C171.309 66.8766 167.975 64.4276 165.151 61.3955C162.327 58.305 160.134 54.8648 158.572 51.0747C157.069 47.2262 156.318 43.3195 156.318 39.3544Z" fill="white"/>
<path d="M245.324 71.8037C239.916 71.8037 235.32 70.6958 231.534 68.4801C227.809 66.2643 224.955 63.3488 222.973 59.7336C220.99 56.1184 219.998 52.2117 219.998 48.0134C219.998 43.7568 220.99 39.8209 222.973 36.2057C224.955 32.5905 227.839 29.675 231.625 27.4593C235.41 25.2435 239.976 24.1356 245.324 24.1356C250.671 24.1356 255.237 25.2435 259.023 27.4593C262.808 29.675 265.692 32.5905 267.675 36.2057C269.658 39.8209 270.649 43.7568 270.649 48.0134C270.649 52.2117 269.658 56.1184 267.675 59.7336C265.692 63.3488 262.808 66.2643 259.023 68.4801C255.237 70.6958 250.671 71.8037 245.324 71.8037ZM234.779 48.0134C234.779 51.5703 235.77 54.4566 237.753 56.6724C239.796 58.8881 242.319 59.996 245.324 59.996C248.268 59.996 250.731 58.8881 252.714 56.6724C254.757 54.4566 255.778 51.5703 255.778 48.0134C255.778 44.4565 254.757 41.5702 252.714 39.3544C250.731 37.1387 248.268 36.0308 245.324 36.0308C242.319 36.0308 239.796 37.1387 237.753 39.3544C235.77 41.5702 234.779 44.4565 234.779 48.0134Z" fill="white"/>
<path d="M290.727 70.9291L273.963 25.0103H288.834L299.198 58.3342L309.563 25.0103H323.082L306.408 70.9291H290.727Z" fill="white"/>
<path d="M351.839 71.8037C346.492 71.8037 341.926 70.725 338.14 68.5675C334.355 66.4101 331.441 63.5529 329.398 59.996C327.415 56.4391 326.424 52.5907 326.424 48.4507C326.424 44.0192 327.415 39.9667 329.398 36.2932C331.381 32.6197 334.265 29.675 338.05 27.4593C341.835 25.2435 346.432 24.1356 351.839 24.1356C357.187 24.1356 361.753 25.2435 365.538 27.4593C369.324 29.675 372.178 32.5905 374.1 36.2057C376.083 39.8209 377.075 43.6985 377.075 47.8385C377.075 49.5295 376.954 51.0163 376.714 52.2992H341.745C341.986 55.3896 343.127 57.7511 345.17 59.3838C347.273 60.9581 349.646 61.7453 352.29 61.7453C354.393 61.7453 356.406 61.2497 358.328 60.2584C360.251 59.2672 361.573 57.926 362.294 56.2351L374.551 59.5587C372.688 63.1739 369.774 66.1185 365.809 68.3926C361.903 70.6667 357.247 71.8037 351.839 71.8037ZM341.385 43.7276H361.933C361.633 40.8122 360.521 38.5089 358.599 36.818C356.736 35.0687 354.423 34.194 351.659 34.194C348.895 34.194 346.552 35.0687 344.629 36.818C342.767 38.5672 341.685 40.8705 341.385 43.7276Z" fill="white"/>
<path d="M415.875 36.9929C412.39 37.0512 409.236 37.6051 406.412 38.6547C403.588 39.7043 401.545 41.2786 400.283 43.3778V70.9291H385.863V25.0103H399.112V34.2815C400.734 31.1911 402.837 28.7712 405.42 27.0219C408.004 25.2727 410.708 24.3689 413.532 24.3105C414.733 24.3105 415.514 24.3397 415.875 24.398V36.9929Z" fill="white"/>
<path d="M425.373 70.9291V8.82935H468.814V21.4242H440.154V34.8063H463.767V46.439H440.154V70.9291H425.373Z" fill="white"/>
<path d="M497.569 71.8037C492.162 71.8037 487.566 70.6958 483.78 68.4801C480.055 66.2643 477.201 63.3488 475.218 59.7336C473.236 56.1184 472.244 52.2117 472.244 48.0134C472.244 43.7568 473.236 39.8209 475.218 36.2057C477.201 32.5905 480.085 29.675 483.87 27.4593C487.656 25.2435 492.222 24.1356 497.569 24.1356C502.917 24.1356 507.483 25.2435 511.269 27.4593C515.054 29.675 517.938 32.5905 519.921 36.2057C521.903 39.8209 522.895 43.7568 522.895 48.0134C522.895 52.2117 521.903 56.1184 519.921 59.7336C517.938 63.3488 515.054 66.2643 511.269 68.4801C507.483 70.6958 502.917 71.8037 497.569 71.8037ZM487.025 48.0134C487.025 51.5703 488.016 54.4566 489.999 56.6724C492.042 58.8881 494.565 59.996 497.569 59.996C500.514 59.996 502.977 58.8881 504.96 56.6724C507.003 54.4566 508.024 51.5703 508.024 48.0134C508.024 44.4565 507.003 41.5702 504.96 39.3544C502.977 37.1387 500.514 36.0308 497.569 36.0308C494.565 36.0308 492.042 37.1387 489.999 39.3544C488.016 41.5702 487.025 44.4565 487.025 48.0134Z" fill="white"/>
<path d="M562.311 36.9929C558.826 37.0512 555.672 37.6051 552.848 38.6547C550.024 39.7043 547.981 41.2786 546.72 43.3778V70.9291H532.299V25.0103H545.548V34.2815C547.17 31.1911 549.273 28.7712 551.857 27.0219C554.44 25.2727 557.144 24.3689 559.968 24.3105C561.17 24.3105 561.951 24.3397 562.311 24.398V36.9929Z" fill="white"/>
<path d="M592.908 71.8037C587.62 71.8037 583.054 70.6958 579.208 68.4801C575.423 66.2643 572.509 63.3488 570.466 59.7336C568.483 56.1184 567.492 52.1825 567.492 47.9259C567.492 43.7276 568.483 39.8209 570.466 36.2057C572.509 32.5905 575.423 29.675 579.208 27.4593C582.994 25.2435 587.56 24.1356 592.908 24.1356C598.315 24.1356 602.881 25.2727 606.607 27.5467C610.392 29.7625 613.216 32.678 615.078 36.2932L601.019 40.404C599.156 37.4885 596.422 36.0308 592.817 36.0308C589.873 36.0308 587.38 37.1095 585.337 39.267C583.294 41.4244 582.273 44.3107 582.273 47.9259C582.273 51.5411 583.294 54.4566 585.337 56.6724C587.38 58.8881 589.873 59.996 592.817 59.996C594.62 59.996 596.272 59.5879 597.774 58.7715C599.276 57.8969 600.388 56.789 601.109 55.4479L615.169 59.6462C613.426 63.2031 610.632 66.1185 606.787 68.3926C603.002 70.6667 598.375 71.8037 592.908 71.8037Z" fill="white"/>
<path d="M646.12 71.8037C640.773 71.8037 636.206 70.725 632.421 68.5675C628.636 66.4101 625.722 63.5529 623.679 59.996C621.696 56.4391 620.705 52.5907 620.705 48.4507C620.705 44.0192 621.696 39.9667 623.679 36.2932C625.662 32.6197 628.546 29.675 632.331 27.4593C636.116 25.2435 640.713 24.1356 646.12 24.1356C651.468 24.1356 656.034 25.2435 659.819 27.4593C663.605 29.675 666.459 32.5905 668.381 36.2057C670.364 39.8209 671.355 43.6985 671.355 47.8385C671.355 49.5295 671.235 51.0163 670.995 52.2992H636.026C636.267 55.3896 637.408 57.7511 639.451 59.3838C641.554 60.9581 643.927 61.7453 646.571 61.7453C648.674 61.7453 650.687 61.2497 652.609 60.2584C654.532 59.2672 655.854 57.926 656.575 56.2351L668.832 59.5587C666.969 63.1739 664.055 66.1185 660.09 68.3926C656.184 70.6667 651.528 71.8037 646.12 71.8037ZM635.666 43.7276H656.214C655.914 40.8122 654.802 38.5089 652.88 36.818C651.017 35.0687 648.704 34.194 645.94 34.194C643.176 34.194 640.833 35.0687 638.91 36.818C637.048 38.5672 635.966 40.8705 635.666 43.7276Z" fill="white"/>
<path d="M103.555 50.7076L116.273 30.5322H80.8611C78.3647 30.5322 76.0385 31.8152 74.7046 33.9312L61.9866 54.1064H97.4026C99.899 54.1064 102.221 52.8235 103.555 50.7076Z" fill="#E8E8E8"/>
<path d="M122.028 20.2115L134.746 0.0361328H67.1975C64.7011 0.0361328 62.3749 1.31915 61.0409 3.43513L48.323 23.6103H115.875C118.372 23.6103 120.694 22.3274 122.028 20.2115Z" fill="#E8E8E8"/>
<path d="M42.528 84.6613H74.0319L61.6235 64.543C60.2979 62.3946 57.9617 61.0872 55.4443 61.0872H41.9221C31.5495 61.0872 23.1409 52.6974 23.1409 42.3485C23.1409 31.9996 31.5495 23.6102 41.9221 23.6102H54.9497C57.4432 23.6102 59.7631 22.3276 61.095 20.2116L73.7982 0.0361328H42.528C19.1059 0.0361328 0.118774 18.9801 0.118774 42.3485C0.118774 65.7173 19.1059 84.6613 42.528 84.6613Z" fill="white"/>
</svg>
