<svg width="672" height="85" viewBox="0 0 672 85" fill="none" xmlns="http://www.w3.org/2000/svg">
<path d="M156.318 39.3183C156.318 35.5865 157.039 31.8838 158.481 28.2103C159.923 24.5368 162.026 21.2132 164.79 18.2394C167.554 15.2656 170.919 12.904 174.884 11.1548C178.85 9.34716 183.356 8.44336 188.403 8.44336C194.351 8.44336 199.549 9.69702 203.995 12.2043C208.441 14.7116 211.746 17.977 213.909 22.0003L202.553 29.6972C201.591 27.5398 200.3 25.8488 198.677 24.6243C197.055 23.3415 195.313 22.4668 193.45 22.0003C191.588 21.4756 189.785 21.2132 188.043 21.2132C184.257 21.2132 181.133 22.1461 178.67 24.012C176.206 25.8779 174.374 28.2395 173.172 31.0966C171.97 33.9538 171.369 36.8693 171.369 39.8431C171.369 43.1084 172.06 46.1988 173.442 49.1143C174.824 51.9715 176.777 54.2747 179.3 56.024C181.824 57.7733 184.798 58.6479 188.223 58.6479C190.025 58.6479 191.858 58.3855 193.72 57.8608C195.583 57.2777 197.295 56.3447 198.858 55.0619C200.48 53.7791 201.712 52.1173 202.553 50.0764L214.63 56.9861C213.368 60.0765 211.295 62.7004 208.411 64.8579C205.527 66.957 202.252 68.5897 198.587 69.7559C194.982 70.8638 191.407 71.4177 187.862 71.4177C183.236 71.4177 179 70.5139 175.155 68.7063C171.309 66.8404 167.975 64.3914 165.151 61.3593C162.327 58.2689 160.134 54.8286 158.572 51.0385C157.069 47.1901 156.318 43.2833 156.318 39.3183Z" fill="#5C35E1"/>
<path d="M245.324 71.7676C239.916 71.7676 235.32 70.6597 231.534 68.4439C227.809 66.2282 224.955 63.3127 222.973 59.6975C220.99 56.0823 219.998 52.1756 219.998 47.9773C219.998 43.7207 220.99 39.7848 222.973 36.1696C224.955 32.5544 227.839 29.6389 231.625 27.4231C235.41 25.2074 239.976 24.0995 245.324 24.0995C250.671 24.0995 255.237 25.2074 259.023 27.4231C262.808 29.6389 265.692 32.5544 267.675 36.1696C269.658 39.7848 270.649 43.7207 270.649 47.9773C270.649 52.1756 269.658 56.0823 267.675 59.6975C265.692 63.3127 262.808 66.2282 259.023 68.4439C255.237 70.6597 250.671 71.7676 245.324 71.7676ZM234.779 47.9773C234.779 51.5342 235.77 54.4205 237.753 56.6362C239.796 58.852 242.32 59.9599 245.324 59.9599C248.268 59.9599 250.731 58.852 252.714 56.6362C254.757 54.4205 255.778 51.5342 255.778 47.9773C255.778 44.4204 254.757 41.5341 252.714 39.3183C250.731 37.1025 248.268 35.9946 245.324 35.9946C242.32 35.9946 239.796 37.1025 237.753 39.3183C235.77 41.5341 234.779 44.4204 234.779 47.9773Z" fill="#5C35E1"/>
<path d="M290.727 70.8929L273.963 24.9741H288.834L299.198 58.2981L309.563 24.9741H323.082L306.408 70.8929H290.727Z" fill="#5C35E1"/>
<path d="M351.839 71.7676C346.492 71.7676 341.926 70.6889 338.14 68.5314C334.355 66.374 331.441 63.5168 329.398 59.9599C327.415 56.403 326.424 52.5546 326.424 48.4146C326.424 43.9831 327.415 39.9305 329.398 36.257C331.381 32.5835 334.265 29.6389 338.05 27.4231C341.835 25.2074 346.432 24.0995 351.839 24.0995C357.187 24.0995 361.753 25.2074 365.538 27.4231C369.324 29.6389 372.178 32.5544 374.1 36.1696C376.083 39.7848 377.075 43.6624 377.075 47.8023C377.075 49.4933 376.954 50.9802 376.714 52.263H341.745C341.986 55.3534 343.127 57.715 345.17 59.3476C347.273 60.922 349.646 61.7092 352.29 61.7092C354.393 61.7092 356.406 61.2136 358.328 60.2223C360.251 59.231 361.573 57.8899 362.294 56.1989L374.551 59.5226C372.688 63.1378 369.774 66.0824 365.809 68.3565C361.903 70.6306 357.247 71.7676 351.839 71.7676ZM341.385 43.6915H361.933C361.633 40.776 360.521 38.4728 358.599 36.7818C356.736 35.0325 354.423 34.1579 351.659 34.1579C348.895 34.1579 346.552 35.0325 344.629 36.7818C342.767 38.5311 341.685 40.8343 341.385 43.6915Z" fill="#5C35E1"/>
<path d="M415.875 36.9568C412.39 37.0151 409.236 37.569 406.412 38.6186C403.588 39.6682 401.545 41.2425 400.283 43.3417V70.8929H385.863V24.9741H399.112V34.2454C400.734 31.155 402.837 28.7351 405.42 26.9858C408.004 25.2365 410.708 24.3327 413.532 24.2744C414.733 24.2744 415.514 24.3036 415.875 24.3619V36.9568Z" fill="#5C35E1"/>
<path d="M425.373 70.8929V8.79322H468.814V21.3881H440.154V34.7701H463.767V46.4029H440.154V70.8929H425.373Z" fill="#5C35E1"/>
<path d="M497.57 71.7676C492.162 71.7676 487.566 70.6597 483.78 68.4439C480.055 66.2282 477.201 63.3127 475.218 59.6975C473.236 56.0823 472.244 52.1756 472.244 47.9773C472.244 43.7207 473.236 39.7848 475.218 36.1696C477.201 32.5544 480.085 29.6389 483.87 27.4231C487.656 25.2074 492.222 24.0995 497.57 24.0995C502.917 24.0995 507.483 25.2074 511.269 27.4231C515.054 29.6389 517.938 32.5544 519.921 36.1696C521.903 39.7848 522.895 43.7207 522.895 47.9773C522.895 52.1756 521.903 56.0823 519.921 59.6975C517.938 63.3127 515.054 66.2282 511.269 68.4439C507.483 70.6597 502.917 71.7676 497.57 71.7676ZM487.025 47.9773C487.025 51.5342 488.016 54.4205 489.999 56.6362C492.042 58.852 494.565 59.9599 497.57 59.9599C500.514 59.9599 502.977 58.852 504.96 56.6362C507.003 54.4205 508.024 51.5342 508.024 47.9773C508.024 44.4204 507.003 41.5341 504.96 39.3183C502.977 37.1025 500.514 35.9946 497.57 35.9946C494.565 35.9946 492.042 37.1025 489.999 39.3183C488.016 41.5341 487.025 44.4204 487.025 47.9773Z" fill="#5C35E1"/>
<path d="M562.311 36.9568C558.826 37.0151 555.672 37.569 552.848 38.6186C550.024 39.6682 547.981 41.2425 546.72 43.3417V70.8929H532.3V24.9741H545.548V34.2454C547.17 31.155 549.273 28.7351 551.857 26.9858C554.44 25.2365 557.144 24.3327 559.968 24.2744C561.17 24.2744 561.951 24.3036 562.311 24.3619V36.9568Z" fill="#5C35E1"/>
<path d="M592.908 71.7676C587.62 71.7676 583.054 70.6597 579.208 68.4439C575.423 66.2282 572.509 63.3127 570.466 59.6975C568.484 56.0823 567.492 52.1464 567.492 47.8898C567.492 43.6915 568.484 39.7848 570.466 36.1696C572.509 32.5544 575.423 29.6389 579.208 27.4231C582.994 25.2074 587.56 24.0995 592.908 24.0995C598.315 24.0995 602.881 25.2365 606.607 27.5106C610.392 29.7264 613.216 32.6418 615.078 36.257L601.019 40.3679C599.156 37.4524 596.422 35.9946 592.817 35.9946C589.873 35.9946 587.38 37.0734 585.337 39.2308C583.294 41.3883 582.273 44.2746 582.273 47.8898C582.273 51.505 583.294 54.4205 585.337 56.6362C587.38 58.852 589.873 59.9599 592.817 59.9599C594.62 59.9599 596.272 59.5517 597.774 58.7354C599.276 57.8608 600.388 56.7529 601.109 55.4117L615.169 59.61C613.426 63.1669 610.632 66.0824 606.787 68.3565C603.002 70.6306 598.375 71.7676 592.908 71.7676Z" fill="#5C35E1"/>
<path d="M646.12 71.7676C640.773 71.7676 636.207 70.6889 632.421 68.5314C628.636 66.374 625.722 63.5168 623.679 59.9599C621.696 56.403 620.705 52.5546 620.705 48.4146C620.705 43.9831 621.696 39.9305 623.679 36.257C625.662 32.5835 628.546 29.6389 632.331 27.4231C636.116 25.2074 640.713 24.0995 646.12 24.0995C651.468 24.0995 656.034 25.2074 659.819 27.4231C663.605 29.6389 666.459 32.5544 668.381 36.1696C670.364 39.7848 671.355 43.6624 671.355 47.8023C671.355 49.4933 671.235 50.9802 670.995 52.263H636.026C636.267 55.3534 637.408 57.715 639.451 59.3476C641.554 60.922 643.927 61.7092 646.571 61.7092C648.674 61.7092 650.687 61.2136 652.609 60.2223C654.532 59.231 655.854 57.8899 656.575 56.1989L668.832 59.5226C666.969 63.1378 664.055 66.0824 660.09 68.3565C656.184 70.6306 651.528 71.7676 646.12 71.7676ZM635.666 43.6915H656.214C655.914 40.776 654.802 38.4728 652.88 36.7818C651.017 35.0325 648.704 34.1579 645.94 34.1579C643.176 34.1579 640.833 35.0325 638.91 36.7818C637.048 38.5311 635.966 40.8343 635.666 43.6915Z" fill="#5C35E1"/>
<path d="M103.555 50.6714L116.273 30.4961H80.8612C78.3647 30.4961 76.0386 31.7791 74.7046 33.8951L61.9866 54.0702H97.4026C99.8991 54.0702 102.221 52.7874 103.555 50.6714Z" fill="#3F278F"/>
<path d="M122.028 20.1753L134.746 0H67.1975C64.7011 0 62.3749 1.28302 61.041 3.399L48.323 23.5742H115.875C118.372 23.5742 120.694 22.2913 122.028 20.1753Z" fill="#3F278F"/>
<path d="M42.5281 84.6252H74.0319L61.6235 64.5069C60.298 62.3585 57.9617 61.0511 55.4443 61.0511H41.9221C31.5496 61.0511 23.1409 52.6612 23.1409 42.3124C23.1409 31.9635 31.5496 23.5741 41.9221 23.5741H54.9498C57.4433 23.5741 59.7632 22.2915 61.095 20.1754L73.7982 0H42.5281C19.106 0 0.118805 18.944 0.118805 42.3124C0.118805 65.6812 19.106 84.6252 42.5281 84.6252Z" fill="#5F37E9"/>
</svg>
