<svg width="1600" height="882" viewBox="0 0 1600 882" fill="none" xmlns="http://www.w3.org/2000/svg">
<mask id="mask0_1014_1460" style="mask-type:luminance" maskUnits="userSpaceOnUse" x="-5" y="0" width="1720" height="960">
<path d="M1715 0H-5V959.189H1715V0Z" fill="white"/>
</mask>
<g mask="url(#mask0_1014_1460)">
<path d="M1202.37 766.587C1169.03 766.344 1137.34 754.118 1109.38 732.026C1079.72 708.559 1053.02 674.748 1026.57 639.698C970.43 565.324 916.161 495.859 845.143 466.018C797.263 445.945 748.786 443.404 700.005 442.854C651.288 442.308 602.453 443.234 554.415 440.966C506.092 438.681 453.891 432.726 402.823 432.293C350.974 431.86 300.361 437.455 257.35 443.687C203.075 451.554 170.657 459.177 128.323 473.555C107.389 480.666 81.5997 489.678 53.0695 497.491C25.2117 505.118 -5.4787 511.499 -36.4592 521.568C-107.761 544.771 -145.372 588.897 -166.575 631.611C-200.811 700.643 -224.536 776.419 -241.3 850.579C-246.371 873.03 -250.456 894.992 -248.296 915.874C-246.258 935.471 -238.129 955.008 -219.322 975.144C-168.469 1029.49 -55.758 1078.06 46.7731 1078.76C167.272 1079.51 288.266 1038.11 410.597 998.837C532.209 959.797 653.803 926.888 775.2 914.156C894.255 901.699 1013.25 904.667 1130.66 914.505C1247.28 924.294 1363.4 941.546 1475.87 976.276C1570.76 1005.6 1665.81 1045.89 1745.45 1029.1C1780.37 1021.7 1808.98 1003.74 1830.36 978.045C1849.93 954.482 1862.56 925.213 1864.13 890.366C1865.06 869.587 1861.8 846.693 1854.23 823.219C1847.09 801.095 1835.95 777.931 1821.31 754.994C1810.29 737.718 1791.95 710.574 1770.25 692.237C1748.69 674.035 1728.13 668.184 1711.05 663.458C1667.26 651.341 1615.29 648.773 1561.7 657.489C1505.44 666.662 1447.15 687.581 1390.02 710.484C1322.82 737.425 1259.11 766.95 1202.37 766.587Z" fill="#E8E1F7" fill-opacity="0.29"/>
<path d="M843.125 538.48C796.203 512.562 749.726 500.942 703.166 491.603C656.317 482.211 609.652 474.684 562.7 466.278C558.226 465.462 553.714 464.636 549.165 463.8C478.061 450.781 398.201 440.553 327.732 445.286C306.88 446.675 286.892 448.779 268.064 451.028C223.365 456.366 191.054 461.555 156.527 471.78C148.514 474.158 140.365 476.812 131.98 479.677C87.6249 494.841 26.3533 515.566 -33.3928 537.648C-98.6709 564.981 -133.617 607.026 -153.547 647.818C-186.074 714.415 -208.365 787.127 -224.572 858.09C-229.804 881.017 -233.817 903.462 -231.606 924.61C-229.51 944.517 -221.334 964.147 -202.758 983.94C-152.305 1037.6 -41.4161 1082.82 59.6714 1083.17C179.089 1083.55 299.072 1044.52 420.414 1007.27C541.06 970.235 661.729 938.565 782.276 925.856C900.55 913.417 1018.8 915.698 1135.43 925.743C1251.25 935.734 1366.52 954.102 1478.15 989.429C1519.17 1002.42 1560.52 1017.65 1600.72 1029.68C1652.76 1045.23 1702.42 1055.09 1746.89 1046.22C1780.62 1039.46 1808.59 1021.78 1829.62 996.306C1849 972.786 1861.67 943.308 1863.63 908.337C1864.81 887.265 1861.93 864.075 1854.63 840.095C1847.72 817.374 1836.69 793.448 1821.72 769.472C1810.08 750.824 1791.33 722.601 1769.47 704.56C1758.21 695.268 1747.2 689.389 1736.75 685.496C1727.24 681.956 1718.08 680.007 1709.76 677.936C1663.54 666.452 1610.1 664.304 1554.85 672.51C1501.87 680.497 1447.27 698.159 1393.62 718.821C1347.91 736.423 1303.64 755.75 1261.06 768.832C1242.72 774.474 1224.86 778.847 1207.64 781.025C1173.93 785.298 1141.59 780.892 1112.02 767.09C1081.56 752.856 1053.03 728.739 1025.56 701.409C996.631 672.627 968.784 640.927 939.325 612.338C909.136 583.046 877.682 557.534 843.125 538.48Z" fill="#5100FF" fill-opacity="0.12"/>
<path d="M840.854 614.184C747.991 551.99 662.554 522.505 570.93 492.837C566.541 491.418 562.105 489.976 557.627 488.564C488.015 466.669 408.827 452.84 338.416 455.795C317.684 456.637 297.719 458.339 278.707 460.347C233.243 465.153 198.454 470.605 161.662 480.93C153.089 483.348 144.349 486.082 135.452 489.043C88.3673 504.713 27.0787 529.439 -30.2171 552.709C-89.3694 582.857 -121.585 623.926 -140.372 663.366C-171.104 727.858 -192.167 797.366 -207.78 864.992C-213.189 888.435 -217.137 911.386 -214.871 932.821C-212.721 953.061 -204.493 972.804 -186.154 992.287C-136.113 1045.35 -27.0672 1087.4 72.587 1087.53C190.909 1087.68 309.889 1051.03 430.234 1015.83C549.908 980.817 669.656 950.433 789.339 937.847C906.825 925.524 1024.31 927.242 1140.15 937.504C1255.18 947.712 1369.58 967.085 1480.39 1002.89C1521.15 1016.06 1562.17 1031.39 1602.14 1043.98C1653.88 1060.26 1703.7 1071.84 1748.31 1063.54C1780.81 1057.46 1808.12 1040.18 1828.79 1015.08C1847.96 991.758 1860.68 962.266 1863.01 927.366C1864.43 906.124 1861.89 882.74 1854.85 858.387C1848.14 835.19 1837.2 810.648 1821.93 785.832C1809.63 765.872 1790.43 737.097 1768.4 719.402C1757.21 710.409 1746.21 704.967 1735.75 701.36C1726.14 698.05 1716.81 696.148 1708.27 694.103C1661.57 682.926 1608.99 679.922 1554.45 686.15C1502.82 692.061 1449.65 707.149 1397.32 726.296C1352.6 742.642 1309.07 761.556 1266.81 776.557C1248.48 783.074 1230.59 788.76 1213.19 792.866C1145.82 808.796 1081.79 795.178 1025.11 757.489C995.111 737.533 966.107 712.687 936.365 687.765C905.63 662.013 874.383 636.562 840.854 614.184Z" fill="#5100FF" fill-opacity="0.2"/>
<path d="M838.965 686.099C747.16 617.098 669.02 562.234 579.163 520.023C574.857 518.001 570.495 515.97 566.089 513.991C498.026 483.521 419.391 466.002 349.066 467.601C328.449 468.034 308.475 469.512 289.292 471.501C242.955 476.31 205.712 482.938 166.602 493.815C157.46 496.38 148.133 499.261 138.71 502.335C89.0077 518.551 27.6133 545.015 -27.0036 568.109C-79.897 599.832 -109.331 640.418 -127.06 678.762C-155.942 741.166 -175.937 807.257 -190.909 871.336C-196.512 895.332 -200.399 918.799 -198.086 940.544C-195.881 961.133 -187.598 981.01 -169.497 1000.21C-119.88 1052.75 -12.6907 1091.83 85.5335 1091.86C202.746 1091.94 320.727 1057.7 440.072 1024.55C558.769 991.578 677.589 962.516 796.399 950.153C913.086 938.04 1029.8 939.315 1144.84 949.803C1259.08 960.237 1372.62 980.51 1482.62 1016.66C1523.13 1029.98 1563.81 1045.36 1603.55 1058.48C1655 1075.46 1704.95 1088.73 1749.72 1081.06C1780.96 1075.68 1807.6 1058.92 1827.9 1034.36C1846.85 1011.4 1859.62 982.096 1862.3 947.472C1865.46 906.207 1853.49 855.726 1821.94 804.109C1808.96 782.884 1789.26 754.065 1767.08 736.68C1755.97 727.987 1744.99 722.808 1734.54 719.295C1724.84 716.037 1715.37 713.996 1706.63 711.828C1659.62 700.177 1607.92 695.698 1554.1 699.538C1503.85 703.138 1452.12 715.528 1401.14 733.013C1357.43 747.98 1314.64 766.311 1272.76 782.688C1254.48 789.848 1236.56 796.549 1219.03 802.178C1150.88 824.116 1085.86 827.546 1025.52 804.909C963.044 781.425 903.339 734.259 838.965 686.099Z" fill="#5100FF" fill-opacity="0.41"/>
<path d="M838.022 747.817C746.951 676.614 675.704 601.104 587.442 547.22C583.21 544.639 578.923 542.061 574.583 539.553C508.011 501.192 429.901 479.93 359.681 480.52C339.164 480.7 319.163 482.105 299.819 484.29C252.506 489.645 212.857 498.315 171.318 510.534C161.602 513.395 151.671 516.579 141.699 519.873C89.4265 537.142 27.817 563.836 -23.8546 584.975C-70.3288 617.178 -96.9581 657.217 -113.673 694.462C-140.675 754.528 -159.718 816.915 -173.996 877.171C-179.818 901.754 -183.647 925.747 -181.282 947.811C-179.023 968.76 -170.679 988.79 -152.821 1007.74C-103.64 1059.82 1.67575 1096.13 98.4803 1096.2C214.58 1096.32 331.557 1064.52 449.896 1033.43C567.61 1002.51 685.499 974.812 803.428 962.769C1033.68 939.332 1266.47 958.026 1484.81 1030.71C1525.07 1044.13 1565.42 1059.52 1604.93 1073.16C1656.09 1090.8 1706.17 1105.68 1751.12 1098.73C1781.06 1094.08 1807.01 1077.96 1826.93 1054.12C1845.65 1031.67 1858.47 1002.78 1861.45 968.644C1865.04 927.435 1853.79 876.835 1821.74 824.319C1808.03 801.865 1787.82 773.422 1765.49 756.306C1754.47 747.867 1743.52 742.788 1733.11 739.181C1723.34 735.801 1713.77 733.446 1704.82 731.005C1657.67 718.152 1606.83 711.614 1553.76 712.733C1504.94 713.776 1454.66 723.398 1405.02 739.084C1362.34 752.553 1320.34 770.135 1278.87 787.34C1260.66 794.907 1242.75 802.321 1225.14 809.055C1156.23 835.46 1090.5 850.993 1026.98 841.418C963.763 831.856 900.85 796.702 838.022 747.817Z" fill="#5100FF" fill-opacity="0.63"/>
<path d="M838.471 794.447C747.885 726.171 682.494 637.723 595.829 573.774C591.665 570.703 587.447 567.656 583.164 564.678C517.903 519.426 440.401 494.231 370.29 494.301C349.872 494.328 329.812 495.856 310.319 498.447C261.934 504.885 219.78 516.605 175.831 531C165.508 534.384 154.976 538.047 144.431 541.727C89.5718 560.881 27.6587 586.929 -20.8119 604.161C-60.7063 635.934 -84.5065 674.931 -100.212 710.828C-125.322 768.086 -143.498 826.413 -157.019 882.506C-163.087 907.698 -166.869 932.221 -164.446 954.612C-162.128 975.93 -153.716 996.12 -136.103 1014.85C-87.3732 1066.56 16.0623 1100.3 111.44 1100.51C226.418 1100.83 342.395 1071.47 459.723 1042.46C576.451 1013.6 693.408 987.307 810.443 975.667C1039.09 953.003 1270.22 972.123 1486.98 1045.01C1526.99 1058.48 1567.01 1073.84 1606.31 1087.97C1657.17 1106.25 1707.34 1122.65 1752.51 1116.5C1781.12 1112.58 1806.36 1097.23 1825.89 1074.27C1844.37 1052.52 1857.22 1024.25 1860.5 990.834C1864.49 949.975 1853.82 899.551 1821.33 846.473C1806.84 822.823 1786.1 795.153 1763.64 778.217C1752.71 769.984 1741.82 764.832 1731.47 760.959C1721.65 757.285 1711.99 754.454 1702.85 751.6C1655.68 736.876 1605.74 727.76 1553.43 725.825C1506.07 724.087 1457.25 730.851 1408.98 744.606C1367.34 756.453 1326.15 773.122 1285.14 790.647C1267.03 798.397 1249.16 806.224 1231.5 813.654C1161.98 842.949 1095.39 865.98 1029.62 865.797C965.571 865.58 900.275 840.838 838.471 794.447Z" fill="#5100FF" fill-opacity="0.73"/>
<path d="M840.548 823.402C750.388 762.796 689.342 670.821 604.366 599.111C600.264 595.651 596.104 592.221 591.872 588.857C527.655 537.936 450.866 508.691 380.909 508.711C360.58 508.685 340.455 510.516 320.808 513.707C271.266 521.767 226.549 537.507 180.147 555.075C169.189 559.225 158.05 563.588 146.907 567.865C89.4168 589.936 27.1453 614.911 -17.9125 626.285C-51.0771 656.906 -72.0174 694.044 -86.692 728.152C-109.909 781.967 -127.283 835.811 -139.971 887.351C-152.335 937.625 -154.042 984.462 -119.334 1021.53C-71.0687 1072.92 30.4761 1104.32 124.428 1104.79C238.282 1105.42 353.253 1078.51 469.568 1051.59C585.302 1024.8 701.324 999.956 817.461 988.808C1044.49 967.08 1273.92 986.637 1489.14 1059.5C1528.91 1072.98 1568.6 1088.27 1607.69 1102.86C1658.26 1121.74 1708.5 1139.54 1753.91 1134.29C1781.15 1131.12 1805.68 1116.64 1824.81 1094.73C1843.02 1073.85 1855.91 1046.43 1859.44 1013.97C1863.8 973.768 1853.61 923.88 1820.72 870.568C1805.4 845.769 1784.13 819.242 1761.55 802.403C1750.72 794.326 1739.9 788.948 1729.63 784.648C1719.78 780.521 1710.05 777.071 1700.73 773.66C1653.65 756.448 1604.63 744.272 1553.11 738.936C1507.24 734.2 1459.91 738.007 1413.01 749.697C1372.43 759.799 1332.1 775.399 1291.57 792.764C1273.59 800.481 1255.77 808.441 1238.11 816.178C1168.21 846.825 1100.64 873.349 1033.47 877.952C968.484 882.372 901.875 864.504 840.548 823.402Z" fill="#5100FF" fill-opacity="0.52"/>
<path d="M844.242 834.81C800.297 810.497 762.918 778.268 726.951 741.396C689.678 703.171 654.592 661.04 613.09 622.793C609.036 619.056 604.927 615.352 600.739 611.709C537.249 556.515 461.344 523.327 391.548 523.603C371.297 523.66 351.107 525.935 331.296 529.918C280.526 540.143 233.161 561.005 184.26 582.78C172.644 587.976 160.877 593.268 149.12 598.37C88.9164 624.498 26.3309 648.168 -15.2016 651.852C-41.4964 680.774 -59.5462 715.035 -73.1526 746.778C-94.4752 796.389 -111.109 845.281 -122.882 891.829C-135.905 943.388 -136.741 991.158 -102.543 1027.87C-54.7548 1079.03 44.8892 1108.3 137.418 1109.13C250.143 1110.19 364.106 1085.73 479.408 1060.91C594.149 1036.2 709.229 1012.84 824.459 1002.25C1049.87 981.613 1277.56 1001.61 1491.28 1074.22C1530.82 1087.67 1570.18 1102.85 1609.05 1117.88C1659.34 1137.31 1709.63 1156.36 1755.32 1152.12C1781.16 1149.7 1804.95 1136.2 1823.68 1115.51C1841.61 1095.66 1854.52 1069.33 1858.29 1038.06C1862.99 998.855 1853.14 949.919 1819.89 896.734C1803.7 870.86 1781.87 845.851 1759.19 829.048C1748.46 821.098 1737.72 815.347 1727.55 810.474C1717.68 805.741 1707.91 801.532 1698.41 797.425C1651.5 777.152 1603.48 761.459 1552.77 752.34C1508.42 744.38 1462.6 745.096 1417.07 754.591C1377.58 762.824 1338.13 777.206 1298.12 793.985C1280.29 801.475 1262.57 809.312 1244.92 817.009C1174.86 847.586 1106.34 874.15 1038.41 879.073C972.522 883.809 905.562 868.698 844.242 834.81Z" fill="#5100FF" fill-opacity="0.81"/>
<path d="M849.332 831.36C805.687 812.959 768.321 789.156 733.341 757.599C696.58 724.418 662.78 683.715 622.053 644.342C618.036 640.459 613.962 636.602 609.812 632.785C546.718 574.827 471.843 537.795 402.234 538.708C382.055 538.964 361.804 541.835 341.813 546.811C289.738 559.793 239.674 586.881 188.183 614.078C175.891 620.582 163.468 627.073 151.073 633.238C88.0887 664.561 25.3701 686.743 -12.6781 681.018C-31.9769 707.848 -47.0918 738.099 -59.5788 766.805C-79.0073 811.377 -94.9548 854.794 -105.722 895.879C-119.56 948.751 -119.376 997.383 -85.6962 1033.79C-38.3996 1084.77 59.3367 1112.12 150.435 1113.43C262.034 1115.03 374.984 1093.03 489.262 1070.3C603.003 1047.68 717.145 1025.84 831.456 1015.89C1055.24 996.481 1281.16 1016.9 1493.42 1089.06C1532.72 1102.43 1571.76 1117.46 1610.43 1132.9C1660.43 1152.85 1710.75 1172.97 1756.75 1169.84C1805.41 1166.47 1848.98 1123.56 1857.06 1062.92C1862.08 1025.05 1852.44 977.563 1818.85 924.885C1801.73 898.057 1779.33 874.954 1756.56 858.194C1745.93 850.348 1735.3 844.106 1725.25 838.531C1715.36 833.049 1705.57 827.95 1695.91 823.011C1649.2 799.138 1602.27 779.478 1552.4 766.146C1509.62 754.725 1465.32 752.184 1421.18 759.351C1382.8 765.586 1344.26 778.612 1304.79 794.445C1287.12 801.536 1269.52 809.036 1251.92 816.396C1181.9 845.685 1112.48 869.422 1044.26 871.243C977.537 872.989 910.877 857.302 849.332 831.36Z" fill="#5100FF"/>
</g>
<mask id="mask1_1014_1460" style="mask-type:luminance" maskUnits="userSpaceOnUse" x="-5" y="0" width="1720" height="960">
<path d="M1715 0H-5V959.189H1715V0Z" fill="white"/>
</mask>
<g mask="url(#mask1_1014_1460)">
<g opacity="0.3">
<path d="M1324.45 713.883C1280.49 716.684 1237.52 703.538 1198.51 677.041C1157.11 648.891 1118.6 606.83 1080.28 563.117C998.994 470.359 920.645 383.892 824.121 351.213C759.047 329.241 694.909 330.43 630.569 334.27C566.312 338.114 502.047 343.902 438.516 345.414C374.61 346.926 305.227 343.969 237.884 348.175C169.507 352.462 103.359 364.572 47.2847 376.811C-23.4708 392.261 -65.4436 405.344 -119.822 428.258C-146.71 439.588 -179.813 453.883 -216.643 466.848C-252.606 479.508 -292.429 490.791 -332.265 506.961C-423.951 544.216 -469.179 605.891 -492.925 664.165C-531.256 758.345 -555.077 860.432 -569.878 959.731C-574.355 989.793 -577.577 1019.12 -572.68 1046.44C-568.069 1072.07 -555.435 1097.06 -528.67 1121.83C-456.31 1188.69 -302.995 1242.16 -167.804 1233.48C-8.92584 1223.18 146.458 1157.3 303.814 1094.08C460.245 1031.25 617.256 976.497 775.991 948.348C931.665 920.784 1088.78 913.557 1244.48 915.529C1399.13 917.507 1553.86 929.374 1705.5 964.614C1833.43 994.375 1962.66 1038.57 2065.97 1008.99C2111.25 995.967 2147.2 969.62 2172.85 933.753C2196.33 900.868 2210.08 861.115 2208.73 815.044C2207.91 787.57 2201.36 757.709 2189.08 727.481C2177.49 698.992 2160.54 669.51 2139 640.651C2122.77 618.916 2095.93 584.862 2065.53 562.724C2035.32 540.756 2007.65 534.967 1984.68 530.338C1925.78 518.468 1857.03 519.953 1787.27 536.453C1714.02 553.808 1639.26 586.834 1566.23 622.367C1480.32 664.175 1399.26 709.047 1324.45 713.883Z" fill="#E8E1F7" fill-opacity="0.29"/>
<path d="M828.584 446.902C764.203 417.14 701.806 406.176 639.527 398.229C576.86 390.24 514.623 384.688 451.921 378.007C445.945 377.35 439.915 376.684 433.841 376.008C338.855 365.507 232.604 359.506 140.198 372.341C112.856 376.121 86.7213 380.768 62.1294 385.494C3.74493 396.717 -38.3302 406.576 -82.825 423.285C-93.1484 427.172 -103.632 431.428 -114.399 435.991C-171.364 460.127 -250.074 493.176 -326.645 527.87C-409.987 570.004 -451.908 628.688 -474.163 684.311C-510.48 775.124 -532.711 873.035 -547.092 968.074C-551.733 998.778 -554.815 1028.73 -549.822 1056.4C-545.106 1082.44 -532.397 1107.54 -505.972 1131.89C-434.207 1197.89 -283.625 1247.1 -150.369 1238.1C7.04504 1227.41 161.333 1164.74 317.584 1104.29C472.94 1044.19 628.856 991.155 786.471 963.118C941.118 935.652 1097.18 927.588 1251.87 929.903C1405.49 932.228 1559.21 945.643 1709.79 981.746C1765.13 995.025 1821.12 1011.23 1875.29 1023.31C1945.4 1038.93 2011.82 1047.27 2069.55 1031.42C2113.32 1019.37 2148.46 993.449 2173.66 957.899C2196.89 925.087 2210.7 885.054 2209.85 838.784C2209.32 810.904 2203.24 780.609 2191.28 749.692C2179.93 720.397 2163.04 689.899 2140.96 659.698C2123.79 636.215 2096.3 600.775 2065.71 579.043C2049.96 567.853 2034.87 561.135 2020.72 556.982C2007.84 553.205 1995.58 551.493 1984.4 549.545C1922.37 538.737 1851.73 540.912 1779.73 556.899C1710.69 572.385 1640.47 600.771 1571.8 633.028C1513.28 660.501 1456.84 690.119 1402.02 711.345C1378.39 720.497 1355.3 727.931 1332.82 732.414C1288.81 741.203 1245.76 738.418 1205.43 723.001C1163.89 707.095 1123.92 677.983 1085.03 644.534C1044.08 609.311 1004.26 570.144 962.628 535.224C919.959 499.447 875.997 468.773 828.584 446.902Z" fill="#5100FF" fill-opacity="0.12"/>
<path d="M833.032 546.893C704.538 473.622 589.042 442.765 465.376 412.244C459.451 410.782 453.465 409.299 447.425 407.857C353.531 385.523 247.809 374.712 155.312 385.193C128.075 388.247 101.93 392.357 77.072 396.787C17.6262 407.378 -27.6841 417.819 -75.1548 434.868C-86.2153 438.858 -97.4636 443.281 -108.896 448.013C-169.41 473.076 -247.749 511.396 -320.971 547.426C-395.965 592.694 -434.382 649.836 -455.261 703.571C-489.422 791.44 -510.349 885.014 -524.276 975.601C-529.098 1007 -532.047 1037.61 -526.955 1065.65C-522.133 1092.13 -509.346 1117.37 -483.262 1141.33C-412.097 1206.58 -264.256 1251.79 -132.911 1242.62C23.0353 1231.75 176.235 1172.32 331.373 1114.65C485.647 1057.31 640.471 1006.05 796.96 978.258C950.579 951.018 1105.58 942.285 1259.25 944.963C1411.85 947.648 1564.53 962.468 1714.08 999.274C1769.1 1012.83 1824.65 1029.19 1878.56 1042.03C1948.36 1058.64 2015.15 1069.24 2073.12 1054.12C2115.35 1043.07 2149.65 1017.74 2174.42 982.725C2197.4 950.189 2211.27 910.133 2210.91 863.922C2210.68 835.795 2205.04 805.215 2193.36 773.781C2182.24 743.84 2165.41 712.516 2142.84 681.243C2124.68 656.091 2096.54 619.965 2065.77 598.706C2050.15 587.905 2035.11 581.76 2020.97 577.987C2007.97 574.523 1995.49 572.891 1984.04 570.996C1921.39 560.638 1851.8 561.604 1780.54 574.916C1713.08 587.542 1644.49 612.401 1577.41 642.532C1520.09 668.26 1464.57 697.263 1410.35 720.993C1386.85 731.297 1363.82 740.466 1341.29 747.507C1254.08 774.81 1168.35 762.854 1089.94 718.495C1048.45 695.001 1007.78 664.977 966.131 634.915C923.1 603.858 879.421 573.241 833.032 546.893Z" fill="#5100FF" fill-opacity="0.2"/>
<path d="M837.611 641.849C709.84 559.509 601.469 494.523 478.895 447.303C473.019 445.042 467.074 442.774 461.071 440.579C368.379 406.794 263.025 391.068 170.5 399.76C143.369 402.262 117.194 406.078 92.1104 410.498C31.5179 421.176 -16.9117 433.395 -67.3889 451.39C-79.1866 455.623 -91.1924 460.296 -103.311 465.228C-167.217 491.253 -245.528 531.879 -315.236 567.425C-381.821 614.182 -416.627 670.425 -436.223 722.621C-468.152 807.565 -488.004 896.537 -501.436 982.388C-506.463 1014.54 -509.279 1045.83 -504.088 1074.27C-499.16 1101.19 -486.287 1126.62 -460.549 1150.23C-389.995 1214.81 -244.894 1256.28 -115.44 1247.13C39.0396 1236.25 191.157 1180.09 345.179 1125.22C498.365 1070.66 652.097 1021.23 807.46 993.818C960.048 966.931 1113.98 957.685 1266.63 960.732C1418.2 963.786 1569.84 979.873 1718.36 1017.21C1773.06 1030.97 1828.17 1047.44 1881.84 1061.01C1951.31 1078.56 2018.45 1091.38 2076.7 1077.08C2117.34 1067.07 2150.8 1042.49 2175.13 1008.23C2197.86 976.183 2211.81 936.373 2211.93 890.492C2212.04 835.815 2191.3 770.403 2144.65 705.335C2125.45 678.581 2096.66 642.442 2065.72 621.609C2050.22 611.191 2035.24 605.396 2021.12 601.743C2008.03 598.356 1995.34 596.554 1983.61 594.516C1920.52 583.561 1851.94 582.502 1781.38 592.601C1715.52 602.049 1648.57 623.221 1583.09 651.038C1526.96 674.858 1472.38 703.02 1418.78 728.519C1395.4 739.663 1372.45 750.174 1349.9 759.233C1262.24 794.526 1176.88 805.134 1095.13 780.951C1010.51 755.859 927.184 699.287 837.611 641.849Z" fill="#5100FF" fill-opacity="0.41"/>
<path d="M842.437 723.252C715.417 637.94 614.097 545.099 492.482 482.349C486.65 479.341 480.749 476.35 474.78 473.45C383.276 429.13 278.25 408.418 185.762 415.772C158.741 417.93 132.518 421.657 107.243 426.346C45.4152 437.833 -5.98343 452.974 -59.5253 472.967C-72.0499 477.646 -84.8236 482.775 -97.6451 488.047C-164.838 515.701 -243.405 556.646 -309.424 589.342C-367.504 636.132 -398.662 691.395 -417.029 742.042C-446.71 823.73 -465.67 907.732 -478.567 988.477C-483.823 1021.42 -486.512 1053.4 -481.226 1082.25C-476.188 1109.65 -463.224 1135.26 -437.826 1158.57C-367.893 1222.6 -225.526 1260.59 -97.9488 1251.61C55.0698 1240.91 206.102 1188.05 359.005 1136C511.098 1084.23 663.738 1036.69 817.972 1009.77C1119.11 957.327 1427.74 960.168 1722.63 1035.52C1777.01 1049.43 1831.69 1065.94 1885.11 1080.21C1954.27 1098.67 2021.72 1113.6 2080.28 1100.23C2119.28 1091.29 2151.89 1067.62 2175.8 1034.34C2198.27 1003.01 2212.31 963.728 2212.9 918.463C2213.57 863.819 2193.77 798.185 2146.37 731.981C2126.09 703.675 2096.66 668.082 2065.55 647.616C2050.2 637.524 2035.27 631.856 2021.19 628.075C2007.99 624.535 1995.14 622.327 1983.1 619.949C1919.71 607.423 1852.07 603.57 1782.23 610.014C1718 615.959 1652.68 633.344 1588.81 658.666C1533.88 680.415 1480.26 707.515 1427.3 734.073C1404.05 745.753 1381.17 757.196 1358.62 767.721C1270.4 808.969 1185.31 835.593 1100.65 828.926C1016.41 822.228 930.041 781.792 842.437 723.252Z" fill="#5100FF" fill-opacity="0.63"/>
<path d="M847.612 784.656C721.52 703.158 626.646 592.715 506.144 516.553C500.356 512.896 494.496 509.272 488.558 505.749C398.105 452.224 293.489 426.276 201.1 432.93C174.194 434.879 147.91 438.769 122.475 444.008C59.3434 457.023 4.94156 476.417 -51.5659 499.501C-64.8413 504.926 -78.3556 510.741 -91.8904 516.58C-162.301 546.961 -241.339 587.087 -303.519 614.33C-352.972 659.942 -380.502 713.56 -397.672 762.335C-425.137 840.146 -443.354 918.716 -455.66 993.906C-461.182 1027.67 -463.752 1060.35 -458.356 1089.63C-453.206 1117.51 -440.136 1143.33 -415.083 1166.36C-345.781 1229.94 -206.147 1264.73 -80.4305 1256.08C71.1274 1245.73 221.085 1196.17 372.858 1146.96C523.853 1098 675.404 1052.4 828.501 1026.11C1127.6 974.832 1434.07 978.389 1726.91 1054.15C1780.96 1068.16 1835.21 1084.66 1888.39 1099.6C1957.22 1118.92 2024.95 1135.84 2083.87 1123.51C2121.18 1115.67 2152.94 1093.07 2176.42 1060.98C2198.63 1030.59 2212.79 992.134 2213.82 947.785C2215.06 893.561 2196.06 828.109 2148.02 761.199C2126.6 731.391 2096.55 696.864 2065.28 676.648C2050.07 666.819 2035.2 661.054 2021.18 656.918C2007.88 652.998 1994.88 650.17 1982.55 647.266C1918.94 632.275 1852.22 624.941 1783.1 627.289C1720.51 629.434 1656.84 642.919 1594.58 665.564C1540.86 685.077 1488.23 710.899 1435.9 737.832C1412.8 749.742 1390.01 761.729 1367.47 773.176C1278.74 818.291 1193.24 854.877 1106.54 860.795C1022.11 866.497 933.622 840.003 847.612 784.656Z" fill="#5100FF" fill-opacity="0.73"/>
<path d="M853.195 822.64C728.419 751.211 638.922 635.712 519.887 549.168C514.14 544.992 508.321 540.859 502.414 536.825C412.779 475.734 308.705 444.377 216.511 450.955C189.715 452.823 163.376 457.123 137.797 463.168C73.3008 478.425 15.9163 503.36 -43.5124 530.857C-57.5454 537.352 -71.7968 544.146 -86.0585 550.823C-159.657 585.294 -239.268 624.038 -297.53 643.249C-338.226 686.709 -362.173 737.612 -378.162 783.936C-403.467 857.028 -421.073 929.62 -432.727 998.731C-444.078 1066.14 -441.727 1128.03 -392.338 1173.63C-323.678 1236.84 -186.767 1268.72 -62.9034 1260.54C87.2042 1250.7 236.076 1204.47 386.72 1158.11C536.612 1111.97 687.071 1068.36 839.028 1042.8C1136.09 992.909 1440.37 997.199 1731.17 1073.08C1784.91 1087.11 1838.72 1103.55 1891.66 1119.12C1960.17 1139.26 2028.13 1158.02 2087.46 1146.85C2123.05 1140.11 2153.95 1118.73 2177.01 1088.07C2198.96 1058.85 2213.25 1021.51 2214.71 978.398C2216.51 925.014 2198.17 860.218 2149.58 793.045C2126.96 761.798 2096.31 728.83 2064.9 708.753C2049.83 699.125 2035.04 693.05 2021.08 688.344C2007.69 683.831 1994.54 680.191 1981.91 676.567C1918.18 658.293 1852.39 646.836 1783.97 644.627C1723.05 642.679 1661.05 652.128 1600.38 671.924C1547.9 689.037 1496.28 713.369 1444.58 740.05C1421.64 751.903 1398.95 764.06 1376.43 775.913C1287.32 822.847 1200.89 864.128 1112.82 876.481C1027.59 888.378 938.055 871.066 853.195 822.64Z" fill="#5100FF" fill-opacity="0.52"/>
<path d="M859.194 837.305C798.888 809.378 746.459 770.405 695.435 725.176C642.559 678.292 592.174 626.053 533.721 579.533C528.012 574.99 522.231 570.494 516.354 566.081C427.259 499.287 323.96 462.658 232.005 469.552C205.321 471.524 178.94 476.41 153.222 483.514C87.3198 501.742 26.9458 533.671 -35.3565 566.947C-50.1539 574.88 -65.1425 582.956 -80.1345 590.783C-156.903 630.853 -237.061 667.908 -291.428 676.647C-323.238 717.226 -343.656 764.067 -358.467 807.173C-381.691 874.55 -398.805 940.541 -409.747 1002.99C-421.841 1072.16 -418.244 1135.19 -369.569 1180.37C-301.564 1243.31 -167.366 1272.55 -45.342 1264.99C103.322 1255.83 251.109 1212.93 400.616 1169.42C549.403 1126.11 698.77 1084.55 849.584 1059.81C1144.62 1011.51 1446.65 1016.54 1735.45 1092.23C1788.87 1106.25 1842.24 1122.57 1894.95 1138.74C1963.13 1159.65 2031.28 1180.04 2091.07 1170.17C2124.89 1164.55 2154.92 1144.54 2177.57 1115.51C2199.25 1087.68 2213.68 1051.77 2215.57 1010.21C2217.91 958.096 2200.11 894.53 2151.07 827.553C2127.19 794.967 2095.95 764.057 2064.42 744.037C2049.49 734.565 2034.78 727.987 2020.9 722.518C2007.42 717.21 1994.14 712.573 1981.21 708.051C1917.39 685.726 1852.57 669.54 1784.84 662.269C1725.61 655.931 1665.29 661.164 1606.23 677.943C1555 692.49 1504.42 715.135 1453.34 740.996C1430.58 752.533 1407.99 764.523 1385.5 776.32C1296.17 823.177 1208.48 864.598 1119.44 877.447C1033.07 889.863 943.334 876.218 859.194 837.305Z" fill="#5100FF" fill-opacity="0.81"/>
<path d="M865.563 832.321C806.234 812.158 754.654 784.285 705.45 745.971C653.74 705.682 605.195 655.208 547.65 607.132C541.975 602.392 536.228 597.69 530.378 593.047C441.532 522.577 339.216 480.779 247.568 488.499C220.997 490.727 194.593 496.405 168.735 504.835C101.382 526.82 38.0693 567.202 -27.1167 607.868C-42.6786 617.593 -58.4111 627.308 -74.1402 636.594C-154.062 683.774 -234.537 718.877 -285.243 714.894C-308.04 752.059 -324.987 793.344 -338.621 832.345C-359.845 892.907 -376.594 951.617 -386.743 1006.77C-399.78 1077.74 -394.763 1141.82 -346.794 1186.64C-279.452 1249.4 -147.96 1276.29 -27.7719 1269.48C119.459 1261.15 266.15 1221.58 414.521 1180.93C562.195 1140.46 710.47 1100.99 860.141 1077.18C1153.15 1030.65 1452.9 1036.4 1739.73 1111.63C1792.83 1125.57 1845.76 1141.73 1898.24 1158.45C1966.09 1180.06 2034.39 1201.86 2094.7 1193.44C2158.49 1184.44 2211.69 1123.8 2216.38 1043.14C2219.27 992.762 2201.91 931.078 2152.46 864.8C2127.26 831.046 2095.46 802.696 2063.81 782.743C2049.03 773.401 2034.41 766.171 2020.61 759.763C2007.05 753.465 1993.64 747.66 1980.42 742.058C1916.51 714.967 1852.73 693.452 1785.7 680.553C1728.19 669.509 1669.57 670.305 1612.1 683.884C1562.13 695.694 1512.62 716.469 1462.16 741.029C1439.58 752.026 1417.12 763.559 1394.65 774.91C1305.25 820.065 1216.09 857.846 1126.36 866.636C1038.61 875.182 949.222 860.744 865.563 832.321Z" fill="#5100FF"/>
</g>
</g>
</svg>
