<svg width="791" height="449" viewBox="0 0 791 449" fill="none" xmlns="http://www.w3.org/2000/svg">
<g filter="url(#filter0_d_1014_1495)">
<rect x="59" y="38" width="672" height="323" rx="16" fill="#141C37" fill-opacity="0.77" shape-rendering="crispEdges"/>
<rect x="59.5" y="38.5" width="671" height="322" rx="15.5" stroke="white" stroke-opacity="0.19" shape-rendering="crispEdges"/>
<rect x="78" y="56" width="12" height="12" rx="6" fill="#FF5F57"/>
<rect x="98" y="56" width="12" height="12" rx="6" fill="#FEBC2E"/>
<rect x="118" y="56" width="12" height="12" rx="6" fill="#28C840"/>
<path d="M155.036 67V57.2H158.298C159.045 57.2 159.656 57.3353 160.132 57.606C160.608 57.8767 160.958 58.236 161.182 58.684C161.406 59.132 161.518 59.6267 161.518 60.168C161.518 60.7093 161.406 61.204 161.182 61.652C160.958 62.1 160.608 62.4593 160.132 62.73C159.656 63.0007 159.045 63.136 158.298 63.136H156.212V67H155.036ZM156.212 62.058H158.27C158.961 62.058 159.474 61.8853 159.81 61.54C160.146 61.1853 160.314 60.728 160.314 60.168C160.314 59.608 160.146 59.1507 159.81 58.796C159.474 58.4413 158.961 58.264 158.27 58.264H156.212V62.058ZM166.595 67.168C165.801 67.168 165.12 66.958 164.551 66.538C163.981 66.118 163.543 65.53 163.235 64.774C162.936 64.0087 162.787 63.1173 162.787 62.1C162.787 61.0827 162.936 60.196 163.235 59.44C163.543 58.6747 163.981 58.082 164.551 57.662C165.12 57.242 165.801 57.032 166.595 57.032C167.388 57.032 168.069 57.242 168.639 57.662C169.208 58.082 169.642 58.6747 169.941 59.44C170.249 60.196 170.403 61.0827 170.403 62.1C170.403 63.1173 170.249 64.0087 169.941 64.774C169.642 65.53 169.208 66.118 168.639 66.538C168.069 66.958 167.388 67.168 166.595 67.168ZM166.595 66.062C167.369 66.062 167.995 65.7167 168.471 65.026C168.956 64.3353 169.199 63.36 169.199 62.1C169.199 60.84 168.956 59.8647 168.471 59.174C167.995 58.4833 167.369 58.138 166.595 58.138C165.811 58.138 165.181 58.4833 164.705 59.174C164.229 59.8647 163.991 60.84 163.991 62.1C163.991 63.36 164.229 64.3353 164.705 65.026C165.181 65.7167 165.811 66.062 166.595 66.062ZM175.087 67.168C174.396 67.168 173.794 67.0373 173.281 66.776C172.777 66.5147 172.385 66.1507 172.105 65.684C171.834 65.2173 171.694 64.6713 171.685 64.046H172.917C172.926 64.606 173.113 65.0913 173.477 65.502C173.85 65.9033 174.387 66.104 175.087 66.104C175.731 66.104 176.226 65.95 176.571 65.642C176.926 65.3247 177.103 64.9467 177.103 64.508C177.103 64.144 177.019 63.8407 176.851 63.598C176.683 63.346 176.408 63.1267 176.025 62.94C175.652 62.744 175.148 62.5433 174.513 62.338C173.617 62.0673 172.964 61.6987 172.553 61.232C172.142 60.7653 171.937 60.1867 171.937 59.496C171.937 59.0293 172.058 58.6093 172.301 58.236C172.544 57.8627 172.894 57.5687 173.351 57.354C173.808 57.1393 174.364 57.032 175.017 57.032C175.633 57.032 176.17 57.1487 176.627 57.382C177.094 57.606 177.453 57.9233 177.705 58.334C177.966 58.7447 178.097 59.216 178.097 59.748H176.865C176.865 59.4867 176.795 59.23 176.655 58.978C176.515 58.726 176.305 58.516 176.025 58.348C175.745 58.18 175.39 58.096 174.961 58.096C174.448 58.096 174.018 58.222 173.673 58.474C173.328 58.7167 173.155 59.0527 173.155 59.482C173.155 59.8087 173.23 60.084 173.379 60.308C173.538 60.532 173.794 60.7373 174.149 60.924C174.504 61.1013 174.984 61.2927 175.591 61.498C176.16 61.6847 176.646 61.904 177.047 62.156C177.458 62.3987 177.77 62.702 177.985 63.066C178.209 63.43 178.321 63.8827 178.321 64.424C178.321 64.956 178.186 65.4273 177.915 65.838C177.644 66.2487 177.266 66.5753 176.781 66.818C176.296 67.0513 175.731 67.168 175.087 67.168ZM182.796 67V58.264H180.164V57.2H186.604V58.264H183.972V67H182.796Z" fill="#9C9EB0" fill-opacity="0.6"/>
<path d="M189.162 68.26L194.006 56.36H195.238L190.38 68.26H189.162ZM199.909 67L196.857 60.056H198.201L200.595 65.712L203.003 60.056H204.333L201.267 67H199.909ZM205.769 67V65.936H208.303V58.586L205.909 59.048V58.152L208.695 57.2H209.479V65.936H212.153V67H205.769ZM214.346 68.26L219.19 56.36H220.422L215.564 68.26H214.346ZM227.752 70.08V65.964C227.575 66.3 227.313 66.5847 226.968 66.818C226.632 67.0513 226.175 67.168 225.596 67.168C225.008 67.168 224.481 67.028 224.014 66.748C223.557 66.468 223.193 66.0573 222.922 65.516C222.661 64.9747 222.53 64.3167 222.53 63.542C222.53 62.758 222.661 62.0953 222.922 61.554C223.193 61.0033 223.552 60.588 224 60.308C224.457 60.028 224.966 59.888 225.526 59.888C226.077 59.888 226.539 60.0047 226.912 60.238C227.285 60.4713 227.565 60.7653 227.752 61.12H227.836L227.976 60.056H228.928V70.08H227.752ZM225.75 66.048C226.338 66.048 226.823 65.8427 227.206 65.432C227.589 65.012 227.78 64.3773 227.78 63.528C227.78 62.6787 227.589 62.0487 227.206 61.638C226.823 61.218 226.338 61.008 225.75 61.008C225.162 61.008 224.677 61.218 224.294 61.638C223.911 62.0487 223.72 62.6787 223.72 63.528C223.72 64.3773 223.911 65.012 224.294 65.432C224.677 65.8427 225.162 66.048 225.75 66.048ZM233.683 67.168C232.843 67.168 232.208 66.916 231.779 66.412C231.349 65.908 231.135 65.18 231.135 64.228V60.056H232.311V64.088C232.311 64.704 232.446 65.1893 232.717 65.544C232.997 65.8893 233.417 66.062 233.977 66.062C234.537 66.062 235.008 65.8753 235.391 65.502C235.773 65.1193 235.965 64.5733 235.965 63.864V60.056H237.141V67H236.161L236.035 65.95H235.965C235.778 66.286 235.484 66.5753 235.083 66.818C234.681 67.0513 234.215 67.168 233.683 67.168ZM242.567 67.168C241.914 67.168 241.335 67.0187 240.831 66.72C240.327 66.4213 239.931 66.0013 239.641 65.46C239.352 64.9093 239.207 64.2653 239.207 63.528C239.207 62.7907 239.352 62.1513 239.641 61.61C239.931 61.0593 240.327 60.6347 240.831 60.336C241.335 60.0373 241.914 59.888 242.567 59.888C243.221 59.888 243.799 60.0373 244.303 60.336C244.807 60.6347 245.204 61.0593 245.493 61.61C245.783 62.1513 245.927 62.7907 245.927 63.528C245.927 64.2653 245.783 64.9093 245.493 65.46C245.204 66.0013 244.807 66.4213 244.303 66.72C243.799 67.0187 243.221 67.168 242.567 67.168ZM242.567 66.048C242.969 66.048 243.333 65.9593 243.659 65.782C243.986 65.6047 244.243 65.3293 244.429 64.956C244.625 64.5827 244.723 64.1067 244.723 63.528C244.723 62.9493 244.625 62.4733 244.429 62.1C244.243 61.7267 243.986 61.4513 243.659 61.274C243.333 61.0967 242.969 61.008 242.567 61.008C242.175 61.008 241.816 61.0967 241.489 61.274C241.163 61.4513 240.901 61.7267 240.705 62.1C240.509 62.4733 240.411 62.9493 240.411 63.528C240.411 64.396 240.621 65.0353 241.041 65.446C241.461 65.8473 241.97 66.048 242.567 66.048ZM251.69 67C251.055 67 250.556 66.846 250.192 66.538C249.828 66.23 249.646 65.6747 249.646 64.872V61.064H247.882V60.056H248.932C249.408 60.056 249.683 59.8227 249.758 59.356L249.954 58.278H250.822V60.056H253.594V61.064H250.822V64.872C250.822 65.264 250.91 65.5393 251.088 65.698C251.274 65.8567 251.592 65.936 252.04 65.936H253.594V67H251.69ZM259.426 67.168C258.773 67.168 258.194 67.0187 257.69 66.72C257.196 66.412 256.804 65.9873 256.514 65.446C256.225 64.8953 256.08 64.256 256.08 63.528C256.08 62.8 256.22 62.1653 256.5 61.624C256.79 61.0733 257.186 60.6487 257.69 60.35C258.194 60.042 258.782 59.888 259.454 59.888C260.126 59.888 260.7 60.042 261.176 60.35C261.652 60.6487 262.016 61.0453 262.268 61.54C262.52 62.0347 262.646 62.5667 262.646 63.136C262.646 63.2387 262.642 63.3413 262.632 63.444C262.632 63.5467 262.632 63.6633 262.632 63.794H257.242C257.27 64.3073 257.387 64.7367 257.592 65.082C257.807 65.418 258.073 65.67 258.39 65.838C258.717 66.006 259.062 66.09 259.426 66.09C259.94 66.09 260.341 65.9827 260.63 65.768C260.92 65.5533 261.139 65.2547 261.288 64.872H262.45C262.292 65.516 261.96 66.062 261.456 66.51C260.952 66.9487 260.276 67.168 259.426 67.168ZM259.426 60.938C258.885 60.938 258.409 61.1013 257.998 61.428C257.597 61.7547 257.35 62.212 257.256 62.8H261.484C261.447 62.2213 261.237 61.7687 260.854 61.442C260.481 61.106 260.005 60.938 259.426 60.938Z" fill="white" fill-opacity="0.3"/>
<g opacity="0.7" filter="url(#filter1_d_1014_1495)">
<line x1="60" y1="309.5" x2="730.003" y2="309.5" stroke="white" stroke-opacity="0.19" shape-rendering="crispEdges"/>
</g>
<path d="M98.148 338.3C98.268 338.044 98.384 337.82 98.496 337.628C98.616 337.436 98.732 337.276 98.844 337.148H91.848V336.644H98.844C98.732 336.508 98.616 336.344 98.496 336.152C98.384 335.96 98.268 335.74 98.148 335.492H98.568C99.072 336.076 99.6 336.508 100.152 336.788V337.004C99.6 337.276 99.072 337.708 98.568 338.3H98.148Z" fill="#4ADE80"/>
<path d="M121.888 341V340.208C122.752 339.52 123.504 338.888 124.144 338.312C124.792 337.736 125.292 337.18 125.644 336.644C125.996 336.108 126.172 335.56 126.172 335C126.172 334.496 126.028 334.1 125.74 333.812C125.46 333.516 125.08 333.368 124.6 333.368C124.232 333.368 123.92 333.448 123.664 333.608C123.408 333.768 123.216 333.98 123.088 334.244C122.96 334.508 122.896 334.792 122.896 335.096H121.9C121.908 334.544 122.028 334.072 122.26 333.68C122.5 333.28 122.82 332.976 123.22 332.768C123.628 332.56 124.088 332.456 124.6 332.456C125.424 332.456 126.064 332.684 126.52 333.14C126.976 333.596 127.204 334.208 127.204 334.976C127.204 335.48 127.096 335.964 126.88 336.428C126.664 336.884 126.376 337.324 126.016 337.748C125.656 338.172 125.252 338.58 124.804 338.972C124.356 339.364 123.904 339.74 123.448 340.1H127.432V341H121.888ZM132.395 341.144C131.763 341.144 131.203 340.968 130.715 340.616C130.235 340.264 129.859 339.764 129.587 339.116C129.323 338.468 129.191 337.696 129.191 336.8C129.191 335.904 129.323 335.132 129.587 334.484C129.859 333.836 130.235 333.336 130.715 332.984C131.203 332.632 131.763 332.456 132.395 332.456C133.035 332.456 133.595 332.632 134.075 332.984C134.555 333.336 134.927 333.836 135.191 334.484C135.463 335.132 135.599 335.904 135.599 336.8C135.599 337.696 135.463 338.468 135.191 339.116C134.927 339.764 134.555 340.264 134.075 340.616C133.595 340.968 133.035 341.144 132.395 341.144ZM130.223 336.8C130.223 337.344 130.279 337.836 130.391 338.276C130.511 338.708 130.675 339.072 130.883 339.368L133.211 333.596C132.963 333.46 132.691 333.392 132.395 333.392C131.971 333.392 131.595 333.532 131.267 333.812C130.939 334.084 130.683 334.476 130.499 334.988C130.315 335.492 130.223 336.096 130.223 336.8ZM132.395 340.22C132.819 340.22 133.195 340.084 133.523 339.812C133.851 339.532 134.107 339.136 134.291 338.624C134.475 338.112 134.567 337.504 134.567 336.8C134.567 336.256 134.507 335.768 134.387 335.336C134.275 334.896 134.115 334.528 133.907 334.232L131.567 340.016C131.823 340.152 132.099 340.22 132.395 340.22ZM140.191 341.144C139.559 341.144 138.999 340.968 138.511 340.616C138.031 340.264 137.655 339.764 137.383 339.116C137.119 338.468 136.987 337.696 136.987 336.8C136.987 335.904 137.119 335.132 137.383 334.484C137.655 333.836 138.031 333.336 138.511 332.984C138.999 332.632 139.559 332.456 140.191 332.456C140.831 332.456 141.391 332.632 141.871 332.984C142.351 333.336 142.723 333.836 142.987 334.484C143.259 335.132 143.395 335.904 143.395 336.8C143.395 337.696 143.259 338.468 142.987 339.116C142.723 339.764 142.351 340.264 141.871 340.616C141.391 340.968 140.831 341.144 140.191 341.144ZM138.019 336.8C138.019 337.344 138.075 337.836 138.187 338.276C138.307 338.708 138.471 339.072 138.679 339.368L141.007 333.596C140.759 333.46 140.487 333.392 140.191 333.392C139.767 333.392 139.391 333.532 139.063 333.812C138.735 334.084 138.479 334.476 138.295 334.988C138.111 335.492 138.019 336.096 138.019 336.8ZM140.191 340.22C140.615 340.22 140.991 340.084 141.319 339.812C141.647 339.532 141.903 339.136 142.087 338.624C142.271 338.112 142.363 337.504 142.363 336.8C142.363 336.256 142.303 335.768 142.183 335.336C142.071 334.896 141.911 334.528 141.703 334.232L139.363 340.016C139.619 340.152 139.895 340.22 140.191 340.22ZM155.781 341.144C155.101 341.144 154.517 340.964 154.029 340.604C153.541 340.244 153.165 339.74 152.901 339.092C152.645 338.436 152.517 337.672 152.517 336.8C152.517 335.928 152.645 335.168 152.901 334.52C153.165 333.864 153.541 333.356 154.029 332.996C154.517 332.636 155.101 332.456 155.781 332.456C156.461 332.456 157.045 332.636 157.533 332.996C158.021 333.356 158.393 333.864 158.649 334.52C158.913 335.168 159.045 335.928 159.045 336.8C159.045 337.672 158.913 338.436 158.649 339.092C158.393 339.74 158.021 340.244 157.533 340.604C157.045 340.964 156.461 341.144 155.781 341.144ZM155.781 340.196C156.445 340.196 156.981 339.9 157.389 339.308C157.805 338.716 158.013 337.88 158.013 336.8C158.013 335.72 157.805 334.884 157.389 334.292C156.981 333.7 156.445 333.404 155.781 333.404C155.109 333.404 154.569 333.7 154.161 334.292C153.753 334.884 153.549 335.72 153.549 336.8C153.549 337.88 153.753 338.716 154.161 339.308C154.569 339.9 155.109 340.196 155.781 340.196ZM160.961 341V332.6H161.969V336.512L165.257 332.6H166.541L163.001 336.776V336.824L166.589 341H165.281L161.969 337.148V341H160.961Z" fill="#4ADE80"/>
<path d="M190.708 341.144C190.156 341.144 189.66 341.044 189.22 340.844C188.788 340.636 188.44 340.336 188.176 339.944C187.912 339.552 187.768 339.072 187.744 338.504H188.776C188.792 338.984 188.968 339.392 189.304 339.728C189.64 340.056 190.108 340.22 190.708 340.22C191.292 340.22 191.744 340.072 192.064 339.776C192.384 339.472 192.544 339.06 192.544 338.54C192.544 338.18 192.452 337.884 192.268 337.652C192.084 337.412 191.836 337.236 191.524 337.124C191.22 337.004 190.88 336.944 190.504 336.944H189.772V336.032H190.408C190.952 336.032 191.384 335.916 191.704 335.684C192.032 335.452 192.196 335.112 192.196 334.664C192.196 334.288 192.064 333.98 191.8 333.74C191.544 333.5 191.176 333.38 190.696 333.38C190.232 333.38 189.856 333.512 189.568 333.776C189.28 334.032 189.116 334.368 189.076 334.784H188.068C188.084 334.328 188.204 333.928 188.428 333.584C188.652 333.232 188.956 332.956 189.34 332.756C189.732 332.556 190.184 332.456 190.696 332.456C191.248 332.456 191.708 332.552 192.076 332.744C192.452 332.936 192.736 333.196 192.928 333.524C193.12 333.844 193.216 334.2 193.216 334.592C193.216 335.008 193.088 335.376 192.832 335.696C192.576 336.008 192.272 336.228 191.92 336.356V336.428C192.392 336.572 192.784 336.816 193.096 337.16C193.408 337.504 193.564 337.964 193.564 338.54C193.564 339.028 193.448 339.468 193.216 339.86C192.992 340.252 192.664 340.564 192.232 340.796C191.808 341.028 191.3 341.144 190.708 341.144ZM207.883 343.64V340.112C207.731 340.4 207.507 340.644 207.211 340.844C206.923 341.044 206.531 341.144 206.035 341.144C205.531 341.144 205.079 341.024 204.679 340.784C204.287 340.544 203.975 340.192 203.743 339.728C203.519 339.264 203.407 338.7 203.407 338.036C203.407 337.364 203.519 336.796 203.743 336.332C203.975 335.86 204.283 335.504 204.667 335.264C205.059 335.024 205.495 334.904 205.975 334.904C206.447 334.904 206.843 335.004 207.163 335.204C207.483 335.404 207.723 335.656 207.883 335.96H207.955L208.075 335.048H208.891V343.64H207.883ZM206.167 340.184C206.671 340.184 207.087 340.008 207.415 339.656C207.743 339.296 207.907 338.752 207.907 338.024C207.907 337.296 207.743 336.756 207.415 336.404C207.087 336.044 206.671 335.864 206.167 335.864C205.663 335.864 205.247 336.044 204.919 336.404C204.591 336.756 204.427 337.296 204.427 338.024C204.427 338.752 204.591 339.296 204.919 339.656C205.247 340.008 205.663 340.184 206.167 340.184ZM213.566 341.144C212.846 341.144 212.302 340.928 211.934 340.496C211.566 340.064 211.382 339.44 211.382 338.624V335.048H212.39V338.504C212.39 339.032 212.506 339.448 212.738 339.752C212.978 340.048 213.338 340.196 213.818 340.196C214.298 340.196 214.702 340.036 215.03 339.716C215.358 339.388 215.522 338.92 215.522 338.312V335.048H216.53V341H215.69L215.582 340.1H215.522C215.362 340.388 215.11 340.636 214.766 340.844C214.422 341.044 214.022 341.144 213.566 341.144ZM221.781 341.144C221.221 341.144 220.725 341.016 220.293 340.76C219.861 340.504 219.521 340.144 219.273 339.68C219.025 339.208 218.901 338.656 218.901 338.024C218.901 337.392 219.025 336.844 219.273 336.38C219.521 335.908 219.861 335.544 220.293 335.288C220.725 335.032 221.221 334.904 221.781 334.904C222.341 334.904 222.837 335.032 223.269 335.288C223.701 335.544 224.041 335.908 224.289 336.38C224.537 336.844 224.661 337.392 224.661 338.024C224.661 338.656 224.537 339.208 224.289 339.68C224.041 340.144 223.701 340.504 223.269 340.76C222.837 341.016 222.341 341.144 221.781 341.144ZM221.781 340.184C222.125 340.184 222.437 340.108 222.717 339.956C222.997 339.804 223.217 339.568 223.377 339.248C223.545 338.928 223.629 338.52 223.629 338.024C223.629 337.528 223.545 337.12 223.377 336.8C223.217 336.48 222.997 336.244 222.717 336.092C222.437 335.94 222.125 335.864 221.781 335.864C221.445 335.864 221.137 335.94 220.857 336.092C220.577 336.244 220.353 336.48 220.185 336.8C220.017 337.12 219.933 337.528 219.933 338.024C219.933 338.768 220.113 339.316 220.473 339.668C220.833 340.012 221.269 340.184 221.781 340.184ZM230.201 341C229.657 341 229.229 340.868 228.917 340.604C228.605 340.34 228.449 339.864 228.449 339.176V335.912H226.937V335.048H227.837C228.245 335.048 228.481 334.848 228.545 334.448L228.713 333.524H229.457V335.048H231.833V335.912H229.457V339.176C229.457 339.512 229.533 339.748 229.685 339.884C229.845 340.02 230.117 340.088 230.501 340.088H231.833V341H230.201ZM237.432 341.144C236.872 341.144 236.376 341.016 235.944 340.76C235.52 340.496 235.184 340.132 234.936 339.668C234.688 339.196 234.564 338.648 234.564 338.024C234.564 337.4 234.684 336.856 234.924 336.392C235.172 335.92 235.512 335.556 235.944 335.3C236.376 335.036 236.88 334.904 237.456 334.904C238.032 334.904 238.524 335.036 238.932 335.3C239.34 335.556 239.652 335.896 239.868 336.32C240.084 336.744 240.192 337.2 240.192 337.688C240.192 337.776 240.188 337.864 240.18 337.952C240.18 338.04 240.18 338.14 240.18 338.252H235.56C235.584 338.692 235.684 339.06 235.86 339.356C236.044 339.644 236.272 339.86 236.544 340.004C236.824 340.148 237.12 340.22 237.432 340.22C237.872 340.22 238.216 340.128 238.464 339.944C238.712 339.76 238.9 339.504 239.028 339.176H240.024C239.888 339.728 239.604 340.196 239.172 340.58C238.74 340.956 238.16 341.144 237.432 341.144ZM237.432 335.804C236.968 335.804 236.56 335.944 236.208 336.224C235.864 336.504 235.652 336.896 235.572 337.4H239.196C239.164 336.904 238.984 336.516 238.656 336.236C238.336 335.948 237.928 335.804 237.432 335.804ZM245.227 341.144C244.467 341.144 243.851 340.968 243.379 340.616C242.915 340.256 242.655 339.764 242.599 339.14H243.643C243.691 339.468 243.851 339.736 244.123 339.944C244.403 340.152 244.779 340.256 245.251 340.256C245.699 340.256 246.031 340.16 246.247 339.968C246.471 339.776 246.583 339.556 246.583 339.308C246.583 338.972 246.451 338.744 246.187 338.624C245.923 338.496 245.527 338.4 244.999 338.336C244.367 338.264 243.843 338.092 243.427 337.82C243.011 337.548 242.803 337.14 242.803 336.596C242.803 336.108 243.007 335.704 243.415 335.384C243.823 335.064 244.379 334.904 245.083 334.904C245.779 334.904 246.327 335.064 246.727 335.384C247.127 335.696 247.355 336.144 247.411 336.728H246.415C246.391 336.44 246.251 336.212 245.995 336.044C245.747 335.868 245.435 335.78 245.059 335.78C244.667 335.78 244.363 335.856 244.147 336.008C243.931 336.152 243.823 336.344 243.823 336.584C243.823 336.824 243.943 337.024 244.183 337.184C244.431 337.336 244.819 337.436 245.347 337.484C245.763 337.532 246.143 337.612 246.487 337.724C246.831 337.836 247.103 338.012 247.303 338.252C247.511 338.492 247.615 338.828 247.615 339.26C247.623 339.62 247.523 339.944 247.315 340.232C247.115 340.512 246.835 340.736 246.475 340.904C246.115 341.064 245.699 341.144 245.227 341.144ZM258.166 341V340.136H259.69V336.212C259.69 336.012 259.594 335.912 259.402 335.912H258.322V335.048H259.774C260.038 335.048 260.25 335.12 260.41 335.264C260.57 335.408 260.65 335.62 260.65 335.9V336.152H260.698C260.794 335.752 260.974 335.444 261.238 335.228C261.51 335.012 261.886 334.904 262.366 334.904H263.458V335.972H262.222C261.734 335.972 261.358 336.136 261.094 336.464C260.83 336.784 260.698 337.196 260.698 337.7V340.136H262.57V341H258.166ZM268.613 341.144C268.053 341.144 267.557 341.016 267.125 340.76C266.701 340.496 266.365 340.132 266.117 339.668C265.869 339.196 265.745 338.648 265.745 338.024C265.745 337.4 265.865 336.856 266.105 336.392C266.353 335.92 266.693 335.556 267.125 335.3C267.557 335.036 268.061 334.904 268.637 334.904C269.213 334.904 269.705 335.036 270.113 335.3C270.521 335.556 270.833 335.896 271.049 336.32C271.265 336.744 271.373 337.2 271.373 337.688C271.373 337.776 271.369 337.864 271.361 337.952C271.361 338.04 271.361 338.14 271.361 338.252H266.741C266.765 338.692 266.865 339.06 267.041 339.356C267.225 339.644 267.453 339.86 267.725 340.004C268.005 340.148 268.301 340.22 268.613 340.22C269.053 340.22 269.397 340.128 269.645 339.944C269.893 339.76 270.081 339.504 270.209 339.176H271.205C271.069 339.728 270.785 340.196 270.353 340.58C269.921 340.956 269.341 341.144 268.613 341.144ZM268.613 335.804C268.149 335.804 267.741 335.944 267.389 336.224C267.045 336.504 266.833 336.896 266.753 337.4H270.377C270.345 336.904 270.165 336.516 269.837 336.236C269.517 335.948 269.109 335.804 268.613 335.804ZM276.972 341C276.428 341 276 340.868 275.688 340.604C275.376 340.34 275.22 339.864 275.22 339.176V335.912H273.708V335.048H274.608C275.016 335.048 275.252 334.848 275.316 334.448L275.484 333.524H276.228V335.048H278.604V335.912H276.228V339.176C276.228 339.512 276.304 339.748 276.456 339.884C276.616 340.02 276.888 340.088 277.272 340.088H278.604V341H276.972ZM283.724 341.144C283.004 341.144 282.46 340.928 282.092 340.496C281.724 340.064 281.54 339.44 281.54 338.624V335.048H282.548V338.504C282.548 339.032 282.664 339.448 282.896 339.752C283.136 340.048 283.496 340.196 283.976 340.196C284.456 340.196 284.86 340.036 285.188 339.716C285.516 339.388 285.68 338.92 285.68 338.312V335.048H286.688V341H285.848L285.74 340.1H285.68C285.52 340.388 285.268 340.636 284.924 340.844C284.58 341.044 284.18 341.144 283.724 341.144ZM289.347 341V340.136H290.871V336.212C290.871 336.012 290.775 335.912 290.583 335.912H289.503V335.048H290.955C291.219 335.048 291.431 335.12 291.591 335.264C291.751 335.408 291.831 335.62 291.831 335.9V336.152H291.879C291.975 335.752 292.155 335.444 292.419 335.228C292.691 335.012 293.067 334.904 293.547 334.904H294.639V335.972H293.403C292.915 335.972 292.539 336.136 292.275 336.464C292.011 336.784 291.879 337.196 291.879 337.7V340.136H293.751V341H289.347ZM297.19 341V335.048H298.03L298.138 335.948H298.198C298.358 335.66 298.61 335.416 298.954 335.216C299.298 335.008 299.694 334.904 300.142 334.904C300.87 334.904 301.414 335.12 301.774 335.552C302.142 335.984 302.326 336.608 302.326 337.424V341H301.318V337.544C301.318 337.016 301.202 336.604 300.97 336.308C300.738 336.004 300.378 335.852 299.89 335.852C299.418 335.852 299.018 336.016 298.69 336.344C298.362 336.664 298.198 337.128 298.198 337.736V341H297.19ZM307.59 341.144C307.03 341.144 306.534 341.016 306.102 340.76C305.678 340.496 305.342 340.132 305.094 339.668C304.846 339.196 304.722 338.648 304.722 338.024C304.722 337.4 304.842 336.856 305.082 336.392C305.33 335.92 305.67 335.556 306.102 335.3C306.534 335.036 307.038 334.904 307.614 334.904C308.19 334.904 308.682 335.036 309.09 335.3C309.498 335.556 309.81 335.896 310.026 336.32C310.242 336.744 310.35 337.2 310.35 337.688C310.35 337.776 310.346 337.864 310.338 337.952C310.338 338.04 310.338 338.14 310.338 338.252H305.718C305.742 338.692 305.842 339.06 306.018 339.356C306.202 339.644 306.43 339.86 306.702 340.004C306.982 340.148 307.278 340.22 307.59 340.22C308.03 340.22 308.374 340.128 308.622 339.944C308.87 339.76 309.058 339.504 309.186 339.176H310.182C310.046 339.728 309.762 340.196 309.33 340.58C308.898 340.956 308.318 341.144 307.59 341.144ZM307.59 335.804C307.126 335.804 306.718 335.944 306.366 336.224C306.022 336.504 305.81 336.896 305.73 337.4H309.354C309.322 336.904 309.142 336.516 308.814 336.236C308.494 335.948 308.086 335.804 307.59 335.804ZM315.121 341.144C314.617 341.144 314.165 341.024 313.765 340.784C313.373 340.544 313.065 340.192 312.841 339.728C312.617 339.256 312.505 338.684 312.505 338.012C312.505 337.348 312.617 336.784 312.841 336.32C313.065 335.856 313.373 335.504 313.765 335.264C314.165 335.024 314.617 334.904 315.121 334.904C315.593 334.904 315.981 334.996 316.285 335.18C316.597 335.364 316.829 335.604 316.981 335.9V332.36H317.989V341H317.161L317.053 340.076H316.981C316.821 340.404 316.585 340.664 316.273 340.856C315.961 341.048 315.577 341.144 315.121 341.144ZM315.253 340.184C315.757 340.184 316.173 340.008 316.501 339.656C316.829 339.296 316.993 338.752 316.993 338.024C316.993 337.296 316.829 336.756 316.501 336.404C316.173 336.044 315.757 335.864 315.253 335.864C314.749 335.864 314.333 336.044 314.005 336.404C313.685 336.756 313.525 337.296 313.525 338.024C313.525 338.752 313.685 339.296 314.005 339.656C314.333 340.008 314.749 340.184 315.253 340.184Z" fill="white" fill-opacity="0.3"/>
<path d="M338.84 341V340.088H341.012V333.788L338.96 334.184V333.416L341.348 332.6H342.02V340.088H344.312V341H338.84ZM349.395 341.024C349.147 341.024 348.935 340.94 348.759 340.772C348.583 340.604 348.495 340.396 348.495 340.148C348.495 339.908 348.583 339.704 348.759 339.536C348.935 339.368 349.147 339.284 349.395 339.284C349.643 339.284 349.855 339.368 350.031 339.536C350.207 339.704 350.295 339.908 350.295 340.148C350.295 340.396 350.207 340.604 350.031 340.772C349.855 340.94 349.643 341.024 349.395 341.024ZM354.479 341V340.208C355.343 339.52 356.095 338.888 356.735 338.312C357.383 337.736 357.883 337.18 358.235 336.644C358.587 336.108 358.763 335.56 358.763 335C358.763 334.496 358.619 334.1 358.331 333.812C358.051 333.516 357.671 333.368 357.191 333.368C356.823 333.368 356.511 333.448 356.255 333.608C355.999 333.768 355.807 333.98 355.679 334.244C355.551 334.508 355.487 334.792 355.487 335.096H354.491C354.499 334.544 354.619 334.072 354.851 333.68C355.091 333.28 355.411 332.976 355.811 332.768C356.219 332.56 356.679 332.456 357.191 332.456C358.015 332.456 358.655 332.684 359.111 333.14C359.567 333.596 359.795 334.208 359.795 334.976C359.795 335.48 359.687 335.964 359.471 336.428C359.255 336.884 358.967 337.324 358.607 337.748C358.247 338.172 357.843 338.58 357.395 338.972C356.947 339.364 356.495 339.74 356.039 340.1H360.023V341H354.479ZM365.046 341.144C364.286 341.144 363.67 340.968 363.198 340.616C362.734 340.256 362.474 339.764 362.418 339.14H363.462C363.51 339.468 363.67 339.736 363.942 339.944C364.222 340.152 364.598 340.256 365.07 340.256C365.518 340.256 365.85 340.16 366.066 339.968C366.29 339.776 366.402 339.556 366.402 339.308C366.402 338.972 366.27 338.744 366.006 338.624C365.742 338.496 365.346 338.4 364.818 338.336C364.186 338.264 363.662 338.092 363.246 337.82C362.83 337.548 362.622 337.14 362.622 336.596C362.622 336.108 362.826 335.704 363.234 335.384C363.642 335.064 364.198 334.904 364.902 334.904C365.598 334.904 366.146 335.064 366.546 335.384C366.946 335.696 367.174 336.144 367.23 336.728H366.234C366.21 336.44 366.07 336.212 365.814 336.044C365.566 335.868 365.254 335.78 364.878 335.78C364.486 335.78 364.182 335.856 363.966 336.008C363.75 336.152 363.642 336.344 363.642 336.584C363.642 336.824 363.762 337.024 364.002 337.184C364.25 337.336 364.638 337.436 365.166 337.484C365.582 337.532 365.962 337.612 366.306 337.724C366.65 337.836 366.922 338.012 367.122 338.252C367.33 338.492 367.434 338.828 367.434 339.26C367.442 339.62 367.342 339.944 367.134 340.232C366.934 340.512 366.654 340.736 366.294 340.904C365.934 341.064 365.518 341.144 365.046 341.144ZM377.985 341V340.136H379.509V336.212C379.509 336.012 379.413 335.912 379.221 335.912H378.141V335.048H379.593C379.857 335.048 380.069 335.12 380.229 335.264C380.389 335.408 380.469 335.62 380.469 335.9V336.152H380.517C380.613 335.752 380.793 335.444 381.057 335.228C381.329 335.012 381.705 334.904 382.185 334.904H383.277V335.972H382.041C381.553 335.972 381.177 336.136 380.913 336.464C380.649 336.784 380.517 337.196 380.517 337.7V340.136H382.389V341H377.985ZM388.432 341.144C387.872 341.144 387.376 341.016 386.944 340.76C386.52 340.496 386.184 340.132 385.936 339.668C385.688 339.196 385.564 338.648 385.564 338.024C385.564 337.4 385.684 336.856 385.924 336.392C386.172 335.92 386.512 335.556 386.944 335.3C387.376 335.036 387.88 334.904 388.456 334.904C389.032 334.904 389.524 335.036 389.932 335.3C390.34 335.556 390.652 335.896 390.868 336.32C391.084 336.744 391.192 337.2 391.192 337.688C391.192 337.776 391.188 337.864 391.18 337.952C391.18 338.04 391.18 338.14 391.18 338.252H386.56C386.584 338.692 386.684 339.06 386.86 339.356C387.044 339.644 387.272 339.86 387.544 340.004C387.824 340.148 388.12 340.22 388.432 340.22C388.872 340.22 389.216 340.128 389.464 339.944C389.712 339.76 389.9 339.504 390.028 339.176H391.024C390.888 339.728 390.604 340.196 390.172 340.58C389.74 340.956 389.16 341.144 388.432 341.144ZM388.432 335.804C387.968 335.804 387.56 335.944 387.208 336.224C386.864 336.504 386.652 336.896 386.572 337.4H390.196C390.164 336.904 389.984 336.516 389.656 336.236C389.336 335.948 388.928 335.804 388.432 335.804ZM396.227 341.144C395.467 341.144 394.851 340.968 394.379 340.616C393.915 340.256 393.655 339.764 393.599 339.14H394.643C394.691 339.468 394.851 339.736 395.123 339.944C395.403 340.152 395.779 340.256 396.251 340.256C396.699 340.256 397.031 340.16 397.247 339.968C397.471 339.776 397.583 339.556 397.583 339.308C397.583 338.972 397.451 338.744 397.187 338.624C396.923 338.496 396.527 338.4 395.999 338.336C395.367 338.264 394.843 338.092 394.427 337.82C394.011 337.548 393.803 337.14 393.803 336.596C393.803 336.108 394.007 335.704 394.415 335.384C394.823 335.064 395.379 334.904 396.083 334.904C396.779 334.904 397.327 335.064 397.727 335.384C398.127 335.696 398.355 336.144 398.411 336.728H397.415C397.391 336.44 397.251 336.212 396.995 336.044C396.747 335.868 396.435 335.78 396.059 335.78C395.667 335.78 395.363 335.856 395.147 336.008C394.931 336.152 394.823 336.344 394.823 336.584C394.823 336.824 394.943 337.024 395.183 337.184C395.431 337.336 395.819 337.436 396.347 337.484C396.763 337.532 397.143 337.612 397.487 337.724C397.831 337.836 398.103 338.012 398.303 338.252C398.511 338.492 398.615 338.828 398.615 339.26C398.623 339.62 398.523 339.944 398.315 340.232C398.115 340.512 397.835 340.736 397.475 340.904C397.115 341.064 396.699 341.144 396.227 341.144ZM401.298 343.64V335.048H402.114L402.234 336.032H402.306C402.458 335.712 402.702 335.444 403.038 335.228C403.374 335.012 403.77 334.904 404.226 334.904C404.706 334.904 405.138 335.024 405.522 335.264C405.914 335.504 406.222 335.86 406.446 336.332C406.67 336.796 406.782 337.364 406.782 338.036C406.782 338.7 406.666 339.264 406.434 339.728C406.21 340.192 405.898 340.544 405.498 340.784C405.106 341.024 404.654 341.144 404.142 341.144C403.686 341.144 403.298 341.048 402.978 340.856C402.666 340.656 402.442 340.424 402.306 340.16V343.64H401.298ZM404.022 340.184C404.526 340.184 404.942 340.008 405.27 339.656C405.598 339.296 405.762 338.752 405.762 338.024C405.762 337.296 405.598 336.756 405.27 336.404C404.942 336.044 404.526 335.864 404.022 335.864C403.518 335.864 403.102 336.044 402.774 336.404C402.446 336.756 402.282 337.296 402.282 338.024C402.282 338.752 402.446 339.296 402.774 339.656C403.102 340.008 403.518 340.184 404.022 340.184ZM411.758 341.144C411.198 341.144 410.702 341.016 410.27 340.76C409.838 340.504 409.498 340.144 409.25 339.68C409.002 339.208 408.878 338.656 408.878 338.024C408.878 337.392 409.002 336.844 409.25 336.38C409.498 335.908 409.838 335.544 410.27 335.288C410.702 335.032 411.198 334.904 411.758 334.904C412.318 334.904 412.814 335.032 413.246 335.288C413.678 335.544 414.018 335.908 414.266 336.38C414.514 336.844 414.638 337.392 414.638 338.024C414.638 338.656 414.514 339.208 414.266 339.68C414.018 340.144 413.678 340.504 413.246 340.76C412.814 341.016 412.318 341.144 411.758 341.144ZM411.758 340.184C412.102 340.184 412.414 340.108 412.694 339.956C412.974 339.804 413.194 339.568 413.354 339.248C413.522 338.928 413.606 338.52 413.606 338.024C413.606 337.528 413.522 337.12 413.354 336.8C413.194 336.48 412.974 336.244 412.694 336.092C412.414 335.94 412.102 335.864 411.758 335.864C411.422 335.864 411.114 335.94 410.834 336.092C410.554 336.244 410.33 336.48 410.162 336.8C409.994 337.12 409.91 337.528 409.91 338.024C409.91 338.768 410.09 339.316 410.45 339.668C410.81 340.012 411.246 340.184 411.758 340.184ZM417.009 341V335.048H417.849L417.957 335.948H418.017C418.177 335.66 418.429 335.416 418.773 335.216C419.117 335.008 419.513 334.904 419.961 334.904C420.689 334.904 421.233 335.12 421.593 335.552C421.961 335.984 422.145 336.608 422.145 337.424V341H421.137V337.544C421.137 337.016 421.021 336.604 420.789 336.308C420.557 336.004 420.197 335.852 419.709 335.852C419.237 335.852 418.837 336.016 418.509 336.344C418.181 336.664 418.017 337.128 418.017 337.736V341H417.009ZM427.408 341.144C426.648 341.144 426.032 340.968 425.56 340.616C425.096 340.256 424.836 339.764 424.78 339.14H425.824C425.872 339.468 426.032 339.736 426.304 339.944C426.584 340.152 426.96 340.256 427.432 340.256C427.88 340.256 428.212 340.16 428.428 339.968C428.652 339.776 428.764 339.556 428.764 339.308C428.764 338.972 428.632 338.744 428.368 338.624C428.104 338.496 427.708 338.4 427.18 338.336C426.548 338.264 426.024 338.092 425.608 337.82C425.192 337.548 424.984 337.14 424.984 336.596C424.984 336.108 425.188 335.704 425.596 335.384C426.004 335.064 426.56 334.904 427.264 334.904C427.96 334.904 428.508 335.064 428.908 335.384C429.308 335.696 429.536 336.144 429.592 336.728H428.596C428.572 336.44 428.432 336.212 428.176 336.044C427.928 335.868 427.616 335.78 427.24 335.78C426.848 335.78 426.544 335.856 426.328 336.008C426.112 336.152 426.004 336.344 426.004 336.584C426.004 336.824 426.124 337.024 426.364 337.184C426.612 337.336 427 337.436 427.528 337.484C427.944 337.532 428.324 337.612 428.668 337.724C429.012 337.836 429.284 338.012 429.484 338.252C429.692 338.492 429.796 338.828 429.796 339.26C429.804 339.62 429.704 339.944 429.496 340.232C429.296 340.512 429.016 340.736 428.656 340.904C428.296 341.064 427.88 341.144 427.408 341.144ZM435.204 341.144C434.644 341.144 434.148 341.016 433.716 340.76C433.292 340.496 432.956 340.132 432.708 339.668C432.46 339.196 432.336 338.648 432.336 338.024C432.336 337.4 432.456 336.856 432.696 336.392C432.944 335.92 433.284 335.556 433.716 335.3C434.148 335.036 434.652 334.904 435.228 334.904C435.804 334.904 436.296 335.036 436.704 335.3C437.112 335.556 437.424 335.896 437.64 336.32C437.856 336.744 437.964 337.2 437.964 337.688C437.964 337.776 437.96 337.864 437.952 337.952C437.952 338.04 437.952 338.14 437.952 338.252H433.332C433.356 338.692 433.456 339.06 433.632 339.356C433.816 339.644 434.044 339.86 434.316 340.004C434.596 340.148 434.892 340.22 435.204 340.22C435.644 340.22 435.988 340.128 436.236 339.944C436.484 339.76 436.672 339.504 436.8 339.176H437.796C437.66 339.728 437.376 340.196 436.944 340.58C436.512 340.956 435.932 341.144 435.204 341.144ZM435.204 335.804C434.74 335.804 434.332 335.944 433.98 336.224C433.636 336.504 433.424 336.896 433.344 337.4H436.968C436.936 336.904 436.756 336.516 436.428 336.236C436.108 335.948 435.7 335.804 435.204 335.804Z" fill="white" fill-opacity="0.3"/>
<rect x="39" y="14" width="713" height="371" rx="19" stroke="white" stroke-opacity="0.11" stroke-width="2"/>
<rect x="39" y="14" width="713" height="371" rx="19" stroke="url(#paint0_linear_1014_1495)" stroke-width="2"/>
</g>
<defs>
<filter id="filter0_d_1014_1495" x="0" y="0" width="791" height="449" filterUnits="userSpaceOnUse" color-interpolation-filters="sRGB">
<feFlood flood-opacity="0" result="BackgroundImageFix"/>
<feColorMatrix in="SourceAlpha" type="matrix" values="0 0 0 0 0 0 0 0 0 0 0 0 0 0 0 0 0 0 127 0" result="hardAlpha"/>
<feMorphology radius="12" operator="erode" in="SourceAlpha" result="effect1_dropShadow_1014_1495"/>
<feOffset dy="25"/>
<feGaussianBlur stdDeviation="25"/>
<feComposite in2="hardAlpha" operator="out"/>
<feColorMatrix type="matrix" values="0 0 0 0 0.2 0 0 0 0 0.145098 0 0 0 0 0.623529 0 0 0 1 0"/>
<feBlend mode="normal" in2="BackgroundImageFix" result="effect1_dropShadow_1014_1495"/>
<feBlend mode="normal" in="SourceGraphic" in2="effect1_dropShadow_1014_1495" result="shape"/>
</filter>
<filter id="filter1_d_1014_1495" x="22" y="296" width="746.004" height="77" filterUnits="userSpaceOnUse" color-interpolation-filters="sRGB">
<feFlood flood-opacity="0" result="BackgroundImageFix"/>
<feColorMatrix in="SourceAlpha" type="matrix" values="0 0 0 0 0 0 0 0 0 0 0 0 0 0 0 0 0 0 127 0" result="hardAlpha"/>
<feMorphology radius="12" operator="erode" in="SourceAlpha" result="effect1_dropShadow_1014_1495"/>
<feOffset dy="25"/>
<feGaussianBlur stdDeviation="25"/>
<feComposite in2="hardAlpha" operator="out"/>
<feColorMatrix type="matrix" values="0 0 0 0 0 0 0 0 0 0 0 0 0 0 0 0 0 0 0.25 0"/>
<feBlend mode="normal" in2="BackgroundImageFix" result="effect1_dropShadow_1014_1495"/>
<feBlend mode="normal" in="SourceGraphic" in2="effect1_dropShadow_1014_1495" result="shape"/>
</filter>
<linearGradient id="paint0_linear_1014_1495" x1="45.5" y1="398" x2="347.544" y2="-186.516" gradientUnits="userSpaceOnUse">
<stop stop-color="#1751FF"/>
<stop offset="0.182692" stop-color="#0532BD"/>
<stop offset="0.466346" stop-color="#5B5B5B" stop-opacity="0"/>
<stop offset="0.822115" stop-color="#0130BE"/>
<stop offset="0.975962" stop-color="#0F45E9"/>
</linearGradient>
</defs>
</svg>
