<svg width="1600" height="917" viewBox="0 0 1600 917" fill="none" xmlns="http://www.w3.org/2000/svg">
<mask id="mask0_973_6242" style="mask-type:luminance" maskUnits="userSpaceOnUse" x="-5" y="0" width="1720" height="983">
<path d="M1715 0H-5V982.857H1715V0Z" fill="white"/>
</mask>
<g mask="url(#mask0_973_6242)">
<path d="M1202.37 785.504C1169.03 785.255 1137.34 772.727 1109.39 750.091C1079.72 726.045 1053.02 691.399 1026.57 655.484C970.431 579.275 916.162 508.096 845.144 477.519C797.263 456.95 748.786 454.346 700.005 453.783C651.289 453.224 602.453 454.172 554.416 451.848C506.092 449.507 453.891 443.405 402.824 442.962C350.975 442.518 300.361 448.251 257.351 454.637C203.075 462.697 170.658 470.509 128.323 485.242C107.39 492.528 81.6002 501.762 53.07 509.769C25.2122 517.584 -5.47821 524.122 -36.4587 534.439C-107.76 558.215 -145.372 603.43 -166.575 647.198C-200.811 717.933 -224.536 795.579 -241.299 871.569C-246.37 894.574 -250.455 917.078 -248.295 938.475C-246.258 958.555 -238.129 978.574 -219.321 999.208C-168.469 1054.89 -55.7575 1104.67 46.7736 1105.38C167.273 1106.14 288.266 1063.73 410.598 1023.49C532.209 983.482 653.804 949.761 775.2 936.714C894.256 923.951 1013.25 926.992 1130.66 937.073C1247.28 947.103 1363.4 964.78 1475.88 1000.37C1570.76 1030.42 1665.81 1071.7 1745.45 1054.49C1780.37 1046.91 1808.99 1028.51 1830.36 1002.18C1849.93 978.035 1862.56 948.044 1864.13 912.337C1865.06 891.046 1861.8 867.587 1854.23 843.534C1847.09 820.863 1835.95 797.128 1821.32 773.625C1810.29 755.923 1791.95 728.11 1770.25 709.319C1748.69 690.669 1728.13 684.673 1711.05 679.83C1667.26 667.415 1615.29 664.784 1561.7 673.715C1505.44 683.113 1447.15 704.548 1390.03 728.018C1322.82 755.623 1259.11 785.876 1202.37 785.504Z" fill="#D3F1FF"/>
<path d="M843.124 551.77C796.202 525.212 749.725 513.305 703.165 503.736C656.316 494.112 609.651 486.4 562.699 477.786C558.225 476.95 553.713 476.103 549.164 475.247C478.06 461.907 398.2 451.426 327.731 456.276C306.88 457.699 286.891 459.856 268.063 462.159C223.364 467.63 191.053 472.947 156.526 483.424C148.513 485.86 140.364 488.58 131.979 491.515C87.6239 507.053 26.3523 528.29 -33.3938 550.917C-98.6719 578.925 -133.618 622.007 -153.548 663.805C-186.075 732.046 -208.366 806.552 -224.573 879.266C-229.805 902.759 -233.818 925.757 -231.607 947.428C-229.511 967.826 -221.335 987.94 -202.759 1008.22C-152.306 1063.21 -41.4171 1109.54 59.6705 1109.9C179.088 1110.29 299.071 1070.29 420.413 1032.12C541.059 994.179 661.729 961.727 782.275 948.704C900.549 935.958 1018.8 938.296 1135.42 948.588C1251.25 958.826 1366.52 977.647 1478.15 1013.85C1519.17 1027.16 1560.52 1042.77 1600.72 1055.09C1652.76 1071.03 1702.42 1081.12 1746.89 1072.04C1780.62 1065.11 1808.59 1047 1829.62 1020.89C1849 996.793 1861.67 966.587 1863.63 930.753C1864.81 909.161 1861.93 885.399 1854.63 860.827C1847.72 837.546 1836.69 813.029 1821.72 788.461C1810.08 769.353 1791.33 740.434 1769.47 721.947C1758.2 712.426 1747.2 706.403 1736.75 702.413C1727.24 698.786 1718.08 696.789 1709.75 694.666C1663.54 682.899 1610.1 680.698 1554.85 689.107C1501.87 697.291 1447.27 715.388 1393.62 736.561C1347.91 754.597 1303.64 774.401 1261.06 787.806C1242.72 793.587 1224.86 798.068 1207.64 800.3C1173.93 804.678 1141.59 800.163 1112.02 786.021C1081.56 771.435 1053.03 746.724 1025.56 718.719C996.63 689.227 968.783 656.744 939.324 627.45C909.135 597.435 877.681 571.294 843.124 551.77Z" fill="#9EDDFF"/>
<path d="M840.855 629.34C747.992 565.612 662.555 535.399 570.931 504.999C566.542 503.545 562.106 502.067 557.628 500.62C488.016 478.185 408.828 464.016 338.417 467.043C317.685 467.906 297.72 469.65 278.708 471.708C233.244 476.632 198.455 482.219 161.663 492.798C153.09 495.276 144.35 498.078 135.453 501.112C88.3683 517.168 27.0797 542.504 -30.2161 566.349C-89.3684 597.241 -121.584 639.322 -140.371 679.736C-171.103 745.819 -192.166 817.042 -207.779 886.337C-213.188 910.359 -217.136 933.876 -214.87 955.84C-212.72 976.579 -204.492 996.809 -186.153 1016.77C-136.112 1071.14 -27.0662 1114.23 72.588 1114.36C190.91 1114.52 309.89 1076.97 430.235 1040.89C549.909 1005.02 669.657 973.886 789.34 960.99C906.826 948.363 1024.31 950.124 1140.15 960.638C1255.18 971.098 1369.58 990.95 1480.39 1027.63C1521.16 1041.14 1562.17 1056.85 1602.14 1069.74C1653.88 1086.42 1703.7 1098.29 1748.31 1089.79C1780.81 1083.56 1808.12 1065.85 1828.79 1040.13C1847.96 1016.23 1860.69 986.012 1863.02 950.25C1864.43 928.484 1861.89 904.523 1854.85 879.57C1848.14 855.8 1837.2 830.652 1821.93 805.224C1809.63 784.772 1790.43 755.286 1768.4 737.154C1757.22 727.94 1746.21 722.364 1735.75 718.668C1726.14 715.275 1716.81 713.327 1708.27 711.231C1661.57 699.778 1608.99 696.7 1554.45 703.082C1502.82 709.139 1449.65 724.599 1397.33 744.219C1352.61 760.968 1309.07 780.349 1266.81 795.72C1248.48 802.398 1230.59 808.224 1213.19 812.432C1145.82 828.755 1081.79 814.8 1025.11 776.182C995.112 755.733 966.108 730.274 936.366 704.737C905.631 678.35 874.384 652.27 840.855 629.34Z" fill="#6BCAFF"/>
<path d="M838.963 703.032C747.158 632.328 669.018 576.111 579.161 532.858C574.855 530.787 570.493 528.705 566.087 526.678C498.024 495.455 419.389 477.504 349.064 479.142C328.448 479.586 308.473 481.101 289.29 483.139C242.953 488.066 205.71 494.858 166.6 506.004C157.458 508.631 148.131 511.583 138.708 514.733C89.0057 531.35 27.6113 558.467 -27.0055 582.131C-79.8989 614.637 -109.333 656.224 -127.062 695.514C-155.944 759.458 -175.939 827.18 -190.911 892.84C-196.514 917.428 -200.401 941.474 -198.087 963.756C-195.883 984.853 -187.6 1005.22 -169.499 1024.9C-119.882 1078.73 -12.6927 1118.77 85.5316 1118.81C202.744 1118.88 320.725 1083.8 440.07 1049.83C558.767 1016.05 677.587 986.269 796.397 973.601C913.084 961.189 1029.79 962.496 1144.84 973.243C1259.07 983.935 1372.62 1004.71 1482.62 1041.75C1523.13 1055.4 1563.8 1071.16 1603.55 1084.6C1655 1102 1704.95 1115.59 1749.72 1107.74C1780.96 1102.23 1807.6 1085.05 1827.89 1059.89C1846.85 1036.36 1859.62 1006.33 1862.29 970.854C1865.46 928.571 1853.49 876.845 1821.94 823.954C1808.96 802.205 1789.26 772.675 1767.08 754.861C1755.97 745.954 1744.99 740.647 1734.54 737.047C1724.84 733.709 1715.37 731.617 1706.62 729.395C1659.62 717.458 1607.92 712.868 1554.09 716.803C1503.85 720.492 1452.12 733.187 1401.13 751.104C1357.42 766.44 1314.64 785.224 1272.75 802.004C1254.48 809.341 1236.56 816.208 1219.03 821.975C1150.88 844.455 1085.85 847.97 1025.52 824.774C963.042 800.711 903.337 752.38 838.963 703.032Z" fill="#36B6FF"/>
<path d="M838.02 766.27C746.949 693.31 675.702 615.938 587.44 560.724C583.208 558.079 578.922 555.437 574.581 552.868C508.009 513.56 429.899 491.773 359.68 492.377C339.162 492.562 319.161 494.002 299.817 496.241C252.504 501.728 212.855 510.612 171.316 523.133C161.6 526.064 151.669 529.327 141.697 532.702C89.4245 550.397 27.8151 577.75 -23.8566 599.41C-70.3307 632.407 -96.96 673.435 -113.675 711.599C-140.677 773.147 -159.72 837.074 -173.998 898.816C-179.82 924.005 -183.649 948.59 -181.284 971.2C-179.025 992.665 -170.681 1013.19 -152.822 1032.61C-103.642 1085.98 1.6738 1123.18 98.4784 1123.25C214.578 1123.38 331.555 1090.79 449.894 1058.93C567.608 1027.25 685.497 998.866 803.426 986.526C1033.68 962.511 1266.47 981.666 1484.81 1056.15C1525.07 1069.89 1565.41 1085.66 1604.93 1099.64C1656.09 1117.72 1706.16 1132.97 1751.12 1125.85C1781.05 1121.08 1807.01 1104.56 1826.92 1080.13C1845.65 1057.13 1858.47 1027.52 1861.45 992.546C1865.04 950.321 1853.79 898.472 1821.74 844.66C1808.03 821.652 1787.82 792.507 1765.49 774.969C1754.46 766.322 1743.52 761.117 1733.11 757.421C1723.34 753.957 1713.76 751.545 1704.82 749.043C1657.67 735.874 1606.83 729.174 1553.76 730.321C1504.94 731.389 1454.66 741.249 1405.02 757.322C1362.33 771.123 1320.34 789.139 1278.87 806.769C1260.66 814.523 1242.75 822.119 1225.14 829.02C1156.23 856.076 1090.5 871.992 1026.97 862.181C963.761 852.383 900.848 816.362 838.02 766.27Z" fill="#00A3FF"/>
<path d="M838.472 814.051C747.886 744.09 682.495 653.459 595.83 587.932C591.666 584.785 587.448 581.663 583.165 578.612C517.904 532.244 440.402 506.427 370.291 506.498C349.873 506.525 329.813 508.092 310.32 510.747C261.935 517.344 219.781 529.353 175.832 544.103C165.509 547.57 154.977 551.324 144.432 555.095C89.5728 574.721 27.6597 601.412 -20.8109 619.069C-60.7053 651.627 -84.5055 691.586 -100.211 728.368C-125.321 787.039 -143.497 846.806 -157.019 904.282C-163.086 930.096 -166.868 955.224 -164.445 978.167C-162.127 1000.01 -153.715 1020.7 -136.102 1039.89C-87.3722 1092.87 16.0633 1127.46 111.441 1127.67C226.419 1127.99 342.396 1097.91 459.724 1068.18C576.452 1038.61 693.409 1011.67 810.444 999.742C1039.09 976.519 1270.22 996.111 1486.98 1070.8C1526.99 1084.6 1567.01 1100.34 1606.31 1114.82C1657.18 1133.55 1707.34 1150.35 1752.51 1144.06C1781.12 1140.04 1806.36 1124.3 1825.89 1100.78C1844.37 1078.49 1857.22 1049.53 1860.5 1015.28C1864.49 973.417 1853.83 921.749 1821.33 867.36C1806.84 843.127 1786.1 814.774 1763.64 797.42C1752.71 788.984 1741.82 783.705 1731.47 779.736C1721.65 775.972 1711.99 773.071 1702.85 770.146C1655.68 755.059 1605.74 745.718 1553.43 743.735C1506.07 741.954 1457.25 748.885 1408.98 762.98C1367.34 775.118 1326.15 792.199 1285.14 810.157C1267.04 818.098 1249.16 826.118 1231.5 833.732C1161.99 863.75 1095.39 887.348 1029.62 887.161C965.572 886.939 900.276 861.586 838.472 814.051Z" fill="#008EFF"/>
<path d="M840.547 843.722C750.387 781.621 689.34 687.376 604.364 613.897C600.262 610.351 596.102 606.836 591.87 603.389C527.654 551.212 450.865 521.245 380.908 521.266C360.578 521.239 340.453 523.116 320.807 526.385C271.264 534.644 226.548 550.772 180.145 568.774C169.187 573.026 158.048 577.497 146.906 581.879C89.4154 604.495 27.1439 630.087 -17.914 641.741C-51.0786 673.117 -72.0189 711.172 -86.6935 746.122C-109.91 801.264 -127.284 856.437 -139.973 909.249C-152.337 960.763 -154.043 1008.76 -119.336 1046.74C-71.0702 1099.4 30.4747 1131.58 124.426 1132.06C238.281 1132.7 353.251 1105.12 469.566 1077.54C585.301 1050.09 701.322 1024.63 817.46 1013.21C1044.49 990.945 1273.92 1010.98 1489.14 1085.65C1528.91 1099.46 1568.6 1115.12 1607.68 1130.08C1658.26 1149.42 1708.5 1167.66 1753.91 1162.28C1781.15 1159.03 1805.68 1144.19 1824.81 1121.74C1843.02 1100.35 1855.91 1072.26 1859.44 1038.99C1863.8 997.798 1853.61 946.679 1820.72 892.052C1805.4 866.641 1784.12 839.459 1761.55 822.204C1750.72 813.929 1739.9 808.417 1729.63 804.011C1719.77 799.783 1710.05 796.247 1700.72 792.753C1653.65 775.116 1604.63 762.639 1553.11 757.172C1507.24 752.319 1459.91 756.22 1413.01 768.199C1372.43 778.549 1332.09 794.534 1291.57 812.328C1273.59 820.235 1255.77 828.392 1238.11 836.319C1168.21 867.723 1100.64 894.902 1033.47 899.618C968.482 904.147 901.873 885.838 840.547 843.722Z" fill="#0179FF"/>
<path d="M844.245 855.409C800.3 830.497 762.92 797.472 726.954 759.69C689.681 720.522 654.595 677.352 613.093 638.16C609.038 634.331 604.93 630.536 600.742 626.803C537.252 570.248 461.347 536.24 391.551 536.523C371.3 536.581 351.11 538.912 331.299 542.994C280.529 553.471 233.164 574.848 184.263 597.16C172.646 602.484 160.88 607.907 149.123 613.135C88.9194 639.908 26.3339 664.162 -15.1987 667.936C-41.4935 697.572 -59.5433 732.678 -73.1497 765.205C-94.4722 816.04 -111.106 866.139 -122.88 913.835C-135.902 966.667 -136.738 1015.62 -102.54 1053.23C-54.7518 1105.65 44.8921 1135.64 137.421 1136.5C250.145 1137.58 364.109 1112.53 479.411 1087.08C594.152 1061.76 709.232 1037.83 824.462 1026.98C1049.87 1005.83 1277.57 1026.32 1491.29 1100.73C1530.82 1114.51 1570.18 1130.06 1609.05 1145.46C1659.34 1165.38 1709.63 1184.9 1755.32 1180.55C1781.16 1178.07 1804.96 1164.23 1823.68 1143.03C1841.62 1122.7 1854.53 1095.72 1858.29 1063.68C1863 1023.5 1853.14 973.359 1819.89 918.862C1803.7 892.348 1781.87 866.722 1759.2 849.505C1748.46 841.359 1737.73 835.465 1727.56 830.473C1717.68 825.623 1707.92 821.31 1698.42 817.102C1651.5 796.329 1603.48 780.248 1552.77 770.904C1508.42 762.748 1462.6 763.481 1417.08 773.211C1377.58 781.647 1338.13 796.383 1298.13 813.576C1280.29 821.252 1262.57 829.282 1244.93 837.168C1174.86 868.5 1106.35 895.72 1038.41 900.764C972.525 905.617 905.564 890.133 844.245 855.409Z" fill="#005FFF"/>
<path d="M849.335 851.875C805.69 833.02 768.324 808.629 733.344 776.294C696.583 742.293 662.783 700.587 622.056 660.242C618.039 656.263 613.965 652.311 609.815 648.4C546.721 589.012 471.846 551.066 402.237 552.001C382.058 552.264 361.807 555.206 341.815 560.304C289.741 573.607 239.677 601.363 188.186 629.231C175.893 635.896 163.471 642.547 151.076 648.864C88.0916 680.96 25.373 703.689 -12.6752 697.822C-31.974 725.315 -47.0888 756.313 -59.5759 785.727C-79.0044 831.399 -94.9519 875.887 -105.719 917.986C-119.557 972.163 -119.373 1021.99 -85.6933 1059.3C-38.3967 1111.54 59.3396 1139.56 150.438 1140.9C262.037 1142.55 374.987 1120 489.265 1096.71C603.006 1073.53 717.148 1051.15 831.459 1040.96C1055.24 1021.07 1281.17 1041.99 1493.43 1115.93C1532.72 1129.63 1571.76 1145.03 1610.43 1160.85C1660.43 1181.3 1710.75 1201.91 1756.75 1198.71C1805.41 1195.25 1848.98 1151.28 1857.06 1089.15C1862.08 1050.35 1852.45 1001.69 1818.86 947.707C1801.73 920.218 1779.33 896.544 1756.56 879.371C1745.93 871.331 1735.3 864.936 1725.25 859.223C1715.37 853.605 1705.57 848.38 1695.91 843.319C1649.2 818.857 1602.27 798.712 1552.4 785.051C1509.62 773.349 1465.32 770.745 1421.18 778.089C1382.8 784.478 1344.26 797.825 1304.79 814.049C1287.13 821.314 1269.53 829 1251.93 836.542C1181.91 866.553 1112.48 890.875 1044.26 892.742C977.54 894.53 910.88 878.457 849.335 851.875Z" fill="#0045FF"/>
</g>
<mask id="mask1_973_6242" style="mask-type:luminance" maskUnits="userSpaceOnUse" x="-5" y="0" width="1720" height="983">
<path d="M1715 0H-5V982.857H1715V0Z" fill="white"/>
</mask>
<g mask="url(#mask1_973_6242)">
<g opacity="0.3">
<path d="M1324.45 731.496C1280.48 734.366 1237.52 720.896 1198.5 693.744C1157.11 664.9 1118.6 621.801 1080.28 577.009C998.992 481.962 920.643 393.362 824.118 359.877C759.045 337.363 694.907 338.581 630.567 342.516C566.309 346.454 502.045 352.386 438.514 353.935C374.608 355.484 305.224 352.454 237.881 356.764C169.505 361.156 103.356 373.565 47.2822 386.107C-23.4732 401.938 -65.446 415.343 -119.824 438.823C-146.713 450.433 -179.816 465.08 -216.646 478.365C-252.609 491.337 -292.431 502.899 -332.268 519.468C-423.953 557.642 -469.182 620.839 -492.927 680.551C-531.259 777.055 -555.079 881.661 -569.88 983.411C-574.358 1014.21 -577.579 1044.26 -572.682 1072.26C-568.072 1098.52 -555.438 1124.13 -528.672 1149.51C-456.313 1218.02 -302.997 1272.8 -167.806 1263.91C-8.92828 1253.36 146.455 1185.86 303.811 1121.08C460.243 1056.69 617.254 1000.59 775.989 971.746C931.663 943.503 1088.78 936.097 1244.47 938.117C1399.13 940.144 1553.86 952.304 1705.5 988.414C1833.42 1018.91 1962.66 1064.2 2065.97 1033.88C2111.24 1020.54 2147.2 993.543 2172.84 956.792C2196.32 923.095 2210.08 882.361 2208.73 835.153C2207.91 807.001 2201.36 776.403 2189.08 745.43C2177.49 716.237 2160.53 686.028 2138.99 656.457C2122.76 634.186 2095.93 599.291 2065.52 576.607C2035.32 554.097 2007.65 548.165 1984.68 543.422C1925.78 531.259 1857.03 532.781 1787.27 549.687C1714.02 567.471 1639.26 601.311 1566.23 637.721C1480.32 680.561 1399.26 726.54 1324.45 731.496Z" fill="#D3F1FF"/>
<path d="M828.582 457.927C764.201 427.431 701.803 416.196 639.525 408.054C576.857 399.867 514.62 394.178 451.919 387.332C445.943 386.66 439.913 385.977 433.838 385.284C338.852 374.524 232.602 368.374 140.196 381.527C112.853 385.4 86.7189 390.161 62.127 395.004C3.74249 406.504 -38.3326 416.606 -82.8274 433.727C-93.1508 437.71 -103.635 442.072 -114.402 446.747C-171.366 471.479 -250.077 505.343 -326.648 540.893C-409.989 584.067 -451.911 644.199 -474.165 701.194C-510.483 794.248 -532.713 894.575 -547.094 991.96C-551.736 1023.42 -554.817 1054.12 -549.824 1082.46C-545.108 1109.14 -532.399 1134.87 -505.975 1159.82C-434.209 1227.44 -283.627 1277.87 -150.372 1268.64C7.0426 1257.7 161.331 1193.48 317.581 1131.53C472.937 1069.95 628.853 1015.61 786.469 986.882C941.115 958.737 1097.17 950.475 1251.87 952.847C1405.49 955.229 1559.2 968.975 1709.79 1005.97C1765.13 1019.58 1821.12 1036.18 1875.29 1048.56C1945.4 1064.57 2011.82 1073.11 2069.54 1056.87C2113.32 1044.52 2148.45 1017.96 2173.66 981.534C2196.89 947.912 2210.69 906.891 2209.84 859.479C2209.32 830.911 2203.24 799.869 2191.28 768.189C2179.92 738.171 2163.04 706.921 2140.96 675.974C2123.79 651.911 2096.3 615.597 2065.71 593.329C2049.96 581.862 2034.87 574.979 2020.72 570.723C2007.84 566.853 1995.58 565.099 1984.4 563.103C1922.37 552.029 1851.73 554.257 1779.73 570.638C1710.69 586.507 1640.47 615.594 1571.8 648.646C1513.28 676.797 1456.84 707.146 1402.01 728.895C1378.39 738.273 1355.29 745.89 1332.81 750.484C1288.81 759.49 1245.76 756.637 1205.43 740.84C1163.88 724.541 1123.92 694.71 1085.03 660.436C1044.07 624.344 1004.26 584.21 962.625 548.428C919.957 511.769 875.994 480.338 828.582 457.927Z" fill="#9EDDFF"/>
<path d="M833.032 560.387C704.537 485.307 589.041 453.689 465.375 422.415C459.451 420.917 453.465 419.398 447.425 417.92C353.531 395.035 247.809 383.957 155.311 394.697C128.075 397.826 101.93 402.038 77.0718 406.577C17.626 417.429 -27.6844 428.128 -75.155 445.597C-86.2156 449.686 -97.4639 454.218 -108.896 459.067C-169.41 484.748 -247.749 524.014 -320.972 560.933C-395.966 607.318 -434.382 665.87 -455.261 720.93C-489.422 810.968 -510.349 906.851 -524.276 999.673C-529.099 1031.85 -532.047 1063.22 -526.955 1091.95C-522.133 1119.07 -509.346 1144.94 -483.263 1169.5C-412.098 1236.35 -264.256 1282.67 -132.912 1273.29C23.0351 1262.14 176.235 1201.24 331.372 1142.15C485.647 1083.4 640.471 1030.87 796.96 1002.4C950.579 974.484 1105.58 965.536 1259.25 968.279C1411.85 971.03 1564.53 986.217 1714.08 1023.93C1769.1 1037.82 1824.65 1054.58 1878.56 1067.74C1948.36 1084.76 2015.15 1095.63 2073.12 1080.13C2115.35 1068.81 2149.65 1042.85 2174.42 1006.97C2197.4 973.634 2211.27 932.589 2210.91 885.238C2210.68 856.418 2205.04 825.083 2193.36 792.874C2182.24 762.193 2165.41 730.097 2142.84 698.052C2124.68 672.279 2096.54 635.261 2065.77 613.478C2050.15 602.411 2035.11 596.114 2020.97 592.248C2007.97 588.699 1995.49 587.026 1984.04 585.085C1921.39 574.471 1851.8 575.461 1780.54 589.101C1713.07 602.039 1644.49 627.511 1577.41 658.386C1520.09 684.749 1464.57 714.467 1410.35 738.782C1386.84 749.341 1363.82 758.736 1341.29 765.951C1254.08 793.928 1168.35 781.676 1089.94 736.223C1048.45 712.15 1007.78 681.384 966.131 650.581C923.1 618.758 879.421 587.385 833.032 560.387Z" fill="#6BCAFF"/>
<path d="M837.608 657.683C709.836 573.311 601.466 506.723 478.892 458.337C473.016 456.02 467.071 453.696 461.068 451.447C368.375 416.829 263.022 400.714 170.497 409.621C143.366 412.184 117.191 416.095 92.1072 420.624C31.5148 431.565 -16.9148 444.086 -67.392 462.525C-79.1897 466.862 -91.1956 471.65 -103.314 476.705C-167.22 503.371 -245.531 545 -315.239 581.423C-381.824 629.334 -416.631 686.964 -436.226 740.448C-468.155 827.489 -488.007 918.656 -501.439 1006.62C-506.466 1039.57 -509.282 1071.63 -504.091 1100.77C-499.163 1128.36 -486.29 1154.41 -460.552 1178.6C-389.998 1244.78 -244.897 1287.28 -115.443 1277.9C39.0364 1266.75 191.154 1209.21 345.176 1152.99C498.362 1097.08 652.094 1046.43 807.457 1018.34C960.045 990.787 1113.98 981.313 1266.63 984.436C1418.2 987.565 1569.84 1004.05 1718.35 1042.31C1773.05 1056.41 1828.17 1073.28 1881.84 1087.19C1951.31 1105.17 2018.45 1118.31 2076.69 1103.65C2117.33 1093.4 2150.79 1068.21 2175.13 1033.1C2197.86 1000.27 2211.81 959.475 2211.92 912.462C2212.03 856.436 2191.3 789.41 2144.64 722.736C2125.45 695.322 2096.66 658.291 2065.71 636.944C2050.22 626.27 2035.24 620.331 2021.12 616.588C2008.02 613.117 1995.34 611.271 1983.61 609.182C1920.52 597.958 1851.93 596.873 1781.38 607.22C1715.52 616.902 1648.57 638.596 1583.09 667.099C1526.96 691.507 1472.37 720.364 1418.78 746.492C1395.4 757.911 1372.44 768.681 1349.89 777.964C1262.23 814.128 1176.88 824.998 1095.13 800.218C1010.5 774.507 927.181 716.539 837.608 657.683Z" fill="#36B6FF"/>
<path d="M842.434 741.097C715.413 653.681 614.093 558.549 492.478 494.25C486.646 491.168 480.746 488.104 474.777 485.131C383.272 439.719 278.246 418.495 185.759 426.03C158.737 428.242 132.514 432.061 107.239 436.866C45.4116 448.636 -5.98709 464.15 -59.5289 484.637C-72.0535 489.431 -84.8272 494.687 -97.6487 500.089C-164.841 528.425 -243.409 570.381 -309.427 603.883C-367.508 651.828 -398.666 708.455 -417.033 760.352C-446.713 844.055 -465.674 930.13 -478.571 1012.87C-483.826 1046.62 -486.516 1079.39 -481.229 1108.96C-476.192 1137.03 -463.227 1163.28 -437.83 1187.15C-367.897 1252.77 -225.529 1291.7 -97.9525 1282.5C55.0661 1271.53 206.098 1217.36 359.001 1164.03C511.095 1110.98 663.734 1062.27 817.968 1034.69C1119.11 980.949 1427.73 983.86 1722.63 1061.07C1777 1075.32 1831.68 1092.24 1885.11 1106.86C1954.26 1125.78 2021.72 1141.08 2080.27 1127.38C2119.27 1118.22 2151.89 1093.96 2175.79 1059.86C2198.26 1027.76 2212.31 987.508 2212.89 941.126C2213.57 885.134 2193.77 817.88 2146.37 750.042C2126.09 721.038 2096.66 684.566 2065.55 663.595C2050.19 653.255 2035.27 647.446 2021.19 643.573C2007.99 639.945 1995.13 637.682 1983.1 635.246C1919.7 622.411 1852.06 618.462 1782.23 625.066C1717.99 631.157 1652.68 648.972 1588.8 674.918C1533.88 697.203 1480.25 724.972 1427.3 752.185C1404.05 764.154 1381.17 775.88 1358.62 786.664C1270.4 828.93 1185.31 856.211 1100.65 849.379C1016.41 842.516 930.037 801.082 842.434 741.097Z" fill="#00A3FF"/>
<path d="M847.61 804.015C721.518 720.506 626.645 607.337 506.143 529.296C500.355 525.549 494.495 521.836 488.557 518.225C398.103 463.38 293.487 436.791 201.099 443.61C174.193 445.606 147.908 449.592 122.473 454.961C59.3419 468.297 4.94009 488.169 -51.5674 511.823C-64.8427 517.382 -78.3571 523.341 -91.8918 529.323C-162.303 560.454 -241.341 601.57 -303.52 629.486C-352.973 676.223 -380.504 731.164 -397.673 781.143C-425.138 860.874 -443.355 941.383 -455.662 1018.43C-461.183 1053.03 -463.753 1086.51 -458.358 1116.51C-453.208 1145.08 -440.137 1171.54 -415.085 1195.14C-345.783 1260.29 -206.149 1295.94 -80.4319 1287.07C71.126 1276.46 221.083 1225.69 372.856 1175.26C523.851 1125.09 675.402 1078.37 828.499 1051.42C1127.6 998.883 1434.07 1002.53 1726.91 1080.16C1780.96 1094.51 1835.21 1111.42 1888.39 1126.73C1957.22 1146.53 2024.95 1163.87 2083.86 1151.23C2121.18 1143.2 2152.94 1120.03 2176.42 1087.16C2198.63 1056.02 2212.79 1016.61 2213.82 971.169C2215.06 915.607 2196.06 848.54 2148.02 779.979C2126.59 749.435 2096.55 714.056 2065.28 693.341C2050.06 683.27 2035.2 677.363 2021.18 673.124C2007.88 669.107 1994.87 666.21 1982.54 663.234C1918.94 647.874 1852.22 640.359 1783.1 642.765C1720.51 644.963 1656.84 658.781 1594.57 681.983C1540.86 701.978 1488.23 728.437 1435.9 756.036C1412.8 768.239 1390 780.522 1367.47 792.251C1278.74 838.48 1193.24 875.968 1106.54 882.033C1022.11 887.875 933.621 860.727 847.61 804.015Z" fill="#008EFF"/>
<path d="M853.194 842.939C728.419 769.746 638.921 651.397 519.886 562.718C514.139 558.439 508.32 554.204 502.413 550.071C412.779 487.472 308.705 455.341 216.511 462.081C189.714 463.996 163.375 468.402 137.797 474.596C73.3004 490.229 15.9158 515.78 -43.5129 543.955C-57.5459 550.61 -71.7973 557.572 -86.059 564.415C-159.657 599.736 -239.269 639.436 -297.53 659.12C-338.227 703.653 -362.174 755.812 -378.162 803.28C-403.467 878.175 -421.073 952.558 -432.728 1023.37C-444.078 1092.45 -441.727 1155.86 -392.338 1202.59C-323.678 1267.36 -186.768 1300.03 -62.9038 1291.64C87.2037 1281.56 236.076 1234.19 386.719 1186.68C536.612 1139.41 687.071 1094.72 839.028 1068.53C1136.09 1017.41 1440.37 1021.8 1731.17 1099.55C1784.91 1113.94 1838.72 1130.78 1891.66 1146.73C1960.17 1167.37 2028.13 1186.59 2087.46 1175.15C2123.05 1168.25 2153.95 1146.34 2177.01 1114.92C2198.96 1084.97 2213.25 1046.72 2214.71 1002.54C2216.51 947.838 2198.17 881.444 2149.58 812.613C2126.96 780.595 2096.31 746.813 2064.9 726.241C2049.83 716.375 2035.04 710.15 2021.08 705.328C2007.69 700.704 1994.54 696.974 1981.91 693.261C1918.18 674.535 1852.39 662.796 1783.97 660.533C1723.05 658.537 1661.04 668.219 1600.38 688.504C1547.9 706.038 1496.28 730.971 1444.58 758.31C1421.64 770.456 1398.95 782.913 1376.43 795.058C1287.32 843.15 1200.89 885.45 1112.82 898.108C1027.59 910.298 938.054 892.559 853.194 842.939Z" fill="#0179FF"/>
<path d="M859.19 857.964C798.884 829.348 746.455 789.413 695.432 743.069C642.555 695.028 592.17 641.5 533.717 593.831C528.008 589.176 522.227 584.569 516.35 580.047C427.255 511.606 323.956 474.073 232.001 481.137C205.317 483.158 178.937 488.164 153.219 495.443C87.3159 514.121 26.9419 546.838 -35.3604 580.935C-50.1578 589.064 -65.1464 597.34 -80.1384 605.359C-156.907 646.418 -237.064 684.387 -291.432 693.342C-323.242 734.923 -343.66 782.919 -358.471 827.089C-381.695 896.128 -398.809 963.747 -409.75 1027.74C-421.845 1098.61 -418.248 1163.2 -369.573 1209.49C-301.568 1273.99 -167.37 1303.95 -45.3459 1296.21C103.318 1286.82 251.105 1242.86 400.612 1198.27C549.399 1153.9 698.766 1111.31 849.58 1085.96C1144.62 1036.47 1446.65 1041.62 1735.45 1119.18C1788.87 1133.55 1842.23 1150.27 1894.94 1166.83C1963.12 1188.26 2031.28 1209.16 2091.07 1199.04C2124.89 1193.29 2154.92 1172.78 2177.56 1143.04C2199.25 1114.51 2213.67 1077.72 2215.56 1035.13C2217.91 981.736 2200.11 916.601 2151.06 847.972C2127.18 814.582 2095.95 782.908 2064.42 762.395C2049.49 752.689 2034.78 745.949 2020.9 740.345C2007.42 734.905 1994.14 730.155 1981.21 725.521C1917.38 702.645 1852.56 686.059 1784.84 678.61C1725.61 672.115 1665.29 677.477 1606.23 694.67C1554.99 709.576 1504.42 732.779 1453.34 759.279C1430.57 771.101 1407.99 783.386 1385.49 795.474C1296.16 843.487 1208.48 885.931 1119.44 899.097C1033.06 911.82 943.33 897.838 859.19 857.964Z" fill="#005FFF"/>
<path d="M865.558 852.857C806.229 832.197 754.649 803.636 705.445 764.376C653.736 723.093 605.19 671.373 547.645 622.111C541.97 617.255 536.223 612.436 530.373 607.679C441.527 535.469 339.211 492.64 247.563 500.551C220.992 502.834 194.588 508.652 168.73 517.29C101.377 539.817 38.0644 581.196 -27.1216 622.865C-42.6834 632.83 -58.416 642.785 -74.1451 652.3C-154.067 700.644 -234.542 736.614 -285.248 732.532C-308.045 770.614 -324.992 812.918 -338.626 852.881C-359.849 914.937 -376.599 975.096 -386.748 1031.61C-399.785 1104.33 -394.768 1169.99 -346.799 1215.92C-279.456 1280.23 -147.965 1307.78 -27.7768 1300.81C119.454 1292.27 266.145 1251.72 414.516 1210.06C562.19 1168.6 710.465 1128.16 860.136 1103.76C1153.15 1056.08 1452.89 1061.97 1739.72 1139.06C1792.82 1153.34 1845.75 1169.9 1898.23 1187.03C1966.08 1209.18 2034.38 1231.52 2094.69 1222.89C2158.49 1213.67 2211.69 1151.53 2216.38 1068.88C2219.27 1017.26 2201.9 954.05 2152.46 886.138C2127.25 851.55 2095.45 822.501 2063.81 802.056C2049.02 792.483 2034.4 785.074 2020.6 778.508C2007.04 772.055 1993.64 766.106 1980.42 760.366C1916.51 732.607 1852.72 710.561 1785.69 697.344C1728.19 686.027 1669.56 686.843 1612.1 700.757C1562.13 712.858 1512.61 734.146 1462.16 759.312C1439.57 770.58 1417.12 782.398 1394.65 794.029C1305.25 840.298 1216.09 879.012 1126.36 888.018C1038.61 896.775 949.217 881.981 865.558 852.857Z" fill="#0045FF"/>
</g>
</g>
</svg>
