<svg width="1600" height="957" viewBox="0 0 1600 957" fill="none" xmlns="http://www.w3.org/2000/svg">
<mask id="mask0_973_1767" style="mask-type:luminance" maskUnits="userSpaceOnUse" x="-117" y="0" width="1878" height="1299">
<path d="M1621.18 0.000966048L-116.999 369.124L22.7854 1298.7L1760.96 929.575L1621.18 0.000966048Z" fill="white"/>
</mask>
<g mask="url(#mask0_973_1767)">
<path d="M1219.25 865.021C1185.71 871.764 1152.07 866.736 1120.75 851.521C1087.51 835.351 1055.73 808.698 1024.02 780.814C956.733 721.645 892.039 666.766 816.309 653.169C765.26 644.046 716.174 651.764 667.074 661.445C618.04 671.115 569.102 682.213 520.498 690.099C471.604 698.029 418.278 703.271 366.898 713.541C314.732 723.974 264.69 739.897 222.381 754.835C168.991 773.689 137.531 787.739 97.0925 810.303C77.0968 821.462 52.4994 835.45 24.9728 848.868C-1.90554 861.967 -31.8124 874.471 -61.4715 890.551C-129.727 927.59 -161.068 977.53 -176.127 1022.69C-200.434 1095.67 -213.191 1172.88 -219.189 1247.1C-221.002 1269.57 -221.895 1291.36 -216.669 1310.82C-211.756 1329.08 -200.73 1346 -178.885 1361.27C-119.836 1402.44 0.53046 1425.18 103.664 1404.4C224.86 1379.9 340.391 1315.13 457.574 1252.09C574.069 1189.43 691.444 1132.61 811.571 1095.08C929.386 1058.3 1049.39 1036.24 1168.82 1021.06C1287.44 1005.99 1406.65 998.152 1524.75 1007.74C1624.39 1015.85 1725.8 1034.38 1803.37 1001.71C1837.37 987.35 1863.51 964.241 1881.23 935.271C1897.45 908.71 1905.85 878.163 1902.34 844.609C1900.23 824.603 1893.6 803.457 1882.57 782.658C1872.16 763.057 1857.58 743.302 1839.51 724.494C1825.91 710.329 1803.51 688.285 1779.02 675.34C1754.69 662.495 1733.17 661.218 1715.33 660.284C1669.55 657.892 1616.94 666.316 1564.37 685.835C1509.17 706.351 1453.66 738.488 1399.61 772.276C1336.01 812.022 1276.31 853.499 1219.25 865.021Z" fill="url(#paint0_linear_973_1767)"/>
<path d="M824.997 723.296C774.057 708.401 725.654 707.044 677.502 707.88C629.052 708.725 581.059 711.31 532.649 713.116C528.034 713.274 523.38 713.43 518.686 713.585C445.333 716.045 363.588 722.998 293.469 742.249C272.719 747.935 252.942 754.122 234.351 760.203C190.215 774.642 158.506 786.347 125.307 803.316C117.603 807.259 109.802 811.495 101.796 815.979C59.443 839.713 0.904991 872.287 -55.9019 905.834C-117.499 945.546 -146.466 992.938 -160.527 1036C-183.471 1106.29 -195.236 1180.27 -201.142 1251.31C-203.046 1274.26 -203.796 1296.5 -198.481 1316.2C-193.464 1334.74 -182.376 1351.74 -160.815 1366.73C-102.268 1407.33 15.7734 1427.25 117.403 1406.44C237.456 1381.82 352.313 1319.51 468.797 1258.62C584.613 1198.09 701.237 1142.65 820.511 1105.32C937.54 1068.73 1056.69 1046.17 1175.36 1031.35C1293.21 1016.65 1411.72 1010.05 1529.06 1020.38C1572.18 1024.19 1615.96 1030.06 1658.12 1033.12C1712.69 1037.06 1764.03 1036.07 1807.42 1018.31C1840.32 1004.82 1865.84 982.113 1883.24 953.425C1899.28 926.949 1907.7 896.195 1904.56 862.446C1902.66 842.111 1896.37 820.605 1885.54 799.27C1875.26 779.056 1860.68 758.553 1842.14 738.826C1827.71 723.483 1804.74 700.499 1780.13 687.872C1767.46 681.369 1755.54 678.067 1744.47 676.541C1734.39 675.155 1724.91 675.213 1716.24 674.98C1668.12 673.698 1614.1 682.828 1559.79 702.207C1507.72 720.903 1455.43 749.161 1404.55 780.08C1361.18 806.422 1319.53 834.107 1278.66 855.484C1261.05 864.699 1243.75 872.603 1226.76 878.281C1193.51 889.405 1160.37 891.969 1128.63 884.997C1095.94 877.798 1063.75 860.773 1032.15 840.465C998.87 819.076 966.251 794.68 932.468 773.586C897.848 751.975 862.509 734.233 824.997 723.296Z" fill="url(#paint1_linear_973_1767)"/>
<path d="M833.904 796.537C731.495 756.672 641.332 746.434 544.925 737.315C540.307 736.88 535.639 736.433 530.933 736.024C457.781 729.711 376.187 733.091 305.867 750.633C285.158 755.772 265.346 761.569 246.535 767.46C201.554 781.55 167.394 794.023 131.934 811.559C123.673 815.657 115.291 820.092 106.784 824.775C61.7627 849.56 3.7935 885.947 -50.3763 920.113C-105.406 961.223 -131.771 1007.11 -144.88 1048.63C-166.328 1116.54 -177.327 1187.2 -183.125 1254.93C-185.132 1278.41 -185.743 1301.12 -180.331 1321.07C-175.21 1339.92 -164.054 1357.02 -142.776 1371.75C-84.7332 1411.87 30.9916 1429.15 131.147 1408.43C250.065 1383.83 364.261 1324.01 480.04 1265.28C595.172 1206.88 711.056 1152.87 829.478 1115.84C945.73 1079.53 1064.04 1056.59 1181.94 1042.15C1299.02 1027.82 1416.81 1022.36 1533.39 1033.31C1576.28 1037.35 1619.73 1043.39 1661.74 1047.02C1716.11 1051.72 1767.87 1052.35 1811.47 1035.1C1843.24 1022.51 1868.16 1000.33 1885.25 972.077C1901.11 945.834 1909.58 915.06 1906.82 881.303C1905.13 860.759 1899.16 838.999 1888.53 817.257C1878.39 796.548 1863.81 775.44 1844.83 754.979C1829.56 738.523 1806.06 715.109 1781.33 702.849C1768.78 696.616 1756.92 693.729 1745.88 692.479C1735.74 691.334 1726.09 691.472 1717.21 691.308C1668.65 690.421 1615.38 698.553 1561.48 715.896C1510.46 732.331 1459.25 757.832 1409.47 787.027C1366.92 811.962 1325.94 839.098 1285.67 862.236C1268.21 872.281 1251.06 881.443 1234.18 888.996C1168.81 918.27 1102.48 918.68 1040.01 894.609C1006.95 881.859 974.17 864.24 940.64 846.703C905.99 828.584 870.869 810.857 833.904 796.537Z" fill="url(#paint2_linear_973_1767)"/>
<path d="M842.646 866.104C740.307 819.535 653.766 783.583 557.303 762.141C552.68 761.115 548 760.09 543.284 759.126C470.437 744.316 388.86 744.063 318.43 760.292C297.778 765.016 277.923 770.602 258.939 776.509C213.081 790.783 176.628 804.887 138.921 823.433C130.11 827.789 121.159 832.486 112.141 837.386C64.5706 863.235 6.75087 901.297 -44.7515 934.73C-93.2602 976.026 -116.901 1020.86 -129.107 1061.12C-149.001 1126.64 -159.426 1193.81 -165.098 1258.02C-167.219 1282.06 -167.693 1305.24 -162.188 1325.48C-156.961 1344.64 -145.732 1361.86 -124.735 1376.38C-67.1955 1416.07 46.2266 1430.91 144.929 1410.4C262.717 1385.96 376.259 1328.66 491.331 1272.1C605.777 1215.85 720.919 1163.31 838.493 1126.68C953.971 1090.73 1071.43 1067.54 1188.56 1053.48C1304.87 1039.54 1421.93 1035.12 1537.75 1046.57C1580.4 1050.8 1623.52 1056.95 1665.38 1061.14C1719.56 1066.57 1771.69 1068.77 1815.56 1052.1C1846.16 1040.44 1870.48 1018.89 1887.28 991.246C1902.97 965.391 1911.51 934.793 1909.14 901.233C1906.28 861.241 1886.87 815.63 1847.62 773.03C1831.47 755.514 1807.46 732.165 1782.63 720.234C1770.2 714.271 1758.4 711.632 1747.39 710.468C1737.17 709.391 1727.36 709.425 1718.25 709.188C1669.32 707.913 1616.71 714.456 1563.19 729.37C1513.23 743.308 1463.06 765.934 1414.39 793.262C1372.66 816.668 1332.35 843.087 1292.65 867.454C1275.34 878.1 1258.31 888.234 1241.52 897.264C1176.25 932.426 1111.41 949.293 1047.47 940.334C981.265 931.015 914.374 898.545 842.646 866.104Z" fill="url(#paint3_linear_973_1767)"/>
<path d="M850.907 925.882C748.983 877.059 666.348 819.984 569.778 787.081C565.149 785.506 560.465 783.945 555.736 782.463C483.233 759.82 401.636 755.888 331.164 771.134C310.574 775.596 290.681 781.119 271.564 787.246C224.805 802.245 186.233 818.8 146.28 839.134C136.936 843.893 127.423 849.005 117.884 854.23C67.8854 881.621 9.88273 919.949 -38.9467 950.904C-80.9353 991.317 -101.837 1035.05 -113.186 1074.05C-131.533 1136.95 -141.543 1200.39 -147.078 1260.81C-149.333 1285.46 -149.671 1309.13 -144.068 1329.67C-138.734 1349.17 -127.42 1366.51 -106.703 1380.84C-49.6681 1420.2 61.4665 1432.78 158.748 1412.6C275.427 1388.44 388.317 1333.67 502.68 1279.29C616.44 1225.2 730.847 1174.14 847.584 1138C1075.52 1067.51 1312.17 1036.65 1542.19 1060.27C1584.61 1064.64 1627.4 1070.87 1669.1 1075.61C1723.09 1081.73 1775.58 1085.44 1819.73 1069.42C1849.14 1058.72 1872.85 1037.93 1889.38 1011.04C1904.92 985.727 1913.57 955.505 1911.58 922.345C1909.16 882.315 1890.45 836.438 1850.56 793.084C1833.5 774.549 1809.03 751.664 1784.09 740.02C1771.78 734.281 1760.04 731.728 1749.05 730.468C1738.75 729.288 1728.78 729.046 1719.43 728.591C1670.17 726.199 1618.13 730.599 1564.97 742.765C1516.06 753.968 1466.95 773.653 1419.37 798.986C1378.44 820.751 1338.82 846.291 1299.66 871.364C1282.48 882.383 1265.56 893.196 1248.85 903.298C1183.47 942.876 1119.7 971.427 1054.46 975.585C989.546 979.69 921.188 959.339 850.907 925.882Z" fill="url(#paint4_linear_973_1767)"/>
<path d="M858.458 971.235C757.44 925.078 678.79 854.411 582.345 811.559C577.712 809.502 573.027 807.478 568.288 805.535C496.087 776.035 414.518 768.224 344.073 782.959C323.558 787.257 303.624 792.911 284.413 799.461C236.732 815.724 196.085 835.72 154.026 858.643C144.147 864.029 134.099 869.727 124.04 875.443C71.713 905.186 13.3055 942.981 -32.8829 969.555C-68.3261 1008.2 -86.5393 1050.37 -97.0712 1087.89C-113.93 1147.75 -123.664 1207.17 -129.047 1263.49C-131.46 1288.79 -131.673 1312.96 -125.963 1333.81C-120.516 1353.66 -109.109 1371.15 -88.6701 1385.33C-32.1375 1424.44 76.7428 1434.98 172.621 1415.23C288.209 1391.47 400.462 1339.2 514.124 1286.99C627.205 1235.05 740.891 1185.51 856.799 1149.92C1083.26 1080.47 1318.31 1050.34 1546.81 1074.5C1588.99 1078.97 1631.44 1085.25 1673 1090.5C1726.79 1097.29 1779.61 1102.43 1824.1 1087.12C1852.27 1077.4 1875.39 1057.47 1891.66 1031.49C1907.05 1006.89 1915.83 977.238 1914.23 944.684C1912.27 904.885 1894.18 859.029 1853.76 815.209C1835.74 795.688 1810.85 773.639 1785.81 762.188C1773.62 756.624 1761.92 753.989 1750.95 752.461C1740.55 751.011 1730.42 750.334 1720.82 749.525C1671.27 745.351 1619.74 747.108 1566.89 756.207C1519.05 764.458 1470.98 781.122 1424.48 804.34C1384.37 824.35 1345.42 848.863 1306.77 874.156C1289.71 885.335 1272.88 896.54 1256.23 907.32C1190.66 949.801 1127.11 985.697 1060.98 999.284C996.587 1012.48 927.352 1002.54 858.458 971.235Z" fill="url(#paint5_linear_973_1767)"/>
<path d="M865.066 999.457C765.589 960.507 690.783 885.532 594.892 834.903C590.263 832.46 585.58 830.058 580.835 827.734C508.848 792.594 427.397 780.765 357.093 795.428C336.658 799.658 316.7 805.618 297.422 812.775C248.811 830.835 206.173 855.213 162.108 881.688C151.702 887.941 141.146 894.435 130.573 900.848C76.0235 933.94 17.0938 970.804 -26.5258 991.087C-55.3771 1027.24 -70.9895 1067.06 -80.7482 1102.67C-96.2089 1158.88 -105.793 1213.89 -111.006 1265.72C-116.078 1316.27 -110.942 1361.31 -70.6387 1389.41C-14.6131 1428.35 92.0332 1437.05 186.524 1417.83C301.039 1394.59 412.649 1344.86 525.608 1294.82C638.003 1245.04 750.971 1197.05 866.059 1162.1C1091.05 1093.85 1324.48 1064.48 1551.44 1088.95C1593.38 1093.49 1635.51 1099.76 1676.92 1105.51C1730.51 1112.93 1783.61 1119.4 1828.47 1104.89C1855.39 1096.16 1877.92 1077.2 1893.94 1052.3C1909.19 1028.56 1918.13 999.71 1916.94 967.994C1915.44 928.727 1897.9 883.264 1857.04 839.285C1838.02 818.83 1812.76 797.975 1787.61 786.633C1775.54 781.196 1763.87 778.329 1752.93 776.377C1742.42 774.502 1732.14 773.245 1722.27 771.944C1672.44 765.376 1621.4 764.019 1568.84 769.713C1522.04 774.797 1475.03 788.336 1429.61 809.307C1390.3 827.439 1352.05 850.765 1313.87 875.816C1296.92 886.942 1280.18 898.266 1263.56 909.345C1197.79 953.218 1133.77 992.667 1066.93 1011.12C1002.27 1028.94 932.711 1025.83 865.066 999.457Z" fill="url(#paint6_linear_973_1767)"/>
<path d="M870.743 1010.59C823.017 996.589 780.733 973.653 739.189 945.99C696.134 917.31 654.706 884.443 607.398 856.626C602.776 853.909 598.105 851.234 593.363 848.633C521.476 809.246 440.329 793.463 370.218 808.343C349.872 812.638 329.912 819.038 310.584 826.989C261.05 847.38 216.497 877.213 170.533 908.238C159.617 915.63 148.564 923.146 137.494 930.478C80.8067 968.025 21.3655 1003.73 -19.8394 1015.94C-42.0369 1049.05 -55.1664 1085.53 -64.1982 1118.68C-78.3714 1170.5 -87.937 1220.66 -92.9611 1267.55C-98.5074 1319.49 -92.3594 1365.26 -52.616 1393.15C2.89912 1431.97 107.332 1439.04 200.453 1420.46C313.906 1397.86 424.873 1350.65 537.128 1302.81C648.839 1255.19 761.087 1208.8 875.355 1174.56C1098.89 1107.66 1330.67 1079.06 1556.1 1103.62C1597.8 1108.17 1639.58 1114.41 1680.85 1120.62C1734.24 1128.64 1787.58 1136.29 1832.87 1122.68C1858.49 1114.95 1880.43 1097.08 1896.23 1073.41C1911.35 1050.71 1920.47 1022.88 1919.69 992.24C1918.68 953.831 1901.61 909.186 1860.42 865.382C1840.35 844.075 1814.75 824.776 1789.51 813.486C1777.55 808.146 1765.92 804.904 1754.99 802.382C1744.37 799.933 1733.94 797.96 1723.79 796.03C1673.67 786.504 1623.11 781.58 1570.81 783.495C1525.07 785.185 1479.12 795.465 1434.75 814.062C1396.27 830.19 1358.72 852.179 1320.96 876.573C1304.13 887.458 1287.47 898.649 1270.86 909.691C1204.91 953.55 1139.93 993.255 1072.38 1012.18C1006.84 1030.5 937.332 1030.1 870.743 1010.59Z" fill="url(#paint7_linear_973_1767)"/>
<path d="M875.646 1007.27C829.083 998.839 788.042 983.937 748.264 961.131C706.457 937.147 666.528 905.36 619.83 876.294C615.224 873.427 610.564 870.598 605.834 867.823C533.935 825.696 453.255 806.02 383.419 821.475C363.173 825.947 343.238 832.932 323.871 841.872C273.426 865.179 227.066 901.534 179.288 938.293C167.884 947.08 156.347 955.881 144.79 964.365C86.0623 1007.47 26.2646 1041.79 -12.8179 1044.3C-28.2911 1073.96 -39.0582 1106.02 -47.41 1136.05C-60.4178 1182.68 -70.0957 1227.48 -74.9074 1268.97C-81.082 1322.36 -73.7816 1368.76 -34.6012 1396.47C20.3987 1435.24 122.642 1440.88 214.403 1423.05C326.814 1401.2 437.129 1356.53 548.672 1310.88C659.692 1265.44 771.228 1220.67 884.676 1187.23C1106.78 1121.81 1336.86 1093.97 1560.77 1118.41C1602.22 1122.94 1643.67 1129.12 1684.8 1135.75C1737.97 1144.33 1791.5 1153 1837.28 1140.38C1885.7 1126.97 1923.21 1076.86 1922.47 1017.27C1921.97 980.051 1905.34 936.72 1863.86 893.453C1842.72 871.422 1816.83 854.053 1791.49 842.819C1779.65 837.554 1768.06 833.821 1757.14 830.602C1746.4 827.438 1735.81 824.62 1725.38 821.928C1674.93 808.917 1624.88 799.976 1572.8 797.693C1528.13 795.75 1483.24 802.604 1439.92 818.696C1402.25 832.69 1365.41 853.204 1328.06 876.593C1311.34 887.065 1294.74 897.914 1278.13 908.63C1212.03 951.269 1145.72 988.481 1077.42 1004.51C1010.6 1020.16 941.304 1019.15 875.646 1007.27Z" fill="url(#paint8_linear_973_1767)"/>
</g>
<mask id="mask1_973_1767" style="mask-type:luminance" maskUnits="userSpaceOnUse" x="-117" y="0" width="1878" height="1299">
<path d="M1621.18 0.000966048L-116.999 369.124L22.7854 1298.7L1760.96 929.575L1621.18 0.000966048Z" fill="white"/>
</mask>
<g mask="url(#mask1_973_1767)">
<g opacity="0.3">
<path d="M1334.9 790.639C1291.11 802.526 1246 798.964 1202.9 781.813C1157.16 763.584 1112.29 731.453 1067.38 697.704C972.081 626.085 880.661 559.863 778.848 548.853C710.218 541.487 645.919 556.059 581.807 573.207C517.777 590.341 454.025 609.335 390.385 624.089C326.367 638.922 256.189 650.63 189.111 668.757C121.005 687.178 56.2856 712.608 1.71173 736.052C-67.1499 765.639 -107.426 786.935 -158.731 820.224C-184.101 836.686 -215.283 857.281 -250.406 877.388C-284.703 897.02 -323.081 916.146 -360.757 939.944C-447.465 994.755 -483.897 1063.17 -499.232 1123.84C-523.971 1221.87 -532.966 1324.43 -533.302 1422.43C-533.401 1452.09 -532.345 1480.79 -523.421 1505.88C-515.032 1529.41 -498.674 1550.64 -468.14 1568.71C-385.612 1617.45 -223.669 1636.43 -89.044 1599.81C69.1533 1556.68 215.7 1461.18 364.618 1367.8C512.663 1274.98 662.475 1189.76 817.915 1129.61C970.363 1070.65 1127.24 1030.83 1284.04 1000.1C1439.78 969.596 1597.06 948.524 1754.65 950.435C1887.6 952.08 2023.98 967.244 2123.49 917.329C2167.1 895.402 2199.39 862.69 2219.91 823.041C2238.7 786.694 2246.71 745.821 2238.6 702.074C2233.75 675.991 2222.8 648.824 2206.02 622.509C2190.21 597.709 2168.84 573.086 2142.96 550.019C2123.46 532.647 2091.5 505.724 2057.7 490.935C2024.12 476.267 1995.46 476.533 1971.69 476.92C1910.75 477.914 1841.85 493.737 1774.15 524.118C1703.05 556.05 1632.75 603.272 1564.53 652.53C1484.3 710.483 1409.39 770.347 1334.9 790.639Z" fill="url(#paint9_linear_973_1767)"/>
<path d="M797.675 640.869C728.612 625.925 664.293 628.516 600.536 633.964C536.382 639.452 473.017 647.177 409.02 653.922C402.918 654.546 396.76 655.172 390.556 655.798C293.552 665.652 185.885 682.161 94.8919 713.76C67.9646 723.093 42.3783 733 18.354 742.66C-38.6822 765.599 -79.5266 783.819 -121.8 809.089C-131.606 814.961 -141.52 821.22 -151.673 827.831C-205.392 862.802 -279.661 910.836 -351.539 959.993C-429.133 1017.67 -462.674 1082.48 -476.896 1140.26C-500.101 1234.58 -508.107 1332.73 -508.645 1426.49C-508.814 1456.78 -507.526 1486.03 -498.457 1511.41C-489.904 1535.28 -473.455 1556.59 -443.332 1574.31C-361.54 1622.31 -202.99 1637.79 -70.3797 1601.3C86.266 1558.15 232.157 1466 380.346 1375.57C527.688 1285.66 676.628 1202.39 830.935 1142.62C982.342 1084.03 1138.01 1043.66 1293.82 1013.49C1448.56 983.556 1605.02 964.193 1761.65 967.147C1819.22 968.244 1877.86 972 1934.07 972.197C2006.82 972.441 2074.8 966.503 2130.5 939.284C2172.73 918.608 2204.25 886.505 2224.37 847.282C2242.92 811.087 2250.93 769.969 2243.3 725.963C2238.69 699.45 2228.15 671.794 2211.59 644.775C2195.9 619.177 2174.46 593.589 2147.85 569.371C2127.15 550.541 2094.33 522.452 2060.41 508.104C2042.93 500.715 2026.79 497.457 2011.96 496.454C1998.46 495.544 1985.89 496.475 1974.37 496.954C1910.44 499.618 1839.76 516.481 1769.74 546.817C1702.62 576.057 1636.19 617.862 1571.9 663.036C1517.11 701.52 1464.72 741.617 1412.73 773.361C1390.33 787.045 1368.2 798.978 1346.26 807.964C1303.32 825.568 1259.64 831.921 1216.85 825.641C1172.77 819.147 1128.34 799.712 1084.35 775.913C1038.04 750.85 992.288 721.782 945.329 697.151C897.206 671.919 848.53 651.83 797.675 640.869Z" fill="url(#paint10_linear_973_1767)"/>
<path d="M816.931 736.241C677.062 693.177 556.468 687.887 427.712 684.628C421.544 684.472 415.311 684.309 409.029 684.197C311.394 682.523 203.558 694.327 112.13 723.691C85.2041 732.307 59.5298 741.702 35.1955 751.134C-22.9982 773.686 -67.0073 793.137 -112.22 819.349C-122.752 825.473 -133.409 832.05 -144.206 838.961C-201.355 875.553 -274.476 928.534 -342.791 978.256C-411.534 1037.17 -441.777 1099.77 -454.893 1155.44C-476.36 1246.48 -483.691 1340.2 -484.425 1429.6C-484.673 1460.59 -483.155 1490.43 -473.932 1516.14C-465.21 1540.4 -448.661 1561.83 -418.939 1579.25C-337.864 1626.64 -182.661 1638.87 -51.9979 1602.63C103.14 1559.61 248.407 1470.81 395.88 1383.29C542.534 1296.25 690.63 1214.91 843.836 1155.63C994.238 1097.47 1148.74 1056.7 1303.57 1027.1C1457.34 997.723 1612.95 979.921 1768.64 983.763C1825.92 985.188 1884.14 989.184 1940.21 990.159C2012.78 991.411 2081.47 987.56 2137.51 960.992C2178.34 941.6 2209.1 910.241 2228.87 871.625C2247.2 835.752 2255.27 794.606 2248.14 750.563C2243.79 723.757 2233.65 695.741 2217.31 668.173C2201.75 641.916 2180.25 615.531 2152.99 590.397C2131.05 570.183 2097.49 541.581 2063.44 527.725C2046.16 520.682 2030.15 517.963 2015.38 517.32C2001.82 516.732 1989.03 517.786 1977.24 518.374C1912.77 521.595 1842.97 537.08 1773.3 564.703C1707.34 590.877 1642.06 628.964 1579.05 671.769C1525.21 708.33 1473.65 747.639 1422.64 781.641C1400.52 796.398 1378.72 809.971 1357.11 821.408C1273.46 865.727 1185.56 872.252 1100.25 846.311C1055.11 832.564 1009.84 812.409 963.586 792.424C915.792 771.778 867.41 751.688 816.931 736.241Z" fill="url(#paint11_linear_973_1767)"/>
<path d="M835.576 826.755C695.112 774.891 576.687 735.534 446.589 716.107C440.351 715.178 434.045 714.257 427.691 713.418C329.59 700.563 221.408 707.595 129.695 735.252C102.795 743.316 77.0474 752.437 52.4861 761.904C-6.84515 784.774 -53.7272 806.572 -101.821 834.311C-113.058 840.82 -124.44 847.792 -135.897 855.036C-196.311 893.25 -269.065 948.415 -333.916 996.932C-393.987 1055.5 -420.732 1116.47 -432.784 1170.39C-452.435 1258.15 -459.359 1347.24 -460.289 1432C-460.634 1463.74 -458.882 1494.19 -449.502 1520.26C-440.607 1544.93 -423.948 1566.5 -394.624 1583.65C-314.262 1630.54 -162.366 1639.76 -33.6065 1603.94C120.05 1561.24 264.704 1475.8 411.461 1391.2C557.421 1307.06 704.683 1227.71 856.807 1169.04C1006.22 1111.45 1159.57 1070.41 1313.42 1041.38C1466.2 1012.58 1620.95 996.209 1775.67 1000.77C1832.66 1002.47 1890.46 1006.65 1946.38 1008.37C2018.77 1010.59 2088.12 1008.78 2144.56 982.945C2183.94 964.886 2213.97 934.419 2233.41 896.623C2251.56 861.28 2259.75 820.361 2253.15 776.541C2245.26 724.325 2214.84 666.226 2158.43 613.875C2135.22 592.353 2100.99 563.881 2066.84 550.47C2049.75 543.767 2033.84 541.37 2019.12 540.836C2005.46 540.344 1992.45 541.277 1980.36 541.787C1915.35 544.532 1846.27 557.871 1776.84 582.272C1712.04 605.072 1647.85 639.291 1586.12 679.544C1533.19 714.026 1482.46 752.33 1432.34 787.883C1410.47 803.413 1388.94 818.25 1367.6 831.615C1284.67 883.647 1200.44 911.632 1114.75 905.653C1026.03 899.408 934.006 862.841 835.576 826.755Z" fill="url(#paint12_linear_973_1767)"/>
<path d="M852.495 904.269C712.357 849.424 596.944 782.017 465.541 747.572C459.239 745.922 452.871 744.302 446.448 742.782C348.003 719.629 239.425 721.832 147.557 748.198C120.718 755.91 94.9105 764.952 70.1976 774.715C9.74585 798.611 -39.6903 823.812 -90.5698 854.093C-102.471 861.179 -114.557 868.746 -126.67 876.459C-190.146 916.906 -263.107 972.417 -324.666 1017.43C-376.183 1074.23 -399.404 1133.49 -410.447 1185.67C-428.315 1269.84 -435.071 1353.97 -436.21 1433.73C-436.669 1466.26 -434.689 1497.35 -425.153 1523.77C-416.08 1548.87 -399.301 1570.6 -370.366 1587.53C-290.712 1634.01 -142.078 1640.48 -15.1852 1605.23C137.023 1563 281.063 1480.96 427.101 1399.3C572.367 1318.08 718.801 1240.77 869.857 1182.83C1164.81 1069.78 1475.37 1007.93 1782.76 1018.15C1839.44 1020.05 1896.81 1024.36 1952.59 1026.81C2024.79 1029.97 2094.76 1030.1 2151.65 1005.09C2189.53 988.404 2218.84 958.989 2237.99 922.227C2255.99 887.626 2264.35 847.201 2258.31 803.881C2250.99 751.59 2221.48 693.095 2164.15 639.829C2139.63 617.058 2104.84 589.246 2070.58 576.223C2053.68 569.804 2037.85 567.517 2023.15 566.854C2009.36 566.237 1996.12 566.819 1983.68 567.067C1918.13 568.375 1849.6 578.847 1780.36 599.606C1716.67 618.717 1653.59 648.971 1593.1 686.499C1541.09 718.744 1491.16 755.825 1441.83 792.248C1420.18 808.258 1398.86 823.966 1377.74 838.727C1295.13 896.546 1213.51 939.755 1127.46 951.102C1041.82 962.333 949.103 941.811 852.495 904.269Z" fill="url(#paint13_linear_973_1767)"/>
<path d="M866.845 962.609C728.204 911.223 616.698 825.691 484.456 778.227C478.104 775.948 471.685 773.716 465.202 771.596C366.47 739.446 257.543 736.568 165.676 762.238C138.924 769.724 113.08 778.933 88.2875 789.251C26.7524 814.872 -25.0767 844.752 -78.4813 878.594C-91.0275 886.547 -103.757 894.921 -116.503 903.322C-182.811 947.034 -256.361 1001.85 -314.857 1040.84C-357.875 1094.7 -377.69 1151.62 -387.803 1201.75C-404.012 1281.73 -410.815 1360.5 -412.174 1434.81C-412.779 1468.19 -410.578 1499.9 -400.87 1526.7C-391.613 1552.23 -374.699 1574.13 -346.151 1590.87C-267.202 1637.03 -121.791 1641.03 3.27458 1606.48C154.059 1564.9 297.496 1486.26 442.807 1407.57C587.374 1329.28 732.991 1254.08 882.988 1196.97C1176.05 1085.5 1484.54 1024.8 1789.9 1035.84C1846.27 1037.9 1903.2 1042.29 1958.82 1045.43C2030.82 1049.47 2101.36 1051.45 2158.76 1027.37C2195.11 1012.08 2223.72 983.869 2242.61 948.349C2260.49 914.707 2269.08 875.054 2263.63 832.525C2256.93 780.531 2228.26 722.059 2170.18 668.268C2144.29 644.308 2109.04 617.65 2074.67 604.9C2057.94 598.706 2042.16 596.313 2027.46 595.299C2013.52 594.34 2000.04 594.363 1987.22 594.171C1921.11 593.17 1852.99 600.126 1783.87 616.823C1721.29 631.959 1659.29 658.14 1600.03 692.767C1548.91 722.618 1499.8 758.262 1451.16 794.902C1429.69 811.097 1408.54 827.3 1387.57 842.935C1305.01 904.536 1224.45 957.322 1138.19 981.101C1054.18 1004.2 961.379 997.427 866.845 962.609Z" fill="url(#paint14_linear_973_1767)"/>
<path d="M878.181 998.524C742.345 956.481 635.506 865.028 503.225 807.369C496.839 804.587 490.387 801.861 483.861 799.249C384.849 759.719 275.681 751.57 184.003 777.119C157.351 784.504 131.513 794.112 106.696 805.225C44.1207 833.262 -9.89137 869.044 -65.5826 907.696C-78.7329 916.824 -92.0587 926.284 -105.412 935.635C-174.32 983.902 -248.646 1037.5 -304.377 1068C-338.908 1117.97 -355.52 1171.53 -364.804 1219.05C-379.532 1294.06 -386.596 1366.98 -388.19 1435.34C-389.727 1502.01 -378.305 1560.54 -322.002 1593.71C-243.755 1639.65 -101.515 1641.43 21.751 1607.73C171.145 1566.96 313.971 1491.75 458.556 1416.02C602.42 1340.68 747.225 1267.63 896.175 1211.47C1187.38 1101.78 1493.76 1042.26 1797.07 1053.83C1853.13 1055.98 1909.6 1060.41 1965.08 1064.19C2036.87 1069.08 2107.9 1072.76 2165.88 1049.71C2200.66 1035.84 2228.58 1008.99 2247.26 974.921C2265.04 942.457 2273.93 903.858 2269.09 862.43C2263.08 811.135 2235.17 753.167 2176.51 699.255C2149.21 674.18 2113.58 649.143 2079.09 636.559C2062.53 630.527 2046.78 627.825 2032.07 626.254C2017.95 624.749 2004.2 624.027 1990.98 623.211C1924.26 619.106 1856.48 621.933 1787.4 634.132C1725.9 645.01 1664.98 666.986 1606.93 698.551C1556.69 725.846 1508.38 759.847 1460.34 796.104C1439.03 812.206 1418 828.546 1397.11 844.56C1314.44 907.956 1233.63 965.402 1146.94 995.598C1063.05 1024.76 970.541 1026.97 878.181 998.524Z" fill="url(#paint15_linear_973_1767)"/>
<path d="M886.523 1012.11C821.84 998.089 763.455 971.885 705.567 939.424C645.575 905.771 587.302 866.492 521.76 834.351C515.358 831.213 508.891 828.134 502.341 825.155C403.042 780.088 293.887 766.752 202.501 792.545C175.978 800.002 150.187 810.175 125.386 822.324C61.8362 853.478 5.84725 896.542 -51.8821 941.292C-65.5891 951.949 -79.4671 962.782 -93.3851 973.379C-164.656 1027.63 -239.772 1079.72 -293.121 1099.41C-319.143 1144.75 -332.802 1193.68 -341.374 1237.88C-354.846 1306.98 -362.382 1373.48 -364.235 1435.31C-366.262 1503.79 -353.421 1563.14 -297.9 1596.04C-220.356 1641.85 -81.2357 1641.68 40.2657 1608.97C188.3 1569.16 330.514 1497.37 474.366 1424.63C617.526 1352.24 761.524 1281.39 909.438 1226.28C1198.82 1118.56 1503.03 1060.23 1804.29 1072.04C1860.02 1074.24 1916.03 1078.65 1971.36 1083.05C2042.92 1088.74 2114.39 1093.94 2173.02 1072.03C2206.18 1059.61 2233.42 1034.24 2251.93 1001.84C2269.64 970.762 2278.88 933.51 2274.69 893.486C2269.42 843.306 2242.23 786.415 2183.15 732.804C2154.38 706.724 2118.48 683.779 2083.86 671.28C2067.48 665.369 2051.73 662.172 2036.98 659.859C2022.66 657.614 2008.64 655.969 1994.99 654.358C1927.59 646.412 1860.09 644.526 1790.98 651.749C1730.54 658.085 1670.69 675.681 1613.81 704.024C1564.45 728.604 1516.95 760.766 1469.42 796.1C1448.23 811.859 1427.29 828.012 1406.42 843.962C1323.52 907.311 1241.48 965.133 1153.89 995.995C1068.92 1025.89 976.761 1031.63 886.523 1012.11Z" fill="url(#paint16_linear_973_1767)"/>
<path d="M892.366 1006.89C829.804 1000.07 773.902 984.278 718.857 958.038C661.006 930.439 604.843 892.471 539.99 858.669C533.594 855.338 527.131 852.056 520.575 848.853C420.994 800.245 312.077 781.782 221.126 808.289C194.756 815.964 169.058 826.894 144.312 840.331C79.8588 875.359 22.1583 927.079 -37.3831 979.46C-51.595 991.981 -65.9798 1004.53 -80.424 1016.67C-153.817 1078.33 -229.534 1128.61 -281.062 1135.41C-298.527 1175.59 -309.511 1218.49 -317.501 1258.51C-329.96 1320.67 -338.195 1380.13 -340.32 1434.82C-343.029 1505.19 -328.61 1565.22 -273.854 1597.93C-197.007 1643.67 -60.9582 1641.84 58.8012 1610.23C205.507 1571.53 347.099 1503.16 490.22 1433.41C632.668 1363.99 775.866 1295.39 922.758 1241.42C1210.34 1135.84 1512.35 1078.7 1811.54 1090.48C1866.93 1092.67 1922.47 1097.01 1977.65 1101.98C2048.99 1108.41 2120.8 1114.92 2180.16 1094.3C2242.94 1072.39 2287.52 1003.47 2280.42 925.609C2275.95 876.984 2249.48 821.815 2190.09 768.972C2159.83 742.065 2123.73 721.686 2089.02 709.279C2072.79 703.464 2057.04 699.627 2042.24 696.401C2027.7 693.232 2013.38 690.499 1999.27 687.922C1931.1 675.453 1863.86 668.272 1794.63 669.982C1735.24 671.469 1676.45 684.477 1620.7 709.427C1572.23 731.124 1525.52 761.272 1478.42 795.224C1457.34 810.424 1436.46 826.11 1415.55 841.624C1332.34 903.343 1248.29 957.984 1159.42 985.11C1072.51 1011.59 980.58 1016.5 892.366 1006.89Z" fill="url(#paint17_linear_973_1767)"/>
</g>
</g>
<defs>
<linearGradient id="paint0_linear_973_1767" x1="773.746" y1="628.825" x2="900.662" y2="1238.5" gradientUnits="userSpaceOnUse">
<stop stop-color="#E3D1F9"/>
<stop offset="1" stop-color="#593EC5"/>
</linearGradient>
<linearGradient id="paint1_linear_973_1767" x1="783.768" y1="639.037" x2="909.197" y2="1241.63" gradientUnits="userSpaceOnUse">
<stop stop-color="#E3CBFF"/>
<stop offset="1" stop-color="#3E43A4"/>
</linearGradient>
<linearGradient id="paint2_linear_973_1767" x1="793.679" y1="648.713" x2="917.726" y2="1244.72" gradientUnits="userSpaceOnUse">
<stop stop-color="#DABAFF"/>
<stop offset="1" stop-color="#2A368F"/>
</linearGradient>
<linearGradient id="paint3_linear_973_1767" x1="803.688" y1="659.207" x2="926.182" y2="1247.81" gradientUnits="userSpaceOnUse">
<stop stop-color="#E0C6FF"/>
<stop offset="1" stop-color="#4558D6"/>
</linearGradient>
<linearGradient id="paint4_linear_973_1767" x1="813.85" y1="670.667" x2="935.494" y2="1255.16" gradientUnits="userSpaceOnUse">
<stop stop-color="#DABAFF"/>
<stop offset="1" stop-color="#3045AC"/>
</linearGradient>
<linearGradient id="paint5_linear_973_1767" x1="824.185" y1="682.999" x2="946.63" y2="1271.11" gradientUnits="userSpaceOnUse">
<stop stop-color="#C696FF"/>
<stop offset="1" stop-color="#112E9B"/>
</linearGradient>
<linearGradient id="paint6_linear_973_1767" x1="834.738" y1="695.943" x2="957.872" y2="1287.13" gradientUnits="userSpaceOnUse">
<stop stop-color="#C18CFF"/>
<stop offset="1" stop-color="#3440C5"/>
</linearGradient>
<linearGradient id="paint7_linear_973_1767" x1="845.17" y1="709.382" x2="968.913" y2="1303.28" gradientUnits="userSpaceOnUse">
<stop stop-color="#BB82FF"/>
<stop offset="1" stop-color="#0428AD"/>
</linearGradient>
<linearGradient id="paint8_linear_973_1767" x1="855.585" y1="723.044" x2="979.886" y2="1319.41" gradientUnits="userSpaceOnUse">
<stop stop-color="#B97DFF"/>
<stop offset="1" stop-color="#122775"/>
</linearGradient>
<linearGradient id="paint9_linear_973_1767" x1="768.731" y1="532.083" x2="946.463" y2="1384.93" gradientUnits="userSpaceOnUse">
<stop stop-color="#E3D1F9"/>
<stop offset="1" stop-color="#593EC5"/>
</linearGradient>
<linearGradient id="paint10_linear_973_1767" x1="785.861" y1="562.685" x2="957.789" y2="1388.22" gradientUnits="userSpaceOnUse">
<stop stop-color="#E3CBFF"/>
<stop offset="1" stop-color="#3E43A4"/>
</linearGradient>
<linearGradient id="paint11_linear_973_1767" x1="800.319" y1="576.419" x2="969.939" y2="1391" gradientUnits="userSpaceOnUse">
<stop stop-color="#DABAFF"/>
<stop offset="1" stop-color="#2A368F"/>
</linearGradient>
<linearGradient id="paint12_linear_973_1767" x1="814.785" y1="590.294" x2="982.059" y2="1393.73" gradientUnits="userSpaceOnUse">
<stop stop-color="#E0C6FF"/>
<stop offset="1" stop-color="#4558D6"/>
</linearGradient>
<linearGradient id="paint13_linear_973_1767" x1="829.346" y1="604.843" x2="994.121" y2="1396.42" gradientUnits="userSpaceOnUse">
<stop stop-color="#DABAFF"/>
<stop offset="1" stop-color="#3045AC"/>
</linearGradient>
<linearGradient id="paint14_linear_973_1767" x1="844.006" y1="620.058" x2="1006.13" y2="1399.06" gradientUnits="userSpaceOnUse">
<stop stop-color="#C696FF"/>
<stop offset="1" stop-color="#112E9B"/>
</linearGradient>
<linearGradient id="paint15_linear_973_1767" x1="858.862" y1="635.856" x2="1018.2" y2="1401.65" gradientUnits="userSpaceOnUse">
<stop stop-color="#C18CFF"/>
<stop offset="1" stop-color="#3440C5"/>
</linearGradient>
<linearGradient id="paint16_linear_973_1767" x1="873.656" y1="652.125" x2="1030.1" y2="1404.22" gradientUnits="userSpaceOnUse">
<stop stop-color="#BB82FF"/>
<stop offset="1" stop-color="#0428AD"/>
</linearGradient>
<linearGradient id="paint17_linear_973_1767" x1="888.441" y1="668.621" x2="1041.95" y2="1406.8" gradientUnits="userSpaceOnUse">
<stop stop-color="#B97DFF"/>
<stop offset="1" stop-color="#122775"/>
</linearGradient>
</defs>
</svg>
