<svg width="1600" height="957" viewBox="0 0 1600 957" fill="none" xmlns="http://www.w3.org/2000/svg">
<mask id="mask0_973_4348" style="mask-type:luminance" maskUnits="userSpaceOnUse" x="-117" y="-1" width="1878" height="1300">
<path d="M1621.18 -0.000859255L-117 369.122L22.785 1298.7L1760.96 929.573L1621.18 -0.000859255Z" fill="white"/>
</mask>
<g mask="url(#mask0_973_4348)">
<path d="M1219.25 865.009C1185.71 871.752 1152.07 866.724 1120.75 851.509C1087.51 835.34 1055.73 808.687 1024.02 780.803C956.733 721.633 892.039 666.754 816.309 653.158C765.259 644.035 716.174 651.753 667.074 661.433C618.04 671.103 569.101 682.201 520.498 690.088C471.604 698.018 418.278 703.26 366.898 713.529C314.732 723.963 264.69 739.885 222.381 754.823C168.991 773.678 137.53 787.728 97.0922 810.292C77.0966 821.451 52.4991 835.438 24.9725 848.856C-1.90578 861.955 -31.8127 874.46 -61.4718 890.54C-129.727 927.579 -161.068 977.518 -176.128 1022.68C-200.434 1095.66 -213.192 1172.87 -219.19 1247.09C-221.002 1269.55 -221.895 1291.35 -216.67 1310.81C-211.756 1329.06 -200.73 1345.99 -178.885 1361.26C-119.836 1402.43 0.530216 1425.17 103.664 1404.39C224.86 1379.89 340.39 1315.12 457.574 1252.08C574.069 1189.41 691.444 1132.6 811.571 1095.07C929.385 1058.29 1049.39 1036.22 1168.82 1021.04C1287.44 1005.98 1406.65 998.14 1524.75 1007.73C1624.39 1015.84 1725.8 1034.37 1803.37 1001.7C1837.37 987.339 1863.5 964.23 1881.23 935.259C1897.45 908.698 1905.85 878.151 1902.34 844.597C1900.23 824.591 1893.6 803.445 1882.57 782.647C1872.16 763.046 1857.58 743.29 1839.51 724.482C1825.91 710.318 1803.51 688.274 1779.02 675.328C1754.69 662.484 1733.17 661.206 1715.33 660.272C1669.55 657.88 1616.94 666.304 1564.37 685.823C1509.17 706.339 1453.66 738.477 1399.61 772.264C1336.01 812.01 1276.31 853.488 1219.25 865.009Z" fill="url(#paint0_linear_973_4348)"/>
<path d="M824.997 723.288C774.057 708.393 725.654 707.037 677.502 707.872C629.051 708.717 581.058 711.302 532.649 713.108C528.034 713.266 523.379 713.423 518.686 713.577C445.333 716.038 363.588 722.99 293.469 742.242C272.719 747.927 252.942 754.114 234.351 760.195C190.215 774.635 158.506 786.34 125.307 803.309C117.603 807.252 109.802 811.487 101.795 815.971C59.4427 839.705 0.904747 872.279 -55.9021 905.827C-117.5 945.538 -146.466 992.93 -160.527 1035.99C-183.471 1106.28 -195.236 1180.26 -201.143 1251.3C-203.046 1274.26 -203.796 1296.49 -198.481 1316.19C-193.464 1334.73 -182.376 1351.74 -160.816 1366.72C-102.269 1407.32 15.7732 1427.24 117.403 1406.43C237.456 1381.81 352.313 1319.51 468.797 1258.62C584.613 1198.08 701.237 1142.65 820.51 1105.32C937.54 1068.72 1056.69 1046.16 1175.36 1031.34C1293.21 1016.64 1411.72 1010.04 1529.06 1020.37C1572.18 1024.18 1615.96 1030.05 1658.12 1033.11C1712.69 1037.05 1764.03 1036.06 1807.42 1018.3C1840.32 1004.81 1865.84 982.105 1883.24 953.418C1899.28 926.941 1907.7 896.187 1904.56 862.438C1902.66 842.104 1896.37 820.598 1885.54 799.262C1875.26 779.049 1860.68 758.546 1842.14 738.818C1827.71 723.475 1804.74 700.491 1780.13 687.865C1767.46 681.362 1755.54 678.06 1744.47 676.533C1734.39 675.148 1724.91 675.205 1716.24 674.972C1668.12 673.69 1614.1 682.82 1559.79 702.199C1507.72 720.895 1455.43 749.153 1404.55 780.072C1361.18 806.414 1319.53 834.099 1278.66 855.476C1261.05 864.692 1243.75 872.595 1226.76 878.274C1193.51 889.397 1160.37 891.961 1128.63 884.989C1095.94 877.79 1063.75 860.765 1032.15 840.457C998.87 819.068 966.25 794.672 932.467 773.578C897.848 751.967 862.508 734.225 824.997 723.288Z" fill="url(#paint1_linear_973_4348)"/>
<path d="M833.904 796.524C731.495 756.659 641.332 746.42 544.925 737.301C540.307 736.867 535.639 736.42 530.933 736.01C457.781 729.697 376.187 733.077 305.867 750.619C285.158 755.758 265.346 761.556 246.535 767.446C201.554 781.536 167.394 794.009 131.934 811.546C123.673 815.644 115.291 820.078 106.784 824.761C61.7627 849.546 3.7935 885.934 -50.3763 920.099C-105.406 961.209 -131.771 1007.1 -144.88 1048.62C-166.328 1116.53 -177.327 1187.19 -183.125 1254.92C-185.132 1278.4 -185.743 1301.1 -180.331 1321.06C-175.21 1339.9 -164.054 1357 -142.776 1371.74C-84.7332 1411.85 30.9916 1429.14 131.147 1408.42C250.065 1383.82 364.261 1324 480.04 1265.27C595.172 1206.87 711.056 1152.86 829.478 1115.83C945.73 1079.51 1064.04 1056.58 1181.94 1042.13C1299.02 1027.81 1416.81 1022.35 1533.39 1033.3C1576.28 1037.34 1619.73 1043.38 1661.74 1047.01C1716.11 1051.71 1767.87 1052.33 1811.47 1035.09C1843.24 1022.5 1868.16 1000.31 1885.25 972.064C1901.11 945.82 1909.58 915.046 1906.82 881.29C1905.13 860.745 1899.16 838.986 1888.53 817.243C1878.39 796.534 1863.81 775.427 1844.83 754.966C1829.56 738.51 1806.06 715.096 1781.33 702.836C1768.78 696.602 1756.92 693.716 1745.88 692.466C1735.74 691.32 1726.09 691.458 1717.21 691.295C1668.65 690.408 1615.38 698.54 1561.48 715.883C1510.46 732.317 1459.25 757.818 1409.47 787.014C1366.92 811.949 1325.94 839.084 1285.67 862.222C1268.21 872.267 1251.06 881.429 1234.18 888.983C1168.81 918.257 1102.48 918.666 1040.01 894.596C1006.95 881.845 974.17 864.227 940.64 846.69C905.99 828.57 870.869 810.843 833.904 796.524Z" fill="url(#paint2_linear_973_4348)"/>
<path d="M842.646 866.091C740.307 819.521 653.766 783.57 557.303 762.127C552.68 761.101 548 760.077 543.284 759.113C470.436 744.303 388.86 744.049 318.43 760.279C297.777 765.003 277.923 770.589 258.939 776.495C213.081 790.769 176.628 804.874 138.921 823.42C130.109 827.776 121.159 832.472 112.141 837.372C64.5704 863.222 6.75063 901.284 -44.7518 934.716C-93.2604 976.013 -116.901 1020.85 -129.107 1061.11C-149.001 1126.62 -159.427 1193.8 -165.098 1258C-167.219 1282.05 -167.693 1305.23 -162.188 1325.47C-156.961 1344.63 -145.732 1361.84 -124.735 1376.36C-67.1957 1416.06 46.2263 1430.89 144.929 1410.38C262.717 1385.94 376.259 1328.64 491.331 1272.09C605.777 1215.84 720.919 1163.29 838.493 1126.67C953.971 1090.72 1071.43 1067.53 1188.56 1053.47C1304.87 1039.53 1421.93 1035.11 1537.75 1046.56C1580.4 1050.78 1623.52 1056.94 1665.38 1061.13C1719.56 1066.55 1771.69 1068.75 1815.56 1052.08C1846.16 1040.43 1870.48 1018.88 1887.28 991.233C1902.97 965.378 1911.51 934.779 1909.13 901.219C1906.28 861.227 1886.87 815.616 1847.62 773.017C1831.47 755.501 1807.46 732.152 1782.63 720.22C1770.2 714.257 1758.4 711.618 1747.39 710.454C1737.17 709.377 1727.36 709.412 1718.25 709.174C1669.32 707.899 1616.71 714.442 1563.19 729.357C1513.23 743.295 1463.06 765.921 1414.39 793.248C1372.65 816.654 1332.34 843.073 1292.65 867.44C1275.34 878.087 1258.31 888.221 1241.52 897.251C1176.25 932.412 1111.41 949.279 1047.47 940.32C981.265 931.002 914.373 898.531 842.646 866.091Z" fill="url(#paint3_linear_973_4348)"/>
<path d="M850.907 925.872C748.982 877.049 666.348 819.975 569.778 787.072C565.148 785.496 560.464 783.936 555.736 782.453C483.232 759.81 401.636 755.878 331.163 771.125C310.573 775.587 290.681 781.109 271.564 787.237C224.805 802.236 186.233 818.791 146.28 839.125C136.935 843.884 127.422 848.995 117.884 854.22C67.8849 881.612 9.88224 919.939 -38.9472 950.894C-80.9358 991.308 -101.838 1035.04 -113.186 1074.04C-131.533 1136.94 -141.543 1200.38 -147.078 1260.8C-149.333 1285.45 -149.672 1309.12 -144.068 1329.66C-138.734 1349.16 -127.42 1366.5 -106.704 1380.83C-49.6686 1420.19 61.4661 1432.78 158.747 1412.59C275.426 1388.43 388.317 1333.66 502.68 1279.28C616.44 1225.19 730.846 1174.13 847.583 1137.99C1075.52 1067.5 1312.17 1036.64 1542.19 1060.26C1584.61 1064.63 1627.4 1070.86 1669.1 1075.6C1723.09 1081.72 1775.58 1085.43 1819.73 1069.41C1849.14 1058.71 1872.85 1037.92 1889.38 1011.03C1904.92 985.718 1913.57 955.496 1911.57 922.335C1909.16 882.306 1890.45 836.429 1850.56 793.074C1833.5 774.539 1809.03 751.655 1784.09 740.01C1771.78 734.271 1760.04 731.719 1749.05 730.458C1738.75 729.278 1728.78 729.037 1719.43 728.581C1670.17 726.19 1618.13 730.59 1564.97 742.755C1516.06 753.958 1466.95 773.643 1419.37 798.976C1378.44 820.741 1338.82 846.282 1299.66 871.354C1282.48 882.373 1265.56 893.187 1248.85 903.288C1183.47 942.866 1119.7 971.417 1054.46 975.575C989.546 979.681 921.188 959.33 850.907 925.872Z" fill="url(#paint4_linear_973_4348)"/>
<path d="M858.458 971.223C757.44 925.066 678.79 854.4 582.345 811.548C577.712 809.49 573.027 807.467 568.287 805.523C496.087 776.024 414.518 768.212 344.073 782.948C323.558 787.245 303.623 792.9 284.413 799.449C236.732 815.712 196.085 835.709 154.026 858.631C144.146 864.018 134.099 869.715 124.04 875.431C71.7128 905.175 13.3052 942.969 -32.8832 969.544C-68.3264 1008.19 -86.5395 1050.36 -97.0715 1087.88C-113.93 1147.74 -123.664 1207.16 -129.047 1263.48C-131.46 1288.78 -131.673 1312.95 -125.963 1333.8C-120.516 1353.64 -109.11 1371.14 -88.6703 1385.32C-32.1378 1424.43 76.7426 1434.97 172.62 1415.22C288.209 1391.46 400.461 1339.19 514.124 1286.98C627.205 1235.04 740.891 1185.49 856.799 1149.91C1083.26 1080.45 1318.31 1050.33 1546.81 1074.49C1588.99 1078.96 1631.44 1085.24 1673 1090.49C1726.79 1097.28 1779.61 1102.42 1824.1 1087.11C1852.27 1077.39 1875.39 1057.46 1891.66 1031.48C1907.05 1006.87 1915.83 977.226 1914.23 944.672C1912.27 904.873 1894.18 859.017 1853.76 815.198C1835.74 795.676 1810.85 773.628 1785.81 762.176C1773.62 756.612 1761.92 753.978 1750.95 752.45C1740.55 751 1730.42 750.322 1720.82 749.513C1671.27 745.339 1619.74 747.096 1566.89 756.195C1519.04 764.447 1470.98 781.111 1424.48 804.328C1384.37 824.338 1345.42 848.851 1306.77 874.144C1289.71 885.324 1272.88 896.528 1256.23 907.309C1190.66 949.79 1127.11 985.685 1060.98 999.272C996.587 1012.47 927.352 1002.53 858.458 971.223Z" fill="url(#paint5_linear_973_4348)"/>
<path d="M865.066 999.446C765.589 960.495 690.783 885.521 594.892 834.891C590.263 832.448 585.58 830.046 580.835 827.723C508.848 792.582 427.397 780.754 357.093 795.416C336.658 799.646 316.7 805.607 297.422 812.763C248.811 830.824 206.173 855.201 162.108 881.676C151.702 887.929 141.146 894.424 130.573 900.836C76.0235 933.928 17.0938 970.792 -26.5258 991.075C-55.3771 1027.23 -70.9895 1067.05 -80.7482 1102.66C-96.2089 1158.87 -105.793 1213.88 -111.006 1265.71C-116.078 1316.26 -110.942 1361.3 -70.6387 1389.4C-14.6131 1428.34 92.0332 1437.04 186.524 1417.82C301.039 1394.58 412.649 1344.84 525.608 1294.81C638.003 1245.03 750.971 1197.04 866.059 1162.09C1091.05 1093.84 1324.48 1064.47 1551.44 1088.94C1593.38 1093.47 1635.51 1099.75 1676.92 1105.5C1730.51 1112.92 1783.61 1119.39 1828.47 1104.87C1855.39 1096.14 1877.92 1077.19 1893.94 1052.29C1909.19 1028.55 1918.13 999.698 1916.94 967.983C1915.44 928.716 1897.9 883.252 1857.04 839.273C1838.02 818.819 1812.76 797.963 1787.61 786.622C1775.54 781.184 1763.87 778.318 1752.93 776.365C1742.42 774.49 1732.14 773.233 1722.27 771.932C1672.44 765.365 1621.4 764.007 1568.84 769.701C1522.04 774.785 1475.03 788.324 1429.61 809.295C1390.3 827.427 1352.05 850.754 1313.87 875.804C1296.92 886.931 1280.18 898.255 1263.56 909.334C1197.79 953.206 1133.77 992.656 1066.93 1011.11C1002.27 1028.93 932.711 1025.82 865.066 999.446Z" fill="url(#paint6_linear_973_4348)"/>
<path d="M870.743 1010.58C823.017 996.577 780.732 973.642 739.189 945.979C696.134 917.299 654.706 884.432 607.397 856.615C602.776 853.897 598.104 851.222 593.362 848.621C521.475 809.234 440.328 793.451 370.217 808.332C349.871 812.627 329.912 819.026 310.583 826.977C261.05 847.369 216.496 877.201 170.532 908.226C159.616 915.619 148.564 923.134 137.494 930.467C80.8062 968.014 21.365 1003.71 -19.8399 1015.93C-42.0374 1049.04 -55.1669 1085.52 -64.1987 1118.67C-78.3719 1170.49 -87.9375 1220.64 -92.9616 1267.54C-98.5079 1319.48 -92.3599 1365.25 -52.6164 1393.13C2.89863 1431.96 107.331 1439.03 200.453 1420.45C313.906 1397.85 424.872 1350.64 537.128 1302.8C648.839 1255.18 761.086 1208.78 875.354 1174.55C1098.89 1107.64 1330.67 1079.05 1556.1 1103.6C1597.8 1108.16 1639.58 1114.4 1680.85 1120.61C1734.24 1128.63 1787.58 1136.28 1832.87 1122.66C1858.49 1114.94 1880.43 1097.07 1896.23 1073.4C1911.35 1050.7 1920.47 1022.86 1919.69 992.228C1918.68 953.82 1901.61 909.174 1860.42 865.371C1840.35 844.064 1814.75 824.764 1789.51 813.475C1777.55 808.135 1765.92 804.892 1754.99 802.371C1744.37 799.922 1733.94 797.948 1723.79 796.018C1673.67 786.493 1623.11 781.569 1570.81 783.484C1525.07 785.173 1479.12 795.453 1434.75 814.05C1396.27 830.179 1358.72 852.168 1320.96 876.562C1304.13 887.446 1287.47 898.638 1270.86 909.68C1204.91 953.539 1139.93 993.243 1072.37 1012.17C1006.84 1030.49 937.332 1030.09 870.743 1010.58Z" fill="url(#paint7_linear_973_4348)"/>
<path d="M875.646 1007.26C829.083 998.828 788.041 983.926 748.263 961.12C706.457 937.135 666.528 905.349 619.83 876.282C615.224 873.416 610.564 870.586 605.834 867.811C533.934 825.684 453.255 806.008 383.419 821.463C363.173 825.936 343.237 832.92 323.87 841.86C273.426 865.167 227.066 901.523 179.288 938.282C167.884 947.068 156.347 955.87 144.79 964.353C86.0621 1007.46 26.2644 1041.78 -12.8182 1044.29C-28.2913 1073.95 -39.0584 1106.01 -47.4102 1136.03C-60.418 1182.67 -70.0959 1227.47 -74.9077 1268.96C-81.0823 1322.35 -73.7819 1368.75 -34.6014 1396.46C20.3985 1435.23 122.642 1440.87 214.403 1423.04C326.813 1401.19 437.129 1356.51 548.672 1310.87C659.692 1265.43 771.228 1220.66 884.675 1187.21C1106.78 1121.79 1336.86 1093.96 1560.77 1118.39C1602.22 1122.93 1643.67 1129.1 1684.8 1135.74C1737.97 1144.32 1791.5 1152.99 1837.28 1140.37C1885.7 1126.96 1923.21 1076.85 1922.47 1017.25C1921.97 980.039 1905.34 936.708 1863.86 893.441C1842.72 871.411 1816.83 854.041 1791.49 842.807C1779.65 837.542 1768.06 833.809 1757.14 830.591C1746.4 827.427 1735.81 824.609 1725.38 821.916C1674.93 808.906 1624.88 799.964 1572.8 797.681C1528.13 795.738 1483.24 802.592 1439.92 818.684C1402.25 832.678 1365.41 853.192 1328.06 876.582C1311.34 887.053 1294.74 897.903 1278.13 908.619C1212.03 951.258 1145.72 988.47 1077.42 1004.5C1010.6 1020.15 941.304 1019.13 875.646 1007.26Z" fill="url(#paint8_linear_973_4348)"/>
</g>
<mask id="mask1_973_4348" style="mask-type:luminance" maskUnits="userSpaceOnUse" x="-117" y="-1" width="1878" height="1300">
<path d="M1621.18 -0.000859255L-117 369.122L22.785 1298.7L1760.96 929.573L1621.18 -0.000859255Z" fill="white"/>
</mask>
<g mask="url(#mask1_973_4348)">
<g opacity="0.3">
<path d="M1334.9 790.635C1291.11 802.522 1246 798.96 1202.9 781.809C1157.16 763.58 1112.29 731.45 1067.38 697.7C972.081 626.081 880.661 559.859 778.848 548.849C710.218 541.483 645.919 556.055 581.807 573.203C517.777 590.337 454.025 609.332 390.385 624.085C326.367 638.918 256.188 650.626 189.111 668.754C121.005 687.174 56.2854 712.604 1.71149 736.048C-67.1502 765.636 -107.426 786.931 -158.732 820.221C-184.101 836.682 -215.284 857.277 -250.407 877.384C-284.703 897.016 -323.081 916.142 -360.757 939.94C-447.465 994.751 -483.897 1063.17 -499.233 1123.83C-523.972 1221.87 -532.966 1324.42 -533.303 1422.42C-533.401 1452.09 -532.345 1480.79 -523.421 1505.87C-515.033 1529.41 -498.674 1550.64 -468.141 1568.71C-385.613 1617.45 -223.669 1636.42 -89.0442 1599.81C69.153 1556.68 215.7 1461.18 364.618 1367.8C512.663 1274.97 662.475 1189.76 817.915 1129.6C970.363 1070.65 1127.24 1030.83 1284.04 1000.1C1439.78 969.592 1597.06 948.52 1754.65 950.431C1887.6 952.076 2023.98 967.24 2123.49 917.326C2167.1 895.398 2199.39 862.686 2219.91 823.037C2238.7 786.69 2246.71 745.817 2238.6 702.071C2233.75 675.987 2222.8 648.82 2206.02 622.505C2190.21 597.705 2168.84 573.082 2142.96 550.015C2123.46 532.643 2091.5 505.72 2057.7 490.931C2024.12 476.264 1995.46 476.529 1971.69 476.916C1910.75 477.911 1841.85 493.733 1774.15 524.114C1703.05 556.046 1632.75 603.268 1564.53 652.526C1484.3 710.479 1409.39 770.343 1334.9 790.635Z" fill="url(#paint9_linear_973_4348)"/>
<path d="M797.675 640.871C728.611 625.927 664.293 628.519 600.536 633.966C536.382 639.454 473.017 647.179 409.02 653.924C402.918 654.548 396.76 655.174 390.556 655.8C293.552 665.654 185.885 682.163 94.8916 713.762C67.9643 723.095 42.378 733.002 18.3537 742.662C-38.6825 765.601 -79.5269 783.822 -121.8 809.091C-131.607 814.963 -141.52 821.222 -151.674 827.833C-205.392 862.804 -279.662 910.838 -351.54 959.995C-429.133 1017.67 -462.674 1082.49 -476.897 1140.26C-500.101 1234.58 -508.108 1332.73 -508.646 1426.49C-508.815 1456.78 -507.526 1486.03 -498.457 1511.41C-489.904 1535.28 -473.455 1556.59 -443.332 1574.32C-361.54 1622.32 -202.991 1637.79 -70.3799 1601.3C86.2657 1558.15 232.157 1466.01 380.346 1375.57C527.688 1285.67 676.627 1202.39 830.935 1142.63C982.341 1084.03 1138.01 1043.66 1293.82 1013.49C1448.56 983.559 1605.02 964.195 1761.65 967.149C1819.22 968.246 1877.86 972.002 1934.07 972.2C2006.82 972.443 2074.8 966.505 2130.5 939.286C2172.73 918.61 2204.25 886.507 2224.37 847.284C2242.92 811.089 2250.93 769.971 2243.3 725.965C2238.69 699.452 2228.15 671.796 2211.59 644.777C2195.9 619.179 2174.46 593.591 2147.85 569.373C2127.15 550.543 2094.33 522.454 2060.41 508.106C2042.93 500.717 2026.79 497.46 2011.96 496.456C1998.46 495.546 1985.89 496.477 1974.37 496.956C1910.44 499.62 1839.76 516.483 1769.74 546.82C1702.62 576.059 1636.19 617.864 1571.9 663.038C1517.11 701.522 1464.72 741.619 1412.73 773.363C1390.32 787.047 1368.2 798.98 1346.26 807.966C1303.32 825.57 1259.64 831.923 1216.85 825.643C1172.77 819.149 1128.34 799.714 1084.35 775.915C1038.04 750.852 992.288 721.785 945.329 697.153C897.206 671.921 848.53 651.832 797.675 640.871Z" fill="url(#paint10_linear_973_4348)"/>
<path d="M816.93 736.241C677.062 693.177 556.468 687.887 427.712 684.628C421.544 684.472 415.311 684.31 409.029 684.197C311.394 682.523 203.558 694.327 112.13 723.691C85.2039 732.307 59.5296 741.702 35.1952 751.134C-22.9985 773.686 -67.0076 793.137 -112.22 819.349C-122.752 825.473 -133.41 832.05 -144.207 838.961C-201.355 875.553 -274.476 928.534 -342.791 978.256C-411.534 1037.17 -441.777 1099.77 -454.893 1155.44C-476.36 1246.48 -483.691 1340.2 -484.425 1429.6C-484.674 1460.59 -483.155 1490.43 -473.932 1516.14C-465.21 1540.4 -448.662 1561.83 -418.939 1579.25C-337.865 1626.64 -182.661 1638.87 -51.9981 1602.63C103.14 1559.61 248.406 1470.81 395.88 1383.29C542.534 1296.25 690.63 1214.91 843.836 1155.63C994.238 1097.47 1148.74 1056.7 1303.57 1027.1C1457.34 997.723 1612.95 979.921 1768.64 983.764C1825.92 985.188 1884.14 989.184 1940.21 990.159C2012.78 991.411 2081.47 987.56 2137.51 960.992C2178.34 941.601 2209.1 910.241 2228.86 871.625C2247.2 835.752 2255.27 794.606 2248.14 750.563C2243.79 723.758 2233.65 695.741 2217.31 668.173C2201.75 641.916 2180.25 615.531 2152.99 590.397C2131.05 570.184 2097.49 541.581 2063.44 527.725C2046.16 520.682 2030.15 517.963 2015.38 517.32C2001.82 516.732 1989.03 517.786 1977.24 518.374C1912.77 521.595 1842.97 537.08 1773.3 564.704C1707.34 590.877 1642.05 628.964 1579.05 671.769C1525.21 708.33 1473.65 747.639 1422.64 781.641C1400.52 796.398 1378.72 809.972 1357.11 821.408C1273.46 865.727 1185.56 872.252 1100.25 846.311C1055.11 832.564 1009.84 812.409 963.585 792.425C915.791 771.779 867.41 751.688 816.93 736.241Z" fill="url(#paint11_linear_973_4348)"/>
<path d="M835.576 826.749C695.112 774.885 576.687 735.528 446.588 716.101C440.351 715.172 434.044 714.251 427.69 713.412C329.589 700.557 221.408 707.589 129.694 735.246C102.794 743.311 77.0469 752.431 52.4856 761.898C-6.84564 784.769 -53.7277 806.566 -101.822 834.305C-113.059 840.814 -124.44 847.787 -135.897 855.031C-196.312 893.244 -269.065 948.409 -333.916 996.926C-393.988 1055.49 -420.733 1116.46 -432.784 1170.38C-452.436 1258.15 -459.36 1347.23 -460.29 1431.99C-460.635 1463.73 -458.883 1494.19 -449.502 1520.25C-440.607 1544.92 -423.949 1566.49 -394.625 1583.65C-314.263 1630.53 -162.367 1639.76 -33.607 1603.94C120.05 1561.23 264.703 1475.79 411.46 1391.19C557.421 1307.06 704.682 1227.71 856.807 1169.03C1006.22 1111.44 1159.57 1070.4 1313.42 1041.37C1466.2 1012.58 1620.95 996.203 1775.67 1000.77C1832.66 1002.46 1890.46 1006.64 1946.38 1008.37C2018.77 1010.59 2088.12 1008.77 2144.56 982.94C2183.94 964.88 2213.97 934.413 2233.41 896.617C2251.56 861.275 2259.75 820.356 2253.15 776.535C2245.25 724.319 2214.84 666.22 2158.42 613.87C2135.22 592.347 2100.99 563.875 2066.84 550.464C2049.75 543.761 2033.84 541.365 2019.12 540.831C2005.46 540.338 1992.45 541.271 1980.36 541.781C1915.35 544.526 1846.27 557.865 1776.84 582.267C1712.04 605.066 1647.85 639.285 1586.12 679.538C1533.19 714.021 1482.46 752.324 1432.34 787.878C1410.47 803.407 1388.94 818.244 1367.6 831.609C1284.67 883.641 1200.44 911.626 1114.75 905.647C1026.02 899.402 934.005 862.835 835.576 826.749Z" fill="url(#paint12_linear_973_4348)"/>
<path d="M852.495 904.267C712.356 849.422 596.943 782.015 465.54 747.57C459.239 745.92 452.871 744.3 446.448 742.781C348.002 719.627 239.425 721.83 147.557 748.196C120.717 755.908 94.9101 764.951 70.1971 774.713C9.74536 798.609 -39.6908 823.811 -90.5703 854.091C-102.472 861.177 -114.558 868.744 -126.671 876.458C-190.147 916.904 -263.108 972.416 -324.666 1017.43C-376.184 1074.23 -399.405 1133.49 -410.448 1185.67C-428.315 1269.83 -435.072 1353.97 -436.211 1433.72C-436.669 1466.26 -434.69 1497.34 -425.153 1523.77C-416.08 1548.86 -399.301 1570.6 -370.366 1587.52C-290.713 1634 -142.079 1640.48 -15.1857 1605.23C137.023 1563 281.062 1480.96 427.1 1399.3C572.367 1318.08 718.801 1240.77 869.856 1182.82C1164.81 1069.78 1475.37 1007.93 1782.76 1018.15C1839.44 1020.05 1896.81 1024.36 1952.59 1026.81C2024.79 1029.96 2094.76 1030.1 2151.65 1005.09C2189.53 988.402 2218.84 958.987 2237.99 922.225C2255.99 887.624 2264.35 847.199 2258.31 803.879C2250.99 751.588 2221.48 693.093 2164.15 639.828C2139.63 617.057 2104.84 589.245 2070.58 576.221C2053.68 569.802 2037.85 567.515 2023.15 566.852C2009.36 566.235 1996.12 566.817 1983.68 567.065C1918.13 568.373 1849.59 578.845 1780.36 599.604C1716.67 618.715 1653.58 648.969 1593.1 686.497C1541.09 718.743 1491.16 755.823 1441.83 792.247C1420.18 808.256 1398.86 823.964 1377.74 838.725C1295.13 896.544 1213.51 939.754 1127.46 951.1C1041.82 962.331 949.103 941.809 852.495 904.267Z" fill="url(#paint13_linear_973_4348)"/>
<path d="M866.845 962.611C728.204 911.225 616.698 825.693 484.455 778.229C478.104 775.95 471.685 773.718 465.202 771.598C366.469 739.448 257.542 736.57 165.676 762.241C138.923 769.726 113.08 778.935 88.2872 789.253C26.7521 814.874 -25.0769 844.754 -78.4816 878.596C-91.0277 886.549 -103.757 894.923 -116.503 903.324C-182.811 947.036 -256.362 1001.85 -314.857 1040.85C-357.875 1094.71 -377.691 1151.62 -387.803 1201.75C-404.012 1281.73 -410.815 1360.5 -412.174 1434.82C-412.779 1468.19 -410.579 1499.9 -400.87 1526.71C-391.613 1552.23 -374.699 1574.13 -346.151 1590.87C-267.202 1637.04 -121.791 1641.03 3.27434 1606.48C154.058 1564.91 297.496 1486.27 442.807 1407.57C587.373 1329.28 732.991 1254.08 882.988 1196.97C1176.05 1085.5 1484.54 1024.8 1789.9 1035.85C1846.27 1037.9 1903.2 1042.3 1958.82 1045.43C2030.82 1049.47 2101.36 1051.45 2158.76 1027.37C2195.11 1012.08 2223.72 983.871 2242.61 948.351C2260.49 914.709 2269.08 875.056 2263.63 832.527C2256.93 780.533 2228.26 722.061 2170.18 668.27C2144.29 644.31 2109.04 617.652 2074.67 604.902C2057.93 598.708 2042.16 596.316 2027.46 595.301C2013.52 594.342 2000.04 594.365 1987.22 594.173C1921.11 593.172 1852.99 600.128 1783.87 616.825C1721.29 631.961 1659.29 658.142 1600.03 692.769C1548.91 722.62 1499.8 758.264 1451.16 794.904C1429.69 811.099 1408.54 827.302 1387.57 842.937C1305.01 904.538 1224.45 957.324 1138.19 981.103C1054.18 1004.2 961.379 997.429 866.845 962.611Z" fill="url(#paint14_linear_973_4348)"/>
<path d="M878.18 998.52C742.345 956.477 635.505 865.024 503.225 807.365C496.839 804.583 490.387 801.857 483.86 799.245C384.848 759.715 275.68 751.566 184.003 777.115C157.35 784.5 131.513 794.108 106.696 805.221C44.1202 833.258 -9.89186 869.04 -65.5831 907.692C-78.7333 916.82 -92.0592 926.28 -105.412 935.631C-174.321 983.898 -248.646 1037.5 -304.378 1068C-338.909 1117.96 -355.52 1171.52 -364.805 1219.05C-379.532 1294.06 -386.597 1366.98 -388.191 1435.33C-389.728 1502 -378.306 1560.54 -322.003 1593.71C-243.756 1639.65 -101.516 1641.43 21.7505 1607.73C171.145 1566.96 313.971 1491.74 458.556 1416.02C602.42 1340.68 747.224 1267.63 896.175 1211.47C1187.38 1101.78 1493.76 1042.25 1797.07 1053.83C1853.13 1055.98 1909.6 1060.4 1965.08 1064.19C2036.87 1069.08 2107.9 1072.76 2165.88 1049.7C2200.66 1035.84 2228.58 1008.98 2247.26 974.918C2265.04 942.453 2273.93 903.855 2269.09 862.426C2263.08 811.132 2235.17 753.164 2176.51 699.251C2149.21 674.176 2113.58 649.139 2079.09 636.556C2062.53 630.523 2046.78 627.821 2032.07 626.25C2017.95 624.746 2004.2 624.023 1990.98 623.207C1924.26 619.102 1856.48 621.929 1787.4 634.128C1725.9 645.007 1664.98 666.982 1606.93 698.547C1556.69 725.842 1508.38 759.843 1460.34 796.1C1439.03 812.202 1418 828.543 1397.11 844.556C1314.44 907.953 1233.63 965.399 1146.94 995.595C1063.05 1024.76 970.541 1026.97 878.18 998.52Z" fill="url(#paint15_linear_973_4348)"/>
<path d="M886.522 1012.11C821.84 998.083 763.455 971.879 705.567 939.418C645.575 905.766 587.302 866.486 521.76 834.346C515.358 831.207 508.891 828.128 502.34 825.149C403.042 780.082 293.887 766.747 202.501 792.54C175.978 799.997 150.187 810.169 125.386 822.318C61.8359 853.472 5.84701 896.536 -51.8824 941.286C-65.5893 951.943 -79.4673 962.777 -93.3853 973.373C-164.656 1027.62 -239.772 1079.71 -293.121 1099.41C-319.143 1144.75 -332.802 1193.68 -341.374 1237.88C-354.846 1306.97 -362.383 1373.47 -364.235 1435.3C-366.262 1503.78 -353.421 1563.13 -297.9 1596.04C-220.356 1641.84 -81.236 1641.68 40.2655 1608.96C188.299 1569.16 330.514 1497.36 474.366 1424.62C617.525 1352.23 761.523 1281.39 909.437 1226.28C1198.82 1118.56 1503.03 1060.22 1804.29 1072.04C1860.02 1074.24 1916.03 1078.65 1971.36 1083.04C2042.92 1088.73 2114.39 1093.93 2173.02 1072.02C2206.18 1059.6 2233.42 1034.24 2251.93 1001.83C2269.64 970.756 2278.88 933.504 2274.69 893.48C2269.42 843.3 2242.23 786.409 2183.15 732.798C2154.38 706.719 2118.47 683.773 2083.86 671.274C2067.48 665.363 2051.73 662.166 2036.98 659.853C2022.66 657.608 2008.64 655.963 1994.99 654.352C1927.59 646.406 1860.09 644.521 1790.97 651.743C1730.54 658.079 1670.69 675.676 1613.81 704.018C1564.45 728.598 1516.95 760.76 1469.42 796.094C1448.23 811.853 1427.29 828.006 1406.42 843.956C1323.52 907.305 1241.48 965.127 1153.89 995.989C1068.92 1025.88 976.761 1031.63 886.522 1012.11Z" fill="url(#paint16_linear_973_4348)"/>
<path d="M892.365 1006.89C829.804 1000.07 773.901 984.276 718.857 958.036C661.006 930.437 604.843 892.469 539.989 858.668C533.594 855.336 527.131 852.054 520.575 848.851C420.994 800.243 312.077 781.78 221.126 808.287C194.755 815.962 169.058 826.892 144.312 840.329C79.8585 875.357 22.1581 927.077 -37.3833 979.458C-51.5952 991.979 -65.98 1004.53 -80.4243 1016.66C-153.818 1078.33 -229.534 1128.61 -281.063 1135.4C-298.527 1175.59 -309.512 1218.49 -317.501 1258.51C-329.96 1320.67 -338.195 1380.13 -340.32 1434.82C-343.03 1505.19 -328.61 1565.22 -273.854 1597.92C-197.007 1643.67 -60.9585 1641.83 58.801 1610.23C205.507 1571.53 347.099 1503.16 490.219 1433.41C632.668 1363.99 775.866 1295.38 922.758 1241.42C1210.34 1135.84 1512.35 1078.7 1811.54 1090.48C1866.93 1092.67 1922.47 1097.01 1977.65 1101.98C2048.98 1108.41 2120.8 1114.92 2180.16 1094.29C2242.94 1072.39 2287.52 1003.47 2280.42 925.607C2275.95 876.982 2249.47 821.813 2190.09 768.971C2159.83 742.063 2123.73 721.684 2089.02 709.277C2072.79 703.462 2057.04 699.625 2042.24 696.4C2027.7 693.23 2013.38 690.498 1999.27 687.92C1931.1 675.451 1863.86 668.27 1794.63 669.98C1735.24 671.467 1676.45 684.475 1620.7 709.425C1572.23 731.122 1525.52 761.27 1478.42 795.222C1457.34 810.422 1436.46 826.108 1415.55 841.622C1332.34 903.341 1248.29 957.982 1159.42 985.108C1072.51 1011.59 980.58 1016.5 892.365 1006.89Z" fill="url(#paint17_linear_973_4348)"/>
</g>
</g>
<defs>
<linearGradient id="paint0_linear_973_4348" x1="773.746" y1="628.813" x2="900.661" y2="1238.49" gradientUnits="userSpaceOnUse">
<stop stop-color="#F69D6D"/>
<stop offset="1" stop-color="#F31A1A"/>
</linearGradient>
<linearGradient id="paint1_linear_973_4348" x1="783.767" y1="639.029" x2="909.197" y2="1241.62" gradientUnits="userSpaceOnUse">
<stop stop-color="#FDA673"/>
<stop offset="1" stop-color="#A44D3E"/>
</linearGradient>
<linearGradient id="paint2_linear_973_4348" x1="793.679" y1="648.7" x2="917.726" y2="1244.7" gradientUnits="userSpaceOnUse">
<stop stop-color="#FDB376"/>
<stop offset="1" stop-color="#E11B1B"/>
</linearGradient>
<linearGradient id="paint3_linear_973_4348" x1="803.687" y1="659.193" x2="926.182" y2="1247.8" gradientUnits="userSpaceOnUse">
<stop stop-color="#FDAC77"/>
<stop offset="1" stop-color="#D67345"/>
</linearGradient>
<linearGradient id="paint4_linear_973_4348" x1="813.85" y1="670.657" x2="935.493" y2="1255.15" gradientUnits="userSpaceOnUse">
<stop stop-color="#FDA574"/>
<stop offset="1" stop-color="#C61D1D"/>
</linearGradient>
<linearGradient id="paint5_linear_973_4348" x1="824.185" y1="682.987" x2="946.63" y2="1271.09" gradientUnits="userSpaceOnUse">
<stop stop-color="#FCA170"/>
<stop offset="1" stop-color="#DE1A1A"/>
</linearGradient>
<linearGradient id="paint6_linear_973_4348" x1="834.738" y1="695.931" x2="957.872" y2="1287.12" gradientUnits="userSpaceOnUse">
<stop stop-color="#FDAB77"/>
<stop offset="1" stop-color="#F32525"/>
</linearGradient>
<linearGradient id="paint7_linear_973_4348" x1="845.17" y1="709.37" x2="968.913" y2="1303.27" gradientUnits="userSpaceOnUse">
<stop stop-color="#FDA172"/>
<stop offset="1" stop-color="#D15561"/>
</linearGradient>
<linearGradient id="paint8_linear_973_4348" x1="855.585" y1="723.033" x2="979.886" y2="1319.4" gradientUnits="userSpaceOnUse">
<stop stop-color="#FFB87D"/>
<stop offset="1" stop-color="#F33838"/>
</linearGradient>
<linearGradient id="paint9_linear_973_4348" x1="768.731" y1="532.079" x2="946.463" y2="1384.93" gradientUnits="userSpaceOnUse">
<stop stop-color="#F69D6D"/>
<stop offset="1" stop-color="#F31A1A"/>
</linearGradient>
<linearGradient id="paint10_linear_973_4348" x1="785.861" y1="562.687" x2="957.788" y2="1388.22" gradientUnits="userSpaceOnUse">
<stop stop-color="#FDA673"/>
<stop offset="1" stop-color="#A44D3E"/>
</linearGradient>
<linearGradient id="paint11_linear_973_4348" x1="800.318" y1="576.419" x2="969.939" y2="1391" gradientUnits="userSpaceOnUse">
<stop stop-color="#FDB376"/>
<stop offset="1" stop-color="#E11B1B"/>
</linearGradient>
<linearGradient id="paint12_linear_973_4348" x1="814.785" y1="590.288" x2="982.058" y2="1393.72" gradientUnits="userSpaceOnUse">
<stop stop-color="#FDAC77"/>
<stop offset="1" stop-color="#D67345"/>
</linearGradient>
<linearGradient id="paint13_linear_973_4348" x1="829.346" y1="604.841" x2="994.12" y2="1396.41" gradientUnits="userSpaceOnUse">
<stop stop-color="#FDA574"/>
<stop offset="1" stop-color="#C61D1D"/>
</linearGradient>
<linearGradient id="paint14_linear_973_4348" x1="844.006" y1="620.061" x2="1006.13" y2="1399.06" gradientUnits="userSpaceOnUse">
<stop stop-color="#FCA170"/>
<stop offset="1" stop-color="#DE1A1A"/>
</linearGradient>
<linearGradient id="paint15_linear_973_4348" x1="858.862" y1="635.852" x2="1018.2" y2="1401.64" gradientUnits="userSpaceOnUse">
<stop stop-color="#FDAB77"/>
<stop offset="1" stop-color="#F32525"/>
</linearGradient>
<linearGradient id="paint16_linear_973_4348" x1="873.655" y1="652.119" x2="1030.1" y2="1404.22" gradientUnits="userSpaceOnUse">
<stop stop-color="#FDA172"/>
<stop offset="1" stop-color="#D15561"/>
</linearGradient>
<linearGradient id="paint17_linear_973_4348" x1="888.441" y1="668.619" x2="1041.95" y2="1406.8" gradientUnits="userSpaceOnUse">
<stop stop-color="#FFB87D"/>
<stop offset="1" stop-color="#F33838"/>
</linearGradient>
</defs>
</svg>
