<svg width="42" height="42" viewBox="0 0 42 42" fill="none" xmlns="http://www.w3.org/2000/svg">
<g clip-path="url(#clip0_1062_10928)">
<g clip-path="url(#clip1_1062_10928)">
<path opacity="0.9" d="M10 7.28906C14.4128 7.28906 18.8256 7.28906 23.3721 7.28906C22.963 8.65259 22.5438 9.94214 22.006 11.2501C21.9329 11.43 21.8598 11.6099 21.7846 11.7953C21.5431 12.3894 21.3004 12.9829 21.0577 13.5765C20.8862 13.9979 20.7148 14.4193 20.5436 14.8407C20.2704 15.5128 19.9972 16.1848 19.7237 16.8567C19.0077 18.6156 18.296 20.3761 17.5861 22.1374C17.5335 22.2679 17.4809 22.3983 17.4267 22.5327C16.9585 23.6943 16.4905 24.8559 16.0225 26.0175C15.3878 27.5927 14.7522 29.1676 14.1145 30.7417C13.9998 31.0247 13.9998 31.0247 13.8828 31.3135C13.6789 31.8159 13.4742 32.3179 13.2691 32.8198C13.2106 32.9639 13.1521 33.108 13.0918 33.2565C12.6983 34.2151 12.6983 34.2151 12.4687 34.4447C11.654 34.4447 10.8394 34.4447 10 34.4447C10 25.4833 10 16.522 10 7.28906Z" fill="#475A9B"/>
<path d="M25.2264 9.34375C25.3622 9.34375 25.498 9.34375 25.6379 9.34375C26.2229 10.8947 26.8078 12.4456 27.3927 13.9966C27.6645 14.7173 27.9364 15.4381 28.2083 16.1589C28.7807 17.6765 29.3529 19.1942 29.9246 20.712C30.1692 21.3614 30.4139 22.0106 30.6589 22.6598C30.923 23.3598 31.1868 24.06 31.4504 24.7602C31.5685 25.0728 31.5685 25.0728 31.689 25.3917C31.7597 25.5798 31.8304 25.7679 31.9033 25.9616C31.965 26.1255 32.0268 26.2894 32.0905 26.4582C32.221 26.8303 32.221 26.8303 32.221 27.0361C27.6725 27.0361 23.1239 27.0361 18.4375 27.0361C19.1493 25.0193 19.8557 23.0181 20.6418 21.0323C20.728 20.8131 20.8141 20.594 20.9029 20.3682C21.1734 19.6804 21.4448 18.993 21.7162 18.3056C21.8967 17.8475 22.0771 17.3893 22.2575 16.931C22.521 16.2616 22.7845 15.5921 23.0483 14.9228C23.7801 13.0653 24.5051 11.2053 25.2264 9.34375Z" fill="#365190"/>
<path d="M17.4114 29.5078C22.6389 29.5078 27.8663 29.5078 33.2522 29.5078C35.1037 34.0338 35.1037 34.0338 35.1037 34.4452C28.7222 34.4452 22.3406 34.4452 15.7656 34.4452C15.9713 33.2109 15.9713 33.2109 17.4114 29.5078Z" fill="#002B77"/>
</g>
</g>
<defs>
<clipPath id="clip0_1062_10928">
<rect width="25" height="36.6667" fill="white" transform="translate(10 2.28906)"/>
</clipPath>
<clipPath id="clip1_1062_10928">
<rect width="115" height="27.1556" fill="white" transform="translate(10 7.28906)"/>
</clipPath>
</defs>
</svg>
