<svg width="42" height="42" viewBox="0 0 42 42" fill="none" xmlns="http://www.w3.org/2000/svg">
<rect width="42" height="42" fill="#F9F9F9"/>
<path d="M22.297 4.00024C22.4156 4.00091 22.5342 4.00157 22.6563 4.00225C23.5413 4.01821 24.3162 4.12547 25.1458 4.44695C25.2765 4.49284 25.4073 4.53873 25.5419 4.58601C26.5865 4.98038 27.5854 5.53798 28.3823 6.33489C28.7191 6.40145 29.0554 6.46235 29.3937 6.52031C31.3671 6.87742 32.9287 7.56283 34.4507 8.8971C34.5452 8.97724 34.6398 9.05737 34.7372 9.13994C36.0438 10.3316 36.723 11.9322 37.1477 13.617C37.1731 13.7056 37.1985 13.7943 37.2247 13.8856C37.302 14.2471 37.3264 14.5961 37.3416 14.9655C37.3498 15.1046 37.3579 15.2436 37.3664 15.3869C37.2826 15.7746 37.2826 15.7746 36.959 16.0317C36.3724 16.3979 35.7336 16.6449 35.0944 16.9035C34.8953 16.9852 34.8953 16.9852 34.6923 17.0687C34.2693 17.2422 33.8459 17.4145 33.4224 17.5867C33.0028 17.7584 32.5833 17.9303 32.1639 18.1023C31.8945 18.2125 31.625 18.3224 31.3553 18.432C30.8148 18.6518 30.2749 18.8717 29.741 19.107C29.6003 19.1687 29.4596 19.2304 29.3147 19.294C29.2023 19.3449 29.09 19.3958 28.9742 19.4483C28.5766 19.5744 28.2573 19.5912 27.8429 19.5505C27.5753 19.2097 27.5753 19.2097 27.3372 18.7498C26.5101 17.2758 25.4165 16.4225 23.7973 15.9095C22.4243 15.569 21.0115 15.6662 19.7517 16.314C18.4397 17.134 17.2893 18.3572 16.8487 19.8692C16.5511 21.5292 16.8074 23.071 17.6868 24.5063C18.5604 25.7119 19.7084 26.5573 21.1655 26.9147C22.7556 27.1616 24.2634 26.8773 25.6094 25.9813C26.5 25.3025 27.0586 24.5595 27.5758 23.5719C27.708 23.3264 27.708 23.3264 27.8429 23.1915C28.699 23.1937 29.4279 23.4311 30.2012 23.7736C30.3585 23.8409 30.3585 23.8409 30.519 23.9095C30.8553 24.0536 31.1907 24.1999 31.5261 24.3462C31.8717 24.495 32.2176 24.6432 32.5635 24.7914C32.7902 24.8885 33.0167 24.9858 33.2432 25.0833C34.2028 25.4959 35.1696 25.8879 36.1436 26.265C36.5577 26.4268 36.9108 26.5847 37.2826 26.8326C37.5994 28.7397 36.7771 30.914 35.6981 32.4543C34.1996 34.3928 32.1514 35.8455 29.6697 36.2049C29.5202 36.2215 29.3707 36.2382 29.2167 36.2554C28.4488 36.3544 28.0699 36.5861 27.4963 37.0893C25.6658 38.5519 23.3728 38.8985 21.1002 38.6996C19.5386 38.4915 17.8355 37.7905 16.659 36.7221C16.1701 36.3497 15.7589 36.279 15.1667 36.2133C12.7348 35.8597 10.7885 34.6086 9.24105 32.7155C8.1855 31.2929 7.5624 29.5716 7.44634 27.8018C7.33736 27.3386 7.24093 27.227 6.92379 26.8916C5.28492 25.1414 4.93862 22.7809 5.00582 20.4739C5.10016 18.7457 5.77136 17.1597 6.90693 15.8589C7.40682 15.2461 7.47833 14.6853 7.56434 13.913C7.8117 11.8053 9.00045 9.94499 10.5622 8.55417C12.0193 7.40502 13.8167 6.49574 15.7061 6.45289C16.4095 6.38486 16.8875 5.86277 17.4207 5.43938C18.8242 4.38049 20.5713 3.98876 22.297 4.00024Z" fill="#070707"/>
<path d="M27.3039 7.75568C27.6214 7.71032 27.8083 7.70893 28.1115 7.81731C28.5119 8.21772 28.779 8.67438 29.0554 9.16584C29.1211 9.27727 29.1869 9.38869 29.2546 9.5035C29.7547 10.4145 29.9994 11.361 29.9994 12.4023C29.8784 12.419 29.7574 12.4357 29.6328 12.4529C28.3801 12.6599 27.3754 13.0492 26.2593 13.6508C25.819 13.8857 25.819 13.8857 25.4144 14.0206C25.3701 13.8672 25.3257 13.7139 25.2801 13.5559C24.8417 12.11 24.2768 10.9287 23.3916 9.70525C24.4346 8.56405 25.8376 8.08879 27.3039 7.75568Z" fill="#F9F9F9"/>
<path d="M13.4135 13.7509C13.4602 13.9564 13.4602 13.9564 13.5078 14.166C13.9287 16.0973 13.9287 16.0973 14.85 17.8155C15.0318 18.0662 15.0318 18.0662 15.0318 18.4708C14.924 18.4906 14.8162 18.5104 14.7052 18.5308C13.1956 18.8391 11.9346 19.4174 10.7165 20.3587C9.492 19.3092 8.96514 17.5768 8.77637 16.0171C8.82852 15.6389 8.82852 15.6389 9.08558 15.3723C9.20101 15.299 9.31643 15.2256 9.43536 15.15C9.5593 15.0711 9.68324 14.9922 9.81094 14.9109C9.93176 14.8396 10.0526 14.7683 10.177 14.6949C10.2687 14.6403 10.3603 14.5857 10.4547 14.5295C11.3558 14.0386 12.3836 13.7138 13.4135 13.7509Z" fill="#F9F9F9"/>
<path d="M10.5832 22.3809C10.9837 22.5729 11.3541 22.7928 11.7294 23.0298C12.7498 23.6448 13.8304 24.1868 15.0333 24.2688C14.8594 24.7216 14.6621 25.147 14.4349 25.5752C13.887 26.6629 13.6308 27.7961 13.4151 28.9887C11.8398 28.9503 10.4705 28.3308 9.23466 27.3704C9.15696 27.3108 9.07925 27.2512 8.9992 27.1897C8.6813 26.7689 8.82312 26.2948 8.87909 25.7964C9.10967 24.5912 9.70252 23.2615 10.5832 22.3809Z" fill="#FAFAFA"/>
<path d="M25.2795 28.7207C25.9579 28.9835 26.6106 29.2952 27.2681 29.6057C27.9389 29.902 28.586 30.0976 29.3083 30.2209C29.5038 30.2548 29.5038 30.2548 29.7034 30.2894C29.8499 30.3139 29.8499 30.3139 29.9994 30.3389C29.9924 31.8542 29.3638 33.4255 28.3864 34.5837C27.939 34.9179 27.5513 34.9045 27.0084 34.8549C25.7671 34.64 24.6846 34.1934 23.6613 33.4406C23.4801 33.1408 23.4801 33.1408 23.3916 32.9012C23.4519 32.821 23.5122 32.7409 23.5744 32.6583C24.4718 31.428 25.0595 30.2349 25.2795 28.7207Z" fill="#FAFAFA"/>
<path d="M19.4816 28.7207C19.509 28.88 19.509 28.88 19.5369 29.0426C19.8275 30.5129 20.4058 31.749 21.3695 32.9012C21.0803 33.5684 20.6618 33.8029 20.021 34.1148C19.3548 34.3768 18.6859 34.5912 17.9982 34.7891C17.8188 34.8483 17.8188 34.8483 17.6358 34.9087C17.3043 34.9898 17.1135 35.0165 16.7845 34.9239C15.7006 34.0749 15.0806 32.4762 14.817 31.1533C14.7786 30.8194 14.7786 30.8194 14.7617 30.3389C14.8987 30.3078 15.0357 30.2767 15.1768 30.2446C17.1081 29.8238 17.1081 29.8238 18.8263 28.9024C19.077 28.7207 19.077 28.7207 19.4816 28.7207Z" fill="#FAFAFA"/>
<path d="M17.0727 7.76172C17.6776 7.82594 18.2079 7.96717 18.782 8.16259C18.9414 8.21595 18.9414 8.21595 19.1041 8.27038C19.9605 8.57253 20.6745 8.97992 21.3695 9.57012C21.2918 9.70415 21.2141 9.83817 21.1341 9.97626C20.4017 11.2595 19.6811 12.5714 19.3467 14.0203C19.221 13.9584 19.0954 13.8965 18.9659 13.8327C17.6085 13.1753 16.2638 12.6297 14.7617 12.402C14.8621 10.8713 15.3968 9.62554 16.2451 8.35644C16.3006 8.25475 16.356 8.15306 16.4131 8.04828C16.6497 7.81703 16.6497 7.81703 17.0727 7.76172Z" fill="#FAFAFA"/>
<path d="M29.8662 7.95312C32.0941 8.54326 33.8928 9.75918 35.0712 11.7675C35.7997 13.1778 35.7997 13.1778 35.7997 13.8867C35.3475 13.7119 34.9183 13.5133 34.4849 13.2967C33.4844 12.8342 32.4228 12.6285 31.3496 12.4033C31.3379 12.3068 31.3263 12.2103 31.3143 12.1109C31.1153 10.6995 30.7122 9.38221 29.8662 8.22283C29.8662 8.13383 29.8662 8.04483 29.8662 7.95312Z" fill="#F5F5F5"/>
<path d="M7.47976 17.2559C7.56876 17.2559 7.65777 17.2559 7.74947 17.2559C7.79379 17.4199 7.79379 17.4199 7.83902 17.5872C8.22716 18.9425 8.74682 20.0705 9.63741 21.1666C9.63741 21.3001 9.63741 21.4336 9.63741 21.5712C9.54841 21.5712 9.4594 21.5712 9.3677 21.5712C9.3312 21.6699 9.29469 21.7686 9.25708 21.8704C9.10406 22.2311 8.92585 22.5261 8.7103 22.8523C8.22718 23.6361 7.98524 24.4622 7.74947 25.347C7.66046 25.347 7.57146 25.347 7.47976 25.347C6.48054 23.5466 6.07741 21.6387 6.50313 19.5979C6.74663 18.7715 7.06555 18.0103 7.47976 17.2559Z" fill="#F6F6F6"/>
<path d="M22.1793 34.1133C22.624 34.1786 22.9068 34.3581 23.2665 34.619C24.2627 35.3006 25.314 35.7562 26.4946 36.0012C25.6028 37.0108 24.0711 37.2902 22.7903 37.384C21.1198 37.4375 19.6355 37.1203 18.2686 36.1361C18.7078 35.9022 19.1572 35.7381 19.6255 35.5714C20.5162 35.2342 21.4943 34.7983 22.1793 34.1133Z" fill="#F6F6F6"/>
<path d="M35.6658 28.9883C35.3788 30.739 34.4313 32.1486 33.1036 33.3036C32.2328 33.924 31.1045 34.6521 30.002 34.6521C30.1442 34.1897 30.3108 33.7614 30.5245 33.3289C30.9574 32.385 31.1325 31.3468 31.3505 30.3368C31.5852 30.2925 31.5852 30.2925 31.8246 30.2473C33.0129 30.0103 34.0378 29.7429 35.1011 29.1463C35.3961 28.9883 35.3961 28.9883 35.6658 28.9883Z" fill="#F7F7F7"/>
<path d="M26.4946 6.46812C26.4946 6.55712 26.4946 6.64612 26.4946 6.73782C26.4063 6.75764 26.318 6.77746 26.227 6.79787C24.8239 7.1427 23.5917 7.74276 22.449 8.62577C22.0485 8.43371 21.6781 8.21386 21.3028 7.97678C20.3628 7.40862 19.3579 6.92236 18.2686 6.73782C18.2686 6.64882 18.2686 6.55982 18.2686 6.46812C19.0591 6.04357 19.8297 5.75543 20.6959 5.52414C20.7787 5.49894 20.8614 5.47373 20.9467 5.44776C22.8967 5.05278 24.7377 5.68001 26.4946 6.46812Z" fill="#F6F6F6"/>
<path d="M8.96484 28.8555C9.37154 29.008 9.75322 29.1836 10.1364 29.3865C11.1677 29.907 12.2852 30.1345 13.415 30.3389C13.4593 30.5566 13.4593 30.5566 13.5045 30.7787C13.7551 31.951 14.0623 32.981 14.6055 34.0552C14.7635 34.3844 14.7635 34.3844 14.7635 34.6542C13.0071 34.4774 11.571 33.3642 10.4535 32.0509C9.85271 31.2507 8.96484 29.8846 8.96484 28.8555Z" fill="#F6F6F6"/>
<path d="M14.7635 8.08789C14.6283 8.43318 14.4886 8.77363 14.3342 9.11088C13.8474 10.1937 13.6107 11.2383 13.415 12.4032C13.3185 12.4148 13.222 12.4265 13.1226 12.4385C11.7112 12.6375 10.3939 13.0405 9.23455 13.8866C9.14555 13.8866 9.05654 13.8866 8.96484 13.8866C9.20108 11.9794 10.454 10.4828 11.87 9.27997C12.6948 8.66232 13.7093 8.08789 14.7635 8.08789Z" fill="#F7F7F7"/>
<path d="M31.3512 13.752C32.7434 13.7584 34.1191 14.3157 35.2619 15.1005C35.2619 15.1895 35.2619 15.2785 35.2619 15.3702C34.6142 15.6397 33.9661 15.9085 33.3178 16.1768C33.0972 16.2682 32.8767 16.3598 32.6562 16.4515C32.3397 16.5832 32.023 16.7142 31.7062 16.8451C31.6073 16.8864 31.5084 16.9277 31.4065 16.9703C30.7076 17.2581 30.7076 17.2581 30.4072 17.2581C30.5497 16.7429 30.7024 16.2371 30.8792 15.7326C31.0996 15.0837 31.2316 14.4259 31.3512 13.752Z" fill="#F7F7F7"/>
<path d="M28.3823 25.0801C29.3502 25.882 29.7715 27.1087 30.0006 28.3166C30.0041 28.5413 30.0048 28.7661 30.0006 28.9908C28.5392 28.9553 27.2105 28.4498 26.0898 27.5074C26.0898 27.4184 26.0898 27.3294 26.0898 27.2377C26.2785 27.1135 26.4675 26.9899 26.6582 26.869C27.3333 26.3904 27.8856 25.7358 28.3823 25.0801Z" fill="#F3F3F3"/>
<path d="M30.4072 25.4844C31.4676 25.8195 32.4894 26.2324 33.5173 26.6559C33.6871 26.7256 33.857 26.7952 34.0269 26.8648C34.4387 27.0336 34.8504 27.2028 35.2619 27.3723C34.3723 28.3433 33.1626 28.7407 31.8906 28.9906C31.7126 28.9906 31.5346 28.9906 31.3512 28.9906C31.3283 28.8586 31.3053 28.7267 31.2817 28.5907C31.1135 27.667 30.9405 26.8194 30.511 25.9748C30.4072 25.7541 30.4072 25.7541 30.4072 25.4844Z" fill="#F9F9F9"/>
<path d="M30.0006 13.7522C29.9082 15.1835 29.3734 16.3043 28.6521 17.5281C28.5185 17.5281 28.385 17.5281 28.2475 17.5281C28.0998 17.3111 27.9525 17.0938 27.8076 16.8749C27.3281 16.28 26.6918 15.8354 26.0898 15.3705C27.0548 14.3325 28.5594 13.6622 30.0006 13.7522Z" fill="#F4F4F4"/>
<path d="M14.7641 13.752C16.2246 13.85 17.2759 14.3825 18.54 15.1005C18.54 15.505 18.54 15.505 18.2734 15.7769C18.1556 15.8763 18.0377 15.9757 17.9163 16.0782C17.3458 16.5733 16.8567 17.076 16.3823 17.6627C15.499 16.9429 15.0246 15.6466 14.7641 14.5611C14.7388 14.0807 14.7388 14.0807 14.7641 13.752Z" fill="#F6F6F6"/>
<path d="M16.2451 25.0801C16.3341 25.0801 16.4231 25.0801 16.5148 25.0801C16.7145 25.3171 16.7145 25.3171 16.9447 25.6363C17.4241 26.2722 17.9498 26.8764 18.6725 27.2377C18.5376 27.6423 18.5376 27.6423 18.1541 27.8741C17.9906 27.9558 17.8262 28.0358 17.6611 28.1143C17.5756 28.1557 17.4902 28.1972 17.4022 28.2399C16.5348 28.6536 15.7369 29.0196 14.7617 28.9908C14.7973 27.5294 15.3028 26.2007 16.2451 25.0801Z" fill="#F4F4F4"/>
<path d="M15.5728 19.6854C15.5509 19.7832 15.5289 19.8809 15.5062 19.9816C15.4421 20.3372 15.4225 20.655 15.4248 21.0155C15.4255 21.1948 15.4255 21.1948 15.4261 21.3777C15.4273 21.5007 15.4284 21.6236 15.4296 21.7504C15.4302 21.876 15.4308 22.0016 15.4314 22.131C15.433 22.4396 15.4352 22.7482 15.438 23.0568C14.0155 22.8758 12.6043 22.4478 11.6621 21.3037C12.792 20.3616 14.0685 19.6424 15.5728 19.6854Z" fill="#F5F5F5"/>
<path d="M22.3155 10.6484C23.4596 11.5907 23.8876 13.0019 24.0686 14.4243C23.9904 14.4236 23.9123 14.4229 23.8317 14.4222C23.4752 14.4194 23.1187 14.4176 22.7622 14.4159C22.6392 14.4148 22.5162 14.4136 22.3895 14.4125C22.2102 14.4118 22.2102 14.4118 22.0274 14.4112C21.9179 14.4104 21.8084 14.4097 21.6957 14.409C21.3515 14.4253 21.033 14.4837 20.6973 14.5592C20.6973 13.6015 20.9294 12.9149 21.3547 12.0728C21.4021 11.9787 21.4496 11.8846 21.4985 11.7876C21.7294 11.3467 21.9527 10.9876 22.3155 10.6484Z" fill="#F5F5F5"/>
<path d="M20.6985 28.1797C20.792 28.2016 20.8855 28.2235 20.9819 28.2461C21.9896 28.4226 23.066 28.3664 24.0698 28.1797C23.995 29.701 23.3272 30.8717 22.4516 32.0904C21.9314 31.6162 21.63 31.1913 21.3474 30.548C21.2816 30.4008 21.2157 30.2536 21.1478 30.1019C20.8798 29.4472 20.6565 28.8937 20.6985 28.1797Z" fill="#F8F8F8"/>
<path d="M10.9884 8.22266C11.0774 8.26716 11.1664 8.31166 11.2581 8.35751C10.635 8.98053 10.012 9.60355 9.37012 10.2455C9.37012 9.62493 9.76088 9.32752 10.1792 8.89692C10.4417 8.65984 10.7099 8.44141 10.9884 8.22266Z" fill="#1D1D1D"/>
</svg>
