<svg width="42" height="42" viewBox="0 0 42 42" fill="none" xmlns="http://www.w3.org/2000/svg">
<path d="M28.4359 5.52824C28.5615 5.57833 28.6871 5.62842 28.8166 5.68002C31.6504 6.83731 34.6903 8.96312 36.5043 11.4734C36.5043 11.5435 36.5043 11.6136 36.5043 11.6858C36.5744 11.6858 36.6445 11.6858 36.7167 11.6858C36.8442 11.8278 36.8442 11.8278 36.9862 12.0283C37.0649 12.139 37.0649 12.139 37.1452 12.252C37.2009 12.3323 37.2565 12.4125 37.3138 12.4953C37.3709 12.5771 37.428 12.6588 37.4868 12.7431C39.3708 15.4765 39.3708 15.4765 39.3708 16.5693C38.9646 16.5941 38.7434 16.5431 38.3954 16.3371C35.7455 14.9552 32.3247 15.024 29.529 15.8792C28.7951 16.1228 27.925 16.4432 27.3742 16.994C26.9088 17.0588 26.6746 16.9168 26.2927 16.6622C24.7636 15.7304 22.9836 15.3854 21.2167 15.2953C21.0878 15.2886 21.0878 15.2886 20.9563 15.2817C18.8411 15.2277 16.6394 15.6873 14.8738 16.8733C14.5835 17.0197 14.4253 17.04 14.1037 16.994C13.8404 16.8538 13.8404 16.8538 13.553 16.6622C12.0238 15.7304 10.2439 15.3856 8.47699 15.2953C8.39228 15.2908 8.30757 15.2863 8.22029 15.2817C6.39908 15.2346 4.33551 15.5325 2.74869 16.4719C2.48645 16.5897 2.28532 16.5867 2.00098 16.5693C2.0568 15.9668 2.29032 15.5143 2.57161 14.9901C2.64175 14.8581 2.64175 14.8581 2.71331 14.7234C3.15399 13.9113 3.65831 13.1514 4.20124 12.4047C4.2965 12.2723 4.38974 12.1385 4.48148 12.0036C4.60505 11.8233 4.73568 11.6479 4.86741 11.4734C4.93748 11.4734 5.00755 11.4734 5.07974 11.4734C5.10273 11.4169 5.12572 11.3604 5.14941 11.3022C5.34454 10.9556 5.60561 10.6803 5.87597 10.3919C5.93311 10.3307 5.99026 10.2695 6.04913 10.2064C7.32676 8.85257 8.77558 7.72838 10.3879 6.80221C10.4484 6.76748 10.5088 6.73276 10.571 6.69698C15.9649 3.62891 22.688 3.09402 28.4359 5.52824Z" fill="#D90B16"/>
<path d="M19.6267 16.3558C19.9784 16.3527 20.3301 16.3508 20.6817 16.3492C20.7821 16.3483 20.8825 16.3474 20.9859 16.3465C21.1291 16.346 21.1291 16.346 21.2752 16.3454C21.4078 16.3446 21.4078 16.3446 21.5431 16.3438C21.75 16.3558 21.75 16.3558 21.8562 16.462C21.8676 16.6848 21.8715 16.908 21.8725 17.1312C21.8732 17.2373 21.8732 17.2373 21.8739 17.3455C21.8754 17.5843 21.876 17.823 21.8767 18.0618C21.8775 18.2323 21.8784 18.4029 21.8793 18.5734C21.8821 19.1354 21.8837 19.6974 21.8852 20.2594C21.8858 20.4529 21.8864 20.6464 21.8869 20.8399C21.8892 21.6455 21.8912 22.451 21.8924 23.2565C21.8941 24.41 21.8976 25.5635 21.9037 26.717C21.9078 27.5283 21.9099 28.3395 21.9105 29.1508C21.9108 29.6351 21.9121 30.1193 21.9156 30.6035C21.9188 31.06 21.9194 31.5165 21.9182 31.9731C21.9181 32.1398 21.919 32.3065 21.9209 32.4732C21.9349 33.7924 21.7308 34.931 20.7904 35.9166C19.9383 36.677 19.1921 36.9898 18.0608 36.9915C17.97 36.9941 17.8791 36.9967 17.7855 36.9993C16.8703 37.0035 16.093 36.6757 15.3802 36.1023C14.8142 35.4767 14.3495 34.8682 14.292 34.0056C14.3185 33.6606 14.3185 33.6606 14.4247 33.3421C14.4948 33.3421 14.5648 33.3421 14.637 33.3421C14.637 33.272 14.637 33.2019 14.637 33.1297C15.0311 32.867 15.4535 32.8445 15.911 32.9174C16.3691 33.1821 16.5605 33.4952 16.7603 33.9791C16.7603 34.0491 16.7603 34.1192 16.7603 34.1914C16.8304 34.1914 16.9004 34.1914 16.9726 34.1914C16.9726 34.2615 16.9726 34.3315 16.9726 34.4037C17.7228 34.7038 18.3457 34.7038 19.0959 34.4037C19.0959 34.3336 19.0959 34.2636 19.0959 34.1914C19.166 34.1914 19.2361 34.1914 19.3082 34.1914C19.4719 33.6809 19.5476 33.2509 19.5501 32.71C19.5508 32.6395 19.5514 32.5691 19.552 32.4965C19.5538 32.2626 19.5541 32.0287 19.5544 31.7948C19.5554 31.6263 19.5565 31.4578 19.5577 31.2893C19.5606 30.8334 19.5622 30.3774 19.5635 29.9214C19.5652 29.4444 19.568 28.9673 19.5708 28.4902C19.5757 27.5875 19.5796 26.6848 19.5832 25.782C19.5872 24.754 19.5925 23.726 19.5978 22.698C19.6088 20.584 19.6182 18.4699 19.6267 16.3558Z" fill="#D90B16"/>
</svg>
